<svg version="1.1" xmlns="http://www.w3.org/2000/svg" viewBox="0 0 1676.6325044058985 820.9036842012802" >
  <!-- svg-source:excalidraw -->
  <!-- payload-type:application/vnd.excalidraw+json --><!-- payload-version:2 -->
  <defs>
    <style class="style-fonts">
      @font-face {
        font-family: "Virgil";
        src: url("https://files.hellointerview.com/build-assets/PRODUCTION/_next/static/media/Excalifont-s.p.436754fa.woff2");
      }
      @font-face {
        font-family: "Cascadia";
        src: url("https://file%2B.vscode-resource.vscode-cdn.net/Users/iamnafets/.cursor/extensions/pomdtr.excalidraw-editor-3.7.4/public//dist/excalidraw-assets/Cascadia.woff2");
      }
      @font-face {
        font-family: "Assistant";
        src: url("https://file%2B.vscode-resource.vscode-cdn.net/Users/iamnafets/.cursor/extensions/pomdtr.excalidraw-editor-3.7.4/public//dist/excalidraw-assets/Assistant-Regular.woff2");
      }
    </style>
    
  </defs>
  <rect x="0" y="0" width="1676.6325044058985" height="820.9036842012802" fill="#ffffff"></rect><g stroke-linecap="round" transform="translate(144.56556492953405 344.1240091486234) rotate(0 134.74371016990517 30.697428344635682)"><path d="M15.35 0 C98.88 0, 182.41 0, 254.14 0 M15.35 0 C92.15 0, 168.95 0, 254.14 0 M254.14 0 C264.37 0, 269.49 5.12, 269.49 15.35 M254.14 0 C264.37 0, 269.49 5.12, 269.49 15.35 M269.49 15.35 C269.49 23.42, 269.49 31.49, 269.49 46.05 M269.49 15.35 C269.49 23.93, 269.49 32.52, 269.49 46.05 M269.49 46.05 C269.49 56.28, 264.37 61.39, 254.14 61.39 M269.49 46.05 C269.49 56.28, 264.37 61.39, 254.14 61.39 M254.14 61.39 C180.99 61.39, 107.84 61.39, 15.35 61.39 M254.14 61.39 C205.61 61.39, 157.08 61.39, 15.35 61.39 M15.35 61.39 C5.12 61.39, 0 56.28, 0 46.05 M15.35 61.39 C5.12 61.39, 0 56.28, 0 46.05 M0 46.05 C0 39.54, 0 33.04, 0 15.35 M0 46.05 C0 35.8, 0 25.55, 0 15.35 M0 15.35 C0 5.12, 5.12 0, 15.35 0 M0 15.35 C0 5.12, 5.12 0, 15.35 0" stroke="#1e1e1e" stroke-width="1" fill="none"></path></g><g transform="translate(221.5413002459236 364.82143749325905) rotate(0 57.767974853515625 10)"><text x="57.767974853515625" y="0" font-family="Virgil, Segoe UI Emoji" font-size="16px" fill="#1e1e1e" text-anchor="middle" style="white-space: pre;" direction="ltr" dominant-baseline="text-before-edge">Frontier Queue</text></g><g stroke-linecap="round" transform="translate(551.6879109441679 306.9559376397883) rotate(0 82.35880551299124 72.60410217068733)"><path d="M32 0 C66.73 0, 101.46 0, 132.72 0 M32 0 C67.84 0, 103.69 0, 132.72 0 M132.72 0 C154.05 0, 164.72 10.67, 164.72 32 M132.72 0 C154.05 0, 164.72 10.67, 164.72 32 M164.72 32 C164.72 56.76, 164.72 81.52, 164.72 113.21 M164.72 32 C164.72 54.57, 164.72 77.13, 164.72 113.21 M164.72 113.21 C164.72 134.54, 154.05 145.21, 132.72 145.21 M164.72 113.21 C164.72 134.54, 154.05 145.21, 132.72 145.21 M132.72 145.21 C99.54 145.21, 66.35 145.21, 32 145.21 M132.72 145.21 C103.56 145.21, 74.41 145.21, 32 145.21 M32 145.21 C10.67 145.21, 0 134.54, 0 113.21 M32 145.21 C10.67 145.21, 0 134.54, 0 113.21 M0 113.21 C0 83.29, 0 53.37, 0 32 M0 113.21 C0 86.7, 0 60.18, 0 32 M0 32 C0 10.67, 10.67 0, 32 0 M0 32 C0 10.67, 10.67 0, 32 0" stroke="#1e1e1e" stroke-width="1" fill="none"></path></g><g transform="translate(571.1427552755185 339.56003981047564) rotate(0 62.903961181640625 40)"><text x="62.903961181640625" y="0" font-family="Virgil, Segoe UI Emoji" font-size="16px" fill="#1e1e1e" text-anchor="middle" style="white-space: pre;" direction="ltr" dominant-baseline="text-before-edge">Crawler</text><text x="62.903961181640625" y="20" font-family="Virgil, Segoe UI Emoji" font-size="16px" fill="#1e1e1e" text-anchor="middle" style="white-space: pre;" direction="ltr" dominant-baseline="text-before-edge">- fetch &amp;store </text><text x="62.903961181640625" y="40" font-family="Virgil, Segoe UI Emoji" font-size="16px" fill="#1e1e1e" text-anchor="middle" style="white-space: pre;" direction="ltr" dominant-baseline="text-before-edge">webpage</text><text x="62.903961181640625" y="60" font-family="Virgil, Segoe UI Emoji" font-size="16px" fill="#1e1e1e" text-anchor="middle" style="white-space: pre;" direction="ltr" dominant-baseline="text-before-edge"></text></g><g stroke-linecap="round"><g transform="translate(423.2438925618162 372.82795651843026) rotate(0 61.6057586259908 -0.08987004394725773)"><path d="M0 0 C20.54 -0.03, 102.68 -0.15, 123.21 -0.18 M0 0 C20.54 -0.03, 102.68 -0.15, 123.21 -0.18" stroke="#1e1e1e" stroke-width="1" fill="none"></path></g><g transform="translate(423.2438925618162 372.82795651843026) rotate(0 61.6057586259908 -0.08987004394725773)"><path d="M95.04 10.12 C104.4 6.7, 113.76 3.28, 123.21 -0.18 M95.04 10.12 C103.39 7.07, 111.75 4.01, 123.21 -0.18" stroke="#1e1e1e" stroke-width="1" fill="none"></path></g><g transform="translate(423.2438925618162 372.82795651843026) rotate(0 61.6057586259908 -0.08987004394725773)"><path d="M95.01 -10.4 C104.38 -7, 113.75 -3.61, 123.21 -0.18 M95.01 -10.4 C103.37 -7.37, 111.74 -4.34, 123.21 -0.18" stroke="#1e1e1e" stroke-width="1" fill="none"></path></g></g><mask></mask><g stroke-linecap="round" transform="translate(451.24525935212023 74.22811953258861) rotate(0 51.79958325055122 27.29598334796686)"><path d="M13.65 0 C40 0, 66.35 0, 89.95 0 M13.65 0 C43.19 0, 72.73 0, 89.95 0 M89.95 0 C99.05 0, 103.6 4.55, 103.6 13.65 M89.95 0 C99.05 0, 103.6 4.55, 103.6 13.65 M103.6 13.65 C103.6 22.22, 103.6 30.8, 103.6 40.94 M103.6 13.65 C103.6 21.79, 103.6 29.93, 103.6 40.94 M103.6 40.94 C103.6 50.04, 99.05 54.59, 89.95 54.59 M103.6 40.94 C103.6 50.04, 99.05 54.59, 89.95 54.59 M89.95 54.59 C68.17 54.59, 46.39 54.59, 13.65 54.59 M89.95 54.59 C73.64 54.59, 57.33 54.59, 13.65 54.59 M13.65 54.59 C4.55 54.59, 0 50.04, 0 40.94 M13.65 54.59 C4.55 54.59, 0 50.04, 0 40.94 M0 40.94 C0 30.58, 0 20.22, 0 13.65 M0 40.94 C0 33.63, 0 26.32, 0 13.65 M0 13.65 C0 4.55, 4.55 0, 13.65 0 M0 13.65 C0 4.55, 4.55 0, 13.65 0" stroke="#1e1e1e" stroke-width="1" fill="none"></path></g><g transform="translate(486.7888535279644 91.52410288055546) rotate(0 16.25598907470703 10)"><text x="16.25598907470703" y="0" font-family="Virgil, Segoe UI Emoji" font-size="16px" fill="#1e1e1e" text-anchor="middle" style="white-space: pre;" direction="ltr" dominant-baseline="text-before-edge">DNS</text></g><g stroke-linecap="round" transform="translate(665.920869812323 10) rotate(0 65.71934302140744 61.35400666929533)"><path d="M30.68 0 C44.74 0, 58.8 0, 100.76 0 M30.68 0 C49.04 0, 67.41 0, 100.76 0 M100.76 0 C121.21 0, 131.44 10.23, 131.44 30.68 M100.76 0 C121.21 0, 131.44 10.23, 131.44 30.68 M131.44 30.68 C131.44 46.82, 131.44 62.96, 131.44 92.03 M131.44 30.68 C131.44 45.31, 131.44 59.95, 131.44 92.03 M131.44 92.03 C131.44 112.48, 121.21 122.71, 100.76 122.71 M131.44 92.03 C131.44 112.48, 121.21 122.71, 100.76 122.71 M100.76 122.71 C74.02 122.71, 47.27 122.71, 30.68 122.71 M100.76 122.71 C78.93 122.71, 57.1 122.71, 30.68 122.71 M30.68 122.71 C10.23 122.71, 0 112.48, 0 92.03 M30.68 122.71 C10.23 122.71, 0 112.48, 0 92.03 M0 92.03 C0 78.54, 0 65.04, 0 30.68 M0 92.03 C0 68.44, 0 44.86, 0 30.68 M0 30.68 C0 10.23, 10.23 0, 30.68 0 M0 30.68 C0 10.23, 10.23 0, 30.68 0" stroke="#1e1e1e" stroke-width="1" fill="none"></path></g><g transform="translate(699.5682371257226 61.35400666929533) rotate(0 32.07197570800781 10)"><text x="32.07197570800781" y="0" font-family="Virgil, Segoe UI Emoji" font-size="16px" fill="#1e1e1e" text-anchor="middle" style="white-space: pre;" direction="ltr" dominant-baseline="text-before-edge">Webpage</text></g><g stroke-linecap="round"><g transform="translate(505.37048844783294 142.59471296443098) rotate(0 40.78889213057664 78.0411436467767)"><path d="M0 0 C13.6 26.01, 67.98 130.07, 81.58 156.08 M0 0 C13.6 26.01, 67.98 130.07, 81.58 156.08" stroke="#1e1e1e" stroke-width="1" fill="none"></path></g><g transform="translate(505.37048844783294 142.59471296443098) rotate(0 40.78889213057664 78.0411436467767)"><path d="M22.15 20.23 C13.34 12.19, 4.54 4.14, 0 0 M22.15 20.23 C16.17 14.77, 10.19 9.3, 0 0" stroke="#1e1e1e" stroke-width="1" fill="none"></path></g><g transform="translate(505.37048844783294 142.59471296443098) rotate(0 40.78889213057664 78.0411436467767)"><path d="M3.96 29.74 C2.39 17.91, 0.81 6.09, 0 0 M3.96 29.74 C2.89 21.71, 1.82 13.67, 0 0" stroke="#1e1e1e" stroke-width="1" fill="none"></path></g><g transform="translate(505.37048844783294 142.59471296443098) rotate(0 40.78889213057664 78.0411436467767)"><path d="M59.43 135.85 C68.23 143.89, 77.04 151.94, 81.58 156.08 M59.43 135.85 C65.41 141.31, 71.39 146.78, 81.58 156.08" stroke="#1e1e1e" stroke-width="1" fill="none"></path></g><g transform="translate(505.37048844783294 142.59471296443098) rotate(0 40.78889213057664 78.0411436467767)"><path d="M77.61 126.35 C79.19 138.17, 80.77 149.99, 81.58 156.08 M77.61 126.35 C78.68 134.38, 79.75 142.41, 81.58 156.08" stroke="#1e1e1e" stroke-width="1" fill="none"></path></g></g><mask></mask><g stroke-linecap="round"><g transform="translate(647.9151550779507 295.55061206248774) rotate(0 42.552637195224634 -76.34772688092855)"><path d="M0 0 C14.18 -25.45, 70.92 -127.25, 85.11 -152.7 M0 0 C14.18 -25.45, 70.92 -127.25, 85.11 -152.7" stroke="#1e1e1e" stroke-width="1" fill="none"></path></g><g transform="translate(647.9151550779507 295.55061206248774) rotate(0 42.552637195224634 -76.34772688092855)"><path d="M4.76 -29.62 C2.89 -17.99, 1.02 -6.36, 0 0 M4.76 -29.62 C3.01 -18.74, 1.26 -7.86, 0 0" stroke="#1e1e1e" stroke-width="1" fill="none"></path></g><g transform="translate(647.9151550779507 295.55061206248774) rotate(0 42.552637195224634 -76.34772688092855)"><path d="M22.69 -19.63 C13.78 -11.92, 4.87 -4.21, 0 0 M22.69 -19.63 C14.35 -12.42, 6.02 -5.21, 0 0" stroke="#1e1e1e" stroke-width="1" fill="none"></path></g><g transform="translate(647.9151550779507 295.55061206248774) rotate(0 42.552637195224634 -76.34772688092855)"><path d="M80.34 -123.08 C82.21 -134.71, 84.08 -146.34, 85.11 -152.7 M80.34 -123.08 C82.09 -133.95, 83.84 -144.83, 85.11 -152.7" stroke="#1e1e1e" stroke-width="1" fill="none"></path></g><g transform="translate(647.9151550779507 295.55061206248774) rotate(0 42.552637195224634 -76.34772688092855)"><path d="M62.42 -133.07 C71.33 -140.77, 80.23 -148.48, 85.11 -152.7 M62.42 -133.07 C70.75 -140.28, 79.08 -147.49, 85.11 -152.7" stroke="#1e1e1e" stroke-width="1" fill="none"></path></g></g><mask></mask><g mask="url(#mask-QcR4Ekph687_hy9wMHE4G)" stroke-linecap="round"><g transform="translate(740.0193634653888 369.25201218164784) rotate(0 117.26663298245103 -37.78678624499253)"><path d="M0 0 C39.09 -12.6, 195.44 -62.98, 234.53 -75.57 M0 0 C39.09 -12.6, 195.44 -62.98, 234.53 -75.57" stroke="#1e1e1e" stroke-width="1" fill="none"></path></g><g transform="translate(740.0193634653888 369.25201218164784) rotate(0 117.26663298245103 -37.78678624499253)"><path d="M210.85 -57.16 C217.08 -62, 223.3 -66.84, 234.53 -75.57 M210.85 -57.16 C217.47 -62.31, 224.09 -67.46, 234.53 -75.57" stroke="#1e1e1e" stroke-width="1" fill="none"></path></g><g transform="translate(740.0193634653888 369.25201218164784) rotate(0 117.26663298245103 -37.78678624499253)"><path d="M204.55 -76.69 C212.44 -76.4, 220.32 -76.1, 234.53 -75.57 M204.55 -76.69 C212.94 -76.38, 221.32 -76.07, 234.53 -75.57" stroke="#1e1e1e" stroke-width="1" fill="none"></path></g></g><mask id="mask-QcR4Ekph687_hy9wMHE4G"><rect x="0" y="0" fill="#fff" width="1074.5526294302908" height="544.8255846716329"></rect><rect x="795.1180200684453" y="321.4652259366553" fill="#000" width="124.33595275878906" height="20" opacity="1"></rect></mask><g transform="translate(795.1180200684453 321.4652259366553) rotate(0 62.16797637939453 10)"><text x="62.16797637939453" y="0" font-family="Virgil, Segoe UI Emoji" font-size="16px" fill="#1e1e1e" text-anchor="middle" style="white-space: pre;" direction="ltr" dominant-baseline="text-before-edge">Save raw HTML</text></g><g stroke-linecap="round" transform="translate(986.3482314370385 193.025388428111) rotate(0 83.68252896753256 79.42056656086663)"><path d="M167.37 79.42 C167.37 82.19, 167.21 84.97, 166.91 87.72 C166.6 90.47, 166.14 93.23, 165.54 95.93 C164.93 98.64, 164.17 101.33, 163.27 103.96 C162.37 106.59, 161.32 109.2, 160.13 111.72 C158.94 114.25, 157.61 116.73, 156.15 119.13 C154.7 121.53, 153.1 123.86, 151.38 126.1 C149.67 128.34, 147.82 130.51, 145.87 132.56 C143.92 134.62, 141.84 136.59, 139.68 138.44 C137.51 140.29, 135.23 142.05, 132.87 143.67 C130.51 145.3, 128.05 146.82, 125.52 148.2 C123 149.58, 120.38 150.85, 117.72 151.97 C115.06 153.1, 112.31 154.1, 109.54 154.95 C106.77 155.81, 103.93 156.53, 101.08 157.11 C98.23 157.68, 95.33 158.12, 92.43 158.41 C89.53 158.7, 86.6 158.84, 83.68 158.84 C80.77 158.84, 77.84 158.7, 74.94 158.41 C72.04 158.12, 69.14 157.68, 66.28 157.11 C63.43 156.53, 60.6 155.81, 57.82 154.95 C55.05 154.1, 52.31 153.1, 49.65 151.97 C46.98 150.85, 44.37 149.58, 41.84 148.2 C39.32 146.82, 36.85 145.3, 34.5 143.67 C32.14 142.05, 29.85 140.29, 27.69 138.44 C25.52 136.59, 23.45 134.62, 21.49 132.56 C19.54 130.51, 17.7 128.34, 15.98 126.1 C14.27 123.86, 12.67 121.53, 11.21 119.13 C9.75 116.73, 8.42 114.25, 7.23 111.72 C6.05 109.2, 5 106.59, 4.1 103.96 C3.19 101.33, 2.43 98.64, 1.83 95.93 C1.22 93.23, 0.76 90.47, 0.46 87.72 C0.15 84.97, 0 82.19, 0 79.42 C0 76.65, 0.15 73.87, 0.46 71.12 C0.76 68.37, 1.22 65.61, 1.83 62.91 C2.43 60.2, 3.19 57.51, 4.1 54.88 C5 52.25, 6.05 49.65, 7.23 47.12 C8.42 44.59, 9.75 42.11, 11.21 39.71 C12.67 37.31, 14.27 34.98, 15.98 32.74 C17.7 30.5, 19.54 28.33, 21.49 26.28 C23.45 24.22, 25.52 22.25, 27.69 20.4 C29.85 18.55, 32.14 16.79, 34.5 15.17 C36.85 13.54, 39.32 12.02, 41.84 10.64 C44.37 9.26, 46.98 7.99, 49.65 6.87 C52.31 5.74, 55.05 4.74, 57.82 3.89 C60.6 3.03, 63.43 2.31, 66.28 1.74 C69.14 1.16, 72.04 0.72, 74.94 0.44 C77.84 0.15, 80.77 0, 83.68 0 C86.6 0, 89.53 0.15, 92.43 0.44 C95.33 0.72, 98.23 1.16, 101.08 1.74 C103.93 2.31, 106.77 3.03, 109.54 3.89 C112.31 4.74, 115.06 5.74, 117.72 6.87 C120.38 7.99, 123 9.26, 125.52 10.64 C128.05 12.02, 130.51 13.54, 132.87 15.17 C135.23 16.79, 137.51 18.55, 139.68 20.4 C141.84 22.25, 143.92 24.22, 145.87 26.28 C147.82 28.33, 149.67 30.5, 151.38 32.74 C153.1 34.98, 154.7 37.31, 156.15 39.71 C157.61 42.11, 158.94 44.59, 160.13 47.12 C161.32 49.65, 162.37 52.25, 163.27 54.88 C164.17 57.51, 164.93 60.2, 165.54 62.91 C166.14 65.61, 166.6 68.37, 166.91 71.12 C167.21 73.87, 167.29 78.04, 167.37 79.42 C167.44 80.8, 167.44 78.04, 167.37 79.42" stroke="#1e1e1e" stroke-width="1" fill="none"></path></g><g transform="translate(1029.7862857379923 252.28713380811126) rotate(0 40.071990966796875 19.999999999999993)"><text x="40.071990966796875" y="0" font-family="Virgil, Segoe UI Emoji" font-size="16px" fill="#1e1e1e" text-anchor="middle" style="white-space: pre;" direction="ltr" dominant-baseline="text-before-edge">S3 HTML </text><text x="40.071990966796875" y="20" font-family="Virgil, Segoe UI Emoji" font-size="16px" fill="#1e1e1e" text-anchor="middle" style="white-space: pre;" direction="ltr" dominant-baseline="text-before-edge">Data</text></g><g stroke-linecap="round" transform="translate(987.6097901879994 425.1225971229969) rotate(0 83.68252896753256 79.42056656086663)"><path d="M167.37 79.42 C167.37 82.19, 167.21 84.97, 166.91 87.72 C166.6 90.47, 166.14 93.23, 165.54 95.93 C164.93 98.64, 164.17 101.33, 163.27 103.96 C162.37 106.59, 161.32 109.2, 160.13 111.72 C158.94 114.25, 157.61 116.73, 156.15 119.13 C154.7 121.53, 153.1 123.86, 151.38 126.1 C149.67 128.34, 147.82 130.51, 145.87 132.56 C143.92 134.62, 141.84 136.59, 139.68 138.44 C137.51 140.29, 135.23 142.05, 132.87 143.67 C130.51 145.3, 128.05 146.82, 125.52 148.2 C123 149.58, 120.38 150.85, 117.72 151.97 C115.06 153.1, 112.31 154.1, 109.54 154.95 C106.77 155.81, 103.93 156.53, 101.08 157.11 C98.23 157.68, 95.33 158.12, 92.43 158.41 C89.53 158.7, 86.6 158.84, 83.68 158.84 C80.77 158.84, 77.84 158.7, 74.94 158.41 C72.04 158.12, 69.14 157.68, 66.28 157.11 C63.43 156.53, 60.6 155.81, 57.82 154.95 C55.05 154.1, 52.31 153.1, 49.65 151.97 C46.98 150.85, 44.37 149.58, 41.84 148.2 C39.32 146.82, 36.85 145.3, 34.5 143.67 C32.14 142.05, 29.85 140.29, 27.69 138.44 C25.52 136.59, 23.45 134.62, 21.49 132.56 C19.54 130.51, 17.7 128.34, 15.98 126.1 C14.27 123.86, 12.67 121.53, 11.21 119.13 C9.75 116.73, 8.42 114.25, 7.23 111.72 C6.05 109.2, 5 106.59, 4.1 103.96 C3.19 101.33, 2.43 98.64, 1.83 95.93 C1.22 93.23, 0.76 90.47, 0.46 87.72 C0.15 84.97, 0 82.19, 0 79.42 C0 76.65, 0.15 73.87, 0.46 71.12 C0.76 68.37, 1.22 65.61, 1.83 62.91 C2.43 60.2, 3.19 57.51, 4.1 54.88 C5 52.25, 6.05 49.65, 7.23 47.12 C8.42 44.59, 9.75 42.11, 11.21 39.71 C12.67 37.31, 14.27 34.98, 15.98 32.74 C17.7 30.5, 19.54 28.33, 21.49 26.28 C23.45 24.22, 25.52 22.25, 27.69 20.4 C29.85 18.55, 32.14 16.79, 34.5 15.17 C36.85 13.54, 39.32 12.02, 41.84 10.64 C44.37 9.26, 46.98 7.99, 49.65 6.87 C52.31 5.74, 55.05 4.74, 57.82 3.89 C60.6 3.03, 63.43 2.31, 66.28 1.74 C69.14 1.16, 72.04 0.72, 74.94 0.44 C77.84 0.15, 80.77 0, 83.68 0 C86.6 0, 89.53 0.15, 92.43 0.44 C95.33 0.72, 98.23 1.16, 101.08 1.74 C103.93 2.31, 106.77 3.03, 109.54 3.89 C112.31 4.74, 115.06 5.74, 117.72 6.87 C120.38 7.99, 123 9.26, 125.52 10.64 C128.05 12.02, 130.51 13.54, 132.87 15.17 C135.23 16.79, 137.51 18.55, 139.68 20.4 C141.84 22.25, 143.92 24.22, 145.87 26.28 C147.82 28.33, 149.67 30.5, 151.38 32.74 C153.1 34.98, 154.7 37.31, 156.15 39.71 C157.61 42.11, 158.94 44.59, 160.13 47.12 C161.32 49.65, 162.37 52.25, 163.27 54.88 C164.17 57.51, 164.93 60.2, 165.54 62.91 C166.14 65.61, 166.6 68.37, 166.91 71.12 C167.21 73.87, 167.29 78.04, 167.37 79.42 C167.44 80.8, 167.44 78.04, 167.37 79.42" stroke="#1e1e1e" stroke-width="1" fill="none"></path></g><g transform="translate(1031.0158544376836 484.3843425029972) rotate(0 40.103981018066406 20)"><text x="40.103981018066406" y="0" font-family="Virgil, Segoe UI Emoji" font-size="16px" fill="#1e1e1e" text-anchor="middle" style="white-space: pre;" direction="ltr" dominant-baseline="text-before-edge">URL </text><text x="40.103981018066406" y="20" font-family="Virgil, Segoe UI Emoji" font-size="16px" fill="#1e1e1e" text-anchor="middle" style="white-space: pre;" direction="ltr" dominant-baseline="text-before-edge">Metadata</text></g><g mask="url(#mask-ThhcTF4vud-rVoTmJQEVz)" stroke-linecap="round"><g transform="translate(736.9979584247476 399.2812524397077) rotate(0 120.83568153400074 50.66543626400494)"><path d="M0 0 C40.28 16.89, 201.39 84.44, 241.67 101.33 M0 0 C40.28 16.89, 201.39 84.44, 241.67 101.33" stroke="#1e1e1e" stroke-width="1" fill="none"></path></g><g transform="translate(736.9979584247476 399.2812524397077) rotate(0 120.83568153400074 50.66543626400494)"><path d="M211.71 99.89 C219.41 100.26, 227.11 100.63, 241.67 101.33 M211.71 99.89 C223.19 100.44, 234.68 101, 241.67 101.33" stroke="#1e1e1e" stroke-width="1" fill="none"></path></g><g transform="translate(736.9979584247476 399.2812524397077) rotate(0 120.83568153400074 50.66543626400494)"><path d="M219.64 80.97 C225.31 86.2, 230.97 91.44, 241.67 101.33 M219.64 80.97 C228.09 88.77, 236.53 96.58, 241.67 101.33" stroke="#1e1e1e" stroke-width="1" fill="none"></path></g></g><mask id="mask-ThhcTF4vud-rVoTmJQEVz"><rect x="0" y="0" fill="#fff" width="1078.669321492749" height="600.6121249677176"></rect><rect x="777.8576878103108" y="439.94668870371265" fill="#000" width="159.951904296875" height="20" opacity="1"></rect></mask><g transform="translate(777.8576878103108 439.94668870371265) rotate(0 79.9759521484375 10)"><text x="79.9759521484375" y="0" font-family="Virgil, Segoe UI Emoji" font-size="16px" fill="#1e1e1e" text-anchor="middle" style="white-space: pre;" direction="ltr" dominant-baseline="text-before-edge">Update URL status</text></g><g transform="translate(1182.685994088421 441.6670109515753) rotate(0 62.11994934082031 50)"><text x="0" y="0" font-family="Virgil, Segoe UI Emoji" font-size="16px" fill="#1e1e1e" text-anchor="start" style="white-space: pre;" direction="ltr" dominant-baseline="text-before-edge">URL</text><text x="0" y="20" font-family="Virgil, Segoe UI Emoji" font-size="16px" fill="#1e1e1e" text-anchor="start" style="white-space: pre;" direction="ltr" dominant-baseline="text-before-edge">- id</text><text x="0" y="40" font-family="Virgil, Segoe UI Emoji" font-size="16px" fill="#1e1e1e" text-anchor="start" style="white-space: pre;" direction="ltr" dominant-baseline="text-before-edge">- url</text><text x="0" y="60" font-family="Virgil, Segoe UI Emoji" font-size="16px" fill="#1e1e1e" text-anchor="start" style="white-space: pre;" direction="ltr" dominant-baseline="text-before-edge">- s3Link</text><text x="0" y="80" font-family="Virgil, Segoe UI Emoji" font-size="16px" fill="#1e1e1e" text-anchor="start" style="white-space: pre;" direction="ltr" dominant-baseline="text-before-edge">- lastCrawlTime</text></g><g stroke-linecap="round" transform="translate(964.9651088748533 642.926437257739) rotate(0 165.60260491201188 33.11013306086761)"><path d="M16.56 0 C96.8 0, 177.04 0, 314.65 0 M16.56 0 C130.73 0, 244.91 0, 314.65 0 M314.65 0 C325.69 0, 331.21 5.52, 331.21 16.56 M314.65 0 C325.69 0, 331.21 5.52, 331.21 16.56 M331.21 16.56 C331.21 29.26, 331.21 41.96, 331.21 49.67 M331.21 16.56 C331.21 24.06, 331.21 31.56, 331.21 49.67 M331.21 49.67 C331.21 60.7, 325.69 66.22, 314.65 66.22 M331.21 49.67 C331.21 60.7, 325.69 66.22, 314.65 66.22 M314.65 66.22 C196.22 66.22, 77.8 66.22, 16.56 66.22 M314.65 66.22 C247.94 66.22, 181.24 66.22, 16.56 66.22 M16.56 66.22 C5.52 66.22, 0 60.7, 0 49.67 M16.56 66.22 C5.52 66.22, 0 60.7, 0 49.67 M0 49.67 C0 40.66, 0 31.66, 0 16.56 M0 49.67 C0 39.36, 0 29.06, 0 16.56 M0 16.56 C0 5.52, 5.52 0, 16.56 0 M0 16.56 C0 5.52, 5.52 0, 16.56 0" stroke="#1e1e1e" stroke-width="1" fill="none"></path></g><g transform="translate(1075.1837416188964 666.0365703186067) rotate(0 55.38397216796875 10)"><text x="55.38397216796875" y="0" font-family="Virgil, Segoe UI Emoji" font-size="16px" fill="#1e1e1e" text-anchor="middle" style="white-space: pre;" direction="ltr" dominant-baseline="text-before-edge">Parsing Queue</text></g><g stroke-linecap="round"><g transform="translate(1314.9396527143927 671.4385482076113) rotate(0 65.82115124170764 -0.6114265203177638)"><path d="M0 0 C21.94 -0.2, 109.7 -1.02, 131.64 -1.22 M0 0 C21.94 -0.2, 109.7 -1.02, 131.64 -1.22" stroke="#1e1e1e" stroke-width="1" fill="none"></path></g><g transform="translate(1314.9396527143927 671.4385482076113) rotate(0 65.82115124170764 -0.6114265203177638)"><path d="M103.55 9.3 C112.15 6.08, 120.76 2.85, 131.64 -1.22 M103.55 9.3 C109.26 7.16, 114.97 5.02, 131.64 -1.22" stroke="#1e1e1e" stroke-width="1" fill="none"></path></g><g transform="translate(1314.9396527143927 671.4385482076113) rotate(0 65.82115124170764 -0.6114265203177638)"><path d="M103.36 -11.22 C112.02 -8.16, 120.69 -5.1, 131.64 -1.22 M103.36 -11.22 C109.11 -9.19, 114.85 -7.16, 131.64 -1.22" stroke="#1e1e1e" stroke-width="1" fill="none"></path></g></g><mask></mask><g mask="url(#mask-_dehjRWtWwlnlxja9m7gB)" stroke-linecap="round"><g transform="translate(1443.4276484951451 639.8626547455688) rotate(0 -145.7007245882703 -41.32325649379413)"><path d="M0 0 C-48.57 -13.77, -242.83 -68.87, -291.4 -82.65 M0 0 C-48.57 -13.77, -242.83 -68.87, -291.4 -82.65" stroke="#1e1e1e" stroke-width="1" fill="none"></path></g><g transform="translate(1443.4276484951451 639.8626547455688) rotate(0 -145.7007245882703 -41.32325649379413)"><path d="M-261.48 -84.83 C-268.49 -84.32, -275.49 -83.81, -291.4 -82.65 M-261.48 -84.83 C-272.41 -84.03, -283.34 -83.23, -291.4 -82.65" stroke="#1e1e1e" stroke-width="1" fill="none"></path></g><g transform="translate(1443.4276484951451 639.8626547455688) rotate(0 -145.7007245882703 -41.32325649379413)"><path d="M-267.08 -65.08 C-272.77 -69.2, -278.47 -73.31, -291.4 -82.65 M-267.08 -65.08 C-275.96 -71.5, -284.85 -77.92, -291.4 -82.65" stroke="#1e1e1e" stroke-width="1" fill="none"></path></g></g><mask id="mask-_dehjRWtWwlnlxja9m7gB"><rect x="0" y="0" fill="#fff" width="1834.8290976716858" height="822.509167733157"></rect><rect x="1248.390955889297" y="588.5393982517746" fill="#000" width="98.67193603515625" height="20" opacity="1"></rect></mask><g transform="translate(1248.3909558892967 588.5393982517746) rotate(0 49.335968017578125 10)"><text x="49.335968017578125" y="0" font-family="Virgil, Segoe UI Emoji" font-size="16px" fill="#1e1e1e" text-anchor="middle" style="white-space: pre;" direction="ltr" dominant-baseline="text-before-edge">Fetch s3 url</text></g><g mask="url(#mask-Tjn4o4ySlPxW5AAh-xvDx)" stroke-linecap="round"><g transform="translate(1537.842324501402 575.4283589836268) rotate(0 -182.458776978037 -155.0259987969639)"><path d="M0 0 C-9.7 -39.2, 2.62 -183.52, -58.2 -235.19 C-119.02 -286.87, -313.8 -297.58, -364.92 -310.05 M0 0 C-9.7 -39.2, 2.62 -183.52, -58.2 -235.19 C-119.02 -286.87, -313.8 -297.58, -364.92 -310.05" stroke="#1e1e1e" stroke-width="1" fill="none"></path></g><g transform="translate(1537.842324501402 575.4283589836268) rotate(0 -182.458776978037 -155.0259987969639)"><path d="M-13.6 -26.74 C-8.76 -17.23, -3.93 -7.72, 0 0 M-13.6 -26.74 C-9.83 -19.32, -6.05 -11.9, 0 0" stroke="#1e1e1e" stroke-width="1" fill="none"></path></g><g transform="translate(1537.842324501402 575.4283589836268) rotate(0 -182.458776978037 -155.0259987969639)"><path d="M6.77 -29.23 C4.36 -18.83, 1.95 -8.44, 0 0 M6.77 -29.23 C4.89 -21.12, 3.01 -13.01, 0 0" stroke="#1e1e1e" stroke-width="1" fill="none"></path></g><g transform="translate(1537.842324501402 575.4283589836268) rotate(0 -182.458776978037 -155.0259987969639)"><path d="M-335.49 -315.9 C-345.96 -313.82, -356.42 -311.74, -364.92 -310.05 M-335.49 -315.9 C-343.66 -314.28, -351.82 -312.66, -364.92 -310.05" stroke="#1e1e1e" stroke-width="1" fill="none"></path></g><g transform="translate(1537.842324501402 575.4283589836268) rotate(0 -182.458776978037 -155.0259987969639)"><path d="M-338.62 -295.62 C-347.97 -300.75, -357.32 -305.88, -364.92 -310.05 M-338.62 -295.62 C-345.91 -299.62, -353.21 -303.63, -364.92 -310.05" stroke="#1e1e1e" stroke-width="1" fill="none"></path></g></g><mask id="mask-Tjn4o4ySlPxW5AAh-xvDx"><rect x="0" y="0" fill="#fff" width="2002.759878457476" height="985.4803565775546"></rect><rect x="1369.8261020929926" y="320.2350582482327" fill="#000" width="219.6318817138672" height="40" opacity="1"></rect></mask><g transform="translate(1369.8261020929929 320.2350582482327) rotate(0 -14.442554569627987 100.16730193843023)"><text x="109.8159408569336" y="0" font-family="Virgil, Segoe UI Emoji" font-size="16px" fill="#1e1e1e" text-anchor="middle" style="white-space: pre;" direction="ltr" dominant-baseline="text-before-edge">1. Download HTML from S3</text><text x="109.8159408569336" y="20" font-family="Virgil, Segoe UI Emoji" font-size="16px" fill="#1e1e1e" text-anchor="middle" style="white-space: pre;" direction="ltr" dominant-baseline="text-before-edge">2. Save parsed text to S3</text></g><g stroke-linecap="round" transform="translate(1461.2990177684514 585.3911907806068) rotate(0 84.8720526040911 70.82648922341605)"><path d="M32 0 C62.18 0, 92.36 0, 137.74 0 M32 0 C54.61 0, 77.21 0, 137.74 0 M137.74 0 C159.08 0, 169.74 10.67, 169.74 32 M137.74 0 C159.08 0, 169.74 10.67, 169.74 32 M169.74 32 C169.74 61.48, 169.74 90.97, 169.74 109.65 M169.74 32 C169.74 52.8, 169.74 73.6, 169.74 109.65 M169.74 109.65 C169.74 130.99, 159.08 141.65, 137.74 141.65 M169.74 109.65 C169.74 130.99, 159.08 141.65, 137.74 141.65 M137.74 141.65 C108.92 141.65, 80.09 141.65, 32 141.65 M137.74 141.65 C110.46 141.65, 83.18 141.65, 32 141.65 M32 141.65 C10.67 141.65, 0 130.99, 0 109.65 M32 141.65 C10.67 141.65, 0 130.99, 0 109.65 M0 109.65 C0 93.54, 0 77.42, 0 32 M0 109.65 C0 91.57, 0 73.49, 0 32 M0 32 C0 10.67, 10.67 0, 32 0 M0 32 C0 10.67, 10.67 0, 32 0" stroke="#1e1e1e" stroke-width="1" fill="none"></path></g><g transform="translate(1488.7151148671715 646.2176800040229) rotate(0 57.455955505371094 10)"><text x="57.455955505371094" y="0" font-family="Virgil, Segoe UI Emoji" font-size="16px" fill="#1e1e1e" text-anchor="middle" style="white-space: pre;" direction="ltr" dominant-baseline="text-before-edge">Parsing Worker</text></g><g stroke-linecap="round"><g transform="translate(634.1755797736996 467.95141083213) rotate(0 157.55932042019117 105.57137601376644)"><path d="M0 0 C6.43 29.51, -13.91 141.85, 38.61 177.04 C91.13 212.23, 269.03 205.46, 315.12 211.14 M0 0 C6.43 29.51, -13.91 141.85, 38.61 177.04 C91.13 212.23, 269.03 205.46, 315.12 211.14" stroke="#1e1e1e" stroke-width="1" fill="none"></path></g><g transform="translate(634.1755797736996 467.95141083213) rotate(0 157.55932042019117 105.57137601376644)"><path d="M286.49 220.1 C297.41 216.68, 308.34 213.26, 315.12 211.14 M286.49 220.1 C295.41 217.31, 304.33 214.52, 315.12 211.14" stroke="#1e1e1e" stroke-width="1" fill="none"></path></g><g transform="translate(634.1755797736996 467.95141083213) rotate(0 157.55932042019117 105.57137601376644)"><path d="M287.43 199.6 C298 204, 308.56 208.41, 315.12 211.14 M287.43 199.6 C296.05 203.2, 304.68 206.79, 315.12 211.14" stroke="#1e1e1e" stroke-width="1" fill="none"></path></g></g><mask></mask><g mask="url(#mask-YwuBndvqxuE6e0HYNfrnM)" stroke-linecap="round"><g transform="translate(1558.9008556867634 736.2622422757358) rotate(0 -753.7635730621876 -159.22282638873958)"><path d="M0 0 C-192.4 5.35, -905.08 75.21, -1154.38 32.12 C-1403.67 -10.97, -1450.07 -192.44, -1495.78 -258.55 C-1541.49 -324.66, -1439.83 -346.87, -1428.64 -364.53 M0 0 C-192.4 5.35, -905.08 75.21, -1154.38 32.12 C-1403.67 -10.97, -1450.07 -192.44, -1495.78 -258.55 C-1541.49 -324.66, -1439.83 -346.87, -1428.64 -364.53" stroke="#1e1e1e" stroke-width="1" fill="none"></path></g><g transform="translate(1558.9008556867634 736.2622422757358) rotate(0 -753.7635730621876 -159.22282638873958)"><path d="M-1446.72 -340.6 C-1439.79 -349.77, -1432.86 -358.95, -1428.64 -364.53 M-1446.72 -340.6 C-1442.58 -346.08, -1438.43 -351.56, -1428.64 -364.53" stroke="#1e1e1e" stroke-width="1" fill="none"></path></g><g transform="translate(1558.9008556867634 736.2622422757358) rotate(0 -753.7635730621876 -159.22282638873958)"><path d="M-1457.88 -357.82 C-1446.67 -360.39, -1435.46 -362.97, -1428.64 -364.53 M-1457.88 -357.82 C-1451.18 -359.36, -1444.48 -360.9, -1428.64 -364.53" stroke="#1e1e1e" stroke-width="1" fill="none"></path></g></g><mask id="mask-YwuBndvqxuE6e0HYNfrnM"><rect x="0" y="0" fill="#fff" width="3154.6812248528586" height="1232.9161982068995"></rect><rect x="110.26929234843647" y="648.4035607041278" fill="#000" width="163.1678924560547" height="40" opacity="1"></rect></mask><g transform="translate(110.26929234843647 648.4035607041279) rotate(0 694.8679902761394 -71.36414481713166)"><text x="81.58394622802734" y="0" font-family="Virgil, Segoe UI Emoji" font-size="16px" fill="#1e1e1e" text-anchor="middle" style="white-space: pre;" direction="ltr" dominant-baseline="text-before-edge">Put extracted Urls </text><text x="81.58394622802734" y="20" font-family="Virgil, Segoe UI Emoji" font-size="16px" fill="#1e1e1e" text-anchor="middle" style="white-space: pre;" direction="ltr" dominant-baseline="text-before-edge">back on the queue</text></g><g stroke-linecap="round" transform="translate(10 183.2306472359969) rotate(0 828.3162522029493 313.8365184826416)"><path d="M32 0 C549.81 0, 1067.62 0, 1624.63 0 M1624.63 0 C1645.97 0, 1656.63 10.67, 1656.63 32 M1656.63 32 C1656.63 192.94, 1656.63 353.88, 1656.63 595.67 M1656.63 595.67 C1656.63 617.01, 1645.97 627.67, 1624.63 627.67 M1624.63 627.67 C1214.38 627.67, 804.12 627.67, 32 627.67 M32 627.67 C10.67 627.67, 0 617.01, 0 595.67 M0 595.67 C0 394.8, 0 193.93, 0 32 M0 32 C0 10.67, 10.67 0, 32 0" stroke="#1e1e1e" stroke-width="1.5" fill="none" stroke-dasharray="8 9"></path></g></svg>