<svg version="1.1" xmlns="http://www.w3.org/2000/svg" viewBox="0 0 1676.6325044058985 821.2647067925245" >
  <!-- svg-source:excalidraw -->
  <!-- payload-type:application/vnd.excalidraw+json --><!-- payload-version:2 -->
  <defs>
    <style class="style-fonts">
      @font-face {
        font-family: "Virgil";
        src: url("https://files.hellointerview.com/build-assets/PRODUCTION/_next/static/media/Excalifont-s.p.436754fa.woff2");
      }
      @font-face {
        font-family: "Cascadia";
        src: url("https://file%2B.vscode-resource.vscode-cdn.net/Users/iamnafets/.cursor/extensions/pomdtr.excalidraw-editor-3.7.4/public//dist/excalidraw-assets/Cascadia.woff2");
      }
      @font-face {
        font-family: "Assistant";
        src: url("https://file%2B.vscode-resource.vscode-cdn.net/Users/iamnafets/.cursor/extensions/pomdtr.excalidraw-editor-3.7.4/public//dist/excalidraw-assets/Assistant-Regular.woff2");
      }
    </style>
    
  </defs>
  <rect x="0" y="0" width="1676.6325044058985" height="821.2647067925245" fill="#ffffff"></rect><g stroke-linecap="round" transform="translate(144.56556492953496 344.28620770411) rotate(0 134.74371016990517 30.697428344635682)"><path d="M15.35 0 C96.02 0, 176.69 0, 254.14 0 M15.35 0 C95.65 0, 175.94 0, 254.14 0 M254.14 0 C264.37 0, 269.49 5.12, 269.49 15.35 M254.14 0 C264.37 0, 269.49 5.12, 269.49 15.35 M269.49 15.35 C269.49 25.31, 269.49 35.26, 269.49 46.05 M269.49 15.35 C269.49 23.39, 269.49 31.42, 269.49 46.05 M269.49 46.05 C269.49 56.28, 264.37 61.39, 254.14 61.39 M269.49 46.05 C269.49 56.28, 264.37 61.39, 254.14 61.39 M254.14 61.39 C175.59 61.39, 97.04 61.39, 15.35 61.39 M254.14 61.39 C187.32 61.39, 120.5 61.39, 15.35 61.39 M15.35 61.39 C5.12 61.39, 0 56.28, 0 46.05 M15.35 61.39 C5.12 61.39, 0 56.28, 0 46.05 M0 46.05 C0 36.93, 0 27.81, 0 15.35 M0 46.05 C0 37.86, 0 29.68, 0 15.35 M0 15.35 C0 5.12, 5.12 0, 15.35 0 M0 15.35 C0 5.12, 5.12 0, 15.35 0" stroke="#1e1e1e" stroke-width="1" fill="none"></path></g><g transform="translate(196.1493095843034 364.98363604874567) rotate(0 83.15996551513672 10)"><text x="83.15996551513672" y="0" font-family="Virgil, Segoe UI Emoji" font-size="16px" fill="#1e1e1e" text-anchor="middle" style="white-space: pre;" direction="ltr" dominant-baseline="text-before-edge">Frontier Queue (SQS)</text></g><g stroke-linecap="round" transform="translate(551.6879109441688 306.9559376397883) rotate(0 82.35880551299124 72.60410217068733)"><path d="M32 0 C55.27 0, 78.54 0, 132.72 0 M32 0 C55.41 0, 78.81 0, 132.72 0 M132.72 0 C154.05 0, 164.72 10.67, 164.72 32 M132.72 0 C154.05 0, 164.72 10.67, 164.72 32 M164.72 32 C164.72 48.94, 164.72 65.88, 164.72 113.21 M164.72 32 C164.72 52.43, 164.72 72.85, 164.72 113.21 M164.72 113.21 C164.72 134.54, 154.05 145.21, 132.72 145.21 M164.72 113.21 C164.72 134.54, 154.05 145.21, 132.72 145.21 M132.72 145.21 C106.69 145.21, 80.66 145.21, 32 145.21 M132.72 145.21 C98.47 145.21, 64.22 145.21, 32 145.21 M32 145.21 C10.67 145.21, 0 134.54, 0 113.21 M32 145.21 C10.67 145.21, 0 134.54, 0 113.21 M0 113.21 C0 95.86, 0 78.51, 0 32 M0 113.21 C0 89.92, 0 66.62, 0 32 M0 32 C0 10.67, 10.67 0, 32 0 M0 32 C0 10.67, 10.67 0, 32 0" stroke="#1e1e1e" stroke-width="1" fill="none"></path></g><g transform="translate(571.1427552755194 339.56003981047564) rotate(0 62.903961181640625 40)"><text x="62.903961181640625" y="0" font-family="Virgil, Segoe UI Emoji" font-size="16px" fill="#1e1e1e" text-anchor="middle" style="white-space: pre;" direction="ltr" dominant-baseline="text-before-edge">Crawler</text><text x="62.903961181640625" y="20" font-family="Virgil, Segoe UI Emoji" font-size="16px" fill="#1e1e1e" text-anchor="middle" style="white-space: pre;" direction="ltr" dominant-baseline="text-before-edge">- fetch &amp;store </text><text x="62.903961181640625" y="40" font-family="Virgil, Segoe UI Emoji" font-size="16px" fill="#1e1e1e" text-anchor="middle" style="white-space: pre;" direction="ltr" dominant-baseline="text-before-edge">webpage</text><text x="62.903961181640625" y="60" font-family="Virgil, Segoe UI Emoji" font-size="16px" fill="#1e1e1e" text-anchor="middle" style="white-space: pre;" direction="ltr" dominant-baseline="text-before-edge"></text></g><g stroke-linecap="round"><g transform="translate(423.2438925618171 372.9006481185552) rotate(0 61.6057586259908 -0.11194866972346063)"><path d="M0 0 C20.54 -0.04, 102.68 -0.19, 123.21 -0.22 M0 0 C20.54 -0.04, 102.68 -0.19, 123.21 -0.22" stroke="#1e1e1e" stroke-width="1" fill="none"></path></g><g transform="translate(423.2438925618171 372.9006481185552) rotate(0 61.6057586259908 -0.11194866972346063)"><path d="M95.04 10.09 C104.89 6.48, 114.73 2.88, 123.21 -0.22 M95.04 10.09 C101.85 7.59, 108.67 5.1, 123.21 -0.22" stroke="#1e1e1e" stroke-width="1" fill="none"></path></g><g transform="translate(423.2438925618171 372.9006481185552) rotate(0 61.6057586259908 -0.11194866972346063)"><path d="M95 -10.43 C104.86 -6.86, 114.72 -3.3, 123.21 -0.22 M95 -10.43 C101.83 -7.96, 108.65 -5.49, 123.21 -0.22" stroke="#1e1e1e" stroke-width="1" fill="none"></path></g></g><mask></mask><g stroke-linecap="round" transform="translate(451.24525935212114 74.22811953258861) rotate(0 51.79958325055122 27.29598334796686)"><path d="M13.65 0 C33.22 0, 52.79 0, 89.95 0 M13.65 0 C30.06 0, 46.46 0, 89.95 0 M89.95 0 C99.05 0, 103.6 4.55, 103.6 13.65 M89.95 0 C99.05 0, 103.6 4.55, 103.6 13.65 M103.6 13.65 C103.6 20.6, 103.6 27.56, 103.6 40.94 M103.6 13.65 C103.6 19.57, 103.6 25.48, 103.6 40.94 M103.6 40.94 C103.6 50.04, 99.05 54.59, 89.95 54.59 M103.6 40.94 C103.6 50.04, 99.05 54.59, 89.95 54.59 M89.95 54.59 C63.91 54.59, 37.87 54.59, 13.65 54.59 M89.95 54.59 C61.8 54.59, 33.64 54.59, 13.65 54.59 M13.65 54.59 C4.55 54.59, 0 50.04, 0 40.94 M13.65 54.59 C4.55 54.59, 0 50.04, 0 40.94 M0 40.94 C0 30.57, 0 20.19, 0 13.65 M0 40.94 C0 31.96, 0 22.97, 0 13.65 M0 13.65 C0 4.55, 4.55 0, 13.65 0 M0 13.65 C0 4.55, 4.55 0, 13.65 0" stroke="#1e1e1e" stroke-width="1" fill="none"></path></g><g transform="translate(486.78885352796533 91.52410288055546) rotate(0 16.25598907470703 10)"><text x="16.25598907470703" y="0" font-family="Virgil, Segoe UI Emoji" font-size="16px" fill="#1e1e1e" text-anchor="middle" style="white-space: pre;" direction="ltr" dominant-baseline="text-before-edge">DNS</text></g><g stroke-linecap="round" transform="translate(665.9208698123239 10) rotate(0 65.71934302140744 61.35400666929533)"><path d="M30.68 0 C55.42 0, 80.16 0, 100.76 0 M30.68 0 C56.18 0, 81.68 0, 100.76 0 M100.76 0 C121.21 0, 131.44 10.23, 131.44 30.68 M100.76 0 C121.21 0, 131.44 10.23, 131.44 30.68 M131.44 30.68 C131.44 47.97, 131.44 65.26, 131.44 92.03 M131.44 30.68 C131.44 54.51, 131.44 78.35, 131.44 92.03 M131.44 92.03 C131.44 112.48, 121.21 122.71, 100.76 122.71 M131.44 92.03 C131.44 112.48, 121.21 122.71, 100.76 122.71 M100.76 122.71 C82.15 122.71, 63.54 122.71, 30.68 122.71 M100.76 122.71 C84.78 122.71, 68.8 122.71, 30.68 122.71 M30.68 122.71 C10.23 122.71, 0 112.48, 0 92.03 M30.68 122.71 C10.23 122.71, 0 112.48, 0 92.03 M0 92.03 C0 76.33, 0 60.63, 0 30.68 M0 92.03 C0 76.53, 0 61.04, 0 30.68 M0 30.68 C0 10.23, 10.23 0, 30.68 0 M0 30.68 C0 10.23, 10.23 0, 30.68 0" stroke="#1e1e1e" stroke-width="1" fill="none"></path></g><g transform="translate(699.5682371257235 61.35400666929533) rotate(0 32.07197570800781 10)"><text x="32.07197570800781" y="0" font-family="Virgil, Segoe UI Emoji" font-size="16px" fill="#1e1e1e" text-anchor="middle" style="white-space: pre;" direction="ltr" dominant-baseline="text-before-edge">Webpage</text></g><g stroke-linecap="round"><g transform="translate(505.37048844783385 142.59471296443007) rotate(0 40.78889213057664 78.0411436467767)"><path d="M0 0 C13.6 26.01, 67.98 130.07, 81.58 156.08 M0 0 C13.6 26.01, 67.98 130.07, 81.58 156.08" stroke="#1e1e1e" stroke-width="1" fill="none"></path></g><g transform="translate(505.37048844783385 142.59471296443007) rotate(0 40.78889213057664 78.0411436467767)"><path d="M22.15 20.23 C17.19 15.7, 12.22 11.16, 0 0 M22.15 20.23 C15.74 14.38, 9.33 8.52, 0 0" stroke="#1e1e1e" stroke-width="1" fill="none"></path></g><g transform="translate(505.37048844783385 142.59471296443007) rotate(0 40.78889213057664 78.0411436467767)"><path d="M3.96 29.74 C3.08 23.07, 2.19 16.41, 0 0 M3.96 29.74 C2.82 21.13, 1.67 12.53, 0 0" stroke="#1e1e1e" stroke-width="1" fill="none"></path></g><g transform="translate(505.37048844783385 142.59471296443007) rotate(0 40.78889213057664 78.0411436467767)"><path d="M59.43 135.85 C64.39 140.38, 69.35 144.92, 81.58 156.08 M59.43 135.85 C65.84 141.71, 72.25 147.56, 81.58 156.08" stroke="#1e1e1e" stroke-width="1" fill="none"></path></g><g transform="translate(505.37048844783385 142.59471296443007) rotate(0 40.78889213057664 78.0411436467767)"><path d="M77.61 126.35 C78.5 133.01, 79.39 139.67, 81.58 156.08 M77.61 126.35 C78.76 134.95, 79.91 143.56, 81.58 156.08" stroke="#1e1e1e" stroke-width="1" fill="none"></path></g></g><mask></mask><g stroke-linecap="round"><g transform="translate(647.9151550779516 295.55061206248683) rotate(0 42.552637195224634 -76.34772688092855)"><path d="M0 0 C14.18 -25.45, 70.92 -127.25, 85.11 -152.7 M0 0 C14.18 -25.45, 70.92 -127.25, 85.11 -152.7" stroke="#1e1e1e" stroke-width="1" fill="none"></path></g><g transform="translate(647.9151550779516 295.55061206248683) rotate(0 42.552637195224634 -76.34772688092855)"><path d="M4.76 -29.62 C3.79 -23.58, 2.82 -17.54, 0 0 M4.76 -29.62 C3.55 -22.11, 2.35 -14.6, 0 0" stroke="#1e1e1e" stroke-width="1" fill="none"></path></g><g transform="translate(647.9151550779516 295.55061206248683) rotate(0 42.552637195224634 -76.34772688092855)"><path d="M22.69 -19.63 C18.06 -15.63, 13.44 -11.62, 0 0 M22.69 -19.63 C16.93 -14.65, 11.18 -9.67, 0 0" stroke="#1e1e1e" stroke-width="1" fill="none"></path></g><g transform="translate(647.9151550779516 295.55061206248683) rotate(0 42.552637195224634 -76.34772688092855)"><path d="M80.34 -123.08 C81.31 -129.12, 82.29 -135.15, 85.11 -152.7 M80.34 -123.08 C81.55 -130.59, 82.76 -138.1, 85.11 -152.7" stroke="#1e1e1e" stroke-width="1" fill="none"></path></g><g transform="translate(647.9151550779516 295.55061206248683) rotate(0 42.552637195224634 -76.34772688092855)"><path d="M62.42 -133.07 C67.04 -137.07, 71.67 -141.07, 85.11 -152.7 M62.42 -133.07 C68.17 -138.04, 73.93 -143.02, 85.11 -152.7" stroke="#1e1e1e" stroke-width="1" fill="none"></path></g></g><mask></mask><g mask="url(#mask-eGo5uQCe8TKDFWXhA0WG2)" stroke-linecap="round"><g transform="translate(740.0193634653897 369.25201218164875) rotate(0 117.26663298245103 -37.78678624499253)"><path d="M0 0 C39.09 -12.6, 195.44 -62.98, 234.53 -75.57 M0 0 C39.09 -12.6, 195.44 -62.98, 234.53 -75.57" stroke="#1e1e1e" stroke-width="1" fill="none"></path></g><g transform="translate(740.0193634653897 369.25201218164875) rotate(0 117.26663298245103 -37.78678624499253)"><path d="M210.85 -57.16 C218.53 -63.13, 226.21 -69.11, 234.53 -75.57 M210.85 -57.16 C217.05 -61.98, 223.25 -66.8, 234.53 -75.57" stroke="#1e1e1e" stroke-width="1" fill="none"></path></g><g transform="translate(740.0193634653897 369.25201218164875) rotate(0 117.26663298245103 -37.78678624499253)"><path d="M204.55 -76.69 C214.28 -76.33, 224 -75.97, 234.53 -75.57 M204.55 -76.69 C212.4 -76.4, 220.25 -76.11, 234.53 -75.57" stroke="#1e1e1e" stroke-width="1" fill="none"></path></g></g><mask id="mask-eGo5uQCe8TKDFWXhA0WG2"><rect x="0" y="0" fill="#fff" width="1074.5526294302917" height="544.8255846716338"></rect><rect x="795.1180200684462" y="321.4652259366562" fill="#000" width="124.33595275878906" height="20" opacity="1"></rect></mask><g transform="translate(795.1180200684462 321.4652259366562) rotate(0 62.16797637939453 10)"><text x="62.16797637939453" y="0" font-family="Virgil, Segoe UI Emoji" font-size="16px" fill="#1e1e1e" text-anchor="middle" style="white-space: pre;" direction="ltr" dominant-baseline="text-before-edge">Save raw HTML</text></g><g stroke-linecap="round" transform="translate(986.3482314370394 193.0253884281101) rotate(0 83.68252896753256 79.42056656086663)"><path d="M167.37 79.42 C167.37 82.19, 167.21 84.97, 166.91 87.72 C166.6 90.47, 166.14 93.23, 165.54 95.93 C164.93 98.64, 164.17 101.33, 163.27 103.96 C162.37 106.59, 161.32 109.2, 160.13 111.72 C158.94 114.25, 157.61 116.73, 156.15 119.13 C154.7 121.53, 153.1 123.86, 151.38 126.1 C149.67 128.34, 147.82 130.51, 145.87 132.56 C143.92 134.62, 141.84 136.59, 139.68 138.44 C137.51 140.29, 135.23 142.05, 132.87 143.67 C130.51 145.3, 128.05 146.82, 125.52 148.2 C123 149.58, 120.38 150.85, 117.72 151.97 C115.06 153.1, 112.31 154.1, 109.54 154.95 C106.77 155.81, 103.93 156.53, 101.08 157.11 C98.23 157.68, 95.33 158.12, 92.43 158.41 C89.53 158.7, 86.6 158.84, 83.68 158.84 C80.77 158.84, 77.84 158.7, 74.94 158.41 C72.04 158.12, 69.14 157.68, 66.28 157.11 C63.43 156.53, 60.6 155.81, 57.82 154.95 C55.05 154.1, 52.31 153.1, 49.65 151.97 C46.98 150.85, 44.37 149.58, 41.84 148.2 C39.32 146.82, 36.85 145.3, 34.5 143.67 C32.14 142.05, 29.85 140.29, 27.69 138.44 C25.52 136.59, 23.45 134.62, 21.49 132.56 C19.54 130.51, 17.7 128.34, 15.98 126.1 C14.27 123.86, 12.67 121.53, 11.21 119.13 C9.75 116.73, 8.42 114.25, 7.23 111.72 C6.05 109.2, 5 106.59, 4.1 103.96 C3.19 101.33, 2.43 98.64, 1.83 95.93 C1.22 93.23, 0.76 90.47, 0.46 87.72 C0.15 84.97, 0 82.19, 0 79.42 C0 76.65, 0.15 73.87, 0.46 71.12 C0.76 68.37, 1.22 65.61, 1.83 62.91 C2.43 60.2, 3.19 57.51, 4.1 54.88 C5 52.25, 6.05 49.65, 7.23 47.12 C8.42 44.59, 9.75 42.11, 11.21 39.71 C12.67 37.31, 14.27 34.98, 15.98 32.74 C17.7 30.5, 19.54 28.33, 21.49 26.28 C23.45 24.22, 25.52 22.25, 27.69 20.4 C29.85 18.55, 32.14 16.79, 34.5 15.17 C36.85 13.54, 39.32 12.02, 41.84 10.64 C44.37 9.26, 46.98 7.99, 49.65 6.87 C52.31 5.74, 55.05 4.74, 57.82 3.89 C60.6 3.03, 63.43 2.31, 66.28 1.74 C69.14 1.16, 72.04 0.72, 74.94 0.44 C77.84 0.15, 80.77 0, 83.68 0 C86.6 0, 89.53 0.15, 92.43 0.44 C95.33 0.72, 98.23 1.16, 101.08 1.74 C103.93 2.31, 106.77 3.03, 109.54 3.89 C112.31 4.74, 115.06 5.74, 117.72 6.87 C120.38 7.99, 123 9.26, 125.52 10.64 C128.05 12.02, 130.51 13.54, 132.87 15.17 C135.23 16.79, 137.51 18.55, 139.68 20.4 C141.84 22.25, 143.92 24.22, 145.87 26.28 C147.82 28.33, 149.67 30.5, 151.38 32.74 C153.1 34.98, 154.7 37.31, 156.15 39.71 C157.61 42.11, 158.94 44.59, 160.13 47.12 C161.32 49.65, 162.37 52.25, 163.27 54.88 C164.17 57.51, 164.93 60.2, 165.54 62.91 C166.14 65.61, 166.6 68.37, 166.91 71.12 C167.21 73.87, 167.29 78.04, 167.37 79.42 C167.44 80.8, 167.44 78.04, 167.37 79.42" stroke="#1e1e1e" stroke-width="1" fill="none"></path></g><g transform="translate(1029.7862857379932 252.28713380811035) rotate(0 40.071990966796875 20)"><text x="40.071990966796875" y="0" font-family="Virgil, Segoe UI Emoji" font-size="16px" fill="#1e1e1e" text-anchor="middle" style="white-space: pre;" direction="ltr" dominant-baseline="text-before-edge">S3 HTML </text><text x="40.071990966796875" y="20" font-family="Virgil, Segoe UI Emoji" font-size="16px" fill="#1e1e1e" text-anchor="middle" style="white-space: pre;" direction="ltr" dominant-baseline="text-before-edge">Data</text></g><g stroke-linecap="round" transform="translate(987.6097901880003 425.12259712299783) rotate(0 83.68252896753256 79.42056656086663)"><path d="M167.37 79.42 C167.37 82.19, 167.21 84.97, 166.91 87.72 C166.6 90.47, 166.14 93.23, 165.54 95.93 C164.93 98.64, 164.17 101.33, 163.27 103.96 C162.37 106.59, 161.32 109.2, 160.13 111.72 C158.94 114.25, 157.61 116.73, 156.15 119.13 C154.7 121.53, 153.1 123.86, 151.38 126.1 C149.67 128.34, 147.82 130.51, 145.87 132.56 C143.92 134.62, 141.84 136.59, 139.68 138.44 C137.51 140.29, 135.23 142.05, 132.87 143.67 C130.51 145.3, 128.05 146.82, 125.52 148.2 C123 149.58, 120.38 150.85, 117.72 151.97 C115.06 153.1, 112.31 154.1, 109.54 154.95 C106.77 155.81, 103.93 156.53, 101.08 157.11 C98.23 157.68, 95.33 158.12, 92.43 158.41 C89.53 158.7, 86.6 158.84, 83.68 158.84 C80.77 158.84, 77.84 158.7, 74.94 158.41 C72.04 158.12, 69.14 157.68, 66.28 157.11 C63.43 156.53, 60.6 155.81, 57.82 154.95 C55.05 154.1, 52.31 153.1, 49.65 151.97 C46.98 150.85, 44.37 149.58, 41.84 148.2 C39.32 146.82, 36.85 145.3, 34.5 143.67 C32.14 142.05, 29.85 140.29, 27.69 138.44 C25.52 136.59, 23.45 134.62, 21.49 132.56 C19.54 130.51, 17.7 128.34, 15.98 126.1 C14.27 123.86, 12.67 121.53, 11.21 119.13 C9.75 116.73, 8.42 114.25, 7.23 111.72 C6.05 109.2, 5 106.59, 4.1 103.96 C3.19 101.33, 2.43 98.64, 1.83 95.93 C1.22 93.23, 0.76 90.47, 0.46 87.72 C0.15 84.97, 0 82.19, 0 79.42 C0 76.65, 0.15 73.87, 0.46 71.12 C0.76 68.37, 1.22 65.61, 1.83 62.91 C2.43 60.2, 3.19 57.51, 4.1 54.88 C5 52.25, 6.05 49.65, 7.23 47.12 C8.42 44.59, 9.75 42.11, 11.21 39.71 C12.67 37.31, 14.27 34.98, 15.98 32.74 C17.7 30.5, 19.54 28.33, 21.49 26.28 C23.45 24.22, 25.52 22.25, 27.69 20.4 C29.85 18.55, 32.14 16.79, 34.5 15.17 C36.85 13.54, 39.32 12.02, 41.84 10.64 C44.37 9.26, 46.98 7.99, 49.65 6.87 C52.31 5.74, 55.05 4.74, 57.82 3.89 C60.6 3.03, 63.43 2.31, 66.28 1.74 C69.14 1.16, 72.04 0.72, 74.94 0.44 C77.84 0.15, 80.77 0, 83.68 0 C86.6 0, 89.53 0.15, 92.43 0.44 C95.33 0.72, 98.23 1.16, 101.08 1.74 C103.93 2.31, 106.77 3.03, 109.54 3.89 C112.31 4.74, 115.06 5.74, 117.72 6.87 C120.38 7.99, 123 9.26, 125.52 10.64 C128.05 12.02, 130.51 13.54, 132.87 15.17 C135.23 16.79, 137.51 18.55, 139.68 20.4 C141.84 22.25, 143.92 24.22, 145.87 26.28 C147.82 28.33, 149.67 30.5, 151.38 32.74 C153.1 34.98, 154.7 37.31, 156.15 39.71 C157.61 42.11, 158.94 44.59, 160.13 47.12 C161.32 49.65, 162.37 52.25, 163.27 54.88 C164.17 57.51, 164.93 60.2, 165.54 62.91 C166.14 65.61, 166.6 68.37, 166.91 71.12 C167.21 73.87, 167.29 78.04, 167.37 79.42 C167.44 80.8, 167.44 78.04, 167.37 79.42" stroke="#1e1e1e" stroke-width="1" fill="none"></path></g><g transform="translate(1031.0158544376845 484.3843425029981) rotate(0 40.103981018066406 20)"><text x="40.103981018066406" y="0" font-family="Virgil, Segoe UI Emoji" font-size="16px" fill="#1e1e1e" text-anchor="middle" style="white-space: pre;" direction="ltr" dominant-baseline="text-before-edge">URL </text><text x="40.103981018066406" y="20" font-family="Virgil, Segoe UI Emoji" font-size="16px" fill="#1e1e1e" text-anchor="middle" style="white-space: pre;" direction="ltr" dominant-baseline="text-before-edge">Metadata</text></g><g mask="url(#mask-vhSMjqDI70iEimV9Vi-MT)" stroke-linecap="round"><g transform="translate(736.9979584247485 399.2812524397086) rotate(0 120.83568153400074 50.66543626400494)"><path d="M0 0 C40.28 16.89, 201.39 84.44, 241.67 101.33 M0 0 C40.28 16.89, 201.39 84.44, 241.67 101.33" stroke="#1e1e1e" stroke-width="1" fill="none"></path></g><g transform="translate(736.9979584247485 399.2812524397086) rotate(0 120.83568153400074 50.66543626400494)"><path d="M211.71 99.89 C219.12 100.25, 226.54 100.6, 241.67 101.33 M211.71 99.89 C219.62 100.27, 227.52 100.65, 241.67 101.33" stroke="#1e1e1e" stroke-width="1" fill="none"></path></g><g transform="translate(736.9979584247485 399.2812524397086) rotate(0 120.83568153400074 50.66543626400494)"><path d="M219.64 80.97 C225.09 86.01, 230.55 91.05, 241.67 101.33 M219.64 80.97 C225.46 86.34, 231.27 91.72, 241.67 101.33" stroke="#1e1e1e" stroke-width="1" fill="none"></path></g></g><mask id="mask-vhSMjqDI70iEimV9Vi-MT"><rect x="0" y="0" fill="#fff" width="1078.66932149275" height="600.6121249677185"></rect><rect x="777.8576878103117" y="439.94668870371356" fill="#000" width="159.951904296875" height="20" opacity="1"></rect></mask><g transform="translate(777.8576878103117 439.94668870371356) rotate(0 79.9759521484375 10)"><text x="79.9759521484375" y="0" font-family="Virgil, Segoe UI Emoji" font-size="16px" fill="#1e1e1e" text-anchor="middle" style="white-space: pre;" direction="ltr" dominant-baseline="text-before-edge">Update URL status</text></g><g transform="translate(1182.6859940884215 441.66701095157623) rotate(0 62.11994934082031 50)"><text x="0" y="0" font-family="Virgil, Segoe UI Emoji" font-size="16px" fill="#1e1e1e" text-anchor="start" style="white-space: pre;" direction="ltr" dominant-baseline="text-before-edge">URL</text><text x="0" y="20" font-family="Virgil, Segoe UI Emoji" font-size="16px" fill="#1e1e1e" text-anchor="start" style="white-space: pre;" direction="ltr" dominant-baseline="text-before-edge">- id</text><text x="0" y="40" font-family="Virgil, Segoe UI Emoji" font-size="16px" fill="#1e1e1e" text-anchor="start" style="white-space: pre;" direction="ltr" dominant-baseline="text-before-edge">- url</text><text x="0" y="60" font-family="Virgil, Segoe UI Emoji" font-size="16px" fill="#1e1e1e" text-anchor="start" style="white-space: pre;" direction="ltr" dominant-baseline="text-before-edge">- s3Link</text><text x="0" y="80" font-family="Virgil, Segoe UI Emoji" font-size="16px" fill="#1e1e1e" text-anchor="start" style="white-space: pre;" direction="ltr" dominant-baseline="text-before-edge">- lastCrawlTime</text></g><g stroke-linecap="round" transform="translate(964.9651088748542 642.9264372577381) rotate(0 165.60260491201188 33.11013306086761)"><path d="M16.56 0 C127.34 0, 238.12 0, 314.65 0 M16.56 0 C86.93 0, 157.3 0, 314.65 0 M314.65 0 C325.69 0, 331.21 5.52, 331.21 16.56 M314.65 0 C325.69 0, 331.21 5.52, 331.21 16.56 M331.21 16.56 C331.21 25.36, 331.21 34.16, 331.21 49.67 M331.21 16.56 C331.21 27.72, 331.21 38.88, 331.21 49.67 M331.21 49.67 C331.21 60.7, 325.69 66.22, 314.65 66.22 M331.21 49.67 C331.21 60.7, 325.69 66.22, 314.65 66.22 M314.65 66.22 C211.48 66.22, 108.31 66.22, 16.56 66.22 M314.65 66.22 C232.62 66.22, 150.59 66.22, 16.56 66.22 M16.56 66.22 C5.52 66.22, 0 60.7, 0 49.67 M16.56 66.22 C5.52 66.22, 0 60.7, 0 49.67 M0 49.67 C0 41.96, 0 34.25, 0 16.56 M0 49.67 C0 41.34, 0 33.01, 0 16.56 M0 16.56 C0 5.52, 5.52 0, 16.56 0 M0 16.56 C0 5.52, 5.52 0, 16.56 0" stroke="#1e1e1e" stroke-width="1" fill="none"></path></g><g transform="translate(1049.7917509572762 666.0365703186058) rotate(0 80.77596282958984 10)"><text x="80.77596282958984" y="0" font-family="Virgil, Segoe UI Emoji" font-size="16px" fill="#1e1e1e" text-anchor="middle" style="white-space: pre;" direction="ltr" dominant-baseline="text-before-edge">Parsing Queue (SQS)</text></g><g stroke-linecap="round"><g transform="translate(1314.9396527143927 671.4385482076104) rotate(0 65.82115124170764 -0.6114265203177638)"><path d="M0 0 C21.94 -0.2, 109.7 -1.02, 131.64 -1.22 M0 0 C21.94 -0.2, 109.7 -1.02, 131.64 -1.22" stroke="#1e1e1e" stroke-width="1" fill="none"></path></g><g transform="translate(1314.9396527143927 671.4385482076104) rotate(0 65.82115124170764 -0.6114265203177638)"><path d="M103.55 9.3 C112.79 5.84, 122.03 2.38, 131.64 -1.22 M103.55 9.3 C111.41 6.35, 119.27 3.41, 131.64 -1.22" stroke="#1e1e1e" stroke-width="1" fill="none"></path></g><g transform="translate(1314.9396527143927 671.4385482076104) rotate(0 65.82115124170764 -0.6114265203177638)"><path d="M103.36 -11.22 C112.66 -7.93, 121.97 -4.64, 131.64 -1.22 M103.36 -11.22 C111.27 -8.42, 119.19 -5.63, 131.64 -1.22" stroke="#1e1e1e" stroke-width="1" fill="none"></path></g></g><mask></mask><g mask="url(#mask-O5cdJY_77qs654CJ_GYpf)" stroke-linecap="round"><g transform="translate(1443.427648495146 639.8626547455679) rotate(0 -145.7007245882703 -41.32325649379413)"><path d="M0 0 C-48.57 -13.77, -242.83 -68.87, -291.4 -82.65 M0 0 C-48.57 -13.77, -242.83 -68.87, -291.4 -82.65" stroke="#1e1e1e" stroke-width="1" fill="none"></path></g><g transform="translate(1443.427648495146 639.8626547455679) rotate(0 -145.7007245882703 -41.32325649379413)"><path d="M-261.48 -84.83 C-267.54 -84.38, -273.59 -83.94, -291.4 -82.65 M-261.48 -84.83 C-268.06 -84.35, -274.64 -83.87, -291.4 -82.65" stroke="#1e1e1e" stroke-width="1" fill="none"></path></g><g transform="translate(1443.427648495146 639.8626547455679) rotate(0 -145.7007245882703 -41.32325649379413)"><path d="M-267.08 -65.08 C-272 -68.64, -276.92 -72.19, -291.4 -82.65 M-267.08 -65.08 C-272.43 -68.95, -277.78 -72.81, -291.4 -82.65" stroke="#1e1e1e" stroke-width="1" fill="none"></path></g></g><mask id="mask-O5cdJY_77qs654CJ_GYpf"><rect x="0" y="0" fill="#fff" width="1834.8290976716867" height="822.5091677331561"></rect><rect x="1248.3909558892979" y="588.5393982517737" fill="#000" width="98.67193603515625" height="20" opacity="1"></rect></mask><g transform="translate(1248.3909558892976 588.5393982517737) rotate(0 49.335968017578125 10)"><text x="49.335968017578125" y="0" font-family="Virgil, Segoe UI Emoji" font-size="16px" fill="#1e1e1e" text-anchor="middle" style="white-space: pre;" direction="ltr" dominant-baseline="text-before-edge">Fetch s3 url</text></g><g mask="url(#mask-62TWjIiaIqRJF5C1ufGSM)" stroke-linecap="round"><g transform="translate(1537.842324501402 575.4283589836268) rotate(0 -182.458776978037 -155.0259987969639)"><path d="M0 0 C-9.7 -39.2, 2.62 -183.52, -58.2 -235.19 C-119.02 -286.87, -313.8 -297.58, -364.92 -310.05 M0 0 C-9.7 -39.2, 2.62 -183.52, -58.2 -235.19 C-119.02 -286.87, -313.8 -297.58, -364.92 -310.05" stroke="#1e1e1e" stroke-width="1" fill="none"></path></g><g transform="translate(1537.842324501402 575.4283589836268) rotate(0 -182.458776978037 -155.0259987969639)"><path d="M-13.6 -26.74 C-10.36 -20.36, -7.12 -13.99, 0 0 M-13.6 -26.74 C-9.66 -18.99, -5.72 -11.25, 0 0" stroke="#1e1e1e" stroke-width="1" fill="none"></path></g><g transform="translate(1537.842324501402 575.4283589836268) rotate(0 -182.458776978037 -155.0259987969639)"><path d="M6.77 -29.23 C5.15 -22.26, 3.54 -15.29, 0 0 M6.77 -29.23 C4.81 -20.76, 2.85 -12.29, 0 0" stroke="#1e1e1e" stroke-width="1" fill="none"></path></g><g transform="translate(1537.842324501402 575.4283589836268) rotate(0 -182.458776978037 -155.0259987969639)"><path d="M-335.49 -315.9 C-342.51 -314.51, -349.53 -313.11, -364.92 -310.05 M-335.49 -315.9 C-344.02 -314.21, -352.54 -312.51, -364.92 -310.05" stroke="#1e1e1e" stroke-width="1" fill="none"></path></g><g transform="translate(1537.842324501402 575.4283589836268) rotate(0 -182.458776978037 -155.0259987969639)"><path d="M-338.62 -295.62 C-344.89 -299.06, -351.16 -302.5, -364.92 -310.05 M-338.62 -295.62 C-346.24 -299.8, -353.86 -303.98, -364.92 -310.05" stroke="#1e1e1e" stroke-width="1" fill="none"></path></g></g><mask id="mask-62TWjIiaIqRJF5C1ufGSM"><rect x="0" y="0" fill="#fff" width="2002.759878457476" height="985.4803565775546"></rect><rect x="1369.8261020929926" y="320.2350582482327" fill="#000" width="219.6318817138672" height="40" opacity="1"></rect></mask><g transform="translate(1369.8261020929929 320.2350582482327) rotate(0 -14.442554569627987 100.16730193843023)"><text x="109.8159408569336" y="0" font-family="Virgil, Segoe UI Emoji" font-size="16px" fill="#1e1e1e" text-anchor="middle" style="white-space: pre;" direction="ltr" dominant-baseline="text-before-edge">1. Download HTML from S3</text><text x="109.8159408569336" y="20" font-family="Virgil, Segoe UI Emoji" font-size="16px" fill="#1e1e1e" text-anchor="middle" style="white-space: pre;" direction="ltr" dominant-baseline="text-before-edge">2. Save parsed text to S3</text></g><g stroke-linecap="round" transform="translate(1461.2990177684514 585.3911907806068) rotate(0 84.8720526040911 70.82648922341605)"><path d="M32 0 C68.09 0, 104.18 0, 137.74 0 M32 0 C71.02 0, 110.04 0, 137.74 0 M137.74 0 C159.08 0, 169.74 10.67, 169.74 32 M137.74 0 C159.08 0, 169.74 10.67, 169.74 32 M169.74 32 C169.74 61.52, 169.74 91.04, 169.74 109.65 M169.74 32 C169.74 57.57, 169.74 83.14, 169.74 109.65 M169.74 109.65 C169.74 130.99, 159.08 141.65, 137.74 141.65 M169.74 109.65 C169.74 130.99, 159.08 141.65, 137.74 141.65 M137.74 141.65 C114.81 141.65, 91.88 141.65, 32 141.65 M137.74 141.65 C108.77 141.65, 79.8 141.65, 32 141.65 M32 141.65 C10.67 141.65, 0 130.99, 0 109.65 M32 141.65 C10.67 141.65, 0 130.99, 0 109.65 M0 109.65 C0 88.05, 0 66.45, 0 32 M0 109.65 C0 86.49, 0 63.33, 0 32 M0 32 C0 10.67, 10.67 0, 32 0 M0 32 C0 10.67, 10.67 0, 32 0" stroke="#1e1e1e" stroke-width="1" fill="none"></path></g><g transform="translate(1488.7151148671715 646.2176800040229) rotate(0 57.455955505371094 10)"><text x="57.455955505371094" y="0" font-family="Virgil, Segoe UI Emoji" font-size="16px" fill="#1e1e1e" text-anchor="middle" style="white-space: pre;" direction="ltr" dominant-baseline="text-before-edge">Parsing Worker</text></g><g stroke-linecap="round"><g transform="translate(634.1755797737005 467.95141083213093) rotate(0 157.55932042019117 105.57137601376644)"><path d="M0 0 C6.43 29.51, -13.91 141.85, 38.61 177.04 C91.13 212.23, 269.03 205.46, 315.12 211.14 M0 0 C6.43 29.51, -13.91 141.85, 38.61 177.04 C91.13 212.23, 269.03 205.46, 315.12 211.14" stroke="#1e1e1e" stroke-width="1" fill="none"></path></g><g transform="translate(634.1755797737005 467.95141083213093) rotate(0 157.55932042019117 105.57137601376644)"><path d="M286.49 220.1 C294.09 217.72, 301.69 215.34, 315.12 211.14 M286.49 220.1 C293.02 218.06, 299.54 216.01, 315.12 211.14" stroke="#1e1e1e" stroke-width="1" fill="none"></path></g><g transform="translate(634.1755797737005 467.95141083213093) rotate(0 157.55932042019117 105.57137601376644)"><path d="M287.43 199.6 C294.78 202.66, 302.13 205.73, 315.12 211.14 M287.43 199.6 C293.74 202.23, 300.06 204.86, 315.12 211.14" stroke="#1e1e1e" stroke-width="1" fill="none"></path></g></g><mask></mask><g mask="url(#mask-umSL3jIIHN1Nl7URB7pZb)" stroke-linecap="round"><g transform="translate(1558.9008556867702 736.2622422757358) rotate(0 -753.7635730621909 -159.15817790465485)"><path d="M0 0 C-192.4 5.35, -905.08 75.21, -1154.38 32.12 C-1403.67 -10.97, -1450.07 -192.47, -1495.78 -258.55 C-1541.49 -324.64, -1439.83 -346.76, -1428.64 -364.41 M0 0 C-192.4 5.35, -905.08 75.21, -1154.38 32.12 C-1403.67 -10.97, -1450.07 -192.47, -1495.78 -258.55 C-1541.49 -324.64, -1439.83 -346.76, -1428.64 -364.41" stroke="#1e1e1e" stroke-width="1" fill="none"></path></g><g transform="translate(1558.9008556867702 736.2622422757358) rotate(0 -753.7635730621909 -159.15817790465485)"><path d="M-1446.74 -340.48 C-1442.63 -345.91, -1438.52 -351.34, -1428.64 -364.41 M-1446.74 -340.48 C-1440.9 -348.2, -1435.06 -355.92, -1428.64 -364.41" stroke="#1e1e1e" stroke-width="1" fill="none"></path></g><g transform="translate(1558.9008556867702 736.2622422757358) rotate(0 -753.7635730621909 -159.15817790465485)"><path d="M-1457.88 -357.72 C-1451.24 -359.23, -1444.6 -360.75, -1428.64 -364.41 M-1457.88 -357.72 C-1448.44 -359.87, -1439.01 -362.03, -1428.64 -364.41" stroke="#1e1e1e" stroke-width="1" fill="none"></path></g></g><mask id="mask-umSL3jIIHN1Nl7URB7pZb"><rect x="0" y="0" fill="#fff" width="3154.6812248528718" height="1232.78690123873"></rect><rect x="110.2714304574331" y="648.3994692346464" fill="#000" width="163.1678924560547" height="40" opacity="1"></rect></mask><g transform="translate(110.2714304574331 648.3994692346463) rotate(0 694.8658521671463 -71.2954048635653)"><text x="81.58394622802734" y="0" font-family="Virgil, Segoe UI Emoji" font-size="16px" fill="#1e1e1e" text-anchor="middle" style="white-space: pre;" direction="ltr" dominant-baseline="text-before-edge">Put extracted Urls </text><text x="81.58394622802734" y="20" font-family="Virgil, Segoe UI Emoji" font-size="16px" fill="#1e1e1e" text-anchor="middle" style="white-space: pre;" direction="ltr" dominant-baseline="text-before-edge">back on the queue</text></g><g stroke-linecap="round" transform="translate(10 183.59166982724128) rotate(0 828.3162522029493 313.8365184826416)"><path d="M32 0 C497.29 0, 962.58 0, 1624.63 0 M1624.63 0 C1645.97 0, 1656.63 10.67, 1656.63 32 M1656.63 32 C1656.63 257.06, 1656.63 482.13, 1656.63 595.67 M1656.63 595.67 C1656.63 617.01, 1645.97 627.67, 1624.63 627.67 M1624.63 627.67 C1101.43 627.67, 578.23 627.67, 32 627.67 M32 627.67 C10.67 627.67, 0 617.01, 0 595.67 M0 595.67 C0 477.74, 0 359.82, 0 32 M0 32 C0 10.67, 10.67 0, 32 0" stroke="#1e1e1e" stroke-width="1.5" fill="none" stroke-dasharray="8 9"></path></g><g mask="url(#mask-bdIBScxcjqpZLKutBabKR)" stroke-linecap="round"><g transform="translate(538.8161690059751 427.4413536202019) rotate(0 -215.45799784813198 25.804457216495393)"><path d="M0 0 C-27.67 15.26, -100.29 81.96, -166.03 91.53 C-231.77 101.1, -350.32 74.68, -394.47 57.42 C-438.62 40.15, -429.55 4.18, -430.92 -12.04 C-432.28 -28.26, -407.37 -35.28, -402.66 -39.92 M0 0 C-27.67 15.26, -100.29 81.96, -166.03 91.53 C-231.77 101.1, -350.32 74.68, -394.47 57.42 C-438.62 40.15, -429.55 4.18, -430.92 -12.04 C-432.28 -28.26, -407.37 -35.28, -402.66 -39.92" stroke="#1e1e1e" stroke-width="1" fill="none"></path></g><g transform="translate(538.8161690059751 427.4413536202019) rotate(0 -215.45799784813198 25.804457216495393)"><path d="M-415.24 -24.57 C-411.5 -29.13, -407.76 -33.69, -402.66 -39.92 M-415.24 -24.57 C-411.88 -28.66, -408.53 -32.76, -402.66 -39.92" stroke="#1e1e1e" stroke-width="1" fill="none"></path></g><g transform="translate(538.8161690059751 427.4413536202019) rotate(0 -215.45799784813198 25.804457216495393)"><path d="M-422.16 -36.25 C-416.37 -37.34, -410.58 -38.43, -402.66 -39.92 M-422.16 -36.25 C-416.96 -37.23, -411.76 -38.21, -402.66 -39.92" stroke="#1e1e1e" stroke-width="1" fill="none"></path></g></g><mask id="mask-bdIBScxcjqpZLKutBabKR"><rect x="0" y="0" fill="#fff" width="1069.732164702239" height="658.8984484848124"></rect><rect x="77.22707587384139" y="464.85692949187614" fill="#000" width="134.23992919921875" height="40" opacity="1"></rect></mask><g transform="translate(77.22707587384139 464.85692949187614) rotate(0 246.10409233479925 -10.596050022608296)"><text x="67.11996459960938" y="0" font-family="Virgil, Segoe UI Emoji" font-size="16px" fill="#1e1e1e" text-anchor="middle" style="white-space: pre;" direction="ltr" dominant-baseline="text-before-edge">Retry on failure </text><text x="67.11996459960938" y="20" font-family="Virgil, Segoe UI Emoji" font-size="16px" fill="#1e1e1e" text-anchor="middle" style="white-space: pre;" direction="ltr" dominant-baseline="text-before-edge">w/ backoff</text></g><g stroke-linecap="round" transform="translate(243.15436564135234 405.2909911911065) rotate(0 84.31701417007389 19.32041466377268)"><path d="M9.66 0 C41.56 0, 73.45 0, 158.97 0 M9.66 0 C52.49 0, 95.31 0, 158.97 0 M158.97 0 C165.41 0, 168.63 3.22, 168.63 9.66 M158.97 0 C165.41 0, 168.63 3.22, 168.63 9.66 M168.63 9.66 C168.63 15.23, 168.63 20.8, 168.63 28.98 M168.63 9.66 C168.63 17.38, 168.63 25.1, 168.63 28.98 M168.63 28.98 C168.63 35.42, 165.41 38.64, 158.97 38.64 M168.63 28.98 C168.63 35.42, 165.41 38.64, 158.97 38.64 M158.97 38.64 C117.45 38.64, 75.92 38.64, 9.66 38.64 M158.97 38.64 C113.52 38.64, 68.06 38.64, 9.66 38.64 M9.66 38.64 C3.22 38.64, 0 35.42, 0 28.98 M9.66 38.64 C3.22 38.64, 0 35.42, 0 28.98 M0 28.98 C0 22.03, 0 15.08, 0 9.66 M0 28.98 C0 22.28, 0 15.58, 0 9.66 M0 9.66 C0 3.22, 3.22 0, 9.66 0 M0 9.66 C0 3.22, 3.22 0, 9.66 0" stroke="#1e1e1e" stroke-width="1" fill="none"></path></g><g transform="translate(310.79938274111373 414.6114058548792) rotate(0 16.6719970703125 10)"><text x="16.6719970703125" y="0" font-family="Virgil, Segoe UI Emoji" font-size="16px" fill="#1e1e1e" text-anchor="middle" style="white-space: pre;" direction="ltr" dominant-baseline="text-before-edge">DLQ</text></g></svg>