<svg version="1.1" xmlns="http://www.w3.org/2000/svg" viewBox="0 0 1676.6325044058985 821.2647067925245" >
  <!-- svg-source:excalidraw -->
  <!-- payload-type:application/vnd.excalidraw+json --><!-- payload-version:2 -->
  <defs>
    <style class="style-fonts">
      @font-face {
        font-family: "Virgil";
        src: url("https://files.hellointerview.com/build-assets/PRODUCTION/_next/static/media/Excalifont-s.p.436754fa.woff2");
      }
      @font-face {
        font-family: "Cascadia";
        src: url("https://file%2B.vscode-resource.vscode-cdn.net/Users/iamnafets/.cursor/extensions/pomdtr.excalidraw-editor-3.7.4/public//dist/excalidraw-assets/Cascadia.woff2");
      }
      @font-face {
        font-family: "Assistant";
        src: url("https://file%2B.vscode-resource.vscode-cdn.net/Users/iamnafets/.cursor/extensions/pomdtr.excalidraw-editor-3.7.4/public//dist/excalidraw-assets/Assistant-Regular.woff2");
      }
    </style>
    
  </defs>
  <rect x="0" y="0" width="1676.6325044058985" height="821.2647067925245" fill="#ffffff"></rect><g stroke-linecap="round" transform="translate(144.56556492953496 344.28620770411) rotate(0 134.74371016990517 30.697428344635682)"><path d="M15.35 0 C104.4 0, 193.46 0, 254.14 0 M15.35 0 C76.03 0, 136.71 0, 254.14 0 M254.14 0 C264.37 0, 269.49 5.12, 269.49 15.35 M254.14 0 C264.37 0, 269.49 5.12, 269.49 15.35 M269.49 15.35 C269.49 23.08, 269.49 30.81, 269.49 46.05 M269.49 15.35 C269.49 25.24, 269.49 35.12, 269.49 46.05 M269.49 46.05 C269.49 56.28, 264.37 61.39, 254.14 61.39 M269.49 46.05 C269.49 56.28, 264.37 61.39, 254.14 61.39 M254.14 61.39 C200.59 61.39, 147.04 61.39, 15.35 61.39 M254.14 61.39 C201.33 61.39, 148.53 61.39, 15.35 61.39 M15.35 61.39 C5.12 61.39, 0 56.28, 0 46.05 M15.35 61.39 C5.12 61.39, 0 56.28, 0 46.05 M0 46.05 C0 38.61, 0 31.17, 0 15.35 M0 46.05 C0 37.08, 0 28.11, 0 15.35 M0 15.35 C0 5.12, 5.12 0, 15.35 0 M0 15.35 C0 5.12, 5.12 0, 15.35 0" stroke="#1e1e1e" stroke-width="1" fill="none"></path></g><g transform="translate(196.1493095843034 364.98363604874567) rotate(0 83.15996551513672 10)"><text x="83.15996551513672" y="0" font-family="Virgil, Segoe UI Emoji" font-size="16px" fill="#1e1e1e" text-anchor="middle" style="white-space: pre;" direction="ltr" dominant-baseline="text-before-edge">Frontier Queue (SQS)</text></g><g stroke-linecap="round" transform="translate(551.575832411314 306.7651017791886) rotate(0 82.35880551299124 72.60410217068733)"><path d="M32 0 C59.3 0, 86.6 0, 132.72 0 M32 0 C68.27 0, 104.55 0, 132.72 0 M132.72 0 C154.05 0, 164.72 10.67, 164.72 32 M132.72 0 C154.05 0, 164.72 10.67, 164.72 32 M164.72 32 C164.72 54.92, 164.72 77.84, 164.72 113.21 M164.72 32 C164.72 50.14, 164.72 68.28, 164.72 113.21 M164.72 113.21 C164.72 134.54, 154.05 145.21, 132.72 145.21 M164.72 113.21 C164.72 134.54, 154.05 145.21, 132.72 145.21 M132.72 145.21 C93.1 145.21, 53.49 145.21, 32 145.21 M132.72 145.21 C104.88 145.21, 77.04 145.21, 32 145.21 M32 145.21 C10.67 145.21, 0 134.54, 0 113.21 M32 145.21 C10.67 145.21, 0 134.54, 0 113.21 M0 113.21 C0 88.51, 0 63.81, 0 32 M0 113.21 C0 84.78, 0 56.36, 0 32 M0 32 C0 10.67, 10.67 0, 32 0 M0 32 C0 10.67, 10.67 0, 32 0" stroke="#1e1e1e" stroke-width="1" fill="none"></path></g><g stroke-linecap="round"><g transform="translate(423.2438925618171 372.8365094619585) rotate(0 61.549719359563596 -0.15037667800106647)"><path d="M0 0 C20.52 -0.05, 102.58 -0.25, 123.1 -0.3 M0 0 C20.52 -0.05, 102.58 -0.25, 123.1 -0.3" stroke="#1e1e1e" stroke-width="1" fill="none"></path></g><g transform="translate(423.2438925618171 372.8365094619585) rotate(0 61.549719359563596 -0.15037667800106647)"><path d="M94.93 10.03 C105.92 6, 116.91 1.97, 123.1 -0.3 M94.93 10.03 C101.38 7.67, 107.82 5.3, 123.1 -0.3" stroke="#1e1e1e" stroke-width="1" fill="none"></path></g><g transform="translate(423.2438925618171 372.8365094619585) rotate(0 61.549719359563596 -0.15037667800106647)"><path d="M94.88 -10.49 C105.89 -6.52, 116.9 -2.54, 123.1 -0.3 M94.88 -10.49 C101.34 -8.16, 107.79 -5.83, 123.1 -0.3" stroke="#1e1e1e" stroke-width="1" fill="none"></path></g></g><mask></mask><g stroke-linecap="round" transform="translate(451.24525935212114 74.22811953258861) rotate(0 51.79958325055122 27.29598334796686)"><path d="M13.65 0 C29.77 0, 45.9 0, 89.95 0 M13.65 0 C34.94 0, 56.24 0, 89.95 0 M89.95 0 C99.05 0, 103.6 4.55, 103.6 13.65 M89.95 0 C99.05 0, 103.6 4.55, 103.6 13.65 M103.6 13.65 C103.6 21.6, 103.6 29.55, 103.6 40.94 M103.6 13.65 C103.6 19.93, 103.6 26.2, 103.6 40.94 M103.6 40.94 C103.6 50.04, 99.05 54.59, 89.95 54.59 M103.6 40.94 C103.6 50.04, 99.05 54.59, 89.95 54.59 M89.95 54.59 C60.31 54.59, 30.67 54.59, 13.65 54.59 M89.95 54.59 C71.37 54.59, 52.79 54.59, 13.65 54.59 M13.65 54.59 C4.55 54.59, 0 50.04, 0 40.94 M13.65 54.59 C4.55 54.59, 0 50.04, 0 40.94 M0 40.94 C0 32.74, 0 24.54, 0 13.65 M0 40.94 C0 33.02, 0 25.1, 0 13.65 M0 13.65 C0 4.55, 4.55 0, 13.65 0 M0 13.65 C0 4.55, 4.55 0, 13.65 0" stroke="#1e1e1e" stroke-width="1" fill="none"></path></g><g transform="translate(486.78885352796533 91.52410288055546) rotate(0 16.25598907470703 10)"><text x="16.25598907470703" y="0" font-family="Virgil, Segoe UI Emoji" font-size="16px" fill="#1e1e1e" text-anchor="middle" style="white-space: pre;" direction="ltr" dominant-baseline="text-before-edge">DNS</text></g><g stroke-linecap="round" transform="translate(665.9208698123239 10) rotate(0 65.71934302140744 61.35400666929533)"><path d="M30.68 0 C46.35 0, 62.01 0, 100.76 0 M30.68 0 C57.28 0, 83.89 0, 100.76 0 M100.76 0 C121.21 0, 131.44 10.23, 131.44 30.68 M100.76 0 C121.21 0, 131.44 10.23, 131.44 30.68 M131.44 30.68 C131.44 50.58, 131.44 70.47, 131.44 92.03 M131.44 30.68 C131.44 45.71, 131.44 60.74, 131.44 92.03 M131.44 92.03 C131.44 112.48, 121.21 122.71, 100.76 122.71 M131.44 92.03 C131.44 112.48, 121.21 122.71, 100.76 122.71 M100.76 122.71 C74.78 122.71, 48.8 122.71, 30.68 122.71 M100.76 122.71 C82.55 122.71, 64.34 122.71, 30.68 122.71 M30.68 122.71 C10.23 122.71, 0 112.48, 0 92.03 M30.68 122.71 C10.23 122.71, 0 112.48, 0 92.03 M0 92.03 C0 79.27, 0 66.52, 0 30.68 M0 92.03 C0 68.43, 0 44.82, 0 30.68 M0 30.68 C0 10.23, 10.23 0, 30.68 0 M0 30.68 C0 10.23, 10.23 0, 30.68 0" stroke="#1e1e1e" stroke-width="1" fill="none"></path></g><g transform="translate(699.5682371257235 61.35400666929533) rotate(0 32.07197570800781 10)"><text x="32.07197570800781" y="0" font-family="Virgil, Segoe UI Emoji" font-size="16px" fill="#1e1e1e" text-anchor="middle" style="white-space: pre;" direction="ltr" dominant-baseline="text-before-edge">Webpage</text></g><g stroke-linecap="round"><g transform="translate(505.36016168629976 142.59471296443007) rotate(0 40.73836754594254 77.94572571647677)"><path d="M0 0 C13.58 25.98, 67.9 129.91, 81.48 155.89 M0 0 C13.58 25.98, 67.9 129.91, 81.48 155.89" stroke="#1e1e1e" stroke-width="1" fill="none"></path></g><g transform="translate(505.36016168629976 142.59471296443007) rotate(0 40.73836754594254 77.94572571647677)"><path d="M22.15 20.23 C14.81 13.53, 7.47 6.83, 0 0 M22.15 20.23 C14.69 13.42, 7.24 6.61, 0 0" stroke="#1e1e1e" stroke-width="1" fill="none"></path></g><g transform="translate(505.36016168629976 142.59471296443007) rotate(0 40.73836754594254 77.94572571647677)"><path d="M3.96 29.74 C2.65 19.88, 1.34 10.03, 0 0 M3.96 29.74 C2.63 19.73, 1.3 9.72, 0 0" stroke="#1e1e1e" stroke-width="1" fill="none"></path></g><g transform="translate(505.36016168629976 142.59471296443007) rotate(0 40.73836754594254 77.94572571647677)"><path d="M59.33 135.66 C66.66 142.36, 74 149.07, 81.48 155.89 M59.33 135.66 C66.78 142.47, 74.24 149.28, 81.48 155.89" stroke="#1e1e1e" stroke-width="1" fill="none"></path></g><g transform="translate(505.36016168629976 142.59471296443007) rotate(0 40.73836754594254 77.94572571647677)"><path d="M77.51 126.15 C78.83 136.01, 80.14 145.86, 81.48 155.89 M77.51 126.15 C78.85 136.17, 80.18 146.18, 81.48 155.89" stroke="#1e1e1e" stroke-width="1" fill="none"></path></g></g><mask></mask><g stroke-linecap="round"><g transform="translate(647.8535523726869 295.3597762018853) rotate(0 42.563917740836814 -76.25230895062805)"><path d="M0 0 C14.19 -25.42, 70.94 -127.09, 85.13 -152.5 M0 0 C14.19 -25.42, 70.94 -127.09, 85.13 -152.5" stroke="#1e1e1e" stroke-width="1" fill="none"></path></g><g transform="translate(647.8535523726869 295.3597762018853) rotate(0 42.563917740836814 -76.25230895062805)"><path d="M4.78 -29.62 C3.11 -19.29, 1.45 -8.97, 0 0 M4.78 -29.62 C3.21 -19.86, 1.63 -10.11, 0 0" stroke="#1e1e1e" stroke-width="1" fill="none"></path></g><g transform="translate(647.8535523726869 295.3597762018853) rotate(0 42.563917740836814 -76.25230895062805)"><path d="M22.7 -19.61 C14.79 -12.78, 6.88 -5.94, 0 0 M22.7 -19.61 C15.22 -13.15, 7.75 -6.69, 0 0" stroke="#1e1e1e" stroke-width="1" fill="none"></path></g><g transform="translate(647.8535523726869 295.3597762018853) rotate(0 42.563917740836814 -76.25230895062805)"><path d="M80.35 -122.89 C82.01 -133.21, 83.68 -143.53, 85.13 -152.5 M80.35 -122.89 C81.92 -132.64, 83.5 -142.4, 85.13 -152.5" stroke="#1e1e1e" stroke-width="1" fill="none"></path></g><g transform="translate(647.8535523726869 295.3597762018853) rotate(0 42.563917740836814 -76.25230895062805)"><path d="M62.43 -132.89 C70.34 -139.73, 78.25 -146.56, 85.13 -152.5 M62.43 -132.89 C69.91 -139.35, 77.38 -145.81, 85.13 -152.5" stroke="#1e1e1e" stroke-width="1" fill="none"></path></g></g><mask></mask><g mask="url(#mask-khaZ0CFubd2b3z2N3BALq)" stroke-linecap="round"><g transform="translate(740.0193634653897 369.25201218164875) rotate(0 96.6357457348247 -34.988547660741006)"><path d="M0 0 C32.21 -11.66, 161.06 -58.31, 193.27 -69.98 M0 0 C32.21 -11.66, 161.06 -58.31, 193.27 -69.98" stroke="#1e1e1e" stroke-width="1" fill="none"></path></g><g transform="translate(740.0193634653897 369.25201218164875) rotate(0 96.6357457348247 -34.988547660741006)"><path d="M170.26 -50.73 C178.36 -57.5, 186.45 -64.28, 193.27 -69.98 M170.26 -50.73 C177.88 -57.11, 185.5 -63.48, 193.27 -69.98" stroke="#1e1e1e" stroke-width="1" fill="none"></path></g><g transform="translate(740.0193634653897 369.25201218164875) rotate(0 96.6357457348247 -34.988547660741006)"><path d="M163.27 -70.03 C173.83 -70.01, 184.38 -69.99, 193.27 -69.98 M163.27 -70.03 C173.21 -70.01, 183.15 -69.99, 193.27 -69.98" stroke="#1e1e1e" stroke-width="1" fill="none"></path></g></g><mask id="mask-khaZ0CFubd2b3z2N3BALq"><rect x="0" y="0" fill="#fff" width="1033.290854935039" height="539.2291075031308"></rect><rect x="774.4871328208199" y="324.26346452090775" fill="#000" width="124.33595275878906" height="20" opacity="1"></rect></mask><g transform="translate(774.4871328208199 324.26346452090775) rotate(0 62.16797637939453 10)"><text x="62.16797637939453" y="0" font-family="Virgil, Segoe UI Emoji" font-size="16px" fill="#1e1e1e" text-anchor="middle" style="white-space: pre;" direction="ltr" dominant-baseline="text-before-edge">Save raw HTML</text></g><g stroke-linecap="round" transform="translate(944.2016945932237 195.26716289934848) rotate(0 83.68252896753256 79.42056656086663)"><path d="M167.37 79.42 C167.37 82.19, 167.21 84.97, 166.91 87.72 C166.6 90.47, 166.14 93.23, 165.54 95.93 C164.93 98.64, 164.17 101.33, 163.27 103.96 C162.37 106.59, 161.32 109.2, 160.13 111.72 C158.94 114.25, 157.61 116.73, 156.15 119.13 C154.7 121.53, 153.1 123.86, 151.38 126.1 C149.67 128.34, 147.82 130.51, 145.87 132.56 C143.92 134.62, 141.84 136.59, 139.68 138.44 C137.51 140.29, 135.23 142.05, 132.87 143.67 C130.51 145.3, 128.05 146.82, 125.52 148.2 C123 149.58, 120.38 150.85, 117.72 151.97 C115.06 153.1, 112.31 154.1, 109.54 154.95 C106.77 155.81, 103.93 156.53, 101.08 157.11 C98.23 157.68, 95.33 158.12, 92.43 158.41 C89.53 158.7, 86.6 158.84, 83.68 158.84 C80.77 158.84, 77.84 158.7, 74.94 158.41 C72.04 158.12, 69.14 157.68, 66.28 157.11 C63.43 156.53, 60.6 155.81, 57.82 154.95 C55.05 154.1, 52.31 153.1, 49.65 151.97 C46.98 150.85, 44.37 149.58, 41.84 148.2 C39.32 146.82, 36.85 145.3, 34.5 143.67 C32.14 142.05, 29.85 140.29, 27.69 138.44 C25.52 136.59, 23.45 134.62, 21.49 132.56 C19.54 130.51, 17.7 128.34, 15.98 126.1 C14.27 123.86, 12.67 121.53, 11.21 119.13 C9.75 116.73, 8.42 114.25, 7.23 111.72 C6.05 109.2, 5 106.59, 4.1 103.96 C3.19 101.33, 2.43 98.64, 1.83 95.93 C1.22 93.23, 0.76 90.47, 0.46 87.72 C0.15 84.97, 0 82.19, 0 79.42 C0 76.65, 0.15 73.87, 0.46 71.12 C0.76 68.37, 1.22 65.61, 1.83 62.91 C2.43 60.2, 3.19 57.51, 4.1 54.88 C5 52.25, 6.05 49.65, 7.23 47.12 C8.42 44.59, 9.75 42.11, 11.21 39.71 C12.67 37.31, 14.27 34.98, 15.98 32.74 C17.7 30.5, 19.54 28.33, 21.49 26.28 C23.45 24.22, 25.52 22.25, 27.69 20.4 C29.85 18.55, 32.14 16.79, 34.5 15.17 C36.85 13.54, 39.32 12.02, 41.84 10.64 C44.37 9.26, 46.98 7.99, 49.65 6.87 C52.31 5.74, 55.05 4.74, 57.82 3.89 C60.6 3.03, 63.43 2.31, 66.28 1.74 C69.14 1.16, 72.04 0.72, 74.94 0.44 C77.84 0.15, 80.77 0, 83.68 0 C86.6 0, 89.53 0.15, 92.43 0.44 C95.33 0.72, 98.23 1.16, 101.08 1.74 C103.93 2.31, 106.77 3.03, 109.54 3.89 C112.31 4.74, 115.06 5.74, 117.72 6.87 C120.38 7.99, 123 9.26, 125.52 10.64 C128.05 12.02, 130.51 13.54, 132.87 15.17 C135.23 16.79, 137.51 18.55, 139.68 20.4 C141.84 22.25, 143.92 24.22, 145.87 26.28 C147.82 28.33, 149.67 30.5, 151.38 32.74 C153.1 34.98, 154.7 37.31, 156.15 39.71 C157.61 42.11, 158.94 44.59, 160.13 47.12 C161.32 49.65, 162.37 52.25, 163.27 54.88 C164.17 57.51, 164.93 60.2, 165.54 62.91 C166.14 65.61, 166.6 68.37, 166.91 71.12 C167.21 73.87, 167.29 78.04, 167.37 79.42 C167.44 80.8, 167.44 78.04, 167.37 79.42" stroke="#1e1e1e" stroke-width="1" fill="none"></path></g><g transform="translate(987.6397488941774 254.52890827934874) rotate(0 40.071990966796875 20)"><text x="40.071990966796875" y="0" font-family="Virgil, Segoe UI Emoji" font-size="16px" fill="#1e1e1e" text-anchor="middle" style="white-space: pre;" direction="ltr" dominant-baseline="text-before-edge">S3 HTML </text><text x="40.071990966796875" y="20" font-family="Virgil, Segoe UI Emoji" font-size="16px" fill="#1e1e1e" text-anchor="middle" style="white-space: pre;" direction="ltr" dominant-baseline="text-before-edge">Data</text></g><g stroke-linecap="round" transform="translate(950.6999443662417 412.6427975075112) rotate(0 83.68252896753256 79.42056656086663)"><path d="M167.37 79.42 C167.37 82.19, 167.21 84.97, 166.91 87.72 C166.6 90.47, 166.14 93.23, 165.54 95.93 C164.93 98.64, 164.17 101.33, 163.27 103.96 C162.37 106.59, 161.32 109.2, 160.13 111.72 C158.94 114.25, 157.61 116.73, 156.15 119.13 C154.7 121.53, 153.1 123.86, 151.38 126.1 C149.67 128.34, 147.82 130.51, 145.87 132.56 C143.92 134.62, 141.84 136.59, 139.68 138.44 C137.51 140.29, 135.23 142.05, 132.87 143.67 C130.51 145.3, 128.05 146.82, 125.52 148.2 C123 149.58, 120.38 150.85, 117.72 151.97 C115.06 153.1, 112.31 154.1, 109.54 154.95 C106.77 155.81, 103.93 156.53, 101.08 157.11 C98.23 157.68, 95.33 158.12, 92.43 158.41 C89.53 158.7, 86.6 158.84, 83.68 158.84 C80.77 158.84, 77.84 158.7, 74.94 158.41 C72.04 158.12, 69.14 157.68, 66.28 157.11 C63.43 156.53, 60.6 155.81, 57.82 154.95 C55.05 154.1, 52.31 153.1, 49.65 151.97 C46.98 150.85, 44.37 149.58, 41.84 148.2 C39.32 146.82, 36.85 145.3, 34.5 143.67 C32.14 142.05, 29.85 140.29, 27.69 138.44 C25.52 136.59, 23.45 134.62, 21.49 132.56 C19.54 130.51, 17.7 128.34, 15.98 126.1 C14.27 123.86, 12.67 121.53, 11.21 119.13 C9.75 116.73, 8.42 114.25, 7.23 111.72 C6.05 109.2, 5 106.59, 4.1 103.96 C3.19 101.33, 2.43 98.64, 1.83 95.93 C1.22 93.23, 0.76 90.47, 0.46 87.72 C0.15 84.97, 0 82.19, 0 79.42 C0 76.65, 0.15 73.87, 0.46 71.12 C0.76 68.37, 1.22 65.61, 1.83 62.91 C2.43 60.2, 3.19 57.51, 4.1 54.88 C5 52.25, 6.05 49.65, 7.23 47.12 C8.42 44.59, 9.75 42.11, 11.21 39.71 C12.67 37.31, 14.27 34.98, 15.98 32.74 C17.7 30.5, 19.54 28.33, 21.49 26.28 C23.45 24.22, 25.52 22.25, 27.69 20.4 C29.85 18.55, 32.14 16.79, 34.5 15.17 C36.85 13.54, 39.32 12.02, 41.84 10.64 C44.37 9.26, 46.98 7.99, 49.65 6.87 C52.31 5.74, 55.05 4.74, 57.82 3.89 C60.6 3.03, 63.43 2.31, 66.28 1.74 C69.14 1.16, 72.04 0.72, 74.94 0.44 C77.84 0.15, 80.77 0, 83.68 0 C86.6 0, 89.53 0.15, 92.43 0.44 C95.33 0.72, 98.23 1.16, 101.08 1.74 C103.93 2.31, 106.77 3.03, 109.54 3.89 C112.31 4.74, 115.06 5.74, 117.72 6.87 C120.38 7.99, 123 9.26, 125.52 10.64 C128.05 12.02, 130.51 13.54, 132.87 15.17 C135.23 16.79, 137.51 18.55, 139.68 20.4 C141.84 22.25, 143.92 24.22, 145.87 26.28 C147.82 28.33, 149.67 30.5, 151.38 32.74 C153.1 34.98, 154.7 37.31, 156.15 39.71 C157.61 42.11, 158.94 44.59, 160.13 47.12 C161.32 49.65, 162.37 52.25, 163.27 54.88 C164.17 57.51, 164.93 60.2, 165.54 62.91 C166.14 65.61, 166.6 68.37, 166.91 71.12 C167.21 73.87, 167.29 78.04, 167.37 79.42 C167.44 80.8, 167.44 78.04, 167.37 79.42" stroke="#1e1e1e" stroke-width="1" fill="none"></path></g><g transform="translate(994.1060086159258 471.90454288751147) rotate(0 40.103981018066406 20)"><text x="40.103981018066406" y="0" font-family="Virgil, Segoe UI Emoji" font-size="16px" fill="#1e1e1e" text-anchor="middle" style="white-space: pre;" direction="ltr" dominant-baseline="text-before-edge">URL </text><text x="40.103981018066406" y="20" font-family="Virgil, Segoe UI Emoji" font-size="16px" fill="#1e1e1e" text-anchor="middle" style="white-space: pre;" direction="ltr" dominant-baseline="text-before-edge">Metadata</text></g><g mask="url(#mask-0gfmkumsw1XvJvbr7ompK)" stroke-linecap="round"><g transform="translate(736.9979584247485 399.2812524397086) rotate(0 102.40175267759423 44.01792167073336)"><path d="M0 0 C34.13 14.67, 170.67 73.36, 204.8 88.04 M0 0 C34.13 14.67, 170.67 73.36, 204.8 88.04" stroke="#1e1e1e" stroke-width="1" fill="none"></path></g><g transform="translate(736.9979584247485 399.2812524397086) rotate(0 102.40175267759423 44.01792167073336)"><path d="M174.85 86.33 C185.92 86.96, 196.98 87.59, 204.8 88.04 M174.85 86.33 C185.22 86.92, 195.59 87.51, 204.8 88.04" stroke="#1e1e1e" stroke-width="1" fill="none"></path></g><g transform="translate(736.9979584247485 399.2812524397086) rotate(0 102.40175267759423 44.01792167073336)"><path d="M182.96 67.48 C191.03 75.07, 199.1 82.66, 204.8 88.04 M182.96 67.48 C190.52 74.59, 198.08 81.71, 204.8 88.04" stroke="#1e1e1e" stroke-width="1" fill="none"></path></g></g><mask id="mask-0gfmkumsw1XvJvbr7ompK"><rect x="0" y="0" fill="#fff" width="1041.801463779937" height="587.3170957811753"></rect><rect x="759.4237589539052" y="433.299174110442" fill="#000" width="159.951904296875" height="20" opacity="1"></rect></mask><g transform="translate(759.4237589539052 433.299174110442) rotate(0 79.9759521484375 10)"><text x="79.9759521484375" y="0" font-family="Virgil, Segoe UI Emoji" font-size="16px" fill="#1e1e1e" text-anchor="middle" style="white-space: pre;" direction="ltr" dominant-baseline="text-before-edge">Update URL status</text></g><g transform="translate(1130.336053000361 391.5992095061056) rotate(0 62.11994934082031 70)"><text x="0" y="0" font-family="Virgil, Segoe UI Emoji" font-size="16px" fill="#1e1e1e" text-anchor="start" style="white-space: pre;" direction="ltr" dominant-baseline="text-before-edge">URL</text><text x="0" y="20" font-family="Virgil, Segoe UI Emoji" font-size="16px" fill="#1e1e1e" text-anchor="start" style="white-space: pre;" direction="ltr" dominant-baseline="text-before-edge">- id</text><text x="0" y="40" font-family="Virgil, Segoe UI Emoji" font-size="16px" fill="#1e1e1e" text-anchor="start" style="white-space: pre;" direction="ltr" dominant-baseline="text-before-edge">- url</text><text x="0" y="60" font-family="Virgil, Segoe UI Emoji" font-size="16px" fill="#1e1e1e" text-anchor="start" style="white-space: pre;" direction="ltr" dominant-baseline="text-before-edge">- s3Link</text><text x="0" y="80" font-family="Virgil, Segoe UI Emoji" font-size="16px" fill="#1e1e1e" text-anchor="start" style="white-space: pre;" direction="ltr" dominant-baseline="text-before-edge">- lastCrawlTime</text><text x="0" y="100" font-family="Virgil, Segoe UI Emoji" font-size="16px" fill="#1e1e1e" text-anchor="start" style="white-space: pre;" direction="ltr" dominant-baseline="text-before-edge">- hash (GSI)</text><text x="0" y="120" font-family="Virgil, Segoe UI Emoji" font-size="16px" fill="#1e1e1e" text-anchor="start" style="white-space: pre;" direction="ltr" dominant-baseline="text-before-edge">- depth</text></g><g stroke-linecap="round" transform="translate(964.9651088748542 642.9264372577381) rotate(0 165.60260491201188 33.11013306086761)"><path d="M16.56 0 C82.33 0, 148.1 0, 314.65 0 M16.56 0 C99.31 0, 182.06 0, 314.65 0 M314.65 0 C325.69 0, 331.21 5.52, 331.21 16.56 M314.65 0 C325.69 0, 331.21 5.52, 331.21 16.56 M331.21 16.56 C331.21 26.32, 331.21 36.08, 331.21 49.67 M331.21 16.56 C331.21 28.77, 331.21 40.99, 331.21 49.67 M331.21 49.67 C331.21 60.7, 325.69 66.22, 314.65 66.22 M331.21 49.67 C331.21 60.7, 325.69 66.22, 314.65 66.22 M314.65 66.22 C196.35 66.22, 78.05 66.22, 16.56 66.22 M314.65 66.22 C251.65 66.22, 188.65 66.22, 16.56 66.22 M16.56 66.22 C5.52 66.22, 0 60.7, 0 49.67 M16.56 66.22 C5.52 66.22, 0 60.7, 0 49.67 M0 49.67 C0 41.79, 0 33.92, 0 16.56 M0 49.67 C0 38.32, 0 26.97, 0 16.56 M0 16.56 C0 5.52, 5.52 0, 16.56 0 M0 16.56 C0 5.52, 5.52 0, 16.56 0" stroke="#1e1e1e" stroke-width="1" fill="none"></path></g><g transform="translate(1049.7917509572762 666.0365703186058) rotate(0 80.77596282958984 10)"><text x="80.77596282958984" y="0" font-family="Virgil, Segoe UI Emoji" font-size="16px" fill="#1e1e1e" text-anchor="middle" style="white-space: pre;" direction="ltr" dominant-baseline="text-before-edge">Parsing Queue (SQS)</text></g><g stroke-linecap="round"><g transform="translate(1314.9396527143927 671.4385482076104) rotate(0 65.82115124170764 -0.6114265203177638)"><path d="M0 0 C21.94 -0.2, 109.7 -1.02, 131.64 -1.22 M0 0 C21.94 -0.2, 109.7 -1.02, 131.64 -1.22" stroke="#1e1e1e" stroke-width="1" fill="none"></path></g><g transform="translate(1314.9396527143927 671.4385482076104) rotate(0 65.82115124170764 -0.6114265203177638)"><path d="M103.55 9.3 C109.53 7.06, 115.52 4.81, 131.64 -1.22 M103.55 9.3 C110.39 6.74, 117.23 4.18, 131.64 -1.22" stroke="#1e1e1e" stroke-width="1" fill="none"></path></g><g transform="translate(1314.9396527143927 671.4385482076104) rotate(0 65.82115124170764 -0.6114265203177638)"><path d="M103.36 -11.22 C109.38 -9.09, 115.41 -6.96, 131.64 -1.22 M103.36 -11.22 C110.24 -8.79, 117.13 -6.35, 131.64 -1.22" stroke="#1e1e1e" stroke-width="1" fill="none"></path></g></g><mask></mask><g mask="url(#mask-bqlOqYr_ACtnymJwUaQBS)" stroke-linecap="round"><g transform="translate(1443.427648495146 639.8626547455679) rotate(0 -164.28535802144074 -47.385297568339865)"><path d="M0 0 C-54.76 -15.8, -273.81 -78.98, -328.57 -94.77 M0 0 C-54.76 -15.8, -273.81 -78.98, -328.57 -94.77" stroke="#1e1e1e" stroke-width="1" fill="none"></path></g><g transform="translate(1443.427648495146 639.8626547455679) rotate(0 -164.28535802144074 -47.385297568339865)"><path d="M-298.64 -96.82 C-305.35 -96.36, -312.06 -95.9, -328.57 -94.77 M-298.64 -96.82 C-305.26 -96.36, -311.88 -95.91, -328.57 -94.77" stroke="#1e1e1e" stroke-width="1" fill="none"></path></g><g transform="translate(1443.427648495146 639.8626547455679) rotate(0 -164.28535802144074 -47.385297568339865)"><path d="M-304.33 -77.1 C-309.76 -81.06, -315.2 -85.03, -328.57 -94.77 M-304.33 -77.1 C-309.69 -81.01, -315.05 -84.91, -328.57 -94.77" stroke="#1e1e1e" stroke-width="1" fill="none"></path></g></g><mask id="mask-bqlOqYr_ACtnymJwUaQBS"><rect x="0" y="0" fill="#fff" width="1871.9983645380275" height="834.6332498822476"></rect><rect x="1229.8063224561274" y="582.477357177228" fill="#000" width="98.67193603515625" height="20" opacity="1"></rect></mask><g transform="translate(1229.8063224561272 582.477357177228) rotate(0 49.335968017578125 10)"><text x="49.335968017578125" y="0" font-family="Virgil, Segoe UI Emoji" font-size="16px" fill="#1e1e1e" text-anchor="middle" style="white-space: pre;" direction="ltr" dominant-baseline="text-before-edge">Fetch s3 url</text></g><g mask="url(#mask-GaA0IQSg6Nf5jEJnaiNsP)" stroke-linecap="round"><g transform="translate(1537.842324501402 575.4283589836268) rotate(0 -203.6543985379201 -155.27401663541468)"><path d="M0 0 C-9.7 -39.2, 9.68 -183.44, -58.2 -235.19 C-126.09 -286.95, -349.12 -297.99, -407.31 -310.55 M0 0 C-9.7 -39.2, 9.68 -183.44, -58.2 -235.19 C-126.09 -286.95, -349.12 -297.99, -407.31 -310.55" stroke="#1e1e1e" stroke-width="1" fill="none"></path></g><g transform="translate(1537.842324501402 575.4283589836268) rotate(0 -203.6543985379201 -155.27401663541468)"><path d="M-13.11 -26.98 C-7.96 -16.37, -2.8 -5.76, 0 0 M-13.11 -26.98 C-9.49 -19.52, -5.87 -12.07, 0 0" stroke="#1e1e1e" stroke-width="1" fill="none"></path></g><g transform="translate(1537.842324501402 575.4283589836268) rotate(0 -203.6543985379201 -155.27401663541468)"><path d="M7.3 -29.1 C4.43 -17.65, 1.56 -6.21, 0 0 M7.3 -29.1 C5.28 -21.06, 3.26 -13.01, 0 0" stroke="#1e1e1e" stroke-width="1" fill="none"></path></g><g transform="translate(1537.842324501402 575.4283589836268) rotate(0 -203.6543985379201 -155.27401663541468)"><path d="M-377.99 -316.91 C-389.52 -314.4, -401.05 -311.9, -407.31 -310.55 M-377.99 -316.91 C-386.09 -315.15, -394.2 -313.39, -407.31 -310.55" stroke="#1e1e1e" stroke-width="1" fill="none"></path></g><g transform="translate(1537.842324501402 575.4283589836268) rotate(0 -203.6543985379201 -155.27401663541468)"><path d="M-380.76 -296.57 C-391.2 -302.07, -401.65 -307.57, -407.31 -310.55 M-380.76 -296.57 C-388.1 -300.44, -395.44 -304.3, -407.31 -310.55" stroke="#1e1e1e" stroke-width="1" fill="none"></path></g></g><mask id="mask-GaA0IQSg6Nf5jEJnaiNsP"><rect x="0" y="0" fill="#fff" width="2045.151121577242" height="985.9763922544562"></rect><rect x="1369.826102092993" y="320.2350582482327" fill="#000" width="219.6318817138672" height="40" opacity="1"></rect></mask><g transform="translate(1369.8261020929929 320.2350582482327) rotate(0 -35.638176129511066 99.91928409997945)"><text x="109.8159408569336" y="0" font-family="Virgil, Segoe UI Emoji" font-size="16px" fill="#1e1e1e" text-anchor="middle" style="white-space: pre;" direction="ltr" dominant-baseline="text-before-edge">1. Download HTML from S3</text><text x="109.8159408569336" y="20" font-family="Virgil, Segoe UI Emoji" font-size="16px" fill="#1e1e1e" text-anchor="middle" style="white-space: pre;" direction="ltr" dominant-baseline="text-before-edge">2. Save parsed text to S3</text></g><g stroke-linecap="round"><g transform="translate(634.0843016181079 467.76057497153124) rotate(0 157.60495949798724 105.66679394406628)"><path d="M0 0 C6.45 29.54, -13.83 142.01, 38.7 177.23 C91.24 212.45, 269.12 205.65, 315.21 211.33 M0 0 C6.45 29.54, -13.83 142.01, 38.7 177.23 C91.24 212.45, 269.12 205.65, 315.21 211.33" stroke="#1e1e1e" stroke-width="1" fill="none"></path></g><g transform="translate(634.0843016181079 467.76057497153124) rotate(0 157.60495949798724 105.66679394406628)"><path d="M286.58 220.29 C297.7 216.81, 308.82 213.33, 315.21 211.33 M286.58 220.29 C293.55 218.11, 300.52 215.93, 315.21 211.33" stroke="#1e1e1e" stroke-width="1" fill="none"></path></g><g transform="translate(634.0843016181079 467.76057497153124) rotate(0 157.60495949798724 105.66679394406628)"><path d="M287.52 199.79 C298.28 204.28, 309.03 208.76, 315.21 211.33 M287.52 199.79 C294.26 202.6, 301 205.41, 315.21 211.33" stroke="#1e1e1e" stroke-width="1" fill="none"></path></g></g><mask></mask><g mask="url(#mask-meuD9oNjkACZ1eBvP7wUj)" stroke-linecap="round"><g transform="translate(1452.4451229644105 727.6934998055849) rotate(0 -700.5357067010111 -151.34221062299503)"><path d="M0 0 C-174.65 6.78, -816.37 82.35, -1047.92 40.69 C-1279.47 -0.98, -1343.61 -183.9, -1389.32 -249.98 C-1435.03 -316.07, -1333.37 -338.19, -1322.18 -355.84 M0 0 C-174.65 6.78, -816.37 82.35, -1047.92 40.69 C-1279.47 -0.98, -1343.61 -183.9, -1389.32 -249.98 C-1435.03 -316.07, -1333.37 -338.19, -1322.18 -355.84" stroke="#1e1e1e" stroke-width="1" fill="none"></path></g><g transform="translate(1452.4451229644105 727.6934998055849) rotate(0 -700.5357067010111 -151.34221062299503)"><path d="M-1340.28 -331.91 C-1336.61 -336.76, -1332.95 -341.61, -1322.18 -355.84 M-1340.28 -331.91 C-1335.05 -338.83, -1329.82 -345.74, -1322.18 -355.84" stroke="#1e1e1e" stroke-width="1" fill="none"></path></g><g transform="translate(1452.4451229644105 727.6934998055849) rotate(0 -700.5357067010111 -151.34221062299503)"><path d="M-1351.43 -349.15 C-1345.5 -350.5, -1339.57 -351.86, -1322.18 -355.84 M-1351.43 -349.15 C-1342.97 -351.08, -1334.52 -353.01, -1322.18 -355.84" stroke="#1e1e1e" stroke-width="1" fill="none"></path></g></g><mask id="mask-meuD9oNjkACZ1eBvP7wUj"><rect x="0" y="0" fill="#fff" width="2941.769759408153" height="1224.218158768579"></rect><rect x="113.33069924711026" y="644.6804052944765" fill="#000" width="163.1678924560547" height="40" opacity="1"></rect></mask><g transform="translate(113.33069924711026 644.6804052944765) rotate(0 638.5787170162891 -68.3291161118866)"><text x="81.58394622802734" y="0" font-family="Virgil, Segoe UI Emoji" font-size="16px" fill="#1e1e1e" text-anchor="middle" style="white-space: pre;" direction="ltr" dominant-baseline="text-before-edge">Put extracted Urls </text><text x="81.58394622802734" y="20" font-family="Virgil, Segoe UI Emoji" font-size="16px" fill="#1e1e1e" text-anchor="middle" style="white-space: pre;" direction="ltr" dominant-baseline="text-before-edge">back on the queue</text></g><g stroke-linecap="round" transform="translate(10 183.59166982724128) rotate(0 828.3162522029493 313.8365184826416)"><path d="M32 0 C643.19 0, 1254.39 0, 1624.63 0 M1624.63 0 C1645.97 0, 1656.63 10.67, 1656.63 32 M1656.63 32 C1656.63 229.97, 1656.63 427.94, 1656.63 595.67 M1656.63 595.67 C1656.63 617.01, 1645.97 627.67, 1624.63 627.67 M1624.63 627.67 C1267.9 627.67, 911.16 627.67, 32 627.67 M32 627.67 C10.67 627.67, 0 617.01, 0 595.67 M0 595.67 C0 478.79, 0 361.91, 0 32 M0 32 C0 10.67, 10.67 0, 32 0" stroke="#1e1e1e" stroke-width="1.5" fill="none" stroke-dasharray="8 9"></path></g><g mask="url(#mask-AFKevOB6Q-JHVMEq5qI6h)" stroke-linecap="round"><g transform="translate(538.7040904731202 427.34063395007433) rotate(0 -215.40195858170478 25.90517688662203)"><path d="M0 0 C-27.65 15.27, -100.19 82.05, -165.92 91.63 C-231.64 101.22, -350.21 74.78, -394.36 57.52 C-438.5 40.25, -429.44 4.29, -430.8 -11.94 C-432.17 -28.16, -407.26 -35.18, -402.55 -39.82 M0 0 C-27.65 15.27, -100.19 82.05, -165.92 91.63 C-231.64 101.22, -350.21 74.78, -394.36 57.52 C-438.5 40.25, -429.44 4.29, -430.8 -11.94 C-432.17 -28.16, -407.26 -35.18, -402.55 -39.82" stroke="#1e1e1e" stroke-width="1" fill="none"></path></g><g transform="translate(538.7040904731202 427.34063395007433) rotate(0 -215.40195858170478 25.90517688662203)"><path d="M-415.12 -24.47 C-411.41 -29, -407.71 -33.52, -402.55 -39.82 M-415.12 -24.47 C-410.48 -30.13, -405.84 -35.8, -402.55 -39.82" stroke="#1e1e1e" stroke-width="1" fill="none"></path></g><g transform="translate(538.7040904731202 427.34063395007433) rotate(0 -215.40195858170478 25.90517688662203)"><path d="M-422.05 -36.14 C-416.3 -37.23, -410.55 -38.31, -402.55 -39.82 M-422.05 -36.14 C-414.85 -37.5, -407.65 -38.86, -402.55 -39.82" stroke="#1e1e1e" stroke-width="1" fill="none"></path></g></g><mask id="mask-AFKevOB6Q-JHVMEq5qI6h"><rect x="0" y="0" fill="#fff" width="1069.5080076365298" height="658.7977288146849"></rect><rect x="77.22707587384093" y="464.85692949187523" fill="#000" width="134.23992919921875" height="40" opacity="1"></rect></mask><g transform="translate(77.22707587384093 464.85692949187523) rotate(0 246.04805306837207 -10.593363608615846)"><text x="67.11996459960938" y="0" font-family="Virgil, Segoe UI Emoji" font-size="16px" fill="#1e1e1e" text-anchor="middle" style="white-space: pre;" direction="ltr" dominant-baseline="text-before-edge">Retry on failure </text><text x="67.11996459960938" y="20" font-family="Virgil, Segoe UI Emoji" font-size="16px" fill="#1e1e1e" text-anchor="middle" style="white-space: pre;" direction="ltr" dominant-baseline="text-before-edge">w/ backoff</text></g><g stroke-linecap="round" transform="translate(243.15436564135234 405.2909911911047) rotate(0 84.31701417007389 19.32041466377268)"><path d="M9.66 0 C55.87 0, 102.07 0, 158.97 0 M9.66 0 C57.6 0, 105.55 0, 158.97 0 M158.97 0 C165.41 0, 168.63 3.22, 168.63 9.66 M158.97 0 C165.41 0, 168.63 3.22, 168.63 9.66 M168.63 9.66 C168.63 14.13, 168.63 18.6, 168.63 28.98 M168.63 9.66 C168.63 14.58, 168.63 19.49, 168.63 28.98 M168.63 28.98 C168.63 35.42, 165.41 38.64, 158.97 38.64 M168.63 28.98 C168.63 35.42, 165.41 38.64, 158.97 38.64 M158.97 38.64 C119.73 38.64, 80.48 38.64, 9.66 38.64 M158.97 38.64 C122.15 38.64, 85.33 38.64, 9.66 38.64 M9.66 38.64 C3.22 38.64, 0 35.42, 0 28.98 M9.66 38.64 C3.22 38.64, 0 35.42, 0 28.98 M0 28.98 C0 22.83, 0 16.68, 0 9.66 M0 28.98 C0 23.65, 0 18.32, 0 9.66 M0 9.66 C0 3.22, 3.22 0, 9.66 0 M0 9.66 C0 3.22, 3.22 0, 9.66 0" stroke="#1e1e1e" stroke-width="1" fill="none"></path></g><g transform="translate(310.79938274111373 414.6114058548774) rotate(0 16.6719970703125 10)"><text x="16.6719970703125" y="0" font-family="Virgil, Segoe UI Emoji" font-size="16px" fill="#1e1e1e" text-anchor="middle" style="white-space: pre;" direction="ltr" dominant-baseline="text-before-edge">DLQ</text></g><g transform="translate(1267.6927229528183 393.7181581095592) rotate(0 62.11994934082031 50)"><text x="0" y="0" font-family="Virgil, Segoe UI Emoji" font-size="16px" fill="#1e1e1e" text-anchor="start" style="white-space: pre;" direction="ltr" dominant-baseline="text-before-edge">Domain</text><text x="0" y="20" font-family="Virgil, Segoe UI Emoji" font-size="16px" fill="#1e1e1e" text-anchor="start" style="white-space: pre;" direction="ltr" dominant-baseline="text-before-edge">- domain</text><text x="0" y="40" font-family="Virgil, Segoe UI Emoji" font-size="16px" fill="#1e1e1e" text-anchor="start" style="white-space: pre;" direction="ltr" dominant-baseline="text-before-edge">- lastCrawlTime</text><text x="0" y="60" font-family="Virgil, Segoe UI Emoji" font-size="16px" fill="#1e1e1e" text-anchor="start" style="white-space: pre;" direction="ltr" dominant-baseline="text-before-edge">- robots</text><text x="0" y="80" font-family="Virgil, Segoe UI Emoji" font-size="16px" fill="#1e1e1e" text-anchor="start" style="white-space: pre;" direction="ltr" dominant-baseline="text-before-edge"></text></g><g stroke-linecap="round" transform="translate(330.47085503618746 186.75798628327902) rotate(0 69.22276794099639 63.5)"><path d="M138.45 63.5 C138.45 65.87, 138.3 68.25, 138.01 70.61 C137.72 72.96, 137.28 75.32, 136.71 77.63 C136.14 79.94, 135.41 82.24, 134.56 84.47 C133.71 86.71, 132.71 88.92, 131.59 91.05 C130.47 93.19, 129.21 95.28, 127.84 97.28 C126.46 99.29, 124.95 101.24, 123.34 103.09 C121.73 104.94, 120 106.73, 118.17 108.4 C116.34 110.08, 114.4 111.67, 112.38 113.15 C110.36 114.62, 108.24 116.01, 106.05 117.27 C103.86 118.53, 101.59 119.68, 99.26 120.71 C96.93 121.74, 94.52 122.65, 92.09 123.44 C89.65 124.22, 87.15 124.88, 84.63 125.41 C82.11 125.94, 79.54 126.34, 76.97 126.6 C74.41 126.87, 71.81 127, 69.22 127 C66.64 127, 64.04 126.87, 61.47 126.6 C58.91 126.34, 56.34 125.94, 53.82 125.41 C51.3 124.88, 48.8 124.22, 46.36 123.44 C43.92 122.65, 41.52 121.74, 39.19 120.71 C36.86 119.68, 34.58 118.53, 32.39 117.27 C30.21 116.01, 28.08 114.62, 26.06 113.15 C24.04 111.67, 22.1 110.08, 20.27 108.4 C18.45 106.73, 16.71 104.94, 15.1 103.09 C13.49 101.24, 11.98 99.29, 10.61 97.28 C9.24 95.28, 7.98 93.19, 6.86 91.05 C5.73 88.92, 4.74 86.71, 3.88 84.47 C3.03 82.24, 2.31 79.94, 1.74 77.63 C1.16 75.32, 0.72 72.96, 0.44 70.61 C0.15 68.25, 0 65.87, 0 63.5 C0 61.13, 0.15 58.75, 0.44 56.39 C0.72 54.04, 1.16 51.68, 1.74 49.37 C2.31 47.06, 3.03 44.76, 3.88 42.53 C4.74 40.29, 5.73 38.08, 6.86 35.95 C7.98 33.81, 9.24 31.72, 10.61 29.72 C11.98 27.71, 13.49 25.76, 15.1 23.91 C16.71 22.06, 18.45 20.27, 20.27 18.6 C22.1 16.92, 24.04 15.33, 26.06 13.85 C28.08 12.38, 30.21 10.99, 32.39 9.73 C34.58 8.47, 36.86 7.32, 39.19 6.29 C41.52 5.26, 43.92 4.35, 46.36 3.56 C48.8 2.78, 51.3 2.12, 53.82 1.59 C56.34 1.06, 58.91 0.66, 61.47 0.4 C64.04 0.13, 66.64 0, 69.22 0 C71.81 0, 74.41 0.13, 76.97 0.4 C79.54 0.66, 82.11 1.06, 84.63 1.59 C87.15 2.12, 89.65 2.78, 92.09 3.56 C94.52 4.35, 96.93 5.26, 99.26 6.29 C101.59 7.32, 103.86 8.47, 106.05 9.73 C108.24 10.99, 110.36 12.38, 112.38 13.85 C114.4 15.33, 116.34 16.92, 118.17 18.6 C120 20.27, 121.73 22.06, 123.34 23.91 C124.95 25.76, 126.46 27.71, 127.84 29.72 C129.21 31.72, 130.47 33.81, 131.59 35.95 C132.71 38.08, 133.71 40.29, 134.56 42.53 C135.41 44.76, 136.14 47.06, 136.71 49.37 C137.28 51.68, 137.72 54.04, 138.01 56.39 C138.3 58.75, 138.37 62.32, 138.45 63.5 C138.52 64.68, 138.52 62.32, 138.45 63.5" stroke="#1e1e1e" stroke-width="1" fill="none"></path></g><g transform="translate(356.6577598052627 220.35670567793326) rotate(0 43.08797454833983 30)"><text x="43.087974548339844" y="0" font-family="Virgil, Segoe UI Emoji" font-size="16px" fill="#1e1e1e" text-anchor="middle" style="white-space: pre;" direction="ltr" dominant-baseline="text-before-edge">Rate </text><text x="43.087974548339844" y="20" font-family="Virgil, Segoe UI Emoji" font-size="16px" fill="#1e1e1e" text-anchor="middle" style="white-space: pre;" direction="ltr" dominant-baseline="text-before-edge">limiter &amp; </text><text x="43.087974548339844" y="40" font-family="Virgil, Segoe UI Emoji" font-size="16px" fill="#1e1e1e" text-anchor="middle" style="white-space: pre;" direction="ltr" dominant-baseline="text-before-edge">DNS Cache</text></g><g stroke-linecap="round"><g transform="translate(550.575832411314 323.2081701956531) rotate(0 -42.484099246589494 -22.4572339284573)"><path d="M0 0 C-14.16 -7.49, -70.81 -37.43, -84.97 -44.91 M0 0 C-14.16 -7.49, -70.81 -37.43, -84.97 -44.91" stroke="#1e1e1e" stroke-width="1" fill="none"></path></g><g transform="translate(550.575832411314 323.2081701956531) rotate(0 -42.484099246589494 -22.4572339284573)"><path d="M-29.72 -4.1 C-20.79 -2.87, -11.86 -1.64, 0 0 M-29.72 -4.1 C-21.09 -2.91, -12.46 -1.72, 0 0" stroke="#1e1e1e" stroke-width="1" fill="none"></path></g><g transform="translate(550.575832411314 323.2081701956531) rotate(0 -42.484099246589494 -22.4572339284573)"><path d="M-20.13 -22.25 C-14.08 -15.56, -8.03 -8.88, 0 0 M-20.13 -22.25 C-14.28 -15.79, -8.44 -9.33, 0 0" stroke="#1e1e1e" stroke-width="1" fill="none"></path></g><g transform="translate(550.575832411314 323.2081701956531) rotate(0 -42.484099246589494 -22.4572339284573)"><path d="M-55.25 -40.81 C-64.18 -42.04, -73.11 -43.28, -84.97 -44.91 M-55.25 -40.81 C-63.88 -42, -72.5 -43.19, -84.97 -44.91" stroke="#1e1e1e" stroke-width="1" fill="none"></path></g><g transform="translate(550.575832411314 323.2081701956531) rotate(0 -42.484099246589494 -22.4572339284573)"><path d="M-64.84 -22.67 C-70.89 -29.35, -76.94 -36.04, -84.97 -44.91 M-64.84 -22.67 C-70.68 -29.13, -76.53 -35.58, -84.97 -44.91" stroke="#1e1e1e" stroke-width="1" fill="none"></path></g></g><mask></mask><g stroke-linecap="round" transform="translate(557.6141663868857 312.00968453293444) rotate(0 82.35880551299124 72.60410217068733)"><path d="M32 0 C60.94 0, 89.88 0, 132.72 0 M32 0 C64.91 0, 97.83 0, 132.72 0 M132.72 0 C154.05 0, 164.72 10.67, 164.72 32 M132.72 0 C154.05 0, 164.72 10.67, 164.72 32 M164.72 32 C164.72 60.99, 164.72 89.97, 164.72 113.21 M164.72 32 C164.72 57.92, 164.72 83.84, 164.72 113.21 M164.72 113.21 C164.72 134.54, 154.05 145.21, 132.72 145.21 M164.72 113.21 C164.72 134.54, 154.05 145.21, 132.72 145.21 M132.72 145.21 C101.18 145.21, 69.64 145.21, 32 145.21 M132.72 145.21 C96.07 145.21, 59.42 145.21, 32 145.21 M32 145.21 C10.67 145.21, 0 134.54, 0 113.21 M32 145.21 C10.67 145.21, 0 134.54, 0 113.21 M0 113.21 C0 83.67, 0 54.14, 0 32 M0 113.21 C0 92.19, 0 71.17, 0 32 M0 32 C0 10.67, 10.67 0, 32 0 M0 32 C0 10.67, 10.67 0, 32 0" stroke="#1e1e1e" stroke-width="1" fill="none"></path></g><g stroke-linecap="round" transform="translate(564.4357907891836 320.34863335068894) rotate(0 82.35880551299124 72.60410217068733)"><path d="M32 0 C52.94 0, 73.89 0, 132.72 0 M32 0 C70.75 0, 109.5 0, 132.72 0 M132.72 0 C154.05 0, 164.72 10.67, 164.72 32 M132.72 0 C154.05 0, 164.72 10.67, 164.72 32 M164.72 32 C164.72 58.35, 164.72 84.7, 164.72 113.21 M164.72 32 C164.72 59.86, 164.72 87.72, 164.72 113.21 M164.72 113.21 C164.72 134.54, 154.05 145.21, 132.72 145.21 M164.72 113.21 C164.72 134.54, 154.05 145.21, 132.72 145.21 M132.72 145.21 C93.47 145.21, 54.23 145.21, 32 145.21 M132.72 145.21 C104.15 145.21, 75.59 145.21, 32 145.21 M32 145.21 C10.67 145.21, 0 134.54, 0 113.21 M32 145.21 C10.67 145.21, 0 134.54, 0 113.21 M0 113.21 C0 81.43, 0 49.66, 0 32 M0 113.21 C0 93.47, 0 73.73, 0 32 M0 32 C0 10.67, 10.67 0, 32 0 M0 32 C0 10.67, 10.67 0, 32 0" stroke="#1e1e1e" stroke-width="1" fill="none"></path></g><g transform="translate(583.8906351205342 352.95273552137627) rotate(0 62.903961181640625 40)"><text x="62.903961181640625" y="0" font-family="Virgil, Segoe UI Emoji" font-size="16px" fill="#1e1e1e" text-anchor="middle" style="white-space: pre;" direction="ltr" dominant-baseline="text-before-edge">Crawler</text><text x="62.903961181640625" y="20" font-family="Virgil, Segoe UI Emoji" font-size="16px" fill="#1e1e1e" text-anchor="middle" style="white-space: pre;" direction="ltr" dominant-baseline="text-before-edge">- fetch &amp;store </text><text x="62.903961181640625" y="40" font-family="Virgil, Segoe UI Emoji" font-size="16px" fill="#1e1e1e" text-anchor="middle" style="white-space: pre;" direction="ltr" dominant-baseline="text-before-edge">webpage</text><text x="62.903961181640625" y="60" font-family="Virgil, Segoe UI Emoji" font-size="16px" fill="#1e1e1e" text-anchor="middle" style="white-space: pre;" direction="ltr" dominant-baseline="text-before-edge"></text></g><g stroke-linecap="round" transform="translate(1454.2437772637536 581.424670570409) rotate(0 82.35880551299124 72.60410217068733)"><path d="M32 0 C71.97 0, 111.94 0, 132.72 0 M32 0 C53.29 0, 74.57 0, 132.72 0 M132.72 0 C154.05 0, 164.72 10.67, 164.72 32 M132.72 0 C154.05 0, 164.72 10.67, 164.72 32 M164.72 32 C164.72 51.31, 164.72 70.61, 164.72 113.21 M164.72 32 C164.72 59.83, 164.72 87.66, 164.72 113.21 M164.72 113.21 C164.72 134.54, 154.05 145.21, 132.72 145.21 M164.72 113.21 C164.72 134.54, 154.05 145.21, 132.72 145.21 M132.72 145.21 C99.02 145.21, 65.32 145.21, 32 145.21 M132.72 145.21 C102.32 145.21, 71.93 145.21, 32 145.21 M32 145.21 C10.67 145.21, 0 134.54, 0 113.21 M32 145.21 C10.67 145.21, 0 134.54, 0 113.21 M0 113.21 C0 84.97, 0 56.73, 0 32 M0 113.21 C0 89.65, 0 66.09, 0 32 M0 32 C0 10.67, 10.67 0, 32 0 M0 32 C0 10.67, 10.67 0, 32 0" stroke="#1e1e1e" stroke-width="1" fill="none"></path></g><g stroke-linecap="round" transform="translate(1467.1037356416232 595.0082021419103) rotate(0 82.35880551299124 72.60410217068733)"><path d="M32 0 C62.21 0, 92.43 0, 132.72 0 M32 0 C52.88 0, 73.77 0, 132.72 0 M132.72 0 C154.05 0, 164.72 10.67, 164.72 32 M132.72 0 C154.05 0, 164.72 10.67, 164.72 32 M164.72 32 C164.72 64.26, 164.72 96.51, 164.72 113.21 M164.72 32 C164.72 56.72, 164.72 81.44, 164.72 113.21 M164.72 113.21 C164.72 134.54, 154.05 145.21, 132.72 145.21 M164.72 113.21 C164.72 134.54, 154.05 145.21, 132.72 145.21 M132.72 145.21 C110.5 145.21, 88.28 145.21, 32 145.21 M132.72 145.21 C100.52 145.21, 68.31 145.21, 32 145.21 M32 145.21 C10.67 145.21, 0 134.54, 0 113.21 M32 145.21 C10.67 145.21, 0 134.54, 0 113.21 M0 113.21 C0 86.97, 0 60.73, 0 32 M0 113.21 C0 82.27, 0 51.33, 0 32 M0 32 C0 10.67, 10.67 0, 32 0 M0 32 C0 10.67, 10.67 0, 32 0" stroke="#1e1e1e" stroke-width="1" fill="none"></path></g><g stroke-linecap="round" transform="translate(1460.9942704901455 588.572006616464) rotate(0 82.35880551299124 72.60410217068733)"><path d="M32 0 C55.31 0, 78.62 0, 132.72 0 M32 0 C57.63 0, 83.26 0, 132.72 0 M132.72 0 C154.05 0, 164.72 10.67, 164.72 32 M132.72 0 C154.05 0, 164.72 10.67, 164.72 32 M164.72 32 C164.72 53.35, 164.72 74.69, 164.72 113.21 M164.72 32 C164.72 52.03, 164.72 72.05, 164.72 113.21 M164.72 113.21 C164.72 134.54, 154.05 145.21, 132.72 145.21 M164.72 113.21 C164.72 134.54, 154.05 145.21, 132.72 145.21 M132.72 145.21 C100.65 145.21, 68.58 145.21, 32 145.21 M132.72 145.21 C104.92 145.21, 77.12 145.21, 32 145.21 M32 145.21 C10.67 145.21, 0 134.54, 0 113.21 M32 145.21 C10.67 145.21, 0 134.54, 0 113.21 M0 113.21 C0 90.38, 0 67.55, 0 32 M0 113.21 C0 84.05, 0 54.9, 0 32 M0 32 C0 10.67, 10.67 0, 32 0 M0 32 C0 10.67, 10.67 0, 32 0" stroke="#1e1e1e" stroke-width="1" fill="none"></path></g><g transform="translate(1472.281130812707 641.1761087871514) rotate(0 71.07194519042969 20)"><text x="71.07194519042969" y="0" font-family="Virgil, Segoe UI Emoji" font-size="16px" fill="#1e1e1e" text-anchor="middle" style="white-space: pre;" direction="ltr" dominant-baseline="text-before-edge">Parsing worker</text><text x="71.07194519042969" y="20" font-family="Virgil, Segoe UI Emoji" font-size="16px" fill="#1e1e1e" text-anchor="middle" style="white-space: pre;" direction="ltr" dominant-baseline="text-before-edge">- check hash first</text></g><g transform="translate(136.89589372178034 227.1615319121147) rotate(0 90.59994506835938 20)"><text x="181.19989013671875" y="0" font-family="Virgil, Segoe UI Emoji" font-size="16px" fill="#1e1e1e" text-anchor="end" style="white-space: pre;" direction="ltr" dominant-baseline="text-before-edge">- Just use same Redis</text><text x="181.19989013671875" y="20" font-family="Virgil, Segoe UI Emoji" font-size="16px" fill="#1e1e1e" text-anchor="end" style="white-space: pre;" direction="ltr" dominant-baseline="text-before-edge">cluster</text></g></svg>