<svg version="1.1" xmlns="http://www.w3.org/2000/svg" viewBox="0 0 1676.6325044058985 821.2647067925245" >
  <!-- svg-source:excalidraw -->
  <!-- payload-type:application/vnd.excalidraw+json --><!-- payload-version:2 -->
  <defs>
    <style class="style-fonts">
      @font-face {
        font-family: "Virgil";
        src: url("https://files.hellointerview.com/build-assets/PRODUCTION/_next/static/media/Excalifont-s.p.436754fa.woff2");
      }
      @font-face {
        font-family: "Cascadia";
        src: url("https://file%2B.vscode-resource.vscode-cdn.net/Users/iamnafets/.cursor/extensions/pomdtr.excalidraw-editor-3.7.4/public//dist/excalidraw-assets/Cascadia.woff2");
      }
      @font-face {
        font-family: "Assistant";
        src: url("https://file%2B.vscode-resource.vscode-cdn.net/Users/iamnafets/.cursor/extensions/pomdtr.excalidraw-editor-3.7.4/public//dist/excalidraw-assets/Assistant-Regular.woff2");
      }
    </style>
    
  </defs>
  <rect x="0" y="0" width="1676.6325044058985" height="821.2647067925245" fill="#ffffff"></rect><g stroke-linecap="round" transform="translate(144.56556492953496 344.28620770411) rotate(0 134.74371016990517 30.697428344635682)"><path d="M15.35 0 C66.06 0, 116.77 0, 254.14 0 M15.35 0 C110.38 0, 205.4 0, 254.14 0 M254.14 0 C264.37 0, 269.49 5.12, 269.49 15.35 M254.14 0 C264.37 0, 269.49 5.12, 269.49 15.35 M269.49 15.35 C269.49 26.24, 269.49 37.14, 269.49 46.05 M269.49 15.35 C269.49 25.95, 269.49 36.55, 269.49 46.05 M269.49 46.05 C269.49 56.28, 264.37 61.39, 254.14 61.39 M269.49 46.05 C269.49 56.28, 264.37 61.39, 254.14 61.39 M254.14 61.39 C204.96 61.39, 155.79 61.39, 15.35 61.39 M254.14 61.39 C170.65 61.39, 87.17 61.39, 15.35 61.39 M15.35 61.39 C5.12 61.39, 0 56.28, 0 46.05 M15.35 61.39 C5.12 61.39, 0 56.28, 0 46.05 M0 46.05 C0 35.8, 0 25.54, 0 15.35 M0 46.05 C0 37.22, 0 28.39, 0 15.35 M0 15.35 C0 5.12, 5.12 0, 15.35 0 M0 15.35 C0 5.12, 5.12 0, 15.35 0" stroke="#1e1e1e" stroke-width="1" fill="none"></path></g><g transform="translate(196.1493095843034 364.98363604874567) rotate(0 83.15996551513672 10)"><text x="83.15996551513672" y="0" font-family="Virgil, Segoe UI Emoji" font-size="16px" fill="#1e1e1e" text-anchor="middle" style="white-space: pre;" direction="ltr" dominant-baseline="text-before-edge">Frontier Queue (SQS)</text></g><g stroke-linecap="round" transform="translate(551.6879109441688 306.9559376397883) rotate(0 82.35880551299124 72.60410217068733)"><path d="M32 0 C58.97 0, 85.94 0, 132.72 0 M32 0 C59.63 0, 87.27 0, 132.72 0 M132.72 0 C154.05 0, 164.72 10.67, 164.72 32 M132.72 0 C154.05 0, 164.72 10.67, 164.72 32 M164.72 32 C164.72 53, 164.72 73.99, 164.72 113.21 M164.72 32 C164.72 52.73, 164.72 73.46, 164.72 113.21 M164.72 113.21 C164.72 134.54, 154.05 145.21, 132.72 145.21 M164.72 113.21 C164.72 134.54, 154.05 145.21, 132.72 145.21 M132.72 145.21 C109.5 145.21, 86.29 145.21, 32 145.21 M132.72 145.21 C98.1 145.21, 63.48 145.21, 32 145.21 M32 145.21 C10.67 145.21, 0 134.54, 0 113.21 M32 145.21 C10.67 145.21, 0 134.54, 0 113.21 M0 113.21 C0 95.38, 0 77.55, 0 32 M0 113.21 C0 83.35, 0 53.5, 0 32 M0 32 C0 10.67, 10.67 0, 32 0 M0 32 C0 10.67, 10.67 0, 32 0" stroke="#1e1e1e" stroke-width="1" fill="none"></path></g><g transform="translate(571.1427552755194 339.56003981047564) rotate(0 62.903961181640625 40)"><text x="62.903961181640625" y="0" font-family="Virgil, Segoe UI Emoji" font-size="16px" fill="#1e1e1e" text-anchor="middle" style="white-space: pre;" direction="ltr" dominant-baseline="text-before-edge">Crawler</text><text x="62.903961181640625" y="20" font-family="Virgil, Segoe UI Emoji" font-size="16px" fill="#1e1e1e" text-anchor="middle" style="white-space: pre;" direction="ltr" dominant-baseline="text-before-edge">- fetch &amp;store </text><text x="62.903961181640625" y="40" font-family="Virgil, Segoe UI Emoji" font-size="16px" fill="#1e1e1e" text-anchor="middle" style="white-space: pre;" direction="ltr" dominant-baseline="text-before-edge">webpage</text><text x="62.903961181640625" y="60" font-family="Virgil, Segoe UI Emoji" font-size="16px" fill="#1e1e1e" text-anchor="middle" style="white-space: pre;" direction="ltr" dominant-baseline="text-before-edge"></text></g><g stroke-linecap="round"><g transform="translate(423.2438925618171 372.9006481185552) rotate(0 61.6057586259908 -0.11194866972346063)"><path d="M0 0 C20.54 -0.04, 102.68 -0.19, 123.21 -0.22 M0 0 C20.54 -0.04, 102.68 -0.19, 123.21 -0.22" stroke="#1e1e1e" stroke-width="1" fill="none"></path></g><g transform="translate(423.2438925618171 372.9006481185552) rotate(0 61.6057586259908 -0.11194866972346063)"><path d="M95.04 10.09 C101.21 7.83, 107.39 5.57, 123.21 -0.22 M95.04 10.09 C104.38 6.67, 113.71 3.25, 123.21 -0.22" stroke="#1e1e1e" stroke-width="1" fill="none"></path></g><g transform="translate(423.2438925618171 372.9006481185552) rotate(0 61.6057586259908 -0.11194866972346063)"><path d="M95 -10.43 C101.18 -8.2, 107.36 -5.96, 123.21 -0.22 M95 -10.43 C104.35 -7.05, 113.7 -3.67, 123.21 -0.22" stroke="#1e1e1e" stroke-width="1" fill="none"></path></g></g><mask></mask><g stroke-linecap="round" transform="translate(451.24525935212114 74.22811953258861) rotate(0 51.79958325055122 27.29598334796686)"><path d="M13.65 0 C29.11 0, 44.58 0, 89.95 0 M13.65 0 C32.58 0, 51.51 0, 89.95 0 M89.95 0 C99.05 0, 103.6 4.55, 103.6 13.65 M89.95 0 C99.05 0, 103.6 4.55, 103.6 13.65 M103.6 13.65 C103.6 20.17, 103.6 26.69, 103.6 40.94 M103.6 13.65 C103.6 22.56, 103.6 31.47, 103.6 40.94 M103.6 40.94 C103.6 50.04, 99.05 54.59, 89.95 54.59 M103.6 40.94 C103.6 50.04, 99.05 54.59, 89.95 54.59 M89.95 54.59 C60.24 54.59, 30.54 54.59, 13.65 54.59 M89.95 54.59 C63.25 54.59, 36.55 54.59, 13.65 54.59 M13.65 54.59 C4.55 54.59, 0 50.04, 0 40.94 M13.65 54.59 C4.55 54.59, 0 50.04, 0 40.94 M0 40.94 C0 31.88, 0 22.82, 0 13.65 M0 40.94 C0 33.23, 0 25.52, 0 13.65 M0 13.65 C0 4.55, 4.55 0, 13.65 0 M0 13.65 C0 4.55, 4.55 0, 13.65 0" stroke="#1e1e1e" stroke-width="1" fill="none"></path></g><g transform="translate(486.78885352796533 91.52410288055546) rotate(0 16.25598907470703 10)"><text x="16.25598907470703" y="0" font-family="Virgil, Segoe UI Emoji" font-size="16px" fill="#1e1e1e" text-anchor="middle" style="white-space: pre;" direction="ltr" dominant-baseline="text-before-edge">DNS</text></g><g stroke-linecap="round" transform="translate(665.9208698123239 10) rotate(0 65.71934302140744 61.35400666929533)"><path d="M30.68 0 C46.69 0, 62.71 0, 100.76 0 M30.68 0 C48.33 0, 65.98 0, 100.76 0 M100.76 0 C121.21 0, 131.44 10.23, 131.44 30.68 M100.76 0 C121.21 0, 131.44 10.23, 131.44 30.68 M131.44 30.68 C131.44 48.75, 131.44 66.82, 131.44 92.03 M131.44 30.68 C131.44 51.74, 131.44 72.79, 131.44 92.03 M131.44 92.03 C131.44 112.48, 121.21 122.71, 100.76 122.71 M131.44 92.03 C131.44 112.48, 121.21 122.71, 100.76 122.71 M100.76 122.71 C84.22 122.71, 67.67 122.71, 30.68 122.71 M100.76 122.71 C85.12 122.71, 69.49 122.71, 30.68 122.71 M30.68 122.71 C10.23 122.71, 0 112.48, 0 92.03 M30.68 122.71 C10.23 122.71, 0 112.48, 0 92.03 M0 92.03 C0 68.34, 0 44.64, 0 30.68 M0 92.03 C0 78.59, 0 65.15, 0 30.68 M0 30.68 C0 10.23, 10.23 0, 30.68 0 M0 30.68 C0 10.23, 10.23 0, 30.68 0" stroke="#1e1e1e" stroke-width="1" fill="none"></path></g><g transform="translate(699.5682371257235 61.35400666929533) rotate(0 32.07197570800781 10)"><text x="32.07197570800781" y="0" font-family="Virgil, Segoe UI Emoji" font-size="16px" fill="#1e1e1e" text-anchor="middle" style="white-space: pre;" direction="ltr" dominant-baseline="text-before-edge">Webpage</text></g><g stroke-linecap="round"><g transform="translate(505.37048844783385 142.59471296443007) rotate(0 40.78889213057664 78.0411436467767)"><path d="M0 0 C13.6 26.01, 67.98 130.07, 81.58 156.08 M0 0 C13.6 26.01, 67.98 130.07, 81.58 156.08" stroke="#1e1e1e" stroke-width="1" fill="none"></path></g><g transform="translate(505.37048844783385 142.59471296443007) rotate(0 40.78889213057664 78.0411436467767)"><path d="M22.15 20.23 C14.33 13.09, 6.5 5.94, 0 0 M22.15 20.23 C15.92 14.54, 9.68 8.84, 0 0" stroke="#1e1e1e" stroke-width="1" fill="none"></path></g><g transform="translate(505.37048844783385 142.59471296443007) rotate(0 40.78889213057664 78.0411436467767)"><path d="M3.96 29.74 C2.56 19.23, 1.16 8.73, 0 0 M3.96 29.74 C2.85 21.37, 1.73 13, 0 0" stroke="#1e1e1e" stroke-width="1" fill="none"></path></g><g transform="translate(505.37048844783385 142.59471296443007) rotate(0 40.78889213057664 78.0411436467767)"><path d="M59.43 135.85 C67.25 143, 75.07 150.14, 81.58 156.08 M59.43 135.85 C65.66 141.54, 71.89 147.24, 81.58 156.08" stroke="#1e1e1e" stroke-width="1" fill="none"></path></g><g transform="translate(505.37048844783385 142.59471296443007) rotate(0 40.78889213057664 78.0411436467767)"><path d="M77.61 126.35 C79.01 136.85, 80.41 147.35, 81.58 156.08 M77.61 126.35 C78.73 134.71, 79.84 143.08, 81.58 156.08" stroke="#1e1e1e" stroke-width="1" fill="none"></path></g></g><mask></mask><g stroke-linecap="round"><g transform="translate(647.9151550779516 295.55061206248683) rotate(0 42.552637195224634 -76.34772688092855)"><path d="M0 0 C14.18 -25.45, 70.92 -127.25, 85.11 -152.7 M0 0 C14.18 -25.45, 70.92 -127.25, 85.11 -152.7" stroke="#1e1e1e" stroke-width="1" fill="none"></path></g><g transform="translate(647.9151550779516 295.55061206248683) rotate(0 42.552637195224634 -76.34772688092855)"><path d="M4.76 -29.62 C3.13 -19.46, 1.49 -9.29, 0 0 M4.76 -29.62 C3.05 -18.98, 1.34 -8.34, 0 0" stroke="#1e1e1e" stroke-width="1" fill="none"></path></g><g transform="translate(647.9151550779516 295.55061206248683) rotate(0 42.552637195224634 -76.34772688092855)"><path d="M22.69 -19.63 C14.9 -12.89, 7.12 -6.16, 0 0 M22.69 -19.63 C14.54 -12.58, 6.39 -5.53, 0 0" stroke="#1e1e1e" stroke-width="1" fill="none"></path></g><g transform="translate(647.9151550779516 295.55061206248683) rotate(0 42.552637195224634 -76.34772688092855)"><path d="M80.34 -123.08 C81.98 -133.24, 83.61 -143.4, 85.11 -152.7 M80.34 -123.08 C82.05 -133.71, 83.76 -144.35, 85.11 -152.7" stroke="#1e1e1e" stroke-width="1" fill="none"></path></g><g transform="translate(647.9151550779516 295.55061206248683) rotate(0 42.552637195224634 -76.34772688092855)"><path d="M62.42 -133.07 C70.2 -139.8, 77.99 -146.54, 85.11 -152.7 M62.42 -133.07 C70.57 -140.12, 78.72 -147.17, 85.11 -152.7" stroke="#1e1e1e" stroke-width="1" fill="none"></path></g></g><mask></mask><g mask="url(#mask-qU8sL5NLjY64nYM8AmfNh)" stroke-linecap="round"><g transform="translate(740.0193634653897 369.25201218164875) rotate(0 117.26663298245103 -37.78678624499253)"><path d="M0 0 C39.09 -12.6, 195.44 -62.98, 234.53 -75.57 M0 0 C39.09 -12.6, 195.44 -62.98, 234.53 -75.57" stroke="#1e1e1e" stroke-width="1" fill="none"></path></g><g transform="translate(740.0193634653897 369.25201218164875) rotate(0 117.26663298245103 -37.78678624499253)"><path d="M210.85 -57.16 C219.25 -63.7, 227.66 -70.23, 234.53 -75.57 M210.85 -57.16 C219.03 -63.52, 227.21 -69.88, 234.53 -75.57" stroke="#1e1e1e" stroke-width="1" fill="none"></path></g><g transform="translate(740.0193634653897 369.25201218164875) rotate(0 117.26663298245103 -37.78678624499253)"><path d="M204.55 -76.69 C215.19 -76.3, 225.83 -75.9, 234.53 -75.57 M204.55 -76.69 C214.91 -76.31, 225.26 -75.92, 234.53 -75.57" stroke="#1e1e1e" stroke-width="1" fill="none"></path></g></g><mask id="mask-qU8sL5NLjY64nYM8AmfNh"><rect x="0" y="0" fill="#fff" width="1074.5526294302917" height="544.8255846716338"></rect><rect x="795.1180200684462" y="321.4652259366562" fill="#000" width="124.33595275878906" height="20" opacity="1"></rect></mask><g transform="translate(795.1180200684462 321.4652259366562) rotate(0 62.16797637939453 10)"><text x="62.16797637939453" y="0" font-family="Virgil, Segoe UI Emoji" font-size="16px" fill="#1e1e1e" text-anchor="middle" style="white-space: pre;" direction="ltr" dominant-baseline="text-before-edge">Save raw HTML</text></g><g stroke-linecap="round" transform="translate(986.3482314370394 193.0253884281101) rotate(0 83.68252896753256 79.42056656086663)"><path d="M167.37 79.42 C167.37 82.19, 167.21 84.97, 166.91 87.72 C166.6 90.47, 166.14 93.23, 165.54 95.93 C164.93 98.64, 164.17 101.33, 163.27 103.96 C162.37 106.59, 161.32 109.2, 160.13 111.72 C158.94 114.25, 157.61 116.73, 156.15 119.13 C154.7 121.53, 153.1 123.86, 151.38 126.1 C149.67 128.34, 147.82 130.51, 145.87 132.56 C143.92 134.62, 141.84 136.59, 139.68 138.44 C137.51 140.29, 135.23 142.05, 132.87 143.67 C130.51 145.3, 128.05 146.82, 125.52 148.2 C123 149.58, 120.38 150.85, 117.72 151.97 C115.06 153.1, 112.31 154.1, 109.54 154.95 C106.77 155.81, 103.93 156.53, 101.08 157.11 C98.23 157.68, 95.33 158.12, 92.43 158.41 C89.53 158.7, 86.6 158.84, 83.68 158.84 C80.77 158.84, 77.84 158.7, 74.94 158.41 C72.04 158.12, 69.14 157.68, 66.28 157.11 C63.43 156.53, 60.6 155.81, 57.82 154.95 C55.05 154.1, 52.31 153.1, 49.65 151.97 C46.98 150.85, 44.37 149.58, 41.84 148.2 C39.32 146.82, 36.85 145.3, 34.5 143.67 C32.14 142.05, 29.85 140.29, 27.69 138.44 C25.52 136.59, 23.45 134.62, 21.49 132.56 C19.54 130.51, 17.7 128.34, 15.98 126.1 C14.27 123.86, 12.67 121.53, 11.21 119.13 C9.75 116.73, 8.42 114.25, 7.23 111.72 C6.05 109.2, 5 106.59, 4.1 103.96 C3.19 101.33, 2.43 98.64, 1.83 95.93 C1.22 93.23, 0.76 90.47, 0.46 87.72 C0.15 84.97, 0 82.19, 0 79.42 C0 76.65, 0.15 73.87, 0.46 71.12 C0.76 68.37, 1.22 65.61, 1.83 62.91 C2.43 60.2, 3.19 57.51, 4.1 54.88 C5 52.25, 6.05 49.65, 7.23 47.12 C8.42 44.59, 9.75 42.11, 11.21 39.71 C12.67 37.31, 14.27 34.98, 15.98 32.74 C17.7 30.5, 19.54 28.33, 21.49 26.28 C23.45 24.22, 25.52 22.25, 27.69 20.4 C29.85 18.55, 32.14 16.79, 34.5 15.17 C36.85 13.54, 39.32 12.02, 41.84 10.64 C44.37 9.26, 46.98 7.99, 49.65 6.87 C52.31 5.74, 55.05 4.74, 57.82 3.89 C60.6 3.03, 63.43 2.31, 66.28 1.74 C69.14 1.16, 72.04 0.72, 74.94 0.44 C77.84 0.15, 80.77 0, 83.68 0 C86.6 0, 89.53 0.15, 92.43 0.44 C95.33 0.72, 98.23 1.16, 101.08 1.74 C103.93 2.31, 106.77 3.03, 109.54 3.89 C112.31 4.74, 115.06 5.74, 117.72 6.87 C120.38 7.99, 123 9.26, 125.52 10.64 C128.05 12.02, 130.51 13.54, 132.87 15.17 C135.23 16.79, 137.51 18.55, 139.68 20.4 C141.84 22.25, 143.92 24.22, 145.87 26.28 C147.82 28.33, 149.67 30.5, 151.38 32.74 C153.1 34.98, 154.7 37.31, 156.15 39.71 C157.61 42.11, 158.94 44.59, 160.13 47.12 C161.32 49.65, 162.37 52.25, 163.27 54.88 C164.17 57.51, 164.93 60.2, 165.54 62.91 C166.14 65.61, 166.6 68.37, 166.91 71.12 C167.21 73.87, 167.29 78.04, 167.37 79.42 C167.44 80.8, 167.44 78.04, 167.37 79.42" stroke="#1e1e1e" stroke-width="1" fill="none"></path></g><g transform="translate(1029.7862857379932 252.28713380811035) rotate(0 40.071990966796875 20)"><text x="40.071990966796875" y="0" font-family="Virgil, Segoe UI Emoji" font-size="16px" fill="#1e1e1e" text-anchor="middle" style="white-space: pre;" direction="ltr" dominant-baseline="text-before-edge">S3 HTML </text><text x="40.071990966796875" y="20" font-family="Virgil, Segoe UI Emoji" font-size="16px" fill="#1e1e1e" text-anchor="middle" style="white-space: pre;" direction="ltr" dominant-baseline="text-before-edge">Data</text></g><g stroke-linecap="round" transform="translate(987.6097901880003 425.12259712299783) rotate(0 83.68252896753256 79.42056656086663)"><path d="M167.37 79.42 C167.37 82.19, 167.21 84.97, 166.91 87.72 C166.6 90.47, 166.14 93.23, 165.54 95.93 C164.93 98.64, 164.17 101.33, 163.27 103.96 C162.37 106.59, 161.32 109.2, 160.13 111.72 C158.94 114.25, 157.61 116.73, 156.15 119.13 C154.7 121.53, 153.1 123.86, 151.38 126.1 C149.67 128.34, 147.82 130.51, 145.87 132.56 C143.92 134.62, 141.84 136.59, 139.68 138.44 C137.51 140.29, 135.23 142.05, 132.87 143.67 C130.51 145.3, 128.05 146.82, 125.52 148.2 C123 149.58, 120.38 150.85, 117.72 151.97 C115.06 153.1, 112.31 154.1, 109.54 154.95 C106.77 155.81, 103.93 156.53, 101.08 157.11 C98.23 157.68, 95.33 158.12, 92.43 158.41 C89.53 158.7, 86.6 158.84, 83.68 158.84 C80.77 158.84, 77.84 158.7, 74.94 158.41 C72.04 158.12, 69.14 157.68, 66.28 157.11 C63.43 156.53, 60.6 155.81, 57.82 154.95 C55.05 154.1, 52.31 153.1, 49.65 151.97 C46.98 150.85, 44.37 149.58, 41.84 148.2 C39.32 146.82, 36.85 145.3, 34.5 143.67 C32.14 142.05, 29.85 140.29, 27.69 138.44 C25.52 136.59, 23.45 134.62, 21.49 132.56 C19.54 130.51, 17.7 128.34, 15.98 126.1 C14.27 123.86, 12.67 121.53, 11.21 119.13 C9.75 116.73, 8.42 114.25, 7.23 111.72 C6.05 109.2, 5 106.59, 4.1 103.96 C3.19 101.33, 2.43 98.64, 1.83 95.93 C1.22 93.23, 0.76 90.47, 0.46 87.72 C0.15 84.97, 0 82.19, 0 79.42 C0 76.65, 0.15 73.87, 0.46 71.12 C0.76 68.37, 1.22 65.61, 1.83 62.91 C2.43 60.2, 3.19 57.51, 4.1 54.88 C5 52.25, 6.05 49.65, 7.23 47.12 C8.42 44.59, 9.75 42.11, 11.21 39.71 C12.67 37.31, 14.27 34.98, 15.98 32.74 C17.7 30.5, 19.54 28.33, 21.49 26.28 C23.45 24.22, 25.52 22.25, 27.69 20.4 C29.85 18.55, 32.14 16.79, 34.5 15.17 C36.85 13.54, 39.32 12.02, 41.84 10.64 C44.37 9.26, 46.98 7.99, 49.65 6.87 C52.31 5.74, 55.05 4.74, 57.82 3.89 C60.6 3.03, 63.43 2.31, 66.28 1.74 C69.14 1.16, 72.04 0.72, 74.94 0.44 C77.84 0.15, 80.77 0, 83.68 0 C86.6 0, 89.53 0.15, 92.43 0.44 C95.33 0.72, 98.23 1.16, 101.08 1.74 C103.93 2.31, 106.77 3.03, 109.54 3.89 C112.31 4.74, 115.06 5.74, 117.72 6.87 C120.38 7.99, 123 9.26, 125.52 10.64 C128.05 12.02, 130.51 13.54, 132.87 15.17 C135.23 16.79, 137.51 18.55, 139.68 20.4 C141.84 22.25, 143.92 24.22, 145.87 26.28 C147.82 28.33, 149.67 30.5, 151.38 32.74 C153.1 34.98, 154.7 37.31, 156.15 39.71 C157.61 42.11, 158.94 44.59, 160.13 47.12 C161.32 49.65, 162.37 52.25, 163.27 54.88 C164.17 57.51, 164.93 60.2, 165.54 62.91 C166.14 65.61, 166.6 68.37, 166.91 71.12 C167.21 73.87, 167.29 78.04, 167.37 79.42 C167.44 80.8, 167.44 78.04, 167.37 79.42" stroke="#1e1e1e" stroke-width="1" fill="none"></path></g><g transform="translate(1031.0158544376845 484.3843425029981) rotate(0 40.103981018066406 20)"><text x="40.103981018066406" y="0" font-family="Virgil, Segoe UI Emoji" font-size="16px" fill="#1e1e1e" text-anchor="middle" style="white-space: pre;" direction="ltr" dominant-baseline="text-before-edge">URL </text><text x="40.103981018066406" y="20" font-family="Virgil, Segoe UI Emoji" font-size="16px" fill="#1e1e1e" text-anchor="middle" style="white-space: pre;" direction="ltr" dominant-baseline="text-before-edge">Metadata</text></g><g mask="url(#mask-4LI9ogS16suNOfLSvJAvD)" stroke-linecap="round"><g transform="translate(736.9979584247485 399.2812524397086) rotate(0 120.83568153400074 50.66543626400494)"><path d="M0 0 C40.28 16.89, 201.39 84.44, 241.67 101.33 M0 0 C40.28 16.89, 201.39 84.44, 241.67 101.33" stroke="#1e1e1e" stroke-width="1" fill="none"></path></g><g transform="translate(736.9979584247485 399.2812524397086) rotate(0 120.83568153400074 50.66543626400494)"><path d="M211.71 99.89 C220.89 100.33, 230.08 100.77, 241.67 101.33 M211.71 99.89 C219.96 100.29, 228.22 100.69, 241.67 101.33" stroke="#1e1e1e" stroke-width="1" fill="none"></path></g><g transform="translate(736.9979584247485 399.2812524397086) rotate(0 120.83568153400074 50.66543626400494)"><path d="M219.64 80.97 C226.4 87.21, 233.15 93.46, 241.67 101.33 M219.64 80.97 C225.71 86.58, 231.78 92.19, 241.67 101.33" stroke="#1e1e1e" stroke-width="1" fill="none"></path></g></g><mask id="mask-4LI9ogS16suNOfLSvJAvD"><rect x="0" y="0" fill="#fff" width="1078.66932149275" height="600.6121249677185"></rect><rect x="777.8576878103117" y="439.94668870371356" fill="#000" width="159.951904296875" height="20" opacity="1"></rect></mask><g transform="translate(777.8576878103117 439.94668870371356) rotate(0 79.9759521484375 10)"><text x="79.9759521484375" y="0" font-family="Virgil, Segoe UI Emoji" font-size="16px" fill="#1e1e1e" text-anchor="middle" style="white-space: pre;" direction="ltr" dominant-baseline="text-before-edge">Update URL status</text></g><g transform="translate(1182.6859940884215 441.66701095157623) rotate(0 62.11994934082031 50)"><text x="0" y="0" font-family="Virgil, Segoe UI Emoji" font-size="16px" fill="#1e1e1e" text-anchor="start" style="white-space: pre;" direction="ltr" dominant-baseline="text-before-edge">URL</text><text x="0" y="20" font-family="Virgil, Segoe UI Emoji" font-size="16px" fill="#1e1e1e" text-anchor="start" style="white-space: pre;" direction="ltr" dominant-baseline="text-before-edge">- id</text><text x="0" y="40" font-family="Virgil, Segoe UI Emoji" font-size="16px" fill="#1e1e1e" text-anchor="start" style="white-space: pre;" direction="ltr" dominant-baseline="text-before-edge">- url</text><text x="0" y="60" font-family="Virgil, Segoe UI Emoji" font-size="16px" fill="#1e1e1e" text-anchor="start" style="white-space: pre;" direction="ltr" dominant-baseline="text-before-edge">- s3Link</text><text x="0" y="80" font-family="Virgil, Segoe UI Emoji" font-size="16px" fill="#1e1e1e" text-anchor="start" style="white-space: pre;" direction="ltr" dominant-baseline="text-before-edge">- lastCrawlTime</text></g><g stroke-linecap="round" transform="translate(964.9651088748542 642.9264372577381) rotate(0 165.60260491201188 33.11013306086761)"><path d="M16.56 0 C90.05 0, 163.55 0, 314.65 0 M16.56 0 C86.33 0, 156.11 0, 314.65 0 M314.65 0 C325.69 0, 331.21 5.52, 331.21 16.56 M314.65 0 C325.69 0, 331.21 5.52, 331.21 16.56 M331.21 16.56 C331.21 27.14, 331.21 37.72, 331.21 49.67 M331.21 16.56 C331.21 29.4, 331.21 42.25, 331.21 49.67 M331.21 49.67 C331.21 60.7, 325.69 66.22, 314.65 66.22 M331.21 49.67 C331.21 60.7, 325.69 66.22, 314.65 66.22 M314.65 66.22 C244.4 66.22, 174.15 66.22, 16.56 66.22 M314.65 66.22 C207.48 66.22, 100.31 66.22, 16.56 66.22 M16.56 66.22 C5.52 66.22, 0 60.7, 0 49.67 M16.56 66.22 C5.52 66.22, 0 60.7, 0 49.67 M0 49.67 C0 42.59, 0 35.52, 0 16.56 M0 49.67 C0 37.68, 0 25.7, 0 16.56 M0 16.56 C0 5.52, 5.52 0, 16.56 0 M0 16.56 C0 5.52, 5.52 0, 16.56 0" stroke="#1e1e1e" stroke-width="1" fill="none"></path></g><g transform="translate(1049.7917509572762 666.0365703186058) rotate(0 80.77596282958984 10)"><text x="80.77596282958984" y="0" font-family="Virgil, Segoe UI Emoji" font-size="16px" fill="#1e1e1e" text-anchor="middle" style="white-space: pre;" direction="ltr" dominant-baseline="text-before-edge">Parsing Queue (SQS)</text></g><g stroke-linecap="round"><g transform="translate(1314.9396527143927 671.4385482076104) rotate(0 65.82115124170764 -0.6114265203177638)"><path d="M0 0 C21.94 -0.2, 109.7 -1.02, 131.64 -1.22 M0 0 C21.94 -0.2, 109.7 -1.02, 131.64 -1.22" stroke="#1e1e1e" stroke-width="1" fill="none"></path></g><g transform="translate(1314.9396527143927 671.4385482076104) rotate(0 65.82115124170764 -0.6114265203177638)"><path d="M103.55 9.3 C109.33 7.13, 115.12 4.97, 131.64 -1.22 M103.55 9.3 C113.37 5.62, 123.19 1.94, 131.64 -1.22" stroke="#1e1e1e" stroke-width="1" fill="none"></path></g><g transform="translate(1314.9396527143927 671.4385482076104) rotate(0 65.82115124170764 -0.6114265203177638)"><path d="M103.36 -11.22 C109.18 -9.16, 115.01 -7.1, 131.64 -1.22 M103.36 -11.22 C113.25 -7.73, 123.14 -4.23, 131.64 -1.22" stroke="#1e1e1e" stroke-width="1" fill="none"></path></g></g><mask></mask><g mask="url(#mask-Gk0MYE5ln36d9T4JsDw2Y)" stroke-linecap="round"><g transform="translate(1443.427648495146 639.8626547455679) rotate(0 -145.7007245882703 -41.32325649379413)"><path d="M0 0 C-48.57 -13.77, -242.83 -68.87, -291.4 -82.65 M0 0 C-48.57 -13.77, -242.83 -68.87, -291.4 -82.65" stroke="#1e1e1e" stroke-width="1" fill="none"></path></g><g transform="translate(1443.427648495146 639.8626547455679) rotate(0 -145.7007245882703 -41.32325649379413)"><path d="M-261.48 -84.83 C-269.43 -84.25, -277.37 -83.67, -291.4 -82.65 M-261.48 -84.83 C-271.13 -84.12, -280.78 -83.42, -291.4 -82.65" stroke="#1e1e1e" stroke-width="1" fill="none"></path></g><g transform="translate(1443.427648495146 639.8626547455679) rotate(0 -145.7007245882703 -41.32325649379413)"><path d="M-267.08 -65.08 C-273.54 -69.75, -280 -74.41, -291.4 -82.65 M-267.08 -65.08 C-274.92 -70.75, -282.76 -76.41, -291.4 -82.65" stroke="#1e1e1e" stroke-width="1" fill="none"></path></g></g><mask id="mask-Gk0MYE5ln36d9T4JsDw2Y"><rect x="0" y="0" fill="#fff" width="1834.8290976716867" height="822.5091677331561"></rect><rect x="1248.3909558892979" y="588.5393982517737" fill="#000" width="98.67193603515625" height="20" opacity="1"></rect></mask><g transform="translate(1248.3909558892976 588.5393982517737) rotate(0 49.335968017578125 10)"><text x="49.335968017578125" y="0" font-family="Virgil, Segoe UI Emoji" font-size="16px" fill="#1e1e1e" text-anchor="middle" style="white-space: pre;" direction="ltr" dominant-baseline="text-before-edge">Fetch s3 url</text></g><g mask="url(#mask-rNtsyNIIjGKfTuixA0W4X)" stroke-linecap="round"><g transform="translate(1537.842324501402 575.4283589836268) rotate(0 -182.458776978037 -155.0259987969639)"><path d="M0 0 C-9.7 -39.2, 2.62 -183.52, -58.2 -235.19 C-119.02 -286.87, -313.8 -297.58, -364.92 -310.05 M0 0 C-9.7 -39.2, 2.62 -183.52, -58.2 -235.19 C-119.02 -286.87, -313.8 -297.58, -364.92 -310.05" stroke="#1e1e1e" stroke-width="1" fill="none"></path></g><g transform="translate(1537.842324501402 575.4283589836268) rotate(0 -182.458776978037 -155.0259987969639)"><path d="M-13.6 -26.74 C-9.08 -17.85, -4.56 -8.96, 0 0 M-13.6 -26.74 C-9.13 -17.95, -4.66 -9.17, 0 0" stroke="#1e1e1e" stroke-width="1" fill="none"></path></g><g transform="translate(1537.842324501402 575.4283589836268) rotate(0 -182.458776978037 -155.0259987969639)"><path d="M6.77 -29.23 C4.52 -19.51, 2.27 -9.79, 0 0 M6.77 -29.23 C4.54 -19.62, 2.32 -10.02, 0 0" stroke="#1e1e1e" stroke-width="1" fill="none"></path></g><g transform="translate(1537.842324501402 575.4283589836268) rotate(0 -182.458776978037 -155.0259987969639)"><path d="M-335.49 -315.9 C-345.28 -313.96, -355.06 -312.01, -364.92 -310.05 M-335.49 -315.9 C-345.16 -313.98, -354.83 -312.06, -364.92 -310.05" stroke="#1e1e1e" stroke-width="1" fill="none"></path></g><g transform="translate(1537.842324501402 575.4283589836268) rotate(0 -182.458776978037 -155.0259987969639)"><path d="M-338.62 -295.62 C-347.36 -300.42, -356.11 -305.22, -364.92 -310.05 M-338.62 -295.62 C-347.26 -300.36, -355.9 -305.1, -364.92 -310.05" stroke="#1e1e1e" stroke-width="1" fill="none"></path></g></g><mask id="mask-rNtsyNIIjGKfTuixA0W4X"><rect x="0" y="0" fill="#fff" width="2002.759878457476" height="985.4803565775546"></rect><rect x="1369.8261020929926" y="320.2350582482327" fill="#000" width="219.6318817138672" height="40" opacity="1"></rect></mask><g transform="translate(1369.8261020929929 320.2350582482327) rotate(0 -14.442554569627987 100.16730193843023)"><text x="109.8159408569336" y="0" font-family="Virgil, Segoe UI Emoji" font-size="16px" fill="#1e1e1e" text-anchor="middle" style="white-space: pre;" direction="ltr" dominant-baseline="text-before-edge">1. Download HTML from S3</text><text x="109.8159408569336" y="20" font-family="Virgil, Segoe UI Emoji" font-size="16px" fill="#1e1e1e" text-anchor="middle" style="white-space: pre;" direction="ltr" dominant-baseline="text-before-edge">2. Save parsed text to S3</text></g><g stroke-linecap="round" transform="translate(1461.2990177684514 585.3911907806068) rotate(0 84.8720526040911 70.82648922341605)"><path d="M32 0 C73.17 0, 114.34 0, 137.74 0 M32 0 C69 0, 106 0, 137.74 0 M137.74 0 C159.08 0, 169.74 10.67, 169.74 32 M137.74 0 C159.08 0, 169.74 10.67, 169.74 32 M169.74 32 C169.74 57.78, 169.74 83.57, 169.74 109.65 M169.74 32 C169.74 53.95, 169.74 75.89, 169.74 109.65 M169.74 109.65 C169.74 130.99, 159.08 141.65, 137.74 141.65 M169.74 109.65 C169.74 130.99, 159.08 141.65, 137.74 141.65 M137.74 141.65 C108.55 141.65, 79.37 141.65, 32 141.65 M137.74 141.65 C104.91 141.65, 72.07 141.65, 32 141.65 M32 141.65 C10.67 141.65, 0 130.99, 0 109.65 M32 141.65 C10.67 141.65, 0 130.99, 0 109.65 M0 109.65 C0 91.79, 0 73.92, 0 32 M0 109.65 C0 88.46, 0 67.26, 0 32 M0 32 C0 10.67, 10.67 0, 32 0 M0 32 C0 10.67, 10.67 0, 32 0" stroke="#1e1e1e" stroke-width="1" fill="none"></path></g><g transform="translate(1488.7151148671715 646.2176800040229) rotate(0 57.455955505371094 10)"><text x="57.455955505371094" y="0" font-family="Virgil, Segoe UI Emoji" font-size="16px" fill="#1e1e1e" text-anchor="middle" style="white-space: pre;" direction="ltr" dominant-baseline="text-before-edge">Parsing Worker</text></g><g stroke-linecap="round"><g transform="translate(634.1755797737005 467.95141083213093) rotate(0 157.55932042019117 105.57137601376644)"><path d="M0 0 C6.43 29.51, -13.91 141.85, 38.61 177.04 C91.13 212.23, 269.03 205.46, 315.12 211.14 M0 0 C6.43 29.51, -13.91 141.85, 38.61 177.04 C91.13 212.23, 269.03 205.46, 315.12 211.14" stroke="#1e1e1e" stroke-width="1" fill="none"></path></g><g transform="translate(634.1755797737005 467.95141083213093) rotate(0 157.55932042019117 105.57137601376644)"><path d="M286.49 220.1 C293.25 217.98, 300.01 215.87, 315.12 211.14 M286.49 220.1 C292.87 218.1, 299.26 216.1, 315.12 211.14" stroke="#1e1e1e" stroke-width="1" fill="none"></path></g><g transform="translate(634.1755797737005 467.95141083213093) rotate(0 157.55932042019117 105.57137601376644)"><path d="M287.43 199.6 C293.97 202.32, 300.5 205.05, 315.12 211.14 M287.43 199.6 C293.61 202.17, 299.78 204.75, 315.12 211.14" stroke="#1e1e1e" stroke-width="1" fill="none"></path></g></g><mask></mask><g mask="url(#mask-MZgvhgcTlA0_iFNi0ph_g)" stroke-linecap="round"><g transform="translate(1558.9008556867702 736.2622422757358) rotate(0 -753.7635730621909 -159.15817790465485)"><path d="M0 0 C-192.4 5.35, -905.08 75.21, -1154.38 32.12 C-1403.67 -10.97, -1450.07 -192.47, -1495.78 -258.55 C-1541.49 -324.64, -1439.83 -346.76, -1428.64 -364.41 M0 0 C-192.4 5.35, -905.08 75.21, -1154.38 32.12 C-1403.67 -10.97, -1450.07 -192.47, -1495.78 -258.55 C-1541.49 -324.64, -1439.83 -346.76, -1428.64 -364.41" stroke="#1e1e1e" stroke-width="1" fill="none"></path></g><g transform="translate(1558.9008556867702 736.2622422757358) rotate(0 -753.7635730621909 -159.15817790465485)"><path d="M-1446.74 -340.48 C-1441.72 -347.11, -1436.71 -353.74, -1428.64 -364.41 M-1446.74 -340.48 C-1441.62 -347.25, -1436.5 -354.02, -1428.64 -364.41" stroke="#1e1e1e" stroke-width="1" fill="none"></path></g><g transform="translate(1558.9008556867702 736.2622422757358) rotate(0 -753.7635730621909 -159.15817790465485)"><path d="M-1457.88 -357.72 C-1449.78 -359.57, -1441.67 -361.42, -1428.64 -364.41 M-1457.88 -357.72 C-1449.61 -359.61, -1441.33 -361.5, -1428.64 -364.41" stroke="#1e1e1e" stroke-width="1" fill="none"></path></g></g><mask id="mask-MZgvhgcTlA0_iFNi0ph_g"><rect x="0" y="0" fill="#fff" width="3154.6812248528718" height="1232.78690123873"></rect><rect x="110.2714304574331" y="648.3994692346464" fill="#000" width="163.1678924560547" height="40" opacity="1"></rect></mask><g transform="translate(110.2714304574331 648.3994692346463) rotate(0 694.8658521671463 -71.2954048635653)"><text x="81.58394622802734" y="0" font-family="Virgil, Segoe UI Emoji" font-size="16px" fill="#1e1e1e" text-anchor="middle" style="white-space: pre;" direction="ltr" dominant-baseline="text-before-edge">Put extracted Urls </text><text x="81.58394622802734" y="20" font-family="Virgil, Segoe UI Emoji" font-size="16px" fill="#1e1e1e" text-anchor="middle" style="white-space: pre;" direction="ltr" dominant-baseline="text-before-edge">back on the queue</text></g><g stroke-linecap="round" transform="translate(10 183.59166982724128) rotate(0 828.3162522029493 313.8365184826416)"><path d="M32 0 C475.65 0, 919.3 0, 1624.63 0 M1624.63 0 C1645.97 0, 1656.63 10.67, 1656.63 32 M1656.63 32 C1656.63 255.51, 1656.63 479.02, 1656.63 595.67 M1656.63 595.67 C1656.63 617.01, 1645.97 627.67, 1624.63 627.67 M1624.63 627.67 C1100.34 627.67, 576.06 627.67, 32 627.67 M32 627.67 C10.67 627.67, 0 617.01, 0 595.67 M0 595.67 C0 421.94, 0 248.2, 0 32 M0 32 C0 10.67, 10.67 0, 32 0" stroke="#1e1e1e" stroke-width="1.5" fill="none" stroke-dasharray="8 9"></path></g><g mask="url(#mask-j5l6KXbgVR9CMm29QaeOv)" stroke-linecap="round"><g transform="translate(538.8161690059751 427.4413536202028) rotate(0 -215.45799784813198 25.804457216495393)"><path d="M0 0 C-27.67 15.26, -100.29 81.96, -166.03 91.53 C-231.77 101.1, -350.32 74.68, -394.47 57.42 C-438.62 40.15, -429.55 4.18, -430.92 -12.04 C-432.28 -28.26, -407.37 -35.28, -402.66 -39.92 M0 0 C-27.67 15.26, -100.29 81.96, -166.03 91.53 C-231.77 101.1, -350.32 74.68, -394.47 57.42 C-438.62 40.15, -429.55 4.18, -430.92 -12.04 C-432.28 -28.26, -407.37 -35.28, -402.66 -39.92" stroke="#1e1e1e" stroke-width="1" fill="none"></path></g><g transform="translate(538.8161690059751 427.4413536202028) rotate(0 -215.45799784813198 25.804457216495393)"><path d="M-415.24 -24.57 C-411.04 -29.7, -406.84 -34.82, -402.66 -39.92 M-415.24 -24.57 C-411.62 -28.98, -408 -33.4, -402.66 -39.92" stroke="#1e1e1e" stroke-width="1" fill="none"></path></g><g transform="translate(538.8161690059751 427.4413536202028) rotate(0 -215.45799784813198 25.804457216495393)"><path d="M-422.16 -36.25 C-415.65 -37.47, -409.14 -38.7, -402.66 -39.92 M-422.16 -36.25 C-416.56 -37.3, -410.95 -38.36, -402.66 -39.92" stroke="#1e1e1e" stroke-width="1" fill="none"></path></g></g><mask id="mask-j5l6KXbgVR9CMm29QaeOv"><rect x="0" y="0" fill="#fff" width="1069.732164702239" height="658.8984484848133"></rect><rect x="77.22707587384139" y="464.85692949187705" fill="#000" width="134.23992919921875" height="40" opacity="1"></rect></mask><g transform="translate(77.22707587384139 464.85692949187705) rotate(0 246.10409233479925 -10.596050022608296)"><text x="67.11996459960938" y="0" font-family="Virgil, Segoe UI Emoji" font-size="16px" fill="#1e1e1e" text-anchor="middle" style="white-space: pre;" direction="ltr" dominant-baseline="text-before-edge">Retry on failure </text><text x="67.11996459960938" y="20" font-family="Virgil, Segoe UI Emoji" font-size="16px" fill="#1e1e1e" text-anchor="middle" style="white-space: pre;" direction="ltr" dominant-baseline="text-before-edge">w/ backoff</text></g><g stroke-linecap="round" transform="translate(243.15436564135234 405.2909911911065) rotate(0 84.31701417007389 19.32041466377268)"><path d="M9.66 0 C42.44 0, 75.21 0, 158.97 0 M9.66 0 C64.55 0, 119.45 0, 158.97 0 M158.97 0 C165.41 0, 168.63 3.22, 168.63 9.66 M158.97 0 C165.41 0, 168.63 3.22, 168.63 9.66 M168.63 9.66 C168.63 16.88, 168.63 24.11, 168.63 28.98 M168.63 9.66 C168.63 15.37, 168.63 21.08, 168.63 28.98 M168.63 28.98 C168.63 35.42, 165.41 38.64, 158.97 38.64 M168.63 28.98 C168.63 35.42, 165.41 38.64, 158.97 38.64 M158.97 38.64 C125.68 38.64, 92.39 38.64, 9.66 38.64 M158.97 38.64 C118.91 38.64, 78.84 38.64, 9.66 38.64 M9.66 38.64 C3.22 38.64, 0 35.42, 0 28.98 M9.66 38.64 C3.22 38.64, 0 35.42, 0 28.98 M0 28.98 C0 22.3, 0 15.62, 0 9.66 M0 28.98 C0 24.54, 0 20.1, 0 9.66 M0 9.66 C0 3.22, 3.22 0, 9.66 0 M0 9.66 C0 3.22, 3.22 0, 9.66 0" stroke="#1e1e1e" stroke-width="1" fill="none"></path></g><g transform="translate(310.79938274111373 414.6114058548792) rotate(0 16.6719970703125 10)"><text x="16.6719970703125" y="0" font-family="Virgil, Segoe UI Emoji" font-size="16px" fill="#1e1e1e" text-anchor="middle" style="white-space: pre;" direction="ltr" dominant-baseline="text-before-edge">DLQ</text></g><g transform="translate(1319.7152111119212 439.8611377056677) rotate(0 62.11994934082031 50)"><text x="0" y="0" font-family="Virgil, Segoe UI Emoji" font-size="16px" fill="#1e1e1e" text-anchor="start" style="white-space: pre;" direction="ltr" dominant-baseline="text-before-edge">Domain</text><text x="0" y="20" font-family="Virgil, Segoe UI Emoji" font-size="16px" fill="#1e1e1e" text-anchor="start" style="white-space: pre;" direction="ltr" dominant-baseline="text-before-edge">- domain</text><text x="0" y="40" font-family="Virgil, Segoe UI Emoji" font-size="16px" fill="#1e1e1e" text-anchor="start" style="white-space: pre;" direction="ltr" dominant-baseline="text-before-edge">- lastCrawlTime</text><text x="0" y="60" font-family="Virgil, Segoe UI Emoji" font-size="16px" fill="#1e1e1e" text-anchor="start" style="white-space: pre;" direction="ltr" dominant-baseline="text-before-edge">- robots</text><text x="0" y="80" font-family="Virgil, Segoe UI Emoji" font-size="16px" fill="#1e1e1e" text-anchor="start" style="white-space: pre;" direction="ltr" dominant-baseline="text-before-edge"></text></g><g stroke-linecap="round" transform="translate(762.313548846465 183.22611380839317) rotate(0 49.34315419376799 45.40959981698006)"><path d="M98.69 45.41 C98.69 47.56, 98.52 49.74, 98.18 51.87 C97.85 54, 97.35 56.14, 96.69 58.2 C96.03 60.27, 95.2 62.31, 94.23 64.27 C93.25 66.23, 92.12 68.15, 90.85 69.96 C89.59 71.77, 88.17 73.52, 86.63 75.15 C85.1 76.77, 83.43 78.32, 81.66 79.73 C79.89 81.14, 77.99 82.45, 76.02 83.61 C74.05 84.78, 71.97 85.82, 69.84 86.72 C67.71 87.61, 65.49 88.37, 63.24 88.98 C61 89.59, 58.68 90.05, 56.37 90.36 C54.05 90.66, 51.68 90.82, 49.34 90.82 C47 90.82, 44.64 90.66, 42.32 90.36 C40 90.05, 37.69 89.59, 35.44 88.98 C33.2 88.37, 30.97 87.61, 28.85 86.72 C26.72 85.82, 24.64 84.78, 22.67 83.61 C20.7 82.45, 18.8 81.14, 17.03 79.73 C15.26 78.32, 13.58 76.77, 12.05 75.15 C10.52 73.52, 9.1 71.77, 7.83 69.96 C6.57 68.15, 5.43 66.23, 4.46 64.27 C3.49 62.31, 2.66 60.27, 2 58.2 C1.34 56.14, 0.84 54, 0.5 51.87 C0.17 49.74, 0 47.56, 0 45.41 C0 43.26, 0.17 41.08, 0.5 38.95 C0.84 36.81, 1.34 34.68, 2 32.62 C2.66 30.55, 3.49 28.51, 4.46 26.55 C5.43 24.59, 6.57 22.67, 7.83 20.86 C9.1 19.05, 10.52 17.3, 12.05 15.67 C13.58 14.04, 15.26 12.5, 17.03 11.09 C18.8 9.68, 20.7 8.37, 22.67 7.21 C24.64 6.04, 26.72 5, 28.85 4.1 C30.97 3.21, 33.2 2.45, 35.44 1.84 C37.69 1.23, 40 0.77, 42.32 0.46 C44.64 0.16, 47 0, 49.34 0 C51.68 0, 54.05 0.16, 56.37 0.46 C58.68 0.77, 61 1.23, 63.24 1.84 C65.49 2.45, 67.71 3.21, 69.84 4.1 C71.97 5, 74.05 6.04, 76.02 7.21 C77.99 8.37, 79.89 9.68, 81.66 11.09 C83.43 12.5, 85.1 14.04, 86.63 15.67 C88.17 17.3, 89.59 19.05, 90.85 20.86 C92.12 22.67, 93.25 24.59, 94.23 26.55 C95.2 28.51, 96.03 30.55, 96.69 32.62 C97.35 34.68, 97.85 36.81, 98.18 38.95 C98.52 41.08, 98.6 44.33, 98.69 45.41 C98.77 46.49, 98.77 44.33, 98.69 45.41" stroke="#1e1e1e" stroke-width="1" fill="none"></path></g><g transform="translate(788.1098335041003 208.5262776638192) rotate(0 23.655990600585938 19.999999999999993)"><text x="23.655990600585938" y="0" font-family="Virgil, Segoe UI Emoji" font-size="16px" fill="#1e1e1e" text-anchor="middle" style="white-space: pre;" direction="ltr" dominant-baseline="text-before-edge">Rate </text><text x="23.655990600585938" y="20" font-family="Virgil, Segoe UI Emoji" font-size="16px" fill="#1e1e1e" text-anchor="middle" style="white-space: pre;" direction="ltr" dominant-baseline="text-before-edge">limiter</text></g><g stroke-linecap="round"><g transform="translate(717.4055219701513 319.5163357585416) rotate(0 29.909110651502488 -26.965950923319724)"><path d="M0 0 C9.97 -8.99, 49.85 -44.94, 59.82 -53.93 M0 0 C9.97 -8.99, 49.85 -44.94, 59.82 -53.93" stroke="#1e1e1e" stroke-width="1" fill="none"></path></g><g transform="translate(717.4055219701513 319.5163357585416) rotate(0 29.909110651502488 -26.965950923319724)"><path d="M14.07 -26.5 C8.63 -16.26, 3.2 -6.03, 0 0 M14.07 -26.5 C10.98 -20.69, 7.9 -14.89, 0 0" stroke="#1e1e1e" stroke-width="1" fill="none"></path></g><g transform="translate(717.4055219701513 319.5163357585416) rotate(0 29.909110651502488 -26.965950923319724)"><path d="M27.81 -11.26 C17.07 -6.91, 6.33 -2.56, 0 0 M27.81 -11.26 C21.72 -8.79, 15.62 -6.32, 0 0" stroke="#1e1e1e" stroke-width="1" fill="none"></path></g><g transform="translate(717.4055219701513 319.5163357585416) rotate(0 29.909110651502488 -26.965950923319724)"><path d="M45.75 -27.43 C51.18 -37.67, 56.62 -47.9, 59.82 -53.93 M45.75 -27.43 C48.83 -33.24, 51.92 -39.05, 59.82 -53.93" stroke="#1e1e1e" stroke-width="1" fill="none"></path></g><g transform="translate(717.4055219701513 319.5163357585416) rotate(0 29.909110651502488 -26.965950923319724)"><path d="M32.01 -42.68 C42.75 -47.02, 53.49 -51.37, 59.82 -53.93 M32.01 -42.68 C38.1 -45.14, 44.2 -47.61, 59.82 -53.93" stroke="#1e1e1e" stroke-width="1" fill="none"></path></g></g><mask></mask></svg>