<svg version="1.1" xmlns="http://www.w3.org/2000/svg" viewBox="0 0 1105.906663877925 572.6432854679892" >
  <!-- svg-source:excalidraw -->
  <!-- payload-type:application/vnd.excalidraw+json --><!-- payload-version:2 -->
  <defs>
    <style class="style-fonts">
      @font-face {
        font-family: "Virgil";
        src: url("https://files.hellointerview.com/build-assets/PRODUCTION/_next/static/media/Excalifont-s.p.436754fa.woff2");
      }
      @font-face {
        font-family: "Cascadia";
        src: url("https://file%2B.vscode-resource.vscode-cdn.net/Users/iamnafets/.cursor/extensions/pomdtr.excalidraw-editor-3.7.4/public//dist/excalidraw-assets/Cascadia.woff2");
      }
      @font-face {
        font-family: "Assistant";
        src: url("https://file%2B.vscode-resource.vscode-cdn.net/Users/iamnafets/.cursor/extensions/pomdtr.excalidraw-editor-3.7.4/public//dist/excalidraw-assets/Assistant-Regular.woff2");
      }
    </style>
    
  </defs>
  <rect x="0" y="0" width="1105.906663877925" height="572.6432854679892" fill="#ffffff"></rect><g stroke-linecap="round" transform="translate(132.93254732147034 344.0124208804036) rotate(0 134.74371016990517 30.687176244295756)"><path d="M15.34 0 C95.27 0, 175.2 0, 254.14 0 M15.34 0 C101.4 0, 187.46 0, 254.14 0 M254.14 0 C264.37 0, 269.49 5.11, 269.49 15.34 M254.14 0 C264.37 0, 269.49 5.11, 269.49 15.34 M269.49 15.34 C269.49 21.86, 269.49 28.37, 269.49 46.03 M269.49 15.34 C269.49 25.69, 269.49 36.04, 269.49 46.03 M269.49 46.03 C269.49 56.26, 264.37 61.37, 254.14 61.37 M269.49 46.03 C269.49 56.26, 264.37 61.37, 254.14 61.37 M254.14 61.37 C189.5 61.37, 124.86 61.37, 15.34 61.37 M254.14 61.37 C200.07 61.37, 145.99 61.37, 15.34 61.37 M15.34 61.37 C5.11 61.37, 0 56.26, 0 46.03 M15.34 61.37 C5.11 61.37, 0 56.26, 0 46.03 M0 46.03 C0 39.58, 0 33.13, 0 15.34 M0 46.03 C0 37.41, 0 28.79, 0 15.34 M0 15.34 C0 5.11, 5.11 0, 15.34 0 M0 15.34 C0 5.11, 5.11 0, 15.34 0" stroke="#1e1e1e" stroke-width="1" fill="none"></path></g><g transform="translate(209.90828263785988 364.6995971246994) rotate(0 57.767974853515625 10)"><text x="57.767974853515625" y="0" font-family="Virgil, Segoe UI Emoji" font-size="16px" fill="#1e1e1e" text-anchor="middle" style="white-space: pre;" direction="ltr" dominant-baseline="text-before-edge">Frontier Queue</text></g><g stroke-linecap="round" transform="translate(540.0548933361042 306.85676248951063) rotate(0 82.35880551299124 72.57985438901039)"><path d="M32 0 C71.34 0, 110.69 0, 132.72 0 M32 0 C70.49 0, 108.98 0, 132.72 0 M132.72 0 C154.05 0, 164.72 10.67, 164.72 32 M132.72 0 C154.05 0, 164.72 10.67, 164.72 32 M164.72 32 C164.72 62.35, 164.72 92.7, 164.72 113.16 M164.72 32 C164.72 60.18, 164.72 88.35, 164.72 113.16 M164.72 113.16 C164.72 134.49, 154.05 145.16, 132.72 145.16 M164.72 113.16 C164.72 134.49, 154.05 145.16, 132.72 145.16 M132.72 145.16 C107.94 145.16, 83.16 145.16, 32 145.16 M132.72 145.16 C105.61 145.16, 78.49 145.16, 32 145.16 M32 145.16 C10.67 145.16, 0 134.49, 0 113.16 M32 145.16 C10.67 145.16, 0 134.49, 0 113.16 M0 113.16 C0 90.3, 0 67.44, 0 32 M0 113.16 C0 86.15, 0 59.14, 0 32 M0 32 C0 10.67, 10.67 0, 32 0 M0 32 C0 10.67, 10.67 0, 32 0" stroke="#1e1e1e" stroke-width="1" fill="none"></path></g><g transform="translate(559.3977457851306 339.436616878521) rotate(0 63.015953063964844 40)"><text x="63.015953063964844" y="0" font-family="Virgil, Segoe UI Emoji" font-size="16px" fill="#1e1e1e" text-anchor="middle" style="white-space: pre;" direction="ltr" dominant-baseline="text-before-edge">Crawler</text><text x="63.015953063964844" y="20" font-family="Virgil, Segoe UI Emoji" font-size="16px" fill="#1e1e1e" text-anchor="middle" style="white-space: pre;" direction="ltr" dominant-baseline="text-before-edge">- fetch webpage</text><text x="63.015953063964844" y="40" font-family="Virgil, Segoe UI Emoji" font-size="16px" fill="#1e1e1e" text-anchor="middle" style="white-space: pre;" direction="ltr" dominant-baseline="text-before-edge">- extract text</text><text x="63.015953063964844" y="60" font-family="Virgil, Segoe UI Emoji" font-size="16px" fill="#1e1e1e" text-anchor="middle" style="white-space: pre;" direction="ltr" dominant-baseline="text-before-edge">- extract urls</text></g><g stroke-linecap="round"><g transform="translate(411.6108749537525 372.70678191791944) rotate(0 61.6057586259908 -0.08984002981389949)"><path d="M0 0 C20.54 -0.03, 102.68 -0.15, 123.21 -0.18 M0 0 C20.54 -0.03, 102.68 -0.15, 123.21 -0.18" stroke="#1e1e1e" stroke-width="1" fill="none"></path></g><g transform="translate(411.6108749537525 372.70678191791944) rotate(0 61.6057586259908 -0.08984002981389949)"><path d="M95.04 10.12 C103.38 7.07, 111.72 4.02, 123.21 -0.18 M95.04 10.12 C105.12 6.44, 115.2 2.75, 123.21 -0.18" stroke="#1e1e1e" stroke-width="1" fill="none"></path></g><g transform="translate(411.6108749537525 372.70678191791944) rotate(0 61.6057586259908 -0.08984002981389949)"><path d="M95.01 -10.4 C103.36 -7.37, 111.71 -4.35, 123.21 -0.18 M95.01 -10.4 C105.1 -6.74, 115.19 -3.08, 123.21 -0.18" stroke="#1e1e1e" stroke-width="1" fill="none"></path></g></g><mask></mask><g stroke-linecap="round" transform="translate(439.6122417440547 74.2066690997151) rotate(0 51.79958325055122 27.28686723709859)"><path d="M13.64 0 C42.33 0, 71.03 0, 89.96 0 M13.64 0 C39.91 0, 66.17 0, 89.96 0 M89.96 0 C99.05 0, 103.6 4.55, 103.6 13.64 M89.96 0 C99.05 0, 103.6 4.55, 103.6 13.64 M103.6 13.64 C103.6 19.79, 103.6 25.94, 103.6 40.93 M103.6 13.64 C103.6 19.29, 103.6 24.94, 103.6 40.93 M103.6 40.93 C103.6 50.03, 99.05 54.57, 89.96 54.57 M103.6 40.93 C103.6 50.03, 99.05 54.57, 89.96 54.57 M89.96 54.57 C69.4 54.57, 48.85 54.57, 13.64 54.57 M89.96 54.57 C61.7 54.57, 33.44 54.57, 13.64 54.57 M13.64 54.57 C4.55 54.57, 0 50.03, 0 40.93 M13.64 54.57 C4.55 54.57, 0 50.03, 0 40.93 M0 40.93 C0 31.61, 0 22.3, 0 13.64 M0 40.93 C0 33.59, 0 26.25, 0 13.64 M0 13.64 C0 4.55, 4.55 0, 13.64 0 M0 13.64 C0 4.55, 4.55 0, 13.64 0" stroke="#1e1e1e" stroke-width="1" fill="none"></path></g><g transform="translate(475.1558359198989 91.49353633681369) rotate(0 16.25598907470703 10)"><text x="16.25598907470703" y="0" font-family="Virgil, Segoe UI Emoji" font-size="16px" fill="#1e1e1e" text-anchor="middle" style="white-space: pre;" direction="ltr" dominant-baseline="text-before-edge">DNS</text></g><g stroke-linecap="round" transform="translate(654.2878522042593 10) rotate(0 65.71934302140744 61.333516111403355)"><path d="M30.67 0 C44.72 0, 58.78 0, 100.77 0 M30.67 0 C49.24 0, 67.81 0, 100.77 0 M100.77 0 C121.22 0, 131.44 10.22, 131.44 30.67 M100.77 0 C121.22 0, 131.44 10.22, 131.44 30.67 M131.44 30.67 C131.44 54.19, 131.44 77.71, 131.44 92 M131.44 30.67 C131.44 43.77, 131.44 56.87, 131.44 92 M131.44 92 C131.44 112.44, 121.22 122.67, 100.77 122.67 M131.44 92 C131.44 112.44, 121.22 122.67, 100.77 122.67 M100.77 122.67 C78.81 122.67, 56.86 122.67, 30.67 122.67 M100.77 122.67 C82.76 122.67, 64.75 122.67, 30.67 122.67 M30.67 122.67 C10.22 122.67, 0 112.44, 0 92 M30.67 122.67 C10.22 122.67, 0 112.44, 0 92 M0 92 C0 76.05, 0 60.1, 0 30.67 M0 92 C0 73.65, 0 55.31, 0 30.67 M0 30.67 C0 10.22, 10.22 0, 30.67 0 M0 30.67 C0 10.22, 10.22 0, 30.67 0" stroke="#1e1e1e" stroke-width="1" fill="none"></path></g><g transform="translate(687.9352195176589 61.333516111403355) rotate(0 32.07197570800781 10)"><text x="32.07197570800781" y="0" font-family="Virgil, Segoe UI Emoji" font-size="16px" fill="#1e1e1e" text-anchor="middle" style="white-space: pre;" direction="ltr" dominant-baseline="text-before-edge">Webpage</text></g><g stroke-linecap="round"><g transform="translate(493.73747083976923 142.55042996174438) rotate(0 40.78889213057664 78.01508004215395)"><path d="M0 0 C13.6 26.01, 67.98 130.03, 81.58 156.03 M0 0 C13.6 26.01, 67.98 130.03, 81.58 156.03" stroke="#1e1e1e" stroke-width="1" fill="none"></path></g><g transform="translate(493.73747083976923 142.55042996174438) rotate(0 40.78889213057664 78.01508004215395)"><path d="M22.15 20.23 C14.15 12.92, 6.15 5.62, 0 0 M22.15 20.23 C17.72 16.18, 13.28 12.13, 0 0" stroke="#1e1e1e" stroke-width="1" fill="none"></path></g><g transform="translate(493.73747083976923 142.55042996174438) rotate(0 40.78889213057664 78.01508004215395)"><path d="M3.97 29.74 C2.54 19, 1.1 8.26, 0 0 M3.97 29.74 C3.17 23.78, 2.38 17.83, 0 0" stroke="#1e1e1e" stroke-width="1" fill="none"></path></g><g transform="translate(493.73747083976923 142.55042996174438) rotate(0 40.78889213057664 78.01508004215395)"><path d="M59.42 135.8 C67.42 143.11, 75.42 150.41, 81.58 156.03 M59.42 135.8 C63.86 139.85, 68.3 143.9, 81.58 156.03" stroke="#1e1e1e" stroke-width="1" fill="none"></path></g><g transform="translate(493.73747083976923 142.55042996174438) rotate(0 40.78889213057664 78.01508004215395)"><path d="M77.61 126.29 C79.04 137.03, 80.48 147.77, 81.58 156.03 M77.61 126.29 C78.4 132.25, 79.2 138.2, 81.58 156.03" stroke="#1e1e1e" stroke-width="1" fill="none"></path></g></g><mask></mask><g stroke-linecap="round"><g transform="translate(636.2821374698851 295.45524597858866) rotate(0 42.552637195224634 -76.32222883112706)"><path d="M0 0 C14.18 -25.44, 70.92 -127.2, 85.11 -152.64 M0 0 C14.18 -25.44, 70.92 -127.2, 85.11 -152.64" stroke="#1e1e1e" stroke-width="1" fill="none"></path></g><g transform="translate(636.2821374698851 295.45524597858866) rotate(0 42.552637195224634 -76.32222883112706)"><path d="M4.77 -29.62 C3.37 -20.97, 1.98 -12.32, 0 0 M4.77 -29.62 C3.62 -22.5, 2.48 -15.38, 0 0" stroke="#1e1e1e" stroke-width="1" fill="none"></path></g><g transform="translate(636.2821374698851 295.45524597858866) rotate(0 42.552637195224634 -76.32222883112706)"><path d="M22.69 -19.63 C16.06 -13.89, 9.44 -8.16, 0 0 M22.69 -19.63 C17.24 -14.91, 11.78 -10.19, 0 0" stroke="#1e1e1e" stroke-width="1" fill="none"></path></g><g transform="translate(636.2821374698851 295.45524597858866) rotate(0 42.552637195224634 -76.32222883112706)"><path d="M80.34 -123.03 C81.73 -131.68, 83.12 -140.33, 85.11 -152.64 M80.34 -123.03 C81.48 -130.14, 82.63 -137.26, 85.11 -152.64" stroke="#1e1e1e" stroke-width="1" fill="none"></path></g><g transform="translate(636.2821374698851 295.45524597858866) rotate(0 42.552637195224634 -76.32222883112706)"><path d="M62.42 -133.02 C69.04 -138.75, 75.67 -144.48, 85.11 -152.64 M62.42 -133.02 C67.87 -137.73, 73.32 -142.45, 85.11 -152.64" stroke="#1e1e1e" stroke-width="1" fill="none"></path></g></g><mask></mask><g stroke-linecap="round"><g transform="translate(723.5084222139194 369.95588530128566) rotate(0 89.92715324333221 0.5983480832677515)"><path d="M0 0 C29.98 0.2, 149.88 1, 179.85 1.2 M0 0 C29.98 0.2, 149.88 1, 179.85 1.2" stroke="#1e1e1e" stroke-width="1" fill="none"></path></g><g transform="translate(723.5084222139194 369.95588530128566) rotate(0 89.92715324333221 0.5983480832677515)"><path d="M151.6 11.27 C157.59 9.13, 163.59 6.99, 179.85 1.2 M151.6 11.27 C161.13 7.87, 170.66 4.48, 179.85 1.2" stroke="#1e1e1e" stroke-width="1" fill="none"></path></g><g transform="translate(723.5084222139194 369.95588530128566) rotate(0 89.92715324333221 0.5983480832677515)"><path d="M151.73 -9.25 C157.7 -7.03, 163.67 -4.82, 179.85 1.2 M151.73 -9.25 C161.22 -5.73, 170.7 -2.2, 179.85 1.2" stroke="#1e1e1e" stroke-width="1" fill="none"></path></g></g><mask></mask><g stroke-linecap="round" transform="translate(910.6747451079755 290.92830159171785) rotate(0 83.68252896753256 79.42056656086663)"><path d="M167.37 79.42 C167.37 82.19, 167.21 84.97, 166.91 87.72 C166.6 90.47, 166.14 93.23, 165.54 95.93 C164.93 98.64, 164.17 101.33, 163.27 103.96 C162.37 106.59, 161.32 109.2, 160.13 111.72 C158.94 114.25, 157.61 116.73, 156.15 119.13 C154.7 121.53, 153.1 123.86, 151.38 126.1 C149.67 128.34, 147.82 130.51, 145.87 132.56 C143.92 134.62, 141.84 136.59, 139.68 138.44 C137.51 140.29, 135.23 142.05, 132.87 143.67 C130.51 145.3, 128.05 146.82, 125.52 148.2 C123 149.58, 120.38 150.85, 117.72 151.97 C115.06 153.1, 112.31 154.1, 109.54 154.95 C106.77 155.81, 103.93 156.53, 101.08 157.11 C98.23 157.68, 95.33 158.12, 92.43 158.41 C89.53 158.7, 86.6 158.84, 83.68 158.84 C80.77 158.84, 77.84 158.7, 74.94 158.41 C72.04 158.12, 69.14 157.68, 66.28 157.11 C63.43 156.53, 60.6 155.81, 57.82 154.95 C55.05 154.1, 52.31 153.1, 49.65 151.97 C46.98 150.85, 44.37 149.58, 41.84 148.2 C39.32 146.82, 36.85 145.3, 34.5 143.67 C32.14 142.05, 29.85 140.29, 27.69 138.44 C25.52 136.59, 23.45 134.62, 21.49 132.56 C19.54 130.51, 17.7 128.34, 15.98 126.1 C14.27 123.86, 12.67 121.53, 11.21 119.13 C9.75 116.73, 8.42 114.25, 7.23 111.72 C6.05 109.2, 5 106.59, 4.1 103.96 C3.19 101.33, 2.43 98.64, 1.83 95.93 C1.22 93.23, 0.76 90.47, 0.46 87.72 C0.15 84.97, 0 82.19, 0 79.42 C0 76.65, 0.15 73.87, 0.46 71.12 C0.76 68.37, 1.22 65.61, 1.83 62.91 C2.43 60.2, 3.19 57.51, 4.1 54.88 C5 52.25, 6.05 49.65, 7.23 47.12 C8.42 44.59, 9.75 42.11, 11.21 39.71 C12.67 37.31, 14.27 34.98, 15.98 32.74 C17.7 30.5, 19.54 28.33, 21.49 26.28 C23.45 24.22, 25.52 22.25, 27.69 20.4 C29.85 18.55, 32.14 16.79, 34.5 15.17 C36.85 13.54, 39.32 12.02, 41.84 10.64 C44.37 9.26, 46.98 7.99, 49.65 6.87 C52.31 5.74, 55.05 4.74, 57.82 3.89 C60.6 3.03, 63.43 2.31, 66.28 1.74 C69.14 1.16, 72.04 0.72, 74.94 0.44 C77.84 0.15, 80.77 0, 83.68 0 C86.6 0, 89.53 0.15, 92.43 0.44 C95.33 0.72, 98.23 1.16, 101.08 1.74 C103.93 2.31, 106.77 3.03, 109.54 3.89 C112.31 4.74, 115.06 5.74, 117.72 6.87 C120.38 7.99, 123 9.26, 125.52 10.64 C128.05 12.02, 130.51 13.54, 132.87 15.17 C135.23 16.79, 137.51 18.55, 139.68 20.4 C141.84 22.25, 143.92 24.22, 145.87 26.28 C147.82 28.33, 149.67 30.5, 151.38 32.74 C153.1 34.98, 154.7 37.31, 156.15 39.71 C157.61 42.11, 158.94 44.59, 160.13 47.12 C161.32 49.65, 162.37 52.25, 163.27 54.88 C164.17 57.51, 164.93 60.2, 165.54 62.91 C166.14 65.61, 166.6 68.37, 166.91 71.12 C167.21 73.87, 167.29 78.04, 167.37 79.42 C167.44 80.8, 167.44 78.04, 167.37 79.42" stroke="#1e1e1e" stroke-width="1" fill="none"></path></g><g transform="translate(956.048804047601 350.1900469717181) rotate(0 38.135986328125 20)"><text x="38.135986328125" y="0" font-family="Virgil, Segoe UI Emoji" font-size="16px" fill="#1e1e1e" text-anchor="middle" style="white-space: pre;" direction="ltr" dominant-baseline="text-before-edge">S3 Text </text><text x="38.135986328125" y="20" font-family="Virgil, Segoe UI Emoji" font-size="16px" fill="#1e1e1e" text-anchor="middle" style="white-space: pre;" direction="ltr" dominant-baseline="text-before-edge">Data</text></g><g mask="url(#mask-B_NUckxPOsQXtX_6c-c-6)" stroke-linecap="round"><g transform="translate(628.2138838338306 465.2352114419846) rotate(0 -289.4838451328528 -23.270063057444872)"><path d="M0 0 C-48 7.73, -202.8 43.34, -288.02 46.37 C-373.24 49.4, -462.82 34.06, -511.31 18.19 C-559.8 2.33, -581.05 -30.32, -578.97 -48.84 C-576.88 -67.35, -512.17 -85.57, -498.81 -92.91 M0 0 C-48 7.73, -202.8 43.34, -288.02 46.37 C-373.24 49.4, -462.82 34.06, -511.31 18.19 C-559.8 2.33, -581.05 -30.32, -578.97 -48.84 C-576.88 -67.35, -512.17 -85.57, -498.81 -92.91" stroke="#1e1e1e" stroke-width="1" fill="none"></path></g><g transform="translate(628.2138838338306 465.2352114419846) rotate(0 -289.4838451328528 -23.270063057444872)"><path d="M-521.08 -72.8 C-514.34 -78.88, -507.61 -84.97, -498.81 -92.91 M-521.08 -72.8 C-514.77 -78.5, -508.46 -84.2, -498.81 -92.91" stroke="#1e1e1e" stroke-width="1" fill="none"></path></g><g transform="translate(628.2138838338306 465.2352114419846) rotate(0 -289.4838451328528 -23.270063057444872)"><path d="M-528.79 -91.81 C-519.73 -92.15, -510.66 -92.48, -498.81 -92.91 M-528.79 -91.81 C-520.3 -92.13, -511.8 -92.44, -498.81 -92.91" stroke="#1e1e1e" stroke-width="1" fill="none"></path></g></g><mask id="mask-B_NUckxPOsQXtX_6c-c-6"><rect x="0" y="0" fill="#fff" width="1307.1815740995362" height="704.5176604070318"></rect><rect x="35.31782757158635" y="463.42935054472036" fill="#000" width="163.1678924560547" height="40" opacity="1"></rect></mask><g transform="translate(35.31782757158635 463.42935054472036) rotate(0 303.3426452289223 -21.271190950578898)"><text x="81.58394622802734" y="0" font-family="Virgil, Segoe UI Emoji" font-size="16px" fill="#1e1e1e" text-anchor="middle" style="white-space: pre;" direction="ltr" dominant-baseline="text-before-edge">Put extracted Urls </text><text x="81.58394622802734" y="20" font-family="Virgil, Segoe UI Emoji" font-size="16px" fill="#1e1e1e" text-anchor="middle" style="white-space: pre;" direction="ltr" dominant-baseline="text-before-edge">back on the queue</text></g><g stroke-linecap="round" transform="translate(10 207.91822479322627) rotate(0 542.9533319389625 177.3625303373815)"><path d="M32 0 C262.28 0, 492.55 0, 1053.91 0 M1053.91 0 C1075.24 0, 1085.91 10.67, 1085.91 32 M1085.91 32 C1085.91 94.1, 1085.91 156.2, 1085.91 322.73 M1085.91 322.73 C1085.91 344.06, 1075.24 354.73, 1053.91 354.73 M1053.91 354.73 C778.67 354.73, 503.44 354.73, 32 354.73 M32 354.73 C10.67 354.73, 0 344.06, 0 322.73 M0 322.73 C0 248.03, 0 173.34, 0 32 M0 32 C0 10.67, 10.67 0, 32 0" stroke="#1e1e1e" stroke-width="1.5" fill="none" stroke-dasharray="8 9"></path></g></svg>