<svg version="1.1" xmlns="http://www.w3.org/2000/svg" viewBox="0 0 1135.7323913574219 193.33302491306563" >
  <!-- svg-source:excalidraw -->
  <!-- payload-type:application/vnd.excalidraw+json --><!-- payload-version:2 -->
  <defs>
    <style class="style-fonts">
      @font-face {
        font-family: "Virgil";
        src: url("https://files.hellointerview.com/build-assets/PRODUCTION/_next/static/media/Excalifont-s.p.436754fa.woff2");
      }
      @font-face {
        font-family: "Cascadia";
        src: url("https://file%2B.vscode-resource.vscode-cdn.net/Users/evanking/.cursor/extensions/pomdtr.excalidraw-editor-3.7.4/public//dist/excalidraw-assets/Cascadia.woff2");
      }
      @font-face {
        font-family: "Assistant";
        src: url("https://file%2B.vscode-resource.vscode-cdn.net/Users/evanking/.cursor/extensions/pomdtr.excalidraw-editor-3.7.4/public//dist/excalidraw-assets/Assistant-Regular.woff2");
      }
    </style>
    
  </defs>
  <rect x="0" y="0" width="1135.7323913574219" height="193.33302491306563" fill="#ffffff"></rect><g stroke-linecap="round"><g transform="translate(117.1194555392035 123.03547939048906) rotate(0 91.62972535539825 0.07922083336018204)"><path d="M-0.16 -1.19 C30.47 -1.08, 152.53 1.03, 183.13 1.07 M-1.7 0.8 C28.81 0.54, 151.37 -0.4, 182.11 -0.58" stroke="#1e1e1e" stroke-width="1" fill="none"></path></g><g transform="translate(117.1194555392035 123.03547939048906) rotate(0 91.62972535539825 0.07922083336018204)"><path d="M28.16 -11.08 C19.27 -8.92, 15.82 -6.01, -0.16 -1.19 M28.16 -11.08 C22.87 -8.44, 16.78 -7.29, -0.16 -1.19" stroke="#1e1e1e" stroke-width="1" fill="none"></path></g><g transform="translate(117.1194555392035 123.03547939048906) rotate(0 91.62972535539825 0.07922083336018204)"><path d="M27.89 9.44 C18.99 6.57, 15.62 4.45, -0.16 -1.19 M27.89 9.44 C22.55 7.88, 16.52 4.83, -0.16 -1.19" stroke="#1e1e1e" stroke-width="1" fill="none"></path></g><g transform="translate(117.1194555392035 123.03547939048906) rotate(0 91.62972535539825 0.07922083336018204)"><path d="M153.99 9.88 C158.86 7.13, 169.25 5.05, 182.11 -0.58 M153.99 9.88 C160.15 8.89, 165.61 5.88, 182.11 -0.58" stroke="#1e1e1e" stroke-width="1" fill="none"></path></g><g transform="translate(117.1194555392035 123.03547939048906) rotate(0 91.62972535539825 0.07922083336018204)"><path d="M153.85 -10.64 C158.82 -8.36, 169.25 -5.41, 182.11 -0.58 M153.85 -10.64 C160.14 -7.43, 165.63 -6.24, 182.11 -0.58" stroke="#1e1e1e" stroke-width="1" fill="none"></path></g></g><mask></mask><g stroke-linecap="round" transform="translate(316.82421875 67.179266557255) rotate(0 117.96484375 54.552734375)"><path d="M6.6 7.07 C6.6 7.07, 6.6 7.07, 6.6 7.07 M6.6 7.07 C6.6 7.07, 6.6 7.07, 6.6 7.07 M1.75 18.75 C6.28 13.68, 8.68 9.65, 16.18 2.14 M1.75 18.75 C7.37 13.69, 11.16 7.88, 16.18 2.14 M0.83 25.9 C7.11 16.84, 13.54 9.12, 21.83 1.75 M0.83 25.9 C5.84 20.34, 9.88 16.14, 21.83 1.75 M0.57 32.3 C7.89 26.12, 13.72 19.87, 28.78 -0.16 M0.57 32.3 C6.94 25.01, 13.96 17.25, 28.78 -0.16 M0.97 37.94 C11.4 23.39, 26.09 11.82, 33.77 0.2 M0.97 37.94 C8.95 27.82, 18.1 19.96, 33.77 0.2 M0.7 44.34 C15.55 26.18, 28.37 10.96, 39.41 -0.19 M0.7 44.34 C9.46 34.11, 17.46 24.89, 39.41 -0.19 M1.1 49.98 C14.65 34.54, 24.46 21.58, 44.4 0.17 M1.1 49.98 C12.59 38.27, 21.94 25.53, 44.4 0.17 M0.84 56.38 C9.88 46.93, 21.07 32.63, 50.04 -0.22 M0.84 56.38 C12.61 41.62, 25.84 27.5, 50.04 -0.22 M0.58 62.78 C20.84 36.06, 45.02 11.29, 55.03 0.14 M0.58 62.78 C15.55 45.99, 31.7 28.43, 55.03 0.14 M0.97 68.42 C16.37 50.98, 34.12 28.96, 60.67 -0.26 M0.97 68.42 C20.31 47.4, 38.95 24.42, 60.67 -0.26 M0.71 74.82 C19.68 53.48, 40.39 32.64, 65.66 0.1 M0.71 74.82 C23.94 47.76, 46.1 21.54, 65.66 0.1 M1.1 80.46 C25.03 52.91, 51.73 23.53, 71.3 -0.29 M1.1 80.46 C27.67 51.26, 52.21 22.48, 71.3 -0.29 M0.84 86.86 C21.31 64.26, 44.44 38.69, 76.29 0.07 M0.84 86.86 C19.89 64.91, 37.11 46.23, 76.29 0.07 M1.89 91.75 C20.18 70.81, 39.62 44.9, 81.93 -0.33 M1.89 91.75 C26.06 65.87, 49.52 38.15, 81.93 -0.33 M3.6 95.88 C24.24 71.93, 46.99 43.94, 86.92 0.03 M3.6 95.88 C22.03 75.14, 40.19 53.49, 86.92 0.03 M5.31 100.01 C40.85 60.37, 74.51 24.05, 91.91 0.39 M5.31 100.01 C28.25 72.4, 52.25 45.7, 91.91 0.39 M8.33 102.64 C41.73 66.68, 74.35 30.15, 97.55 0 M8.33 102.64 C36.28 70.87, 63.97 39.64, 97.55 0 M11.34 105.26 C36.39 77.32, 62.37 47.99, 102.54 0.36 M11.34 105.26 C45.39 64.55, 80.59 25.48, 102.54 0.36 M15.02 107.13 C39.1 79.4, 62.79 54.91, 108.18 -0.04 M15.02 107.13 C45.16 73.74, 73.12 39.91, 108.18 -0.04 M19.35 108.25 C39.26 86.61, 60.41 62.95, 113.17 0.32 M19.35 108.25 C52.74 70.32, 83.44 32.65, 113.17 0.32 M23.68 109.36 C59.6 66.04, 100.11 21.22, 118.81 -0.07 M23.68 109.36 C54.01 76.04, 82.25 41.43, 118.81 -0.07 M28.67 109.72 C65.16 71.03, 97.28 29.86, 123.8 0.29 M28.67 109.72 C51.97 84.38, 72.53 58.08, 123.8 0.29 M34.31 109.33 C61.88 78.62, 87.14 47.99, 129.44 -0.11 M34.31 109.33 C68.87 67.92, 103.16 28.63, 129.44 -0.11 M39.3 109.69 C68.09 77.99, 95.95 43.14, 134.43 0.25 M39.3 109.69 C73.67 71.07, 108.69 30.63, 134.43 0.25 M44.94 109.29 C74.1 74.47, 102.09 42.16, 140.07 -0.14 M44.94 109.29 C69.65 82.42, 95.07 53.69, 140.07 -0.14 M49.93 109.65 C74.18 79.55, 99.74 51.78, 145.06 0.22 M49.93 109.65 C82.76 71.49, 117.02 31.33, 145.06 0.22 M55.57 109.26 C91.43 72.23, 123.03 35.32, 150.7 -0.17 M55.57 109.26 C87.37 74.26, 118.25 38.16, 150.7 -0.17 M60.56 109.62 C88.77 77.65, 117.59 43.39, 155.69 0.19 M60.56 109.62 C89.69 75.38, 119.99 39.85, 155.69 0.19 M66.2 109.22 C102.74 69.12, 137.69 27.71, 161.33 -0.21 M66.2 109.22 C88.73 83.38, 109.49 58.14, 161.33 -0.21 M71.19 109.58 C102.89 74.89, 132.24 39.71, 166.32 0.15 M71.19 109.58 C95.35 82.5, 121.17 54.04, 166.32 0.15 M76.83 109.19 C100.14 81.85, 124.41 54.04, 171.96 -0.24 M76.83 109.19 C113.56 66.65, 148.33 25.77, 171.96 -0.24 M81.82 109.55 C104.39 84.73, 128.93 55.91, 176.95 0.12 M81.82 109.55 C104.85 82.03, 128.59 56.4, 176.95 0.12 M87.46 109.15 C115.88 77.29, 143.64 45.54, 182.59 -0.28 M87.46 109.15 C117.63 76.42, 146.02 41.92, 182.59 -0.28 M92.45 109.51 C116.52 83.81, 138.5 56.02, 187.58 0.08 M92.45 109.51 C118.1 81.06, 145.8 49.5, 187.58 0.08 M98.09 109.12 C129.19 74.16, 160.18 40, 193.22 -0.31 M98.09 109.12 C128.22 75.97, 156.94 43.51, 193.22 -0.31 M103.08 109.48 C133.03 75.44, 160.93 39.19, 198.21 0.05 M103.08 109.48 C139.08 66.21, 176.61 24.68, 198.21 0.05 M108.72 109.09 C135.21 76.96, 162.66 47.11, 203.85 -0.35 M108.72 109.09 C145.58 68.35, 181.33 26.73, 203.85 -0.35 M113.71 109.45 C145.03 73.87, 173.71 36.97, 208.84 0.01 M113.71 109.45 C149.91 65.98, 186.64 25.2, 208.84 0.01 M119.35 109.05 C149.55 76.63, 177.21 38.7, 213.17 1.13 M119.35 109.05 C149.95 73.52, 179.45 39.78, 213.17 1.13 M124.34 109.41 C151.08 74.84, 182.05 43.51, 218.16 1.49 M124.34 109.41 C148.87 82.4, 172.62 55.58, 218.16 1.49 M129.33 109.77 C163.08 71.85, 196.05 35.06, 222.49 2.6 M129.33 109.77 C150.43 86.63, 169.69 64.44, 222.49 2.6 M134.97 109.38 C154.37 87.83, 172.73 67.32, 226.16 4.47 M134.97 109.38 C167.42 70.48, 201.06 33.84, 226.16 4.47 M139.96 109.74 C171.81 76.57, 201.3 42.79, 229.18 7.1 M139.96 109.74 C167.39 78.25, 193.53 47.78, 229.18 7.1 M145.6 109.34 C176.78 72.53, 208.55 40.59, 231.54 10.48 M145.6 109.34 C173.88 76.74, 200.34 47.28, 231.54 10.48 M150.59 109.7 C176.02 77.7, 204.56 46.13, 233.25 14.61 M150.59 109.7 C177.66 76.6, 206.8 43.64, 233.25 14.61 M156.23 109.31 C182.25 78.1, 213.42 47.59, 234.96 18.74 M156.23 109.31 C174.66 87.39, 193.04 67.01, 234.96 18.74 M161.22 109.67 C178.78 89.17, 201.19 65.39, 235.35 24.39 M161.22 109.67 C182.52 84.22, 203.99 59.02, 235.35 24.39 M166.86 109.27 C193.63 80.16, 220.95 48.43, 235.75 30.03 M166.86 109.27 C188.06 85.87, 209.42 59.69, 235.75 30.03 M171.85 109.63 C193.41 83.81, 216.38 56.58, 235.48 36.43 M171.85 109.63 C195.06 82.05, 219.04 54.45, 235.48 36.43 M177.49 109.24 C200.67 84.32, 218.43 62.08, 235.88 42.07 M177.49 109.24 C192.74 91.74, 207.01 76.22, 235.88 42.07 M182.48 109.6 C198.78 88.08, 220.01 68.15, 235.62 48.47 M182.48 109.6 C202.83 85.47, 224.29 61.64, 235.62 48.47 M188.12 109.2 C204.79 91.03, 217.27 71.9, 236.01 54.11 M188.12 109.2 C205.71 87.69, 226.21 65.83, 236.01 54.11 M193.11 109.56 C208.39 88.42, 226.98 68.83, 235.75 60.51 M193.11 109.56 C206.87 95.23, 218.67 80.92, 235.75 60.51 M198.75 109.17 C208.63 98.75, 213.84 88.57, 236.15 66.15 M198.75 109.17 C208.11 98.9, 216.91 87.95, 236.15 66.15 M203.74 109.53 C216.65 94.41, 231.08 79.7, 235.88 72.55 M203.74 109.53 C215.43 97.17, 225.13 84.45, 235.88 72.55 M209.38 109.14 C214.47 104.55, 222.15 94.38, 236.28 78.19 M209.38 109.14 C217.93 99.07, 227.6 87.35, 236.28 78.19 M215.02 108.74 C224.2 99.93, 228.27 92.84, 236.67 83.84 M215.02 108.74 C222.35 100.86, 231.1 90.79, 236.67 83.84 M221.32 107.59 C223.82 101.61, 229.46 98.83, 233.79 93.25 M221.32 107.59 C226.34 103.14, 230.66 97.1, 233.79 93.25" stroke="#ffffff" stroke-width="0.5" fill="none"></path><path d="M27.28 0 C80.77 0.46, 129.33 1.22, 208.65 0 M27.28 0 C64.42 -1.59, 102.02 -1.2, 208.65 0 M208.65 0 C226.04 1.75, 236.71 9.79, 235.93 27.28 M208.65 0 C227.91 0.36, 233.68 7.51, 235.93 27.28 M235.93 27.28 C237.86 44.15, 238.32 63.35, 235.93 81.83 M235.93 27.28 C237.07 42.82, 236.22 59.98, 235.93 81.83 M235.93 81.83 C235.02 100.9, 226.5 107.52, 208.65 109.11 M235.93 81.83 C237.2 101.36, 225.74 110.53, 208.65 109.11 M208.65 109.11 C172.51 106.21, 134 105.67, 27.28 109.11 M208.65 109.11 C158.74 108.63, 108.46 108.17, 27.28 109.11 M27.28 109.11 C10.42 109.74, 0.72 101.01, 0 81.83 M27.28 109.11 C6.9 109.22, -0.81 97.86, 0 81.83 M0 81.83 C1.33 64.95, -0.97 49.28, 0 27.28 M0 81.83 C1.38 66.23, 0.12 53.18, 0 27.28 M0 27.28 C-1 8.76, 10.97 0.86, 27.28 0 M0 27.28 C-1.15 9, 10.7 1.38, 27.28 0" stroke="#1e1e1e" stroke-width="1" fill="none"></path></g><g transform="translate(386.13671875 111.732000932255) rotate(0 48.65234375 10)"><text x="48.65234375" y="0" font-family="Virgil, Segoe UI Emoji" font-size="16px" fill="#1e1e1e" text-anchor="middle" style="white-space: pre;" direction="ltr" dominant-baseline="text-before-edge">Primary Server</text></g><g stroke-linecap="round" transform="translate(685.484375 46.33302491306563) rotate(0 75.416015625 68.5)"><path d="M6.61 38.87 C6.61 38.87, 6.61 38.87, 6.61 38.87 M6.61 38.87 C6.61 38.87, 6.61 38.87, 6.61 38.87 M5.03 46.78 C10.26 37.58, 20.87 30, 31.28 16.59 M5.03 46.78 C11.73 38.35, 18.8 31.54, 31.28 16.59 M2.8 55.44 C14.71 41.87, 25.06 32.17, 39.54 13.18 M2.8 55.44 C12.42 43.45, 22.55 31.66, 39.54 13.18 M0.58 64.1 C12.78 49.14, 27.62 31.98, 47.81 9.76 M0.58 64.1 C11.12 52.86, 21.37 40.62, 47.81 9.76 M0.31 70.5 C21.69 47.3, 42.06 25.04, 60.02 1.82 M0.31 70.5 C14.06 55.64, 28.95 38.79, 60.02 1.82 M2.02 74.63 C14.58 59.91, 31.7 43.13, 65 2.18 M2.02 74.63 C21 51.35, 41.3 28.16, 65 2.18 M3.07 79.52 C26.1 52, 51.13 21.6, 69.99 2.54 M3.07 79.52 C21.52 55.99, 41.66 33.18, 69.99 2.54 M4.12 84.41 C31.9 52.49, 57.61 21.25, 75.63 2.15 M4.12 84.41 C21.93 65.79, 37.07 46.31, 75.63 2.15 M5.83 88.54 C35.14 54.91, 65.8 23.29, 80.62 2.51 M5.83 88.54 C24.03 67.72, 43.12 45.32, 80.62 2.51 M6.88 93.43 C30.07 70.04, 51.63 42.32, 85.61 2.87 M6.88 93.43 C32.8 65.57, 55.95 37.58, 85.61 2.87 M7.93 98.32 C36.94 66.65, 62.05 35.72, 90.59 3.23 M7.93 98.32 C28.56 76.38, 48.86 54.12, 90.59 3.23 M10.29 101.7 C43.14 61.77, 77.55 26.87, 94.92 4.34 M10.29 101.7 C35.52 74.49, 59.5 46.15, 94.92 4.34 M13.31 104.32 C36.72 76.79, 60.94 49.55, 98.6 6.21 M13.31 104.32 C32.76 84.45, 50.16 62.06, 98.6 6.21 M15.67 107.7 C34.42 82.88, 59.35 56.79, 102.93 7.32 M15.67 107.7 C50.45 68.31, 82.92 29.38, 102.93 7.32 M18.69 110.33 C40.18 87.51, 58.37 66.34, 106.6 9.19 M18.69 110.33 C45.79 80.84, 70.37 51.36, 106.6 9.19 M21.06 113.7 C43.23 88.86, 63.12 65.39, 110.28 11.06 M21.06 113.7 C40.83 90.3, 62.41 65.63, 110.28 11.06 M24.07 116.33 C53.74 82.25, 84.6 49.12, 114.61 12.18 M24.07 116.33 C43.68 94.15, 63.4 71.2, 114.61 12.18 M26.44 119.71 C55.01 87.37, 84.8 52.4, 118.29 14.05 M26.44 119.71 C56.02 87.3, 84.37 55.14, 118.29 14.05 M29.46 122.33 C53.74 93.23, 80.76 63.63, 122.62 15.16 M29.46 122.33 C54.73 93.17, 81.44 63.8, 122.62 15.16 M33.13 124.2 C53.83 99.33, 72.99 75.3, 126.29 17.03 M33.13 124.2 C64.41 90.22, 94.1 55.18, 126.29 17.03 M37.46 125.32 C63.19 92.47, 88.83 65.57, 128.65 20.41 M37.46 125.32 C72.71 86.03, 107.33 44.53, 128.65 20.41 M41.14 127.19 C65.14 100.07, 85.71 74.54, 131.02 23.79 M41.14 127.19 C64.62 99.89, 86.66 73.73, 131.02 23.79 M44.81 129.06 C73.2 94.45, 100.01 63.81, 134.04 26.41 M44.81 129.06 C64.89 105.79, 84.49 83.85, 134.04 26.41 M49.14 130.17 C79.19 92.77, 112.76 56.31, 136.4 29.79 M49.14 130.17 C72.69 102.97, 95.02 77.01, 136.4 29.79 M52.82 132.04 C75.92 108.65, 95.22 81.98, 139.42 32.42 M52.82 132.04 C76.05 103.42, 101.03 75.69, 139.42 32.42 M56.49 133.91 C77.2 113.49, 94.75 91.26, 141.78 35.8 M56.49 133.91 C75.82 111.39, 96.06 90.32, 141.78 35.8 M60.17 135.78 C88.41 104.84, 112.76 75.64, 144.8 38.42 M60.17 135.78 C78.24 115.31, 96.07 95.24, 144.8 38.42 M65.81 135.38 C93.44 104.77, 119.73 75.45, 147.16 41.8 M65.81 135.38 C97.76 99.5, 128.41 63.22, 147.16 41.8 M70.8 135.74 C93.86 109.65, 114.09 85.89, 148.21 46.69 M70.8 135.74 C93.09 110.46, 114.66 85.84, 148.21 46.69 M75.78 136.1 C97.81 108.93, 120.3 82.91, 149.26 51.58 M75.78 136.1 C96.15 112.36, 116.35 89.08, 149.26 51.58 M81.43 135.71 C100.02 118.01, 116.32 94.84, 150.31 56.47 M81.43 135.71 C102.45 111.54, 123.4 86.7, 150.31 56.47 M86.41 136.07 C102.74 113.41, 122.01 92.45, 151.36 61.35 M86.41 136.07 C101.47 120.12, 114.63 102.59, 151.36 61.35 M91.4 136.43 C105.2 119.27, 122.58 100.06, 152.42 66.24 M91.4 136.43 C114.37 110.44, 137.32 83.2, 152.42 66.24 M95.73 137.54 C110.44 122.75, 120.9 104.2, 153.47 71.13 M95.73 137.54 C110.34 120.56, 124.08 104.46, 153.47 71.13 M104 134.13 C118.03 121.96, 127.11 107.11, 151.24 79.79 M104 134.13 C116.58 119.99, 129.56 105.76, 151.24 79.79 M112.92 129.96 C120.36 121.26, 130.03 110.81, 148.35 89.21 M112.92 129.96 C125.74 114.66, 137.39 102.15, 148.35 89.21" stroke="#ffffff" stroke-width="0.5" fill="none"></path><path d="M92.51 2.55 C102.78 3.58, 114.44 8.57, 123.08 14.72 C131.72 20.86, 139.68 30.33, 144.37 39.41 C149.05 48.5, 151.34 59.56, 151.18 69.24 C151.02 78.92, 148.34 88.61, 143.39 97.49 C138.45 106.37, 129.96 116.24, 121.51 122.51 C113.06 128.78, 103.08 133.08, 92.68 135.11 C82.27 137.14, 69.68 136.88, 59.09 134.7 C48.51 132.51, 37.77 128.07, 29.14 122 C20.52 115.94, 12.29 107.13, 7.33 98.32 C2.38 89.52, -0.5 79.13, -0.59 69.18 C-0.68 59.23, 1.94 47.78, 6.81 38.64 C11.69 29.49, 19.91 20.51, 28.67 14.32 C37.43 8.13, 48.55 3.42, 59.37 1.49 C70.19 -0.44, 87.41 2.42, 93.58 2.75 C99.76 3.09, 96.5 2.65, 96.42 3.5 M89.35 0.56 C99.76 1.26, 110.57 7.56, 119.56 13.49 C128.56 19.41, 137.96 27.09, 143.3 36.13 C148.63 45.18, 151.25 57.61, 151.57 67.75 C151.89 77.89, 149.65 88.03, 145.22 96.96 C140.79 105.9, 133.42 114.93, 125 121.36 C116.59 127.8, 105.68 133.2, 94.71 135.6 C83.74 138, 70.06 138.05, 59.19 135.74 C48.31 133.44, 37.95 127.56, 29.47 121.78 C21 116, 13.02 109.4, 8.34 101.04 C3.66 92.69, 1.78 81.82, 1.41 71.66 C1.05 61.49, 1.91 49.37, 6.14 40.04 C10.36 30.71, 18.55 22.13, 26.79 15.68 C35.02 9.23, 44.74 3.95, 55.56 1.36 C66.37 -1.24, 86.02 -0.32, 91.68 0.13 C97.33 0.59, 90.11 2.81, 89.5 4.08" stroke="#1e1e1e" stroke-width="1" fill="none"></path></g><g transform="translate(731.7568083164919 104.89621040178713) rotate(0 29.31640625 10)"><text x="29.31640625" y="0" font-family="Virgil, Segoe UI Emoji" font-size="16px" fill="#1e1e1e" text-anchor="middle" style="white-space: pre;" direction="ltr" dominant-baseline="text-before-edge">Database</text></g><g stroke-linecap="round" transform="translate(10 82.24708741306563) rotate(0 47.796875 39.849609375)"><path d="M2.83 7.76 C2.83 7.76, 2.83 7.76, 2.83 7.76 M2.83 7.76 C2.83 7.76, 2.83 7.76, 2.83 7.76 M1.25 15.66 C4.86 11.58, 7.46 10.12, 10.44 5.1 M1.25 15.66 C3.39 12.39, 5.98 9.31, 10.44 5.1 M0.99 22.06 C5.15 16.28, 12.14 8.13, 20.02 0.17 M0.99 22.06 C5.45 17.71, 9.81 12.24, 20.02 0.17 M0.73 28.46 C10 18.84, 18.5 10.24, 25.66 -0.22 M0.73 28.46 C6.18 22.52, 13.04 14.9, 25.66 -0.22 M1.12 34.1 C6.3 28.05, 15.79 20.06, 30.65 0.14 M1.12 34.1 C9.52 22.99, 19.35 11.84, 30.65 0.14 M0.86 40.5 C12.37 26.93, 25.53 10.19, 35.63 0.5 M0.86 40.5 C10.15 28.1, 20.82 16.18, 35.63 0.5 M1.26 46.14 C17.38 27.85, 31.51 9.93, 41.28 0.11 M1.26 46.14 C11.61 35.73, 19.44 24.65, 41.28 0.11 M1 52.54 C18.57 32.1, 37.63 13.83, 46.26 0.47 M1 52.54 C11.66 40.07, 23.26 26.29, 46.26 0.47 M0.73 58.94 C16.38 44.4, 30.2 25.58, 51.91 0.07 M0.73 58.94 C17.81 40.8, 32.37 22.71, 51.91 0.07 M1.13 64.58 C21.29 43.14, 37.61 22.33, 56.89 0.43 M1.13 64.58 C15.09 49.88, 29.01 34.96, 56.89 0.43 M2.84 68.72 C26.12 40, 50.86 16.22, 62.54 0.04 M2.84 68.72 C20.68 49.73, 37.42 29.71, 62.54 0.04 M4.54 72.85 C21.88 52.52, 40.02 32.26, 67.52 0.4 M4.54 72.85 C18.97 58.36, 31.59 41.47, 67.52 0.4 M6.9 76.23 C20.53 57.68, 40.16 37.68, 72.51 0.76 M6.9 76.23 C33.29 46.52, 57.29 17.33, 72.51 0.76 M10.58 78.1 C27.52 60.26, 41.32 44.15, 78.15 0.36 M10.58 78.1 C31.55 55.24, 50.2 32.58, 78.15 0.36 M14.25 79.97 C31.32 61.19, 45.93 43.79, 81.83 2.23 M14.25 79.97 C29.11 62.44, 45.72 43.5, 81.83 2.23 M17.93 81.84 C40.47 56.14, 63.97 31.48, 86.16 3.35 M17.93 81.84 C32.89 65.25, 47.79 47.85, 86.16 3.35 M23.57 81.44 C44.06 58.48, 65.82 32.76, 89.83 5.22 M23.57 81.44 C44.97 58.13, 65.39 35.09, 89.83 5.22 M28.56 81.8 C45.38 61.32, 64.69 40.59, 93.51 7.09 M28.56 81.8 C46.03 61.54, 65.05 41.02, 93.51 7.09 M33.55 82.16 C47.53 65.48, 59.68 49.52, 94.56 11.97 M33.55 82.16 C54.08 60.19, 73.38 37.12, 94.56 11.97 M39.19 81.77 C55.12 60.84, 70.66 45.54, 95.61 16.86 M39.19 81.77 C61.06 57.81, 82.22 31.8, 95.61 16.86 M44.18 82.13 C59.15 66.2, 70.28 51.53, 97.32 21 M44.18 82.13 C58.23 65.75, 70.98 50.26, 97.32 21 M49.82 81.73 C64.97 62.57, 78.71 46.96, 97.06 27.39 M49.82 81.73 C60.11 69.31, 70.37 58.11, 97.06 27.39 M54.81 82.09 C68.72 63.95, 85.72 46.55, 96.79 33.79 M54.81 82.09 C66.59 68.82, 76.8 56.81, 96.79 33.79 M60.45 81.7 C71.05 72.71, 77.75 60.54, 97.19 39.43 M60.45 81.7 C70.2 69.15, 81.16 57.55, 97.19 39.43 M65.44 82.06 C74.1 74.68, 79.96 65.89, 96.93 45.83 M65.44 82.06 C72.13 73.21, 80.05 66.32, 96.93 45.83 M71.08 81.66 C80.53 71.78, 86.16 64.11, 96.67 52.23 M71.08 81.66 C76.6 75.74, 82.29 69.63, 96.67 52.23 M76.72 81.27 C84.3 73.28, 91.17 66.3, 97.06 57.87 M76.72 81.27 C84.95 72.57, 92.11 63.33, 97.06 57.87 M84.33 78.61 C88.33 74.14, 89.61 72.23, 96.14 65.03 M84.33 78.61 C88.29 74.24, 91.71 70.46, 96.14 65.03" stroke="#ffffff" stroke-width="0.5" fill="none"></path><path d="M19.92 0 C39.23 1.45, 59.28 -0.88, 75.67 0 M19.92 0 C41.99 -0.04, 62.14 -0.88, 75.67 0 M75.67 0 C89.52 1.55, 95.13 8.15, 95.59 19.92 M75.67 0 C87.74 2.26, 95.87 6.63, 95.59 19.92 M95.59 19.92 C93.78 33.47, 95.43 45.69, 95.59 59.77 M95.59 19.92 C96.08 34.23, 95.05 47.99, 95.59 59.77 M95.59 59.77 C93.65 73.85, 87.03 80.37, 75.67 79.7 M95.59 59.77 C94.26 71.88, 87 79.19, 75.67 79.7 M75.67 79.7 C57.29 81.32, 36.55 81.32, 19.92 79.7 M75.67 79.7 C56.22 80.03, 38.32 79.04, 19.92 79.7 M19.92 79.7 C6.6 81.26, 1.85 74.81, 0 59.77 M19.92 79.7 C5.91 79.08, -0.06 72.4, 0 59.77 M0 59.77 C-1.39 50.19, 2.09 40.74, 0 19.92 M0 59.77 C-0.87 48.44, 0.33 37.8, 0 19.92 M0 19.92 C0.66 8.22, 5.99 -1.07, 19.92 0 M0 19.92 C-0.62 5.23, 7.61 -1.4, 19.92 0" stroke="#1e1e1e" stroke-width="1" fill="none"></path></g><g transform="translate(38.2421875 112.09669678806563) rotate(0 19.5546875 10)"><text x="19.5546875" y="0" font-family="Virgil, Segoe UI Emoji" font-size="16px" fill="#1e1e1e" text-anchor="middle" style="white-space: pre;" direction="ltr" dominant-baseline="text-before-edge">Client</text></g><g stroke-linecap="round"><g transform="translate(566.2109375 122.66846119479999) rotate(0 53.197265625 0.1545474841327632)"><path d="M-0.48 1.05 C17.18 1.09, 88.96 0.82, 106.86 0.73 M1.48 0.55 C18.93 0.18, 88.66 -1.4, 106.16 -1.18" stroke="#1e1e1e" stroke-width="1" fill="none"></path></g><g transform="translate(566.2109375 122.66846119479999) rotate(0 53.197265625 0.1545474841327632)"><path d="M27.69 -9.28 C18.86 -4.72, 7.19 -0.67, -0.48 1.05 M27.69 -9.28 C18.98 -5.44, 9.56 -2.2, -0.48 1.05" stroke="#1e1e1e" stroke-width="1" fill="none"></path></g><g transform="translate(566.2109375 122.66846119479999) rotate(0 53.197265625 0.1545474841327632)"><path d="M27.74 11.24 C18.81 8.06, 7.12 4.38, -0.48 1.05 M27.74 11.24 C19.21 8.6, 9.78 5.36, -0.48 1.05" stroke="#1e1e1e" stroke-width="1" fill="none"></path></g><g transform="translate(566.2109375 122.66846119479999) rotate(0 53.197265625 0.1545474841327632)"><path d="M78.04 9.3 C90.35 6.24, 99.9 2.45, 106.16 -1.18 M78.04 9.3 C87.31 6.96, 95.67 3.63, 106.16 -1.18" stroke="#1e1e1e" stroke-width="1" fill="none"></path></g><g transform="translate(566.2109375 122.66846119479999) rotate(0 53.197265625 0.1545474841327632)"><path d="M77.89 -11.22 C90.34 -6.55, 99.94 -2.6, 106.16 -1.18 M77.89 -11.22 C87 -7.08, 95.42 -3.93, 106.16 -1.18" stroke="#1e1e1e" stroke-width="1" fill="none"></path></g></g><mask></mask><g transform="translate(855.4765625 52.34474366306563) rotate(0 135.12791442871094 60)"><text x="0" y="0" font-family="Virgil, Segoe UI Emoji" font-size="16px" fill="#1e1e1e" text-anchor="start" style="white-space: pre;" direction="ltr" dominant-baseline="text-before-edge">Urls</text><text x="0" y="20" font-family="Virgil, Segoe UI Emoji" font-size="16px" fill="#1e1e1e" text-anchor="start" style="white-space: pre;" direction="ltr" dominant-baseline="text-before-edge">- short url code (or custom alias)</text><text x="0" y="40" font-family="Virgil, Segoe UI Emoji" font-size="16px" fill="#1e1e1e" text-anchor="start" style="white-space: pre;" direction="ltr" dominant-baseline="text-before-edge">- original url</text><text x="0" y="60" font-family="Virgil, Segoe UI Emoji" font-size="16px" fill="#1e1e1e" text-anchor="start" style="white-space: pre;" direction="ltr" dominant-baseline="text-before-edge">- creationTime</text><text x="0" y="80" font-family="Virgil, Segoe UI Emoji" font-size="16px" fill="#1e1e1e" text-anchor="start" style="white-space: pre;" direction="ltr" dominant-baseline="text-before-edge">- expirationTime?</text><text x="0" y="100" font-family="Virgil, Segoe UI Emoji" font-size="16px" fill="#1e1e1e" text-anchor="start" style="white-space: pre;" direction="ltr" dominant-baseline="text-before-edge">- createdBy</text></g><g transform="translate(161.516207665205 137.44630616306551) rotate(0 44.823974609375 10)"><text x="0" y="0" font-family="Virgil, Segoe UI Emoji" font-size="16px" fill="#1e1e1e" text-anchor="start" style="white-space: pre;" direction="ltr" dominant-baseline="text-before-edge">POST /urls</text></g><g transform="translate(326.15115463990526 10) rotate(0 107.80792999267578 20)"><text x="0" y="0" font-family="Virgil, Segoe UI Emoji" font-size="16px" fill="#1e1e1e" text-anchor="start" style="white-space: pre;" direction="ltr" dominant-baseline="text-before-edge">Write: 1) generate short url</text><text x="0" y="20" font-family="Virgil, Segoe UI Emoji" font-size="16px" fill="#1e1e1e" text-anchor="start" style="white-space: pre;" direction="ltr" dominant-baseline="text-before-edge">      2) save to DB</text></g></svg>