<svg version="1.1" xmlns="http://www.w3.org/2000/svg" viewBox="0 0 1135.7323913574219 249.80597462271817" >
  <!-- svg-source:excalidraw -->
  <!-- payload-type:application/vnd.excalidraw+json --><!-- payload-version:2 -->
  <defs>
    <style class="style-fonts">
      @font-face {
        font-family: "Virgil";
        src: url("https://files.hellointerview.com/build-assets/PRODUCTION/_next/static/media/Excalifont-s.p.436754fa.woff2");
      }
      @font-face {
        font-family: "Cascadia";
        src: url("https://file%2B.vscode-resource.vscode-cdn.net/Users/evanking/.cursor/extensions/pomdtr.excalidraw-editor-3.7.4/public//dist/excalidraw-assets/Cascadia.woff2");
      }
      @font-face {
        font-family: "Assistant";
        src: url("https://file%2B.vscode-resource.vscode-cdn.net/Users/evanking/.cursor/extensions/pomdtr.excalidraw-editor-3.7.4/public//dist/excalidraw-assets/Assistant-Regular.woff2");
      }
    </style>
    
  </defs>
  <rect x="0" y="0" width="1135.7323913574219" height="249.80597462271817" fill="#ffffff"></rect><g transform="translate(327.51965619401176 199.80597462271817) rotate(0 134.67193603515625 20)"><text x="0" y="0" font-family="Virgil, Segoe UI Emoji" font-size="16px" fill="#1e1e1e" text-anchor="start" style="white-space: pre;" direction="ltr" dominant-baseline="text-before-edge">Read: 1) look up original url in DB</text><text x="0" y="20" font-family="Virgil, Segoe UI Emoji" font-size="16px" fill="#1e1e1e" text-anchor="start" style="white-space: pre;" direction="ltr" dominant-baseline="text-before-edge">      2) return with 302 redirect</text></g><g stroke-linecap="round"><g transform="translate(117.1194555392035 122.89092487653852) rotate(0 91.62972535539825 0.07922083336018204)"><path d="M1.08 -0.17 C31.82 -0.4, 153.65 -0.78, 184.02 -0.6 M0.19 -1.31 C30.88 -1.47, 153.08 0.5, 183.47 0.54" stroke="#1e1e1e" stroke-width="1" fill="none"></path></g><g transform="translate(117.1194555392035 122.89092487653852) rotate(0 91.62972535539825 0.07922083336018204)"><path d="M29.24 -10.53 C21.61 -6.29, 13.23 -4.85, 1.08 -0.17 M29.24 -10.53 C18.95 -6.9, 8.36 -3.13, 1.08 -0.17" stroke="#1e1e1e" stroke-width="1" fill="none"></path></g><g transform="translate(117.1194555392035 122.89092487653852) rotate(0 91.62972535539825 0.07922083336018204)"><path d="M29.3 9.99 C21.53 8.84, 13.13 4.89, 1.08 -0.17 M29.3 9.99 C18.82 6.21, 8.21 2.58, 1.08 -0.17" stroke="#1e1e1e" stroke-width="1" fill="none"></path></g><g transform="translate(117.1194555392035 122.89092487653852) rotate(0 91.62972535539825 0.07922083336018204)"><path d="M155.18 10.53 C162.26 8.91, 168.72 5.01, 183.47 0.54 M155.18 10.53 C165.1 6.86, 174.88 3.29, 183.47 0.54" stroke="#1e1e1e" stroke-width="1" fill="none"></path></g><g transform="translate(117.1194555392035 122.89092487653852) rotate(0 91.62972535539825 0.07922083336018204)"><path d="M155.37 -9.99 C162.54 -6.21, 168.95 -4.72, 183.47 0.54 M155.37 -9.99 C165.39 -6.25, 175.1 -2.42, 183.47 0.54" stroke="#1e1e1e" stroke-width="1" fill="none"></path></g></g><mask></mask><g stroke-linecap="round" transform="translate(316.82421875 67.03471204330435) rotate(0 117.96484375 54.552734375)"><path d="M6.6 7.07 C6.6 7.07, 6.6 7.07, 6.6 7.07 M6.6 7.07 C6.6 7.07, 6.6 7.07, 6.6 7.07 M1.75 18.75 C4.3 15.46, 8.41 10.85, 16.18 2.14 M1.75 18.75 C6.03 14.26, 10.39 9.1, 16.18 2.14 M0.83 25.9 C6.81 17.32, 17.94 5.7, 21.83 1.75 M0.83 25.9 C6.59 20, 11.61 12.72, 21.83 1.75 M0.57 32.3 C7.98 23.99, 16.59 12.35, 28.78 -0.16 M0.57 32.3 C10.79 21.94, 19.51 12.1, 28.78 -0.16 M0.97 37.94 C8.94 29.25, 20.14 19.02, 33.77 0.2 M0.97 37.94 C12.87 24.66, 23.15 11.99, 33.77 0.2 M0.7 44.34 C11.37 32.23, 21.3 22.16, 39.41 -0.19 M0.7 44.34 C8.68 35.18, 17 26.18, 39.41 -0.19 M1.1 49.98 C16.9 32.38, 32.3 13.47, 44.4 0.17 M1.1 49.98 C14.81 33.6, 29.26 16.56, 44.4 0.17 M0.84 56.38 C20.81 33.26, 38.3 10.74, 50.04 -0.22 M0.84 56.38 C16.82 39.06, 30.54 23.33, 50.04 -0.22 M0.58 62.78 C11.04 50.27, 24.64 38.57, 55.03 0.14 M0.58 62.78 C13.78 46.86, 26.94 32.71, 55.03 0.14 M0.97 68.42 C14.5 52.86, 29.9 36.09, 60.67 -0.26 M0.97 68.42 C20.78 47.13, 41.13 24.69, 60.67 -0.26 M0.71 74.82 C22.24 48.21, 46.48 21.48, 65.66 0.1 M0.71 74.82 C18.95 55.76, 35.27 34.05, 65.66 0.1 M1.1 80.46 C27.8 51.9, 53.2 21.38, 71.3 -0.29 M1.1 80.46 C19.7 56.7, 39.96 35.67, 71.3 -0.29 M0.84 86.86 C18.04 69.07, 36.58 47.6, 76.29 0.07 M0.84 86.86 C24.59 59.18, 48.74 33.48, 76.29 0.07 M1.89 91.75 C28.67 63.16, 50.69 33.71, 81.93 -0.33 M1.89 91.75 C22.23 65.85, 44.92 41.6, 81.93 -0.33 M3.6 95.88 C21.61 74.71, 39.48 54.79, 86.92 0.03 M3.6 95.88 C25.86 72.11, 45.37 48.29, 86.92 0.03 M5.31 100.01 C36.93 66.85, 66.36 31.53, 91.91 0.39 M5.31 100.01 C30.17 71.47, 54.13 42.95, 91.91 0.39 M8.33 102.64 C32.41 75.6, 54.64 46.03, 97.55 0 M8.33 102.64 C31.04 76.13, 53.19 49.79, 97.55 0 M11.34 105.26 C34.57 77.88, 58.91 48.06, 102.54 0.36 M11.34 105.26 C32.68 81.03, 54.52 56.11, 102.54 0.36 M15.02 107.13 C46.81 70.98, 81.28 31.39, 108.18 -0.04 M15.02 107.13 C44.45 74.53, 75.66 39.91, 108.18 -0.04 M19.35 108.25 C55.59 66.79, 87.81 29.08, 113.17 0.32 M19.35 108.25 C44.02 79.46, 70.21 51.62, 113.17 0.32 M23.68 109.36 C59.76 68.27, 97.32 24.86, 118.81 -0.07 M23.68 109.36 C51.8 75.13, 81.03 41.32, 118.81 -0.07 M28.67 109.72 C61.32 70.8, 94.54 32.83, 123.8 0.29 M28.67 109.72 C58.51 75.74, 87.18 41.6, 123.8 0.29 M34.31 109.33 C59.81 79.27, 86.5 53.6, 129.44 -0.11 M34.31 109.33 C61.66 78.05, 88.92 47.86, 129.44 -0.11 M39.3 109.69 C69.14 71.98, 99.61 36.85, 134.43 0.25 M39.3 109.69 C69.16 75.23, 98.02 42.18, 134.43 0.25 M44.94 109.29 C71.03 79.61, 97.09 49.26, 140.07 -0.14 M44.94 109.29 C65.64 85.98, 87.51 63.69, 140.07 -0.14 M49.93 109.65 C74.63 78.29, 100.65 48.65, 145.06 0.22 M49.93 109.65 C84.13 69.94, 117.3 31.14, 145.06 0.22 M55.57 109.26 C80.54 77.78, 109.99 49.63, 150.7 -0.17 M55.57 109.26 C80.01 82.05, 104.11 54.3, 150.7 -0.17 M60.56 109.62 C97.93 66.41, 132.97 23.39, 155.69 0.19 M60.56 109.62 C98.43 65.2, 135.87 22.41, 155.69 0.19 M66.2 109.22 C98.88 70.97, 130.38 37.05, 161.33 -0.21 M66.2 109.22 C90.73 80.15, 117.19 50.77, 161.33 -0.21 M71.19 109.58 C96.06 82.21, 120.75 50.32, 166.32 0.15 M71.19 109.58 C102.76 75.85, 133.57 40.93, 166.32 0.15 M76.83 109.19 C101.05 84.64, 125.14 56.73, 171.96 -0.24 M76.83 109.19 C102.51 78.29, 129.11 48.4, 171.96 -0.24 M81.82 109.55 C116.64 67.54, 153.45 27.42, 176.95 0.12 M81.82 109.55 C107.03 81.49, 131.28 53.04, 176.95 0.12 M87.46 109.15 C108.48 83.08, 131.51 58.65, 182.59 -0.28 M87.46 109.15 C110.95 83.52, 135.62 54.54, 182.59 -0.28 M92.45 109.51 C131.34 65.46, 165.57 24.6, 187.58 0.08 M92.45 109.51 C120.83 77.07, 146.85 45.92, 187.58 0.08 M98.09 109.12 C119.41 82.82, 140.8 59.64, 193.22 -0.31 M98.09 109.12 C128.26 73.11, 158.17 38.85, 193.22 -0.31 M103.08 109.48 C125.38 80.65, 150.73 55.84, 198.21 0.05 M103.08 109.48 C135.47 71.95, 165.65 35.59, 198.21 0.05 M108.72 109.09 C136.5 77.3, 162.56 47.19, 203.85 -0.35 M108.72 109.09 C136.66 76.82, 165.74 42.32, 203.85 -0.35 M113.71 109.45 C137.77 83.29, 159.49 60.03, 208.84 0.01 M113.71 109.45 C139.75 79.02, 165.84 49.09, 208.84 0.01 M119.35 109.05 C143.35 82.3, 163.3 56.19, 213.17 1.13 M119.35 109.05 C143.01 81.35, 168.71 53.41, 213.17 1.13 M124.34 109.41 C157.75 73.86, 188.68 34.95, 218.16 1.49 M124.34 109.41 C143.6 86.15, 164.24 63.39, 218.16 1.49 M129.33 109.77 C157.57 78.65, 185.03 45.63, 222.49 2.6 M129.33 109.77 C155.48 78.1, 183.06 47.45, 222.49 2.6 M134.97 109.38 C170.14 71.61, 205.1 29.91, 226.16 4.47 M134.97 109.38 C152.76 88.26, 173.11 65.7, 226.16 4.47 M139.96 109.74 C169.42 78.83, 194.35 46.35, 229.18 7.1 M139.96 109.74 C169.97 75.94, 197.94 43.03, 229.18 7.1 M145.6 109.34 C178.66 71.8, 211.84 32.82, 231.54 10.48 M145.6 109.34 C178.18 71.44, 208.87 35.02, 231.54 10.48 M150.59 109.7 C181.24 73.72, 215.06 39.14, 233.25 14.61 M150.59 109.7 C180.77 74.07, 213.31 39.15, 233.25 14.61 M156.23 109.31 C183.98 76.56, 214.65 41, 234.96 18.74 M156.23 109.31 C185.69 77.27, 212.18 44.37, 234.96 18.74 M161.22 109.67 C189.28 78.64, 212.86 48.68, 235.35 24.39 M161.22 109.67 C181.52 88.9, 199.34 65.45, 235.35 24.39 M166.86 109.27 C185.91 87.28, 203.87 62.95, 235.75 30.03 M166.86 109.27 C183.55 88.2, 202.13 69.4, 235.75 30.03 M171.85 109.63 C189.91 89.77, 209.16 65.8, 235.48 36.43 M171.85 109.63 C188.22 88.96, 206.17 70.3, 235.48 36.43 M177.49 109.24 C199.25 84.9, 222.68 56.88, 235.88 42.07 M177.49 109.24 C194.97 89.36, 214.32 67.86, 235.88 42.07 M182.48 109.6 C203.88 84.98, 222.15 61.86, 235.62 48.47 M182.48 109.6 C199.97 89.84, 216.18 70.91, 235.62 48.47 M188.12 109.2 C198.92 96.95, 210.1 82.96, 236.01 54.11 M188.12 109.2 C207.07 87.73, 227.1 64.62, 236.01 54.11 M193.11 109.56 C205.97 97.86, 213.78 83.19, 235.75 60.51 M193.11 109.56 C202.46 99.59, 209.84 89.67, 235.75 60.51 M198.75 109.17 C209.34 98.1, 216.55 87.57, 236.15 66.15 M198.75 109.17 C211.81 93.31, 224.66 78.2, 236.15 66.15 M203.74 109.53 C210.53 99.85, 219.83 89.78, 235.88 72.55 M203.74 109.53 C212.94 97.92, 223.31 86.3, 235.88 72.55 M209.38 109.14 C220.21 95.6, 229.34 85.53, 236.28 78.19 M209.38 109.14 C217.22 101.23, 223.39 92.1, 236.28 78.19 M215.02 108.74 C222.47 96.83, 230.75 87.44, 236.67 83.84 M215.02 108.74 C221.97 100.4, 228.87 92.37, 236.67 83.84 M221.32 107.59 C226.97 103.87, 227.29 98.76, 233.79 93.25 M221.32 107.59 C226.4 102.8, 231.04 97.99, 233.79 93.25" stroke="#ffffff" stroke-width="0.5" fill="none"></path><path d="M27.28 0 C96.73 -1.16, 169.94 0.53, 208.65 0 M27.28 0 C79.5 0.1, 133.02 -0.38, 208.65 0 M208.65 0 C225.42 0.88, 235.65 10.62, 235.93 27.28 M208.65 0 C228.33 1.51, 238.08 9.28, 235.93 27.28 M235.93 27.28 C234.5 41.5, 237.05 52.77, 235.93 81.83 M235.93 27.28 C236.07 43.38, 236.67 59.81, 235.93 81.83 M235.93 81.83 C236.02 98.61, 227.93 110.29, 208.65 109.11 M235.93 81.83 C235.03 102.24, 227.83 109.84, 208.65 109.11 M208.65 109.11 C161.6 108.49, 110.12 111.84, 27.28 109.11 M208.65 109.11 C153.35 108.35, 97.43 107.89, 27.28 109.11 M27.28 109.11 C9.88 109.09, 0.37 100, 0 81.83 M27.28 109.11 C11.16 110.32, -2.27 98.99, 0 81.83 M0 81.83 C1.99 67.43, 0.26 53.59, 0 27.28 M0 81.83 C1.01 69.04, 0.13 58.26, 0 27.28 M0 27.28 C0.29 8.46, 8.55 1.96, 27.28 0 M0 27.28 C0.88 11.18, 9.61 1.51, 27.28 0" stroke="#1e1e1e" stroke-width="1" fill="none"></path></g><g transform="translate(386.13671875 111.58744641830435) rotate(0 48.65234375 10)"><text x="48.65234375" y="0" font-family="Virgil, Segoe UI Emoji" font-size="16px" fill="#1e1e1e" text-anchor="middle" style="white-space: pre;" direction="ltr" dominant-baseline="text-before-edge">Primary Server</text></g><g stroke-linecap="round" transform="translate(685.484375 46.188470399114976) rotate(0 75.416015625 68.5)"><path d="M12.17 31.78 C12.17 31.78, 12.17 31.78, 12.17 31.78 M12.17 31.78 C12.17 31.78, 12.17 31.78, 12.17 31.78 M7.97 42.7 C16.32 34.65, 25.36 22.78, 35.52 11.01 M7.97 42.7 C16.87 32.76, 25.19 22.68, 35.52 11.01 M3.12 54.38 C15.6 41.78, 26.63 27.03, 43.14 8.35 M3.12 54.38 C18.74 37.52, 33.08 18.73, 43.14 8.35 M1.54 62.29 C13.55 48.22, 22.9 38.04, 50.09 6.44 M1.54 62.29 C21.32 40, 39.65 18.64, 50.09 6.44 M1.94 67.94 C15.99 52.48, 31.02 36.33, 57.7 3.78 M1.94 67.94 C16.37 53.28, 29.91 37.03, 57.7 3.78 M2.33 73.58 C14.39 57.53, 27.63 42.38, 64.66 1.88 M2.33 73.58 C22.02 50.56, 42.85 25.52, 64.66 1.88 M3.38 78.47 C22.44 56.98, 41.8 37.73, 70.3 1.49 M3.38 78.47 C21.55 57.39, 39.31 38.27, 70.3 1.49 M3.78 84.11 C23.4 61.2, 41.65 40.98, 75.29 1.85 M3.78 84.11 C31.9 50.94, 59.94 18.84, 75.29 1.85 M4.17 89.75 C19.69 69.98, 38.38 49.78, 80.27 2.21 M4.17 89.75 C29.22 62.79, 54.23 33.53, 80.27 2.21 M6.53 93.13 C25.14 69.92, 47.15 45.2, 85.26 2.57 M6.53 93.13 C37.14 59.08, 67.03 24.1, 85.26 2.57 M8.24 97.27 C28.05 78.34, 45.69 57.85, 90.25 2.93 M8.24 97.27 C26.34 76.36, 44.73 54.4, 90.25 2.93 M10.6 100.64 C39.89 67.93, 64.01 38.6, 95.24 3.29 M10.6 100.64 C34.42 74.38, 56.66 46.97, 95.24 3.29 M12.97 104.02 C38.33 72.92, 68.86 38.35, 100.22 3.65 M12.97 104.02 C36.75 78.85, 58.34 52.38, 100.22 3.65 M15.33 107.4 C37.11 82.31, 62.66 54.61, 103.9 5.52 M15.33 107.4 C45 71.65, 74.58 37.94, 103.9 5.52 M17.69 110.78 C48.08 74.9, 81.64 35.36, 107.57 7.39 M17.69 110.78 C35.94 88.82, 55.24 65.34, 107.57 7.39 M20.06 114.16 C38.08 91.96, 55.97 71.71, 111.25 9.26 M20.06 114.16 C43.47 88.24, 65.39 62.17, 111.25 9.26 M22.42 117.54 C42.94 91.96, 63.23 69.11, 114.27 11.88 M22.42 117.54 C55.9 78.49, 88.16 40.9, 114.27 11.88 M26.09 119.41 C53.58 85.83, 81.33 54.85, 117.94 13.75 M26.09 119.41 C59.51 80.94, 92.02 41.91, 117.94 13.75 M29.11 122.03 C49 100.87, 66.86 78.16, 121.62 15.62 M29.11 122.03 C57.04 92.25, 82.67 61.39, 121.62 15.62 M32.79 123.9 C58.24 99.64, 80.2 73.92, 125.29 17.49 M32.79 123.9 C55.33 95.45, 80.15 68.99, 125.29 17.49 M36.46 125.77 C61.56 97.55, 89.34 70.15, 128.31 20.11 M36.46 125.77 C59.86 99.98, 82.02 74.2, 128.31 20.11 M40.14 127.64 C71.15 90.88, 102.2 56.37, 131.33 22.74 M40.14 127.64 C73.01 88.97, 106.68 49.17, 131.33 22.74 M43.81 129.51 C75.65 91.46, 107.75 54.07, 133.69 26.12 M43.81 129.51 C63.18 106.84, 85.13 82.15, 133.69 26.12 M47.49 131.38 C69.07 106.2, 92.92 81.61, 136.05 29.49 M47.49 131.38 C79.14 93.34, 112.26 56.69, 136.05 29.49 M51.16 133.25 C74.26 104.61, 100.07 76.06, 138.42 32.87 M51.16 133.25 C74.86 105.99, 98.41 78.95, 138.42 32.87 M56.15 133.61 C75.11 113.71, 96.8 89.39, 140.78 36.25 M56.15 133.61 C88.2 95.7, 121.27 58.39, 140.78 36.25 M60.48 134.72 C79.88 109.84, 100.44 87.32, 143.14 39.63 M60.48 134.72 C89.28 102.74, 119.49 68.65, 143.14 39.63 M65.47 135.08 C89.72 108.13, 113.14 84.42, 145.51 43.01 M65.47 135.08 C95.08 99.62, 124.92 65.89, 145.51 43.01 M70.45 135.44 C94.75 105.68, 122 75.34, 147.87 46.39 M70.45 135.44 C92.9 108.82, 117.34 82.21, 147.87 46.39 M74.78 136.56 C93.25 116.98, 110.62 92.68, 148.92 51.28 M74.78 136.56 C102.94 104.82, 128.9 73.51, 148.92 51.28 M79.77 136.92 C95.97 121.28, 110.73 101.17, 149.31 56.92 M79.77 136.92 C100.47 114.94, 119.46 91.1, 149.31 56.92 M84.76 137.28 C103.32 114.13, 123.99 93.87, 149.71 62.56 M84.76 137.28 C110.86 107.51, 137.71 77.48, 149.71 62.56 M92.37 134.62 C104.1 119.96, 115.71 104.44, 150.1 68.21 M92.37 134.62 C110.36 113.78, 129.27 90.59, 150.1 68.21 M99.98 131.96 C113.41 119.52, 121.17 108.31, 151.15 73.1 M99.98 131.96 C119.91 107.53, 141.35 85.18, 151.15 73.1 M106.94 130.06 C116.63 115.46, 128.49 102.75, 149.58 81 M106.94 130.06 C123.54 110.12, 141.69 91.73, 149.58 81 M114.55 127.4 C122.18 117.55, 132.01 103.54, 144.07 93.44 M114.55 127.4 C121.56 118.92, 130.46 109.37, 144.07 93.44" stroke="#ffffff" stroke-width="0.5" fill="none"></path><path d="M67.54 0.39 C77.65 -1.62, 90.03 0, 100.38 3.32 C110.72 6.65, 121.76 13.03, 129.62 20.32 C137.48 27.61, 144.01 37.5, 147.56 47.06 C151.12 56.61, 152.36 68.03, 150.94 77.66 C149.52 87.29, 145.15 96.59, 139.03 104.83 C132.9 113.08, 123.54 121.74, 114.17 127.12 C104.79 132.51, 93.34 136.25, 82.76 137.15 C72.19 138.06, 60.91 135.84, 50.72 132.54 C40.52 129.25, 29.43 124.45, 21.6 117.4 C13.77 110.35, 7.26 99.74, 3.75 90.26 C0.25 80.79, -0.83 70.32, 0.59 60.55 C2.02 50.77, 6.54 39.93, 12.3 31.63 C18.05 23.33, 24.42 16.09, 35.11 10.75 C45.8 5.41, 68.14 1.02, 76.44 -0.39 C84.73 -1.81, 84.95 1.09, 84.9 2.25 M42.49 5.79 C51.46 0.7, 66.93 0.08, 77.84 0.13 C88.75 0.17, 98.25 1.49, 107.93 6.08 C117.62 10.68, 128.94 19.6, 135.93 27.7 C142.92 35.8, 147.63 45.17, 149.85 54.69 C152.07 64.21, 151.91 75.26, 149.25 84.82 C146.58 94.38, 140.7 104.29, 133.88 112.07 C127.07 119.85, 118.57 127.44, 108.37 131.48 C98.18 135.53, 83.96 136.83, 72.71 136.32 C61.45 135.81, 50.37 132.54, 40.86 128.4 C31.35 124.26, 22.28 119.11, 15.66 111.46 C9.03 103.81, 3.46 92.56, 1.11 82.49 C-1.24 72.42, -1.05 60.82, 1.56 51.04 C4.17 41.26, 9.52 31.4, 16.77 23.82 C24.02 16.23, 40.47 7.99, 45.07 5.52 C49.67 3.05, 44.03 7.9, 44.38 8.98" stroke="#1e1e1e" stroke-width="1" fill="none"></path></g><g transform="translate(731.7568083164919 104.75165588783648) rotate(0 29.31640625 10)"><text x="29.31640625" y="0" font-family="Virgil, Segoe UI Emoji" font-size="16px" fill="#1e1e1e" text-anchor="middle" style="white-space: pre;" direction="ltr" dominant-baseline="text-before-edge">Database</text></g><g stroke-linecap="round" transform="translate(10 82.10253289911498) rotate(0 47.796875 39.849609375)"><path d="M2.83 7.76 C2.83 7.76, 2.83 7.76, 2.83 7.76 M2.83 7.76 C2.83 7.76, 2.83 7.76, 2.83 7.76 M1.25 15.66 C4.72 13.14, 7.07 8.58, 13.06 2.08 M1.25 15.66 C6.1 11.08, 9.6 4.99, 13.06 2.08 M0.99 22.06 C6.83 15.35, 9.72 12.61, 20.02 0.17 M0.99 22.06 C9.26 13.07, 15.91 5.14, 20.02 0.17 M0.73 28.46 C7.11 21.64, 14.82 13.91, 25.66 -0.22 M0.73 28.46 C7.49 22.39, 13.45 14.86, 25.66 -0.22 M1.12 34.1 C6.26 26.06, 12.67 18.78, 30.65 0.14 M1.12 34.1 C10.19 23.6, 20.32 10.88, 30.65 0.14 M0.86 40.5 C11.15 29.14, 21.62 20.11, 35.63 0.5 M0.86 40.5 C10.68 29.07, 19.93 19.75, 35.63 0.5 M1.26 46.14 C12.4 33.05, 21.96 22.82, 41.28 0.11 M1.26 46.14 C16.73 27.43, 32.36 9.61, 41.28 0.11 M1 52.54 C9.88 40.62, 21.95 28.03, 46.26 0.47 M1 52.54 C15.94 36.78, 31.1 18.85, 46.26 0.47 M0.73 58.94 C12.5 43.88, 27.4 27.35, 51.91 0.07 M0.73 58.94 C20.74 37.01, 40.09 14.16, 51.91 0.07 M1.13 64.58 C15.15 52.08, 27.14 38.08, 56.89 0.43 M1.13 64.58 C13.39 50.38, 25.78 35.34, 56.89 0.43 M2.84 68.72 C24.01 45.42, 40.12 25.3, 62.54 0.04 M2.84 68.72 C19.61 50.39, 35.07 30.78, 62.54 0.04 M4.54 72.85 C22.29 50.61, 45 25.03, 67.52 0.4 M4.54 72.85 C21.9 54.87, 37.22 35.6, 67.52 0.4 M6.9 76.23 C22.79 58.02, 42.36 37.21, 72.51 0.76 M6.9 76.23 C29.01 49.54, 50.88 24.69, 72.51 0.76 M11.24 77.34 C33.44 50.76, 58.76 20.7, 78.15 0.36 M11.24 77.34 C24.69 61.13, 39.02 43.37, 78.15 0.36 M14.91 79.21 C28.15 62.74, 41.26 48, 82.48 1.48 M14.91 79.21 C32.36 60.07, 48.5 40.64, 82.48 1.48 M19.9 79.57 C34.7 60.61, 49.16 44.48, 86.16 3.35 M19.9 79.57 C44.19 51.16, 67.24 24.16, 86.16 3.35 M24.88 79.93 C44.25 55.69, 63.85 34.09, 89.83 5.22 M24.88 79.93 C48.66 52.68, 71.38 24.92, 89.83 5.22 M30.53 79.54 C44.3 65.63, 55.74 50.31, 92.85 7.84 M30.53 79.54 C49.43 59.6, 66.37 38.74, 92.85 7.84 M35.51 79.9 C52.47 64.78, 66.22 48.52, 94.56 11.97 M35.51 79.9 C49.79 61.39, 66.08 44.74, 94.56 11.97 M40.5 80.26 C55.09 63.34, 72.76 47.58, 95.61 16.86 M40.5 80.26 C54.77 64.67, 67.86 49.34, 95.61 16.86 M46.14 79.86 C63.1 59.59, 79.61 41.79, 95.35 23.26 M46.14 79.86 C63.65 59.39, 81.68 37.58, 95.35 23.26 M51.13 80.22 C66.46 61.16, 82.38 42.38, 95.74 28.9 M51.13 80.22 C60.53 69.43, 72.14 56.64, 95.74 28.9 M56.77 79.83 C65.91 68.76, 77.38 58.41, 95.48 35.3 M56.77 79.83 C70.24 62.74, 84.98 47.23, 95.48 35.3 M61.76 80.19 C69.82 69.16, 80.5 58.01, 95.22 41.7 M61.76 80.19 C71.24 69.28, 80.36 58.84, 95.22 41.7 M67.4 79.79 C73.1 74.29, 82 64.69, 95.62 47.34 M67.4 79.79 C77.69 67.1, 88.78 55.09, 95.62 47.34 M72.39 80.15 C77.46 72.23, 83.22 66.75, 95.35 53.74 M72.39 80.15 C80.04 71.65, 89.46 61.49, 95.35 53.74 M78.03 79.76 C84.15 73.38, 89.63 70.31, 95.09 60.14 M78.03 79.76 C84.08 72.13, 90.13 65.77, 95.09 60.14 M84.33 78.61 C86.38 75.4, 90.48 71.45, 94.17 67.29 M84.33 78.61 C86.68 75.16, 90.75 71.6, 94.17 67.29" stroke="#ffffff" stroke-width="0.5" fill="none"></path><path d="M19.92 0 C35.39 0.4, 49.99 -1.06, 75.67 0 M19.92 0 C39.76 0.23, 59.24 -0.34, 75.67 0 M75.67 0 C87.78 -1.7, 96.25 5.67, 95.59 19.92 M75.67 0 C90.16 1.82, 94.62 6.51, 95.59 19.92 M95.59 19.92 C95.58 35.86, 96.3 50.8, 95.59 59.77 M95.59 19.92 C95.42 30.05, 96.24 38.55, 95.59 59.77 M95.59 59.77 C94.99 71.33, 90.21 81.57, 75.67 79.7 M95.59 59.77 C93.57 72.27, 90.78 79.88, 75.67 79.7 M75.67 79.7 C65.18 80.85, 52.41 80.78, 19.92 79.7 M75.67 79.7 C59.89 80.22, 41.32 79.25, 19.92 79.7 M19.92 79.7 C5.67 77.94, -0.05 74.57, 0 59.77 M19.92 79.7 C5.85 79.45, -0.94 71.33, 0 59.77 M0 59.77 C-0.75 48.95, 2.2 38.58, 0 19.92 M0 59.77 C0.49 49.99, 0.34 39.04, 0 19.92 M0 19.92 C-0.22 6.6, 5.93 -0.83, 19.92 0 M0 19.92 C-1.25 7.87, 6.9 1.54, 19.92 0" stroke="#1e1e1e" stroke-width="1" fill="none"></path></g><g transform="translate(38.2421875 111.95214227411498) rotate(0 19.5546875 10)"><text x="19.5546875" y="0" font-family="Virgil, Segoe UI Emoji" font-size="16px" fill="#1e1e1e" text-anchor="middle" style="white-space: pre;" direction="ltr" dominant-baseline="text-before-edge">Client</text></g><g stroke-linecap="round"><g transform="translate(566.2109375 122.52390668084945) rotate(0 53.197265625 0.1545474841327632)"><path d="M-0.85 0.53 C16.85 0.84, 88.22 1.13, 106.23 1.22 M0.91 -0.24 C18.43 -0.2, 87.54 -0.32, 105.19 -0.42" stroke="#1e1e1e" stroke-width="1" fill="none"></path></g><g transform="translate(566.2109375 122.52390668084945) rotate(0 53.197265625 0.1545474841327632)"><path d="M27.41 -9.53 C19.7 -6.97, 11.8 -2.35, -0.85 0.53 M27.41 -9.53 C16.59 -6.68, 7.17 -2.63, -0.85 0.53" stroke="#1e1e1e" stroke-width="1" fill="none"></path></g><g transform="translate(566.2109375 122.52390668084945) rotate(0 53.197265625 0.1545474841327632)"><path d="M27.27 10.99 C19.71 7.35, 11.85 5.77, -0.85 0.53 M27.27 10.99 C16.31 6.34, 6.94 2.88, -0.85 0.53" stroke="#1e1e1e" stroke-width="1" fill="none"></path></g><g transform="translate(566.2109375 122.52390668084945) rotate(0 53.197265625 0.1545474841327632)"><path d="M77.03 9.94 C86.48 6.73, 95.63 5.18, 105.19 -0.42 M77.03 9.94 C86.64 5.28, 97.85 1.86, 105.19 -0.42" stroke="#1e1e1e" stroke-width="1" fill="none"></path></g><g transform="translate(566.2109375 122.52390668084945) rotate(0 53.197265625 0.1545474841327632)"><path d="M76.96 -10.58 C86.33 -7.59, 95.5 -2.94, 105.19 -0.42 M76.96 -10.58 C86.79 -7.74, 98.02 -3.66, 105.19 -0.42" stroke="#1e1e1e" stroke-width="1" fill="none"></path></g></g><mask></mask><g transform="translate(855.4765625 52.200189149114976) rotate(0 135.12791442871094 60)"><text x="0" y="0" font-family="Virgil, Segoe UI Emoji" font-size="16px" fill="#1e1e1e" text-anchor="start" style="white-space: pre;" direction="ltr" dominant-baseline="text-before-edge">Urls</text><text x="0" y="20" font-family="Virgil, Segoe UI Emoji" font-size="16px" fill="#1e1e1e" text-anchor="start" style="white-space: pre;" direction="ltr" dominant-baseline="text-before-edge">- short url code (or custom alias)</text><text x="0" y="40" font-family="Virgil, Segoe UI Emoji" font-size="16px" fill="#1e1e1e" text-anchor="start" style="white-space: pre;" direction="ltr" dominant-baseline="text-before-edge">- original url</text><text x="0" y="60" font-family="Virgil, Segoe UI Emoji" font-size="16px" fill="#1e1e1e" text-anchor="start" style="white-space: pre;" direction="ltr" dominant-baseline="text-before-edge">- creationTime</text><text x="0" y="80" font-family="Virgil, Segoe UI Emoji" font-size="16px" fill="#1e1e1e" text-anchor="start" style="white-space: pre;" direction="ltr" dominant-baseline="text-before-edge">- expirationTime?</text><text x="0" y="100" font-family="Virgil, Segoe UI Emoji" font-size="16px" fill="#1e1e1e" text-anchor="start" style="white-space: pre;" direction="ltr" dominant-baseline="text-before-edge">- createdBy</text></g><g transform="translate(139.12424714936583 146.87032786288046) rotate(0 79.35995483398438 20)"><text x="0" y="0" font-family="Virgil, Segoe UI Emoji" font-size="16px" fill="#1e1e1e" text-anchor="start" style="white-space: pre;" direction="ltr" dominant-baseline="text-before-edge">POST /urls</text><text x="0" y="20" font-family="Virgil, Segoe UI Emoji" font-size="16px" fill="#1e1e1e" text-anchor="start" style="white-space: pre;" direction="ltr" dominant-baseline="text-before-edge">GET /{short_code}</text></g><g transform="translate(326.15115463990526 10) rotate(0 107.80792999267578 20)"><text x="0" y="0" font-family="Virgil, Segoe UI Emoji" font-size="16px" fill="#1e1e1e" text-anchor="start" style="white-space: pre;" direction="ltr" dominant-baseline="text-before-edge">Write: 1) generate short url</text><text x="0" y="20" font-family="Virgil, Segoe UI Emoji" font-size="16px" fill="#1e1e1e" text-anchor="start" style="white-space: pre;" direction="ltr" dominant-baseline="text-before-edge">      2) save to DB</text></g></svg>