<svg version="1.1" xmlns="http://www.w3.org/2000/svg" viewBox="0 0 1135.7323913574219 407.58914094926877" >
  <!-- svg-source:excalidraw -->
  <!-- payload-type:application/vnd.excalidraw+json --><!-- payload-version:2 -->
  <defs>
    <style class="style-fonts">
      @font-face {
        font-family: "Virgil";
        src: url("https://files.hellointerview.com/build-assets/PRODUCTION/_next/static/media/Excalifont-s.p.436754fa.woff2");
      }
      @font-face {
        font-family: "Cascadia";
        src: url("https://file%2B.vscode-resource.vscode-cdn.net/Users/evanking/.cursor/extensions/pomdtr.excalidraw-editor-3.7.4/public//dist/excalidraw-assets/Cascadia.woff2");
      }
      @font-face {
        font-family: "Assistant";
        src: url("https://file%2B.vscode-resource.vscode-cdn.net/Users/evanking/.cursor/extensions/pomdtr.excalidraw-editor-3.7.4/public//dist/excalidraw-assets/Assistant-Regular.woff2");
      }
    </style>
    
  </defs>
  <rect x="0" y="0" width="1135.7323913574219" height="407.58914094926877" fill="#ffffff"></rect><g stroke-linecap="round"><g transform="translate(117.1194555392035 221.46804426207837) rotate(0 91.62972535539825 0.07922083336018204)"><path d="M0.36 -0.98 C30.73 -0.88, 152.8 0.65, 183.12 0.74 M-0.91 1.12 C29.21 0.86, 151.16 -0.98, 182.09 -1.07" stroke="#1e1e1e" stroke-width="1" fill="none"></path></g><g transform="translate(117.1194555392035 221.46804426207837) rotate(0 91.62972535539825 0.07922083336018204)"><path d="M28.65 -10.96 C16.44 -7.38, 8.47 -5.04, 0.36 -0.98 M28.65 -10.96 C22.05 -8.07, 14.29 -5.85, 0.36 -0.98" stroke="#1e1e1e" stroke-width="1" fill="none"></path></g><g transform="translate(117.1194555392035 221.46804426207837) rotate(0 91.62972535539825 0.07922083336018204)"><path d="M28.45 9.56 C16.3 5.46, 8.39 0.13, 0.36 -0.98 M28.45 9.56 C21.98 7.3, 14.27 4.35, 0.36 -0.98" stroke="#1e1e1e" stroke-width="1" fill="none"></path></g><g transform="translate(117.1194555392035 221.46804426207837) rotate(0 91.62972535539825 0.07922083336018204)"><path d="M154 9.46 C162.87 5.2, 175.99 -0.13, 182.09 -1.07 M154 9.46 C161.66 7.54, 168.07 4.6, 182.09 -1.07" stroke="#1e1e1e" stroke-width="1" fill="none"></path></g><g transform="translate(117.1194555392035 221.46804426207837) rotate(0 91.62972535539825 0.07922083336018204)"><path d="M153.8 -11.06 C162.76 -7.65, 175.96 -5.3, 182.09 -1.07 M153.8 -11.06 C161.42 -7.82, 167.88 -5.61, 182.09 -1.07" stroke="#1e1e1e" stroke-width="1" fill="none"></path></g></g><mask></mask><g stroke-linecap="round" transform="translate(316.82421875 165.6118314288442) rotate(0 117.96484375 54.552734375)"><path d="M6.6 7.07 C6.6 7.07, 6.6 7.07, 6.6 7.07 M6.6 7.07 C6.6 7.07, 6.6 7.07, 6.6 7.07 M1.75 18.75 C3.81 15.2, 10.41 9.8, 16.18 2.14 M1.75 18.75 C5.84 14.48, 8.31 11.33, 16.18 2.14 M0.83 25.9 C5.73 21.29, 12.98 14.34, 21.83 1.75 M0.83 25.9 C7.61 18.43, 14.62 11.26, 21.83 1.75 M0.57 32.3 C4.97 23.56, 14.6 17.52, 28.78 -0.16 M0.57 32.3 C7.15 24.86, 14.77 16.63, 28.78 -0.16 M0.97 37.94 C9.95 29.51, 14.5 20.07, 33.77 0.2 M0.97 37.94 C10.1 25.75, 21.02 14.9, 33.77 0.2 M0.7 44.34 C9.69 35.07, 17.09 27.12, 39.41 -0.19 M0.7 44.34 C15.05 27.46, 31.99 9.2, 39.41 -0.19 M1.1 49.98 C18.02 29.92, 34.51 13.17, 44.4 0.17 M1.1 49.98 C10.3 38.08, 20 28.41, 44.4 0.17 M0.84 56.38 C12.78 45.42, 20.9 32.99, 50.04 -0.22 M0.84 56.38 C16.52 38.93, 33.26 19.74, 50.04 -0.22 M0.58 62.78 C20.29 38.31, 39.64 18.2, 55.03 0.14 M0.58 62.78 C15.57 43.84, 33.44 24.57, 55.03 0.14 M0.97 68.42 C22.61 38.95, 49.23 13.98, 60.67 -0.26 M0.97 68.42 C20.94 43.1, 41.19 19.48, 60.67 -0.26 M0.71 74.82 C27.1 46.09, 51.41 16.89, 65.66 0.1 M0.71 74.82 C15.84 56.9, 33.27 37.79, 65.66 0.1 M1.1 80.46 C29.14 50.07, 53.75 21.08, 71.3 -0.29 M1.1 80.46 C22.63 58.03, 42.57 34.02, 71.3 -0.29 M0.84 86.86 C28.16 55.61, 52.99 26.45, 76.29 0.07 M0.84 86.86 C22.33 62.63, 43.49 39.49, 76.29 0.07 M1.89 91.75 C29.78 57.26, 62.48 23.51, 81.93 -0.33 M1.89 91.75 C21.05 70.59, 39.74 47.2, 81.93 -0.33 M3.6 95.88 C31.4 63.85, 57.55 33.02, 86.92 0.03 M3.6 95.88 C26.01 70.4, 45.93 46.02, 86.92 0.03 M5.31 100.01 C25.19 77.95, 45.15 54.83, 91.91 0.39 M5.31 100.01 C37.86 63.93, 67.37 29.54, 91.91 0.39 M8.33 102.64 C42.46 60.53, 77.72 20.98, 97.55 0 M8.33 102.64 C39.85 67.02, 70.61 31.6, 97.55 0 M11.34 105.26 C44.44 65.83, 78.7 25.84, 102.54 0.36 M11.34 105.26 C37.87 74.14, 66.1 42.1, 102.54 0.36 M15.02 107.13 C39.92 75.11, 68.75 45.84, 108.18 -0.04 M15.02 107.13 C51.25 65.88, 87.25 23.82, 108.18 -0.04 M19.35 108.25 C46.39 73.86, 75.86 41.51, 113.17 0.32 M19.35 108.25 C57.19 65.37, 93.73 23.51, 113.17 0.32 M23.68 109.36 C54.51 73.84, 85.51 40.18, 118.81 -0.07 M23.68 109.36 C52.74 76.11, 81.84 42.08, 118.81 -0.07 M28.67 109.72 C59.69 74.01, 91.7 38.37, 123.8 0.29 M28.67 109.72 C50.86 82.39, 76.22 55.46, 123.8 0.29 M34.31 109.33 C58.74 78.62, 87.45 49.32, 129.44 -0.11 M34.31 109.33 C61.89 75.72, 90.72 43.24, 129.44 -0.11 M39.3 109.69 C71.02 73.59, 104.59 36.2, 134.43 0.25 M39.3 109.69 C75.55 68.51, 109.53 27.46, 134.43 0.25 M44.94 109.29 C71.6 73.77, 100.27 43.35, 140.07 -0.14 M44.94 109.29 C69.53 80.43, 94.21 51.58, 140.07 -0.14 M49.93 109.65 C75.27 81.3, 99.12 49.97, 145.06 0.22 M49.93 109.65 C81.37 73.72, 110.57 39.23, 145.06 0.22 M55.57 109.26 C76.18 87.87, 92.93 62.97, 150.7 -0.17 M55.57 109.26 C89.89 69.92, 121.97 31.46, 150.7 -0.17 M60.56 109.62 C85.45 77.04, 110.33 50.36, 155.69 0.19 M60.56 109.62 C96.77 66.99, 132.86 25.46, 155.69 0.19 M66.2 109.22 C103.17 68.14, 140.83 23.78, 161.33 -0.21 M66.2 109.22 C86.01 86.6, 107.17 62.7, 161.33 -0.21 M71.19 109.58 C100.24 70.85, 133.72 38, 166.32 0.15 M71.19 109.58 C96.07 81.61, 120.45 53.97, 166.32 0.15 M76.83 109.19 C106.63 77.35, 133.45 44.31, 171.96 -0.24 M76.83 109.19 C112.93 66.57, 148.78 24.41, 171.96 -0.24 M81.82 109.55 C103.99 84.6, 125.24 61.24, 176.95 0.12 M81.82 109.55 C119.13 66.74, 155.74 25.88, 176.95 0.12 M87.46 109.15 C118.29 68.87, 154.8 34.26, 182.59 -0.28 M87.46 109.15 C113.45 80.09, 139.12 50.28, 182.59 -0.28 M92.45 109.51 C124.3 70.95, 158.89 35.45, 187.58 0.08 M92.45 109.51 C117.85 79.82, 143.77 51.15, 187.58 0.08 M98.09 109.12 C118.84 81.78, 143.57 58.48, 193.22 -0.31 M98.09 109.12 C132.43 69.46, 167.44 29.69, 193.22 -0.31 M103.08 109.48 C135.91 72.02, 169.54 35.01, 198.21 0.05 M103.08 109.48 C130.47 77.92, 157.76 46.89, 198.21 0.05 M108.72 109.09 C130.02 85.76, 154.32 56.71, 203.85 -0.35 M108.72 109.09 C130.09 83.25, 152.92 56.86, 203.85 -0.35 M113.71 109.45 C135.58 80.16, 161.91 54.65, 208.84 0.01 M113.71 109.45 C141.35 76.88, 169.67 45.82, 208.84 0.01 M119.35 109.05 C144.28 82.64, 167.76 54.98, 213.17 1.13 M119.35 109.05 C152.01 72.03, 183.52 36.09, 213.17 1.13 M124.34 109.41 C155.75 74.72, 184.76 36.73, 218.16 1.49 M124.34 109.41 C146.76 83.99, 170.81 57.51, 218.16 1.49 M129.33 109.77 C146.62 88.15, 167.83 66.08, 222.49 2.6 M129.33 109.77 C148.52 88.35, 167.87 66.6, 222.49 2.6 M134.97 109.38 C160.77 80.04, 184.13 51.36, 226.16 4.47 M134.97 109.38 C169.19 71.94, 201.33 34.35, 226.16 4.47 M139.96 109.74 C162 83.88, 181.44 62.79, 229.18 7.1 M139.96 109.74 C163.66 82.96, 187.61 56.35, 229.18 7.1 M145.6 109.34 C179 71.03, 211.18 33.59, 231.54 10.48 M145.6 109.34 C174.49 75.62, 205.92 41.07, 231.54 10.48 M150.59 109.7 C177.49 79.61, 205.02 49.2, 233.25 14.61 M150.59 109.7 C184.51 71.07, 216.64 33.89, 233.25 14.61 M156.23 109.31 C183.48 78.13, 213.69 45.89, 234.96 18.74 M156.23 109.31 C187.35 72.33, 219 37.19, 234.96 18.74 M161.22 109.67 C178.46 92.41, 192.09 71.84, 235.35 24.39 M161.22 109.67 C191.08 77.38, 219.93 42.23, 235.35 24.39 M166.86 109.27 C189.39 80.19, 214.68 52.43, 235.75 30.03 M166.86 109.27 C192.61 79.16, 219.13 50.19, 235.75 30.03 M171.85 109.63 C193.5 83.97, 215.45 62.65, 235.48 36.43 M171.85 109.63 C191.69 86.45, 210.91 64.23, 235.48 36.43 M177.49 109.24 C197.88 88.34, 216.7 66.28, 235.88 42.07 M177.49 109.24 C191.77 93.27, 204.41 79.15, 235.88 42.07 M182.48 109.6 C199.9 91.03, 215.42 74.3, 235.62 48.47 M182.48 109.6 C197.69 91.92, 211.41 75.91, 235.62 48.47 M188.12 109.2 C199.31 96.21, 213.71 80.49, 236.01 54.11 M188.12 109.2 C207.31 87.23, 226.7 66.05, 236.01 54.11 M193.11 109.56 C205.54 93.99, 220.79 79.01, 235.75 60.51 M193.11 109.56 C208.15 92.75, 223.2 76.18, 235.75 60.51 M198.75 109.17 C211.55 95.33, 224.06 79.78, 236.15 66.15 M198.75 109.17 C213.24 91.59, 228.65 75.52, 236.15 66.15 M203.74 109.53 C210.25 97.98, 222.16 91.2, 235.88 72.55 M203.74 109.53 C215.53 95.29, 228.69 80.77, 235.88 72.55 M209.38 109.14 C219.17 96.38, 230.42 89.18, 236.28 78.19 M209.38 109.14 C219.36 96.5, 231.46 85.16, 236.28 78.19 M215.02 108.74 C220.1 104.6, 223.21 97.23, 236.67 83.84 M215.02 108.74 C223.91 98.05, 231.73 88.94, 236.67 83.84 M221.32 107.59 C227.59 101.2, 230.33 97.38, 233.79 93.25 M221.32 107.59 C225.71 103.57, 228.1 98.87, 233.79 93.25" stroke="#ffffff" stroke-width="0.5" fill="none"></path><path d="M27.28 0 C88.11 -1.41, 146.03 -0.58, 208.65 0 M27.28 0 C70.75 -0.75, 114.72 -0.68, 208.65 0 M208.65 0 C226.04 1.35, 234.28 7.12, 235.93 27.28 M208.65 0 C227.6 1, 237.5 6.84, 235.93 27.28 M235.93 27.28 C237.5 45.38, 235.87 65.41, 235.93 81.83 M235.93 27.28 C236.08 40.32, 235.96 53.5, 235.93 81.83 M235.93 81.83 C236.54 101, 225.27 107.75, 208.65 109.11 M235.93 81.83 C237.06 98.73, 226.36 107.56, 208.65 109.11 M208.65 109.11 C162.62 109.92, 114.19 109.43, 27.28 109.11 M208.65 109.11 C152.41 110.07, 97.09 111.39, 27.28 109.11 M27.28 109.11 C7.39 110.63, -0.52 101.32, 0 81.83 M27.28 109.11 C11.36 107.6, -0.04 100.74, 0 81.83 M0 81.83 C1.45 62.64, -1.2 40.5, 0 27.28 M0 81.83 C0.65 64.5, -0.16 46.42, 0 27.28 M0 27.28 C0.55 9.21, 7.54 0.39, 27.28 0 M0 27.28 C-0.56 10.94, 8.6 2.28, 27.28 0" stroke="#1e1e1e" stroke-width="1" fill="none"></path></g><g transform="translate(386.13671875 190.1645658038442) rotate(0 48.65234375 30)"><text x="48.65234375" y="0" font-family="Virgil, Segoe UI Emoji" font-size="16px" fill="#1e1e1e" text-anchor="middle" style="white-space: pre;" direction="ltr" dominant-baseline="text-before-edge"></text><text x="48.65234375" y="20" font-family="Virgil, Segoe UI Emoji" font-size="16px" fill="#1e1e1e" text-anchor="middle" style="white-space: pre;" direction="ltr" dominant-baseline="text-before-edge"></text><text x="48.65234375" y="40" font-family="Virgil, Segoe UI Emoji" font-size="16px" fill="#1e1e1e" text-anchor="middle" style="white-space: pre;" direction="ltr" dominant-baseline="text-before-edge">Primary Server</text></g><g stroke-linecap="round" transform="translate(685.484375 144.9101442986057) rotate(0 75.416015625 68.5)"><path d="M9.16 35.79 C9.16 35.79, 9.16 35.79, 9.16 35.79 M9.16 35.79 C9.16 35.79, 9.16 35.79, 9.16 35.79 M6.27 45.2 C13.8 36.59, 21.32 26.11, 35.14 12 M6.27 45.2 C15.89 35.56, 24.43 24.21, 35.14 12 M4.04 53.87 C13.82 40.89, 25.67 30.54, 43.41 8.58 M4.04 53.87 C15.93 41.79, 26.68 28.95, 43.41 8.58 M1.16 63.28 C13.81 50.13, 26.93 32.95, 51.68 5.17 M1.16 63.28 C10.58 52.72, 21.36 39.56, 51.68 5.17 M1.55 68.93 C17.37 52.51, 31.51 35.37, 59.94 1.76 M1.55 68.93 C17.28 49.92, 32.36 32.7, 59.94 1.76 M2.6 73.81 C20.16 52.62, 40.46 28.73, 66.24 0.61 M2.6 73.81 C17.86 56.58, 33.31 40.36, 66.24 0.61 M3.65 78.7 C25.56 57.22, 44.71 33.66, 71.23 0.97 M3.65 78.7 C25.7 53.44, 48.86 26.71, 71.23 0.97 M4.05 84.35 C24.37 58.69, 49.18 32.25, 75.56 2.08 M4.05 84.35 C25.1 59.67, 45.51 36.05, 75.56 2.08 M5.1 89.23 C25.85 68.65, 43.09 45.1, 80.55 2.44 M5.1 89.23 C21.7 68.25, 41.01 46.92, 80.55 2.44 M5.49 94.88 C33.64 63.96, 61.19 32.1, 85.53 2.8 M5.49 94.88 C32.03 64.04, 61.1 31.8, 85.53 2.8 M8.51 97.5 C35.25 62.24, 65.15 31.98, 90.52 3.16 M8.51 97.5 C31.13 71, 53.77 44.58, 90.52 3.16 M10.88 100.88 C42.43 67.71, 71.64 35.26, 95.51 3.52 M10.88 100.88 C33.27 74.47, 56.25 49.48, 95.51 3.52 M13.24 104.26 C37.68 78.06, 59.31 52.9, 99.84 4.64 M13.24 104.26 C44.56 66.47, 77.45 29.68, 99.84 4.64 M15.6 107.64 C33.89 86.04, 54.66 66.85, 103.51 6.51 M15.6 107.64 C47.55 72.16, 79.87 34.3, 103.51 6.51 M18.62 110.26 C41.91 83.79, 60.98 60.53, 107.19 8.38 M18.62 110.26 C49.44 74.14, 80.64 37.39, 107.19 8.38 M20.98 113.64 C44.59 82.35, 70.47 53.12, 110.86 10.25 M20.98 113.64 C45.76 86.17, 69.47 58.18, 110.86 10.25 M23.35 117.02 C42.42 91.98, 64.95 71.17, 114.54 12.12 M23.35 117.02 C51.99 82.82, 82.15 48.94, 114.54 12.12 M25.71 120.4 C55.3 86.66, 85.41 52.52, 118.21 13.99 M25.71 120.4 C51.89 90.67, 77.39 61.43, 118.21 13.99 M30.04 121.51 C58.44 91.09, 84.69 56.45, 122.54 15.1 M30.04 121.51 C54.71 92.6, 81.35 62.31, 122.54 15.1 M33.71 123.38 C63.64 89.98, 91.65 57.01, 126.22 16.97 M33.71 123.38 C68.13 84.03, 103.03 46.07, 126.22 16.97 M37.39 125.25 C57.16 101.49, 78.72 76.11, 128.58 20.35 M37.39 125.25 C64.21 94.78, 91.63 63.62, 128.58 20.35 M41.06 127.12 C63.47 100.92, 84.59 76.65, 130.94 23.73 M41.06 127.12 C59.85 106.56, 78.14 85.23, 130.94 23.73 M44.74 128.99 C76.65 94.02, 109.83 54.25, 133.96 26.35 M44.74 128.99 C71.26 99.35, 98.4 67.29, 133.96 26.35 M48.41 130.86 C78.27 95.46, 109.83 61.26, 136.33 29.73 M48.41 130.86 C76.61 99.66, 104.12 67.42, 136.33 29.73 M52.09 132.73 C75.15 103.87, 97.81 77.28, 138.69 33.11 M52.09 132.73 C80.37 98.19, 111.57 63.91, 138.69 33.11 M56.42 133.85 C77.51 108.65, 97.86 84.78, 141.71 35.73 M56.42 133.85 C85.18 100.1, 112.81 68.05, 141.71 35.73 M61.41 134.21 C90.53 97.44, 122.77 63.17, 144.07 39.11 M61.41 134.21 C89.34 101.11, 115.79 70.13, 144.07 39.11 M66.39 134.57 C80.92 114.14, 96.3 96.6, 146.43 42.49 M66.39 134.57 C93.99 100.39, 124.81 68.69, 146.43 42.49 M71.38 134.93 C86.96 114.84, 103.83 96.98, 146.83 48.13 M71.38 134.93 C92.18 112.07, 111.39 88.1, 146.83 48.13 M76.37 135.29 C97.98 113.07, 116.95 89.88, 147.88 53.02 M76.37 135.29 C102.12 104.63, 131.14 72.23, 147.88 53.02 M82.01 134.89 C103.18 110.72, 125.77 85.15, 148.27 58.67 M82.01 134.89 C95.82 118.64, 109.14 102.98, 148.27 58.67 M87 135.25 C109.75 107.7, 132.81 79.39, 148.67 64.31 M87 135.25 C102.79 117.12, 119.19 98.44, 148.67 64.31 M93.95 133.35 C108.47 114.28, 127.92 97.72, 149.72 69.2 M93.95 133.35 C111.21 113.4, 131.39 91.17, 149.72 69.2 M101.56 130.69 C111.34 118.18, 120.73 108.93, 150.11 74.84 M101.56 130.69 C118.21 111.91, 136.33 91.5, 150.11 74.84 M109.18 128.03 C123.24 111.67, 140.42 91.96, 147.88 83.5 M109.18 128.03 C118.4 117.05, 129.64 105.87, 147.88 83.5 M116.79 125.37 C124.75 116.45, 132.86 107.03, 145.65 92.16 M116.79 125.37 C124.71 116.94, 132.73 107.26, 145.65 92.16" stroke="#ffffff" stroke-width="0.5" fill="none"></path><path d="M96.23 2.9 C106.47 4.42, 117.5 10.44, 125.74 16.82 C133.97 23.2, 141.63 31.91, 145.63 41.17 C149.64 50.43, 150.35 62.21, 149.75 72.36 C149.15 82.51, 147.25 93.32, 142.02 102.05 C136.79 110.77, 127.38 119.19, 118.36 124.71 C109.34 130.23, 98.33 133.64, 87.91 135.17 C77.48 136.69, 66.18 136.44, 55.79 133.85 C45.39 131.26, 33.93 126.24, 25.52 119.63 C17.11 113.01, 9.48 103.15, 5.33 94.14 C1.19 85.13, 0.05 75.26, 0.63 65.59 C1.22 55.92, 3.82 44.89, 8.85 36.14 C13.89 27.39, 21.85 19.1, 30.86 13.12 C39.87 7.13, 51.67 1.76, 62.94 0.24 C74.21 -1.29, 92.09 3.08, 98.46 3.97 C104.84 4.86, 101.57 4.63, 101.18 5.56 M75.47 -0.33 C86.07 -1.61, 98.18 2.06, 107.94 6.46 C117.69 10.86, 127.22 18.53, 133.97 26.06 C140.73 33.59, 145.77 41.97, 148.47 51.65 C151.17 61.32, 152.61 74.13, 150.17 84.11 C147.73 94.08, 140.73 103.73, 133.83 111.5 C126.94 119.27, 118.11 126.64, 108.82 130.72 C99.53 134.81, 88.93 135.94, 78.08 136.01 C67.24 136.08, 53.7 135.29, 43.74 131.15 C33.79 127.02, 25.11 118.78, 18.34 111.2 C11.58 103.61, 5.76 95.32, 3.14 85.65 C0.52 75.98, 0.57 62.96, 2.63 53.18 C4.69 43.41, 9.07 34.85, 15.49 27 C21.92 19.15, 31.26 10.49, 41.17 6.07 C51.08 1.66, 69.52 1.31, 74.95 0.51 C80.38 -0.29, 73.79 0.2, 73.76 1.27" stroke="#1e1e1e" stroke-width="1" fill="none"></path></g><g transform="translate(731.7568083164919 203.4733297873272) rotate(0 29.31640625 10)"><text x="29.31640625" y="0" font-family="Virgil, Segoe UI Emoji" font-size="16px" fill="#1e1e1e" text-anchor="middle" style="white-space: pre;" direction="ltr" dominant-baseline="text-before-edge">Database</text></g><g stroke-linecap="round" transform="translate(10 180.67965228465528) rotate(0 47.796875 39.849609375)"><path d="M2.83 7.76 C2.83 7.76, 2.83 7.76, 2.83 7.76 M2.83 7.76 C2.83 7.76, 2.83 7.76, 2.83 7.76 M1.25 15.66 C3.88 10.85, 8.66 8.32, 13.06 2.08 M1.25 15.66 C5.41 12.25, 8.51 8.25, 13.06 2.08 M0.99 22.06 C5.56 17.84, 10.94 9.56, 20.02 0.17 M0.99 22.06 C3.98 18.6, 8.32 12.84, 20.02 0.17 M0.73 28.46 C8.11 21.1, 14.15 13.26, 25.66 -0.22 M0.73 28.46 C7.43 19.97, 13.58 13.02, 25.66 -0.22 M1.12 34.1 C8.82 24.34, 18.93 12.18, 30.65 0.14 M1.12 34.1 C8.08 26.15, 15.57 19.09, 30.65 0.14 M0.86 40.5 C12.6 30.17, 21.79 18.06, 35.63 0.5 M0.86 40.5 C11.79 27.73, 24.19 13.37, 35.63 0.5 M1.26 46.14 C11.91 31.48, 27.05 16.16, 41.28 0.11 M1.26 46.14 C13.21 32.28, 24.46 19.19, 41.28 0.11 M1 52.54 C14 40.97, 23.37 26.47, 46.26 0.47 M1 52.54 C10.56 40.03, 22.53 27.15, 46.26 0.47 M0.73 58.94 C18.5 39.54, 35.78 19.5, 51.91 0.07 M0.73 58.94 C17.35 39.43, 36.36 18.78, 51.91 0.07 M1.13 64.58 C18.75 40.05, 39.23 20.6, 56.89 0.43 M1.13 64.58 C16.62 46.53, 32.01 28.45, 56.89 0.43 M2.84 68.72 C25.64 45.32, 46.14 22.9, 62.54 0.04 M2.84 68.72 C18.66 49.93, 35.13 32.43, 62.54 0.04 M4.54 72.85 C22.6 53.88, 38.1 35.79, 67.52 0.4 M4.54 72.85 C27.34 45.27, 51.47 18.56, 67.52 0.4 M6.9 76.23 C20.33 59.95, 36.4 46.17, 72.51 0.76 M6.9 76.23 C30.76 49.88, 54.98 21.34, 72.51 0.76 M11.24 77.34 C29.06 56.96, 42.77 39.87, 78.15 0.36 M11.24 77.34 C34.34 50.15, 57.91 22.18, 78.15 0.36 M14.91 79.21 C32.21 55.32, 51.8 33.32, 82.48 1.48 M14.91 79.21 C33.43 58.71, 51.13 37.65, 82.48 1.48 M19.9 79.57 C33.39 61.16, 50.36 46.75, 86.16 3.35 M19.9 79.57 C40.48 54.71, 62.48 30.23, 86.16 3.35 M24.88 79.93 C45.52 56.64, 66.76 32.71, 89.83 5.22 M24.88 79.93 C43.15 58.89, 60.95 38.52, 89.83 5.22 M30.53 79.54 C49.86 59.6, 66.9 35.56, 92.85 7.84 M30.53 79.54 C46.94 60.33, 64.98 39.94, 92.85 7.84 M35.51 79.9 C55.14 58.57, 72.7 37.62, 94.56 11.97 M35.51 79.9 C57.19 54.57, 79.69 30.87, 94.56 11.97 M40.5 80.26 C51.97 66.41, 65.1 50.72, 95.61 16.86 M40.5 80.26 C56.5 62.02, 73.33 43.03, 95.61 16.86 M46.14 79.86 C58.27 65.09, 69.27 52.48, 95.35 23.26 M46.14 79.86 C56.24 68.54, 66.29 56.7, 95.35 23.26 M51.13 80.22 C66.51 63.61, 83.42 42.55, 95.74 28.9 M51.13 80.22 C64.06 65.88, 77.68 49.37, 95.74 28.9 M56.77 79.83 C69.78 63.98, 84.14 49.57, 95.48 35.3 M56.77 79.83 C69.33 66.58, 81.23 52.29, 95.48 35.3 M61.76 80.19 C70.69 68.55, 78.74 58.77, 95.22 41.7 M61.76 80.19 C72.07 66.46, 84.87 53.35, 95.22 41.7 M67.4 79.79 C74.82 70.62, 80.93 63.13, 95.62 47.34 M67.4 79.79 C77.45 68.2, 85.9 58.21, 95.62 47.34 M72.39 80.15 C79.92 68.64, 90.72 59.03, 95.35 53.74 M72.39 80.15 C80.66 70.61, 87.05 62.7, 95.35 53.74 M78.03 79.76 C80.45 74.14, 83.07 71.28, 95.09 60.14 M78.03 79.76 C83.19 71.7, 91.12 66.33, 95.09 60.14 M84.33 78.61 C85.71 75.76, 87.57 74.78, 94.17 67.29 M84.33 78.61 C87.58 75.65, 89.57 71.96, 94.17 67.29" stroke="#ffffff" stroke-width="0.5" fill="none"></path><path d="M19.92 0 C40.25 0.67, 60.17 -0.74, 75.67 0 M19.92 0 C40.74 0.98, 61.58 -0.43, 75.67 0 M75.67 0 C90 -0.96, 93.97 8.48, 95.59 19.92 M75.67 0 C87.66 0.23, 95.23 5.4, 95.59 19.92 M95.59 19.92 C95.02 29.45, 94.54 37.58, 95.59 59.77 M95.59 19.92 C95.77 33.29, 95.07 47.1, 95.59 59.77 M95.59 59.77 C94.78 72.99, 88.03 80.67, 75.67 79.7 M95.59 59.77 C97.49 72.53, 90.29 79.91, 75.67 79.7 M75.67 79.7 C56.92 80.92, 41.55 77.92, 19.92 79.7 M75.67 79.7 C55.69 79.41, 33.72 80.38, 19.92 79.7 M19.92 79.7 C8.16 78.56, 1.3 74.2, 0 59.77 M19.92 79.7 C8.17 77.97, -0.35 73.61, 0 59.77 M0 59.77 C0.99 48.38, 0.17 38.85, 0 19.92 M0 59.77 C0.07 48.38, 0.1 36.38, 0 19.92 M0 19.92 C0.56 6.91, 5.88 -1.03, 19.92 0 M0 19.92 C0 6.23, 6.14 -2.21, 19.92 0" stroke="#1e1e1e" stroke-width="1" fill="none"></path></g><g transform="translate(38.2421875 210.52926165965528) rotate(0 19.5546875 10)"><text x="19.5546875" y="0" font-family="Virgil, Segoe UI Emoji" font-size="16px" fill="#1e1e1e" text-anchor="middle" style="white-space: pre;" direction="ltr" dominant-baseline="text-before-edge">Client</text></g><g stroke-linecap="round"><g transform="translate(566.2109375 221.10102606638975) rotate(0 53.19399860307237 0.1940406493632736)"><path d="M-0.48 0.81 C17.03 0.61, 87.52 -0.81, 105.4 -0.79 M1.47 0.19 C19.31 0.06, 90.13 0.35, 107.59 0.13" stroke="#1e1e1e" stroke-width="1" fill="none"></path></g><g transform="translate(566.2109375 221.10102606638975) rotate(0 53.19399860307237 0.1940406493632736)"><path d="M27.54 -9.92 C19.66 -8.13, 7.08 -2.27, -0.48 0.81 M27.54 -9.92 C18.52 -6.99, 7.56 -1.91, -0.48 0.81" stroke="#1e1e1e" stroke-width="1" fill="none"></path></g><g transform="translate(566.2109375 221.10102606638975) rotate(0 53.19399860307237 0.1940406493632736)"><path d="M27.88 10.6 C19.82 5.6, 7.13 4.67, -0.48 0.81 M27.88 10.6 C18.6 6.48, 7.53 4.52, -0.48 0.81" stroke="#1e1e1e" stroke-width="1" fill="none"></path></g><g transform="translate(566.2109375 221.10102606638975) rotate(0 53.19399860307237 0.1940406493632736)"><path d="M79.43 10.48 C90.06 5.51, 96.05 4.4, 107.59 0.13 M79.43 10.48 C89.55 6.72, 97.88 4.56, 107.59 0.13" stroke="#1e1e1e" stroke-width="1" fill="none"></path></g><g transform="translate(566.2109375 221.10102606638975) rotate(0 53.19399860307237 0.1940406493632736)"><path d="M79.36 -10.04 C90.08 -8.22, 96.1 -2.55, 107.59 0.13 M79.36 -10.04 C89.65 -6.76, 98 -1.87, 107.59 0.13" stroke="#1e1e1e" stroke-width="1" fill="none"></path></g></g><mask></mask><g transform="translate(855.4765625000001 150.77730853465528) rotate(0 135.12791442871094 60)"><text x="0" y="0" font-family="Virgil, Segoe UI Emoji" font-size="16px" fill="#1e1e1e" text-anchor="start" style="white-space: pre;" direction="ltr" dominant-baseline="text-before-edge">Urls</text><text x="0" y="20" font-family="Virgil, Segoe UI Emoji" font-size="16px" fill="#1e1e1e" text-anchor="start" style="white-space: pre;" direction="ltr" dominant-baseline="text-before-edge">- short url code (or custom alias)</text><text x="0" y="40" font-family="Virgil, Segoe UI Emoji" font-size="16px" fill="#1e1e1e" text-anchor="start" style="white-space: pre;" direction="ltr" dominant-baseline="text-before-edge">- original url</text><text x="0" y="60" font-family="Virgil, Segoe UI Emoji" font-size="16px" fill="#1e1e1e" text-anchor="start" style="white-space: pre;" direction="ltr" dominant-baseline="text-before-edge">- creationTime</text><text x="0" y="80" font-family="Virgil, Segoe UI Emoji" font-size="16px" fill="#1e1e1e" text-anchor="start" style="white-space: pre;" direction="ltr" dominant-baseline="text-before-edge">- expirationTime?</text><text x="0" y="100" font-family="Virgil, Segoe UI Emoji" font-size="16px" fill="#1e1e1e" text-anchor="start" style="white-space: pre;" direction="ltr" dominant-baseline="text-before-edge">- createdBy</text></g><g transform="translate(139.12424714936583 245.44744724842076) rotate(0 79.35995483398438 20)"><text x="0" y="0" font-family="Virgil, Segoe UI Emoji" font-size="16px" fill="#1e1e1e" text-anchor="start" style="white-space: pre;" direction="ltr" dominant-baseline="text-before-edge">POST /urls</text><text x="0" y="20" font-family="Virgil, Segoe UI Emoji" font-size="16px" fill="#1e1e1e" text-anchor="start" style="white-space: pre;" direction="ltr" dominant-baseline="text-before-edge">GET /{short_code}</text></g><g transform="translate(327.5220909980177 297.58914094926877) rotate(0 134.67193603515625 50)"><text x="0" y="0" font-family="Virgil, Segoe UI Emoji" font-size="16px" fill="#1e1e1e" text-anchor="start" style="white-space: pre;" direction="ltr" dominant-baseline="text-before-edge">Write: 1) generate short url</text><text x="0" y="20" font-family="Virgil, Segoe UI Emoji" font-size="16px" fill="#1e1e1e" text-anchor="start" style="white-space: pre;" direction="ltr" dominant-baseline="text-before-edge">      2) save to DB</text><text x="0" y="40" font-family="Virgil, Segoe UI Emoji" font-size="16px" fill="#1e1e1e" text-anchor="start" style="white-space: pre;" direction="ltr" dominant-baseline="text-before-edge"></text><text x="0" y="60" font-family="Virgil, Segoe UI Emoji" font-size="16px" fill="#1e1e1e" text-anchor="start" style="white-space: pre;" direction="ltr" dominant-baseline="text-before-edge">Read: 1) look up original url in DB</text><text x="0" y="80" font-family="Virgil, Segoe UI Emoji" font-size="16px" fill="#1e1e1e" text-anchor="start" style="white-space: pre;" direction="ltr" dominant-baseline="text-before-edge">      2) return with 302 redirect</text></g><g stroke-linecap="round" transform="translate(339.0245065496382 182.52921180933208) rotate(0 99.10144541084372 16.00591513340646)"><path d="M0.55 4.45 C0.55 4.45, 0.55 4.45, 0.55 4.45 M0.55 4.45 C0.55 4.45, 0.55 4.45, 0.55 4.45 M0.28 10.85 C2.24 7.33, 6.51 4.24, 8.81 1.04 M0.28 10.85 C3.1 7.16, 5.23 5.2, 8.81 1.04 M0.02 17.24 C1.96 11.55, 8.57 8.22, 14.46 0.64 M0.02 17.24 C4.99 12.15, 10.36 4.86, 14.46 0.64 M-0.24 23.64 C6.32 16.31, 8.66 12.57, 19.44 1 M-0.24 23.64 C5.48 16.83, 12.46 9.24, 19.44 1 M2.78 26.27 C8.95 15.75, 18.58 10.4, 25.09 0.61 M2.78 26.27 C7.83 19.41, 14.18 12.34, 25.09 0.61 M3.83 31.16 C12.29 20.86, 18.9 11.49, 30.07 0.97 M3.83 31.16 C13.74 21.16, 23.45 9.25, 30.07 0.97 M8.16 32.27 C17.09 22.57, 26.01 15.32, 35.72 0.57 M8.16 32.27 C15.7 24.7, 20.63 16.97, 35.72 0.57 M13.8 31.88 C21.11 20.55, 29.13 14.4, 40.7 0.93 M13.8 31.88 C19.95 24.02, 24.48 18.61, 40.7 0.93 M18.79 32.24 C29.36 21.19, 34.5 10.06, 46.35 0.54 M18.79 32.24 C25.44 25.22, 31.91 17.19, 46.35 0.54 M24.43 31.84 C33.28 19.45, 44.42 11.03, 51.33 0.9 M24.43 31.84 C34.06 20.88, 44.41 8.26, 51.33 0.9 M29.42 32.2 C38.62 21.19, 52.33 7.52, 56.98 0.5 M29.42 32.2 C38.58 22.84, 46.29 12.13, 56.98 0.5 M34.41 32.56 C43.84 19.84, 54.82 7.77, 61.96 0.86 M34.41 32.56 C44.34 19.91, 54.53 9.55, 61.96 0.86 M40.05 32.17 C48.76 20.82, 59.78 9.34, 66.95 1.22 M40.05 32.17 C45.06 26.51, 50.12 19.93, 66.95 1.22 M45.04 32.53 C51.1 27.07, 55.69 16.91, 72.59 0.83 M45.04 32.53 C50.93 25.32, 57.94 18.22, 72.59 0.83 M50.68 32.13 C55.85 27.92, 60.14 18.94, 77.58 1.19 M50.68 32.13 C60 21.25, 67.98 10.86, 77.58 1.19 M55.67 32.49 C61.89 26.29, 68.64 18.15, 83.22 0.79 M55.67 32.49 C62.83 22.66, 71.16 13.46, 83.22 0.79 M61.31 32.1 C68.24 24.33, 74.03 19.87, 88.21 1.15 M61.31 32.1 C68.58 24.41, 73.15 18.73, 88.21 1.15 M66.3 32.46 C74.07 24.37, 82.09 15.58, 93.85 0.76 M66.3 32.46 C74.44 21.13, 83.58 10.84, 93.85 0.76 M71.94 32.06 C79.82 24.75, 85.61 16.11, 98.84 1.12 M71.94 32.06 C78.09 24.43, 84.94 16.89, 98.84 1.12 M76.93 32.42 C84.93 21.56, 93.9 11.74, 104.48 0.73 M76.93 32.42 C82 25.08, 88.66 18.49, 104.48 0.73 M82.57 32.03 C88.82 22.04, 95.87 17.15, 109.47 1.09 M82.57 32.03 C89.92 22.93, 96.77 15.97, 109.47 1.09 M87.56 32.39 C95.47 23.63, 100.66 16.42, 115.11 0.69 M87.56 32.39 C96.41 21.95, 105.79 12.39, 115.11 0.69 M93.2 31.99 C102.25 24.76, 108.49 13.46, 120.1 1.05 M93.2 31.99 C100.48 23.63, 105.32 16.15, 120.1 1.05 M98.19 32.35 C108.88 21.05, 116.68 10.87, 125.74 0.66 M98.19 32.35 C106.89 23.33, 114.87 13.45, 125.74 0.66 M103.83 31.96 C110.72 25.23, 117.85 12.88, 130.73 1.02 M103.83 31.96 C115.15 20.65, 125.76 7.31, 130.73 1.02 M108.82 32.32 C117.06 25.4, 120.96 15.84, 136.37 0.62 M108.82 32.32 C115.41 25.02, 119.81 17.55, 136.37 0.62 M114.46 31.93 C126.23 19.51, 133.64 8.18, 141.36 0.98 M114.46 31.93 C120.24 24.97, 126.87 18.45, 141.36 0.98 M119.45 32.29 C128.23 21.49, 137.89 13.72, 147 0.59 M119.45 32.29 C128.95 21.42, 135.76 12.54, 147 0.59 M125.09 31.89 C133.77 21.62, 144.25 9.92, 151.99 0.95 M125.09 31.89 C134.35 22.68, 142.82 12.22, 151.99 0.95 M130.08 32.25 C137.42 25.46, 142.63 16.64, 157.63 0.55 M130.08 32.25 C136.94 24.48, 144.07 16.34, 157.63 0.55 M135.72 31.86 C139.72 25.27, 145.36 17.57, 162.62 0.91 M135.72 31.86 C146.43 18.91, 155.39 8.73, 162.62 0.91 M140.71 32.22 C149.9 18.71, 161.63 6.37, 168.26 0.52 M140.71 32.22 C146.32 24.39, 152.79 17.81, 168.26 0.52 M145.7 32.58 C153.77 22.43, 163.43 11.65, 173.25 0.88 M145.7 32.58 C155.15 20.8, 163.89 11.13, 173.25 0.88 M151.34 32.18 C159.59 21.49, 168.49 12.33, 178.89 0.48 M151.34 32.18 C159.41 23.92, 166.14 16.13, 178.89 0.48 M156.33 32.54 C164.78 21.7, 174.45 10.25, 183.88 0.84 M156.33 32.54 C162.87 24.53, 170.75 17.96, 183.88 0.84 M161.97 32.15 C169.86 25.16, 175.14 19.58, 188.87 1.2 M161.97 32.15 C169.93 22.71, 176.25 15.4, 188.87 1.2 M166.96 32.51 C174.36 23.45, 182.58 14.03, 193.2 2.32 M166.96 32.51 C177.37 21.52, 187.86 9.78, 193.2 2.32 M172.6 32.11 C179.29 24.97, 185.09 16.62, 197.53 3.43 M172.6 32.11 C179.35 24.12, 187.23 14.8, 197.53 3.43 M177.59 32.47 C182.72 24.52, 191.22 19.42, 199.89 6.81 M177.59 32.47 C187.12 21.57, 195.73 12.59, 199.89 6.81 M183.23 32.08 C187 24.45, 194.55 17.91, 200.29 12.46 M183.23 32.08 C189.32 25.27, 195.63 17.07, 200.29 12.46 M188.22 32.44 C190.33 29.76, 195.18 23.85, 200.68 18.1 M188.22 32.44 C191.74 28.03, 195.56 22.42, 200.68 18.1 M192.55 33.55 C194.58 29.93, 197.77 27.2, 199.76 25.25 M192.55 33.55 C195.16 31.3, 196.86 28.66, 199.76 25.25" stroke="#ffffff" stroke-width="0.5" fill="none"></path><path d="M8 0 C74.17 -2.58, 144.1 -2.08, 190.2 0 M8 0 C63.62 1.51, 121.58 0.59, 190.2 0 M190.2 0 C196.54 -1.27, 198.81 3.65, 198.2 8 M190.2 0 C193.74 -1.56, 199.33 1.39, 198.2 8 M198.2 8 C198.04 11.73, 198.88 18.26, 198.2 24.01 M198.2 8 C198.48 13.03, 198.19 16.58, 198.2 24.01 M198.2 24.01 C199.5 31.24, 193.83 33.53, 190.2 32.01 M198.2 24.01 C197.61 30.85, 197.8 30.51, 190.2 32.01 M190.2 32.01 C134.73 34.7, 82.68 34.72, 8 32.01 M190.2 32.01 C148.96 31.66, 108.81 32.78, 8 32.01 M8 32.01 C2.01 31.87, 0.55 29.46, 0 24.01 M8 32.01 C0.88 32.46, -0.56 31.19, 0 24.01 M0 24.01 C0.06 18.94, -0.98 15.08, 0 8 M0 24.01 C-0.05 19.34, 0.16 14.33, 0 8 M0 8 C-0.54 3.16, 1.53 -0.65, 8 0 M0 8 C0.29 1.39, 0.62 0.93, 8 0" stroke="#1e1e1e" stroke-width="1" fill="none"></path></g><g transform="translate(362.5907957104819 188.53512694273854) rotate(0 75.53515625 10)"><text x="75.53515625" y="0" font-family="Virgil, Segoe UI Emoji" font-size="16px" fill="#1e1e1e" text-anchor="middle" style="white-space: pre;" direction="ltr" dominant-baseline="text-before-edge">Random num generator</text></g><g stroke-linecap="round" transform="translate(569.2951842241839 10) rotate(0 54.200948158237395 51.960353192002344)"><path d="M5.36 29.84 C5.36 29.84, 5.36 29.84, 5.36 29.84 M5.36 29.84 C5.36 29.84, 5.36 29.84, 5.36 29.84 M3.79 37.75 C9.64 29.82, 18.79 18.7, 30.03 7.56 M3.79 37.75 C13.87 26.01, 24.62 15.42, 30.03 7.56 M2.22 45.65 C13.37 30.94, 28.13 16.79, 36.99 5.65 M2.22 45.65 C13.67 32.24, 23.86 21.27, 36.99 5.65 M0.64 53.56 C10.29 39.35, 24.45 27.33, 44.6 2.99 M0.64 53.56 C16.35 36.51, 32.2 17.16, 44.6 2.99 M1.04 59.2 C15.22 43.1, 25.18 30.57, 51.55 1.09 M1.04 59.2 C17.05 41.14, 33.99 22.1, 51.55 1.09 M2.74 63.34 C19.22 40.56, 39.5 22.96, 56.54 1.45 M2.74 63.34 C16.32 46.28, 31.46 29.08, 56.54 1.45 M4.45 67.47 C22.66 46.25, 38.74 25.99, 60.87 2.57 M4.45 67.47 C25.58 44.96, 46.19 20.52, 60.87 2.57 M6.16 71.6 C24.46 51.17, 42.81 33.06, 65.2 3.68 M6.16 71.6 C21.29 55.27, 34.01 38.58, 65.2 3.68 M7.87 75.74 C25.68 52.12, 44.21 33.88, 70.19 4.04 M7.87 75.74 C21.47 58.67, 33.85 44.23, 70.19 4.04 M9.57 79.87 C31.89 54.86, 48.99 29.97, 74.52 5.16 M9.57 79.87 C24.68 62.76, 40 44.55, 74.52 5.16 M11.93 83.25 C34.17 55.5, 58.48 31.93, 78.2 7.02 M11.93 83.25 C35.92 55.51, 60.99 25.95, 78.2 7.02 M14.95 85.87 C39.79 57.08, 69.09 25.47, 81.87 8.89 M14.95 85.87 C36 62.29, 55.84 37.62, 81.87 8.89 M17.97 88.5 C42.66 58.69, 68.8 29.19, 84.89 11.52 M17.97 88.5 C42.07 58.91, 66.76 31.86, 84.89 11.52 M20.99 91.12 C43.82 64.06, 68.68 36.67, 87.91 14.14 M20.99 91.12 C34 75.94, 47.16 60.04, 87.91 14.14 M24.67 92.99 C39.59 77.63, 52.85 57.5, 90.93 16.77 M24.67 92.99 C40.08 75.35, 56.27 57.7, 90.93 16.77 M27.68 95.62 C40.63 82.47, 52.95 64.25, 93.95 19.39 M27.68 95.62 C50.06 69.14, 71.5 43.27, 93.95 19.39 M30.7 98.24 C46.25 80.99, 62.53 61.88, 96.97 22.02 M30.7 98.24 C48.85 75.47, 68.49 53.25, 96.97 22.02 M35.03 99.36 C50.39 81.89, 64.6 67.76, 99.33 25.39 M35.03 99.36 C51.01 81.81, 64.2 66.22, 99.33 25.39 M39.37 100.47 C55.85 81.92, 72.92 62.72, 101.04 29.53 M39.37 100.47 C58.68 76, 79.04 52.8, 101.04 29.53 M43.7 101.59 C60.3 84.07, 75.14 65.01, 102.74 33.66 M43.7 101.59 C57.9 84.63, 72.86 67.75, 102.74 33.66 M48.68 101.95 C65.72 80.81, 83.75 60.57, 105.1 37.04 M48.68 101.95 C60.07 87.51, 73.14 73.55, 105.1 37.04 M53.01 103.06 C66.57 84.68, 80.76 71.57, 106.81 41.17 M53.01 103.06 C67.84 85.46, 82.08 70, 106.81 41.17 M58 103.42 C71.48 88.14, 82.24 74.53, 108.52 45.31 M58 103.42 C74.3 84.27, 91.23 66.03, 108.52 45.31 M65.61 100.76 C79.06 88.35, 89.83 71.85, 108.26 51.71 M65.61 100.76 C76.73 87.91, 85.41 76.01, 108.26 51.71 M72.57 98.86 C85.4 85.16, 95.3 72.56, 106.68 59.61 M72.57 98.86 C83.17 87.64, 93.03 75.61, 106.68 59.61 M80.18 96.2 C86.35 90.32, 92.76 78.81, 104.45 68.27 M80.18 96.2 C90.45 86.08, 100.04 73.91, 104.45 68.27" stroke="#ffffff" stroke-width="0.5" fill="none"></path><path d="M50.46 0.78 C58.98 -0.39, 69.17 1.88, 77.13 5.56 C85.09 9.23, 92.96 15.9, 98.22 22.82 C103.49 29.74, 108.02 38.42, 108.73 47.08 C109.43 55.75, 106.51 66.89, 102.45 74.8 C98.39 82.72, 91.8 89.81, 84.36 94.56 C76.92 99.32, 66.72 102.71, 57.8 103.35 C48.88 103.99, 38.81 101.92, 30.85 98.4 C22.89 94.88, 15.18 89.19, 10.03 82.23 C4.88 75.27, 0.72 65.37, -0.06 56.64 C-0.84 47.91, 1.32 37.77, 5.37 29.84 C9.41 21.9, 16.06 13.88, 24.22 9.02 C32.39 4.15, 48.32 2.08, 54.34 0.65 C60.36 -0.78, 60.15 -0.28, 60.33 0.43 M71.62 3.24 C79.94 5.2, 89.99 10.29, 96.11 16.87 C102.23 23.44, 106.61 34.25, 108.34 42.7 C110.08 51.15, 109.62 59.44, 106.51 67.55 C103.4 75.67, 96.73 85.7, 89.69 91.4 C82.66 97.1, 73 100.03, 64.29 101.74 C55.59 103.45, 46.04 104.27, 37.48 101.66 C28.92 99.05, 18.95 92.68, 12.94 86.09 C6.94 79.51, 3.32 70.59, 1.45 62.17 C-0.42 53.74, -1.06 43.54, 1.72 35.53 C4.5 27.51, 11.18 19.59, 18.12 14.08 C25.05 8.57, 34.34 4.33, 43.33 2.48 C52.32 0.63, 67.5 2.88, 72.06 2.97 C76.63 3.05, 71.09 2.24, 70.73 2.98" stroke="#1e1e1e" stroke-width="1" fill="none"></path></g><g transform="translate(602.7913681429911 41.718835097089425) rotate(0 20.87890625 20)"><text x="20.87890625" y="0" font-family="Virgil, Segoe UI Emoji" font-size="16px" fill="#1e1e1e" text-anchor="middle" style="white-space: pre;" direction="ltr" dominant-baseline="text-before-edge">Cache</text><text x="20.87890625" y="20" font-family="Virgil, Segoe UI Emoji" font-size="16px" fill="#1e1e1e" text-anchor="middle" style="white-space: pre;" direction="ltr" dominant-baseline="text-before-edge">(redis)</text></g><g transform="translate(688.32416884045 15.656278239423955) rotate(0 69.73595428466797 20)"><text x="0" y="0" font-family="Virgil, Segoe UI Emoji" font-size="16px" fill="#1e1e1e" text-anchor="start" style="white-space: pre;" direction="ltr" dominant-baseline="text-before-edge">key: short_code</text><text x="0" y="20" font-family="Virgil, Segoe UI Emoji" font-size="16px" fill="#1e1e1e" text-anchor="start" style="white-space: pre;" direction="ltr" dominant-baseline="text-before-edge">value: original_url</text></g><g stroke-linecap="round"><g transform="translate(540.0065744782477 156.52232055991226) rotate(0 22.112177585612073 -23.748907727440496)"><path d="M0.74 -0.47 C8.39 -8.62, 37.52 -40.52, 44.83 -48.26 M-0.33 -1.76 C7.3 -9.83, 36.8 -39.26, 44.19 -47.12" stroke="#1e1e1e" stroke-width="1" fill="none"></path></g><g transform="translate(540.0065744782477 156.52232055991226) rotate(0 22.112177585612073 -23.748907727440496)"><path d="M12.29 -28.16 C9.19 -21.16, 6.23 -15.64, 0.74 -0.47 M12.29 -28.16 C8.53 -19.12, 3.8 -9.56, 0.74 -0.47" stroke="#1e1e1e" stroke-width="1" fill="none"></path></g><g transform="translate(540.0065744782477 156.52232055991226) rotate(0 22.112177585612073 -23.748907727440496)"><path d="M27.39 -14.26 C20.98 -10.14, 14.79 -7.59, 0.74 -0.47 M27.39 -14.26 C18.46 -10.18, 8.46 -5.48, 0.74 -0.47" stroke="#1e1e1e" stroke-width="1" fill="none"></path></g><g transform="translate(540.0065744782477 156.52232055991226) rotate(0 22.112177585612073 -23.748907727440496)"><path d="M31.88 -19.77 C33.58 -24.69, 35.73 -30.94, 44.19 -47.12 M31.88 -19.77 C36.88 -29.8, 40.49 -39.47, 44.19 -47.12" stroke="#1e1e1e" stroke-width="1" fill="none"></path></g><g transform="translate(540.0065744782477 156.52232055991226) rotate(0 22.112177585612073 -23.748907727440496)"><path d="M17.18 -34.09 C22.1 -36.04, 27.39 -39.22, 44.19 -47.12 M17.18 -34.09 C27.21 -39.02, 35.95 -43.68, 44.19 -47.12" stroke="#1e1e1e" stroke-width="1" fill="none"></path></g></g><mask></mask><g transform="translate(576.3223988217202 137.54371179284317) rotate(0 54.311973571777344 20)"><text x="0" y="0" font-family="Virgil, Segoe UI Emoji" font-size="16px" fill="#1e1e1e" text-anchor="start" style="white-space: pre;" direction="ltr" dominant-baseline="text-before-edge">1. check cache</text><text x="0" y="20" font-family="Virgil, Segoe UI Emoji" font-size="16px" fill="#1e1e1e" text-anchor="start" style="white-space: pre;" direction="ltr" dominant-baseline="text-before-edge">2. check DB</text></g></svg>