<svg version="1.1" xmlns="http://www.w3.org/2000/svg" viewBox="0 0 1325.8588815932217 679.4597989140411" >
  <!-- svg-source:excalidraw -->
  <!-- payload-type:application/vnd.excalidraw+json --><!-- payload-version:2 -->
  <defs>
    <style class="style-fonts">
      @font-face {
        font-family: "Virgil";
        src: url("https://files.hellointerview.com/build-assets/PRODUCTION/_next/static/media/Excalifont-s.p.436754fa.woff2");
      }
      @font-face {
        font-family: "Cascadia";
        src: url("https://file%2B.vscode-resource.vscode-cdn.net/Users/evanking/.cursor/extensions/pomdtr.excalidraw-editor-3.7.4/public//dist/excalidraw-assets/Cascadia.woff2");
      }
      @font-face {
        font-family: "Assistant";
        src: url("https://file%2B.vscode-resource.vscode-cdn.net/Users/evanking/.cursor/extensions/pomdtr.excalidraw-editor-3.7.4/public//dist/excalidraw-assets/Assistant-Regular.woff2");
      }
    </style>
    
  </defs>
  <rect x="0" y="0" width="1325.8588815932217" height="679.4597989140411" fill="#ffffff"></rect><g stroke-linecap="round"><g transform="translate(117.1194555392035 359.1975939111653) rotate(0 48.93018715391156 0.07922083336029573)"><path d="M-0.9 -0.95 C15.11 -0.94, 80.57 0.16, 96.83 0.22 M0.83 1.16 C17.14 1.37, 82.64 1.93, 99 1.78" stroke="#1e1e1e" stroke-width="1" fill="none"></path></g><g transform="translate(117.1194555392035 359.1975939111653) rotate(0 48.93018715391156 0.07922083336029573)"><path d="M27.42 -10.86 C15.55 -9.2, 6.95 -5.84, -0.9 -0.95 M27.42 -10.86 C19.82 -8.89, 14.19 -6.51, -0.9 -0.95" stroke="#1e1e1e" stroke-width="1" fill="none"></path></g><g transform="translate(117.1194555392035 359.1975939111653) rotate(0 48.93018715391156 0.07922083336029573)"><path d="M27.16 9.66 C15.37 3.87, 6.86 -0.23, -0.9 -0.95 M27.16 9.66 C19.58 6.81, 14.01 4.39, -0.9 -0.95" stroke="#1e1e1e" stroke-width="1" fill="none"></path></g><g transform="translate(117.1194555392035 359.1975939111653) rotate(0 48.93018715391156 0.07922083336029573)"><path d="M70.8 12.01 C79.44 6.79, 91.38 2.82, 99 1.78 M70.8 12.01 C76.4 8.9, 84.02 6.56, 99 1.78" stroke="#1e1e1e" stroke-width="1" fill="none"></path></g><g transform="translate(117.1194555392035 359.1975939111653) rotate(0 48.93018715391156 0.07922083336029573)"><path d="M70.82 -8.51 C79.48 -6.28, 91.41 -2.78, 99 1.78 M70.82 -8.51 C76.46 -6.81, 84.07 -4.34, 99 1.78" stroke="#1e1e1e" stroke-width="1" fill="none"></path></g></g><mask></mask><g stroke-linecap="round" transform="translate(875.6108652357996 263.3253456643506) rotate(0 75.416015625 68.5)"><path d="M14.34 28.36 C14.34 28.36, 14.34 28.36, 14.34 28.36 M14.34 28.36 C14.34 28.36, 14.34 28.36, 14.34 28.36 M8.17 41.55 C17.13 32.77, 25.8 22.25, 32.45 13.63 M8.17 41.55 C13.06 35.63, 19.77 28.53, 32.45 13.63 M2.01 54.74 C16.17 38.12, 29.5 19.06, 43.99 6.44 M2.01 54.74 C18.08 36.14, 32.51 18.58, 43.99 6.44 M1.74 61.14 C22.18 40.48, 39.17 16.84, 50.29 5.29 M1.74 61.14 C17.09 41.22, 33.72 23.21, 50.29 5.29 M1.48 67.54 C12.98 51.8, 27.29 37.19, 57.25 3.39 M1.48 67.54 C13.04 54.11, 24.39 40.85, 57.25 3.39 M1.88 73.18 C15.07 58.67, 26.39 44, 63.55 2.24 M1.88 73.18 C21.09 50.15, 40.47 27.57, 63.55 2.24 M2.27 78.83 C19.4 63.41, 30.98 45.5, 70.5 0.34 M2.27 78.83 C15.36 62.78, 30.43 47.33, 70.5 0.34 M2.01 85.22 C25.01 61.04, 47.87 36.31, 75.49 0.7 M2.01 85.22 C20.67 65.7, 36.48 46.47, 75.49 0.7 M3.72 89.36 C30.54 57.88, 59.94 26.44, 79.82 1.81 M3.72 89.36 C26.71 60.55, 51.02 32.31, 79.82 1.81 M6.08 92.74 C35.35 58.78, 64.72 28.63, 84.15 2.93 M6.08 92.74 C21.21 74.55, 39.07 56.06, 84.15 2.93 M8.44 96.12 C32.26 69.52, 54.32 42.75, 89.14 3.29 M8.44 96.12 C39.67 58.64, 72.72 23.05, 89.14 3.29 M10.81 99.49 C32.86 76.16, 54.75 50.61, 93.47 4.4 M10.81 99.49 C41.57 63.1, 72.57 27.95, 93.47 4.4 M13.17 102.87 C42.21 70.13, 69.79 39.05, 98.46 4.76 M13.17 102.87 C43.24 69.02, 71.76 34.19, 98.46 4.76 M15.53 106.25 C40.98 80.32, 61.72 52.35, 102.79 5.88 M15.53 106.25 C43.35 74.77, 69.28 44.34, 102.79 5.88 M17.89 109.63 C37.38 87.1, 58.81 65.49, 106.46 7.75 M17.89 109.63 C51.36 71.11, 84.64 32.46, 106.46 7.75 M20.26 113.01 C38.69 91.82, 58.84 69.09, 110.14 9.61 M20.26 113.01 C40.7 90.71, 60.28 68.03, 110.14 9.61 M23.28 115.63 C56.37 75.93, 94.48 36.32, 113.81 11.48 M23.28 115.63 C56.97 74.73, 93.39 34.97, 113.81 11.48 M26.29 118.26 C62.61 75.75, 98.83 36.77, 116.83 14.11 M26.29 118.26 C58.56 80.47, 92.93 41.14, 116.83 14.11 M29.97 120.13 C47.79 99.07, 69.14 76.98, 120.51 15.98 M29.97 120.13 C62.39 83.92, 92.69 48.15, 120.51 15.98 M32.99 122.75 C55.02 96.73, 74.18 76.42, 124.18 17.85 M32.99 122.75 C52.99 100.25, 70.63 78.52, 124.18 17.85 M36.66 124.62 C56.11 101.64, 76.91 78.79, 127.2 20.47 M36.66 124.62 C62.54 94.27, 90.51 64.65, 127.2 20.47 M39.68 127.25 C70.92 92.42, 104.9 54.49, 130.87 22.34 M39.68 127.25 C63.48 99.73, 85.96 74.14, 130.87 22.34 M43.36 129.12 C67.45 100.51, 97.11 69.63, 133.89 24.97 M43.36 129.12 C77.52 89.9, 111.77 50.2, 133.89 24.97 M46.38 131.74 C80.22 90.16, 116.4 51.04, 135.6 29.1 M46.38 131.74 C66.61 108.89, 86.79 85.27, 135.6 29.1 M50.71 132.85 C72.91 110.45, 90.51 88.35, 137.96 32.48 M50.71 132.85 C68.5 111.85, 86.98 92.79, 137.96 32.48 M55.69 133.21 C87.18 95.04, 120.14 58.17, 140.33 35.86 M55.69 133.21 C85.54 100.53, 113.44 67.59, 140.33 35.86 M60.02 134.33 C93.28 99.45, 123.82 58.81, 142.03 39.99 M60.02 134.33 C84.5 106.56, 109.54 77.98, 142.03 39.99 M65.01 134.69 C89.71 108.66, 112.64 77.56, 144.4 43.37 M65.01 134.69 C92.45 102.31, 121.65 68.65, 144.4 43.37 M69.34 135.8 C88.18 114.13, 108.89 88.71, 146.76 46.75 M69.34 135.8 C85.43 118.23, 101.99 97.56, 146.76 46.75 M73.67 136.92 C88.01 118.22, 102.92 101.8, 148.46 50.88 M73.67 136.92 C99.23 105.9, 126.81 76.31, 148.46 50.88 M78.66 137.28 C99.59 113.22, 119.51 90.13, 149.52 55.77 M78.66 137.28 C95.94 118, 114.27 96.51, 149.52 55.77 M84.96 136.13 C100.25 118.93, 116.22 100.18, 149.25 62.17 M84.96 136.13 C107.45 109.78, 131.14 80.78, 149.25 62.17 M91.92 134.23 C107.28 117.92, 121.32 100.15, 149.65 67.81 M91.92 134.23 C110.81 111.74, 131.17 90.63, 149.65 67.81 M98.87 132.32 C111.98 119.01, 120.08 107.66, 149.39 74.21 M98.87 132.32 C116.37 113.74, 132.48 94.47, 149.39 74.21 M105.83 130.42 C119.22 115.79, 130.09 103.64, 149.13 80.61 M105.83 130.42 C120.45 114.32, 133.28 98.33, 149.13 80.61 M115.41 125.5 C123.57 115.9, 134.57 103.95, 142.96 93.8 M115.41 125.5 C125.71 113.52, 135.04 102.62, 142.96 93.8 M134.17 110.01 C134.43 109.73, 135.16 109.1, 136.79 106.99 M134.17 110.01 C134.75 109.06, 135.58 108.19, 136.79 106.99" stroke="#ffffff" stroke-width="0.5" fill="none"></path><path d="M40.44 7.14 C49.06 1.75, 60.93 0.27, 71.64 0.09 C82.35 -0.1, 94.63 2.19, 104.71 6.03 C114.79 9.86, 124.74 15.55, 132.12 23.1 C139.49 30.64, 146.11 41.72, 148.94 51.29 C151.78 60.87, 151.25 71.08, 149.14 80.53 C147.03 89.99, 142.67 99.98, 136.28 108.04 C129.88 116.1, 120.23 123.99, 110.77 128.89 C101.32 133.79, 90.31 137, 79.52 137.44 C68.74 137.87, 56.08 135.57, 46.07 131.47 C36.06 127.38, 26.78 120.33, 19.46 112.86 C12.15 105.39, 5.23 96.01, 2.18 86.68 C-0.88 77.34, -0.88 66.55, 1.14 56.84 C3.16 47.12, 7 36.74, 14.31 28.4 C21.61 20.06, 39.19 10.64, 44.98 6.81 C50.78 2.97, 48.79 4.54, 49.1 5.41 M83.07 -0.17 C93.19 0.26, 105.33 6.03, 114.83 11.6 C124.33 17.17, 134.33 25.23, 140.08 33.27 C145.83 41.32, 148.21 50.15, 149.35 59.89 C150.49 69.62, 150.26 82.09, 146.92 91.69 C143.59 101.29, 137.04 110.68, 129.35 117.51 C121.65 124.34, 110.95 129.39, 100.76 132.68 C90.57 135.98, 79.15 138.31, 68.21 137.28 C57.27 136.25, 44.66 131.72, 35.1 126.51 C25.54 121.31, 16.5 114.58, 10.84 106.07 C5.18 97.56, 2.44 85.58, 1.15 75.48 C-0.13 65.38, -0.56 54.62, 3.14 45.49 C6.85 36.35, 15.56 27.5, 23.38 20.67 C31.2 13.83, 39.93 7.93, 50.08 4.48 C60.22 1.02, 78.59 0.59, 84.26 -0.05 C89.94 -0.68, 84.53 -0.66, 84.11 0.66" stroke="#1e1e1e" stroke-width="1" fill="none"></path></g><g transform="translate(921.8832985522913 321.8885311530721) rotate(0 29.31640625 10)"><text x="29.31640625" y="0" font-family="Virgil, Segoe UI Emoji" font-size="16px" fill="#1e1e1e" text-anchor="middle" style="white-space: pre;" direction="ltr" dominant-baseline="text-before-edge">Database</text></g><g stroke-linecap="round" transform="translate(10 318.4092019337422) rotate(0 47.796875 39.849609375)"><path d="M2.83 7.76 C2.83 7.76, 2.83 7.76, 2.83 7.76 M2.83 7.76 C2.83 7.76, 2.83 7.76, 2.83 7.76 M1.25 15.66 C4.3 12.32, 6.58 7.09, 10.44 5.1 M1.25 15.66 C5.01 11.58, 7.49 8.04, 10.44 5.1 M0.99 22.06 C10.04 14.73, 15.34 4.53, 20.02 0.17 M0.99 22.06 C6.52 13.78, 13.16 7.25, 20.02 0.17 M0.73 28.46 C4.88 20.84, 11.93 14.58, 25.66 -0.22 M0.73 28.46 C5.61 22.07, 10.6 16.13, 25.66 -0.22 M1.12 34.1 C7.42 27.35, 11.85 20.59, 30.65 0.14 M1.12 34.1 C10.04 22.72, 19.11 12, 30.65 0.14 M0.86 40.5 C10.56 33.46, 14.7 24.09, 35.63 0.5 M0.86 40.5 C7.24 32.31, 15.29 24.94, 35.63 0.5 M1.26 46.14 C13.99 33.29, 26.77 20.16, 41.28 0.11 M1.26 46.14 C11.86 35.48, 19.88 25.21, 41.28 0.11 M1 52.54 C16.83 33.48, 35.21 14.7, 46.26 0.47 M1 52.54 C14.32 35.13, 28.8 18.21, 46.26 0.47 M0.73 58.94 C20.2 36.27, 39.76 17.41, 51.91 0.07 M0.73 58.94 C10.46 47.02, 22.68 35.02, 51.91 0.07 M1.13 64.58 C17.78 46.09, 32.82 27.39, 56.89 0.43 M1.13 64.58 C22.7 38.4, 45.84 14.22, 56.89 0.43 M2.84 68.72 C18.85 51.89, 34.92 33.04, 62.54 0.04 M2.84 68.72 C25.2 42.23, 47.72 16.83, 62.54 0.04 M4.54 72.85 C26.13 48.46, 46.4 25.78, 67.52 0.4 M4.54 72.85 C26.91 47.91, 47.77 21.9, 67.52 0.4 M6.9 76.23 C26.51 56.92, 41.64 35.41, 72.51 0.76 M6.9 76.23 C28 52.37, 47.14 29.74, 72.51 0.76 M10.58 78.1 C25.44 60.83, 42.23 44.56, 78.15 0.36 M10.58 78.1 C36.15 48.75, 61.32 19.43, 78.15 0.36 M14.25 79.97 C27.65 64.52, 42.99 47.3, 81.83 2.23 M14.25 79.97 C29.75 63.27, 44.3 46.38, 81.83 2.23 M17.93 81.84 C42.41 51.64, 72.07 21.76, 86.16 3.35 M17.93 81.84 C43.14 50.89, 70.88 21.11, 86.16 3.35 M23.57 81.44 C50.48 50.19, 77.06 22.31, 89.83 5.22 M23.57 81.44 C47 53.98, 72.33 25.04, 89.83 5.22 M28.56 81.8 C41 66.81, 56.96 50.92, 93.51 7.09 M28.56 81.8 C52.05 55.63, 73.46 30.07, 93.51 7.09 M33.55 82.16 C48.67 64.16, 61.06 51.65, 94.56 11.97 M33.55 82.16 C47.06 66.94, 58.56 52.27, 94.56 11.97 M39.19 81.77 C51.47 67.32, 64.84 53.02, 95.61 16.86 M39.19 81.77 C55.03 62.79, 73.12 44.53, 95.61 16.86 M44.18 82.13 C62.13 62.56, 82.57 40.2, 97.32 21 M44.18 82.13 C58.06 65.89, 70.97 51.31, 97.32 21 M49.82 81.73 C61.53 67.75, 78.44 51.53, 97.06 27.39 M49.82 81.73 C67.33 61.17, 85.28 40.24, 97.06 27.39 M54.81 82.09 C70.32 61.73, 87.88 44.03, 96.79 33.79 M54.81 82.09 C64.54 71.59, 73.79 60.54, 96.79 33.79 M60.45 81.7 C70.88 72.5, 77.04 63.56, 97.19 39.43 M60.45 81.7 C67.59 72.38, 75.81 65.12, 97.19 39.43 M65.44 82.06 C76.8 67.72, 89.33 54.35, 96.93 45.83 M65.44 82.06 C76.87 69.83, 86.65 57.72, 96.93 45.83 M71.08 81.66 C82.75 72.15, 91.18 56.94, 96.67 52.23 M71.08 81.66 C78.75 73.19, 87.11 63.8, 96.67 52.23 M76.72 81.27 C83.5 75.91, 87.95 66.07, 97.06 57.87 M76.72 81.27 C83.33 73.07, 91.21 63.94, 97.06 57.87 M84.33 78.61 C86.72 76.43, 90.23 70.93, 96.14 65.03 M84.33 78.61 C86.34 76.49, 88.85 72.13, 96.14 65.03" stroke="#ffffff" stroke-width="0.5" fill="none"></path><path d="M19.92 0 C32.44 -2.08, 41.34 -0.07, 75.67 0 M19.92 0 C33.57 0.9, 48.98 -0.35, 75.67 0 M75.67 0 C88.31 -0.14, 93.94 6.13, 95.59 19.92 M75.67 0 C88.96 1.99, 96.74 7.61, 95.59 19.92 M95.59 19.92 C94.96 32.17, 95.77 45.5, 95.59 59.77 M95.59 19.92 C96.3 31.32, 95.28 42.08, 95.59 59.77 M95.59 59.77 C94.79 73.5, 90.57 77.98, 75.67 79.7 M95.59 59.77 C94.52 72.15, 87.98 81.45, 75.67 79.7 M75.67 79.7 C54.61 79.72, 36.72 80.05, 19.92 79.7 M75.67 79.7 C57.36 80, 37.35 79.51, 19.92 79.7 M19.92 79.7 C5.62 81.11, 0.89 72.03, 0 59.77 M19.92 79.7 C5.02 78.99, 2.08 73.9, 0 59.77 M0 59.77 C-0.79 49.42, -1.66 36.08, 0 19.92 M0 59.77 C0.55 46.6, 0.87 32.43, 0 19.92 M0 19.92 C-0.72 6.25, 5.09 1.92, 19.92 0 M0 19.92 C-0.44 4.36, 6.48 -0.42, 19.92 0" stroke="#1e1e1e" stroke-width="1" fill="none"></path></g><g transform="translate(38.2421875 348.2588113087422) rotate(0 19.5546875 10)"><text x="19.5546875" y="0" font-family="Virgil, Segoe UI Emoji" font-size="16px" fill="#1e1e1e" text-anchor="middle" style="white-space: pre;" direction="ltr" dominant-baseline="text-before-edge">Client</text></g><g transform="translate(1045.6030527357998 269.1925099004002) rotate(0 135.12791442871094 60)"><text x="0" y="0" font-family="Virgil, Segoe UI Emoji" font-size="16px" fill="#1e1e1e" text-anchor="start" style="white-space: pre;" direction="ltr" dominant-baseline="text-before-edge">Urls</text><text x="0" y="20" font-family="Virgil, Segoe UI Emoji" font-size="16px" fill="#1e1e1e" text-anchor="start" style="white-space: pre;" direction="ltr" dominant-baseline="text-before-edge">- short url code (or custom alias)</text><text x="0" y="40" font-family="Virgil, Segoe UI Emoji" font-size="16px" fill="#1e1e1e" text-anchor="start" style="white-space: pre;" direction="ltr" dominant-baseline="text-before-edge">- original url</text><text x="0" y="60" font-family="Virgil, Segoe UI Emoji" font-size="16px" fill="#1e1e1e" text-anchor="start" style="white-space: pre;" direction="ltr" dominant-baseline="text-before-edge">- creationTime</text><text x="0" y="80" font-family="Virgil, Segoe UI Emoji" font-size="16px" fill="#1e1e1e" text-anchor="start" style="white-space: pre;" direction="ltr" dominant-baseline="text-before-edge">- expirationTime?</text><text x="0" y="100" font-family="Virgil, Segoe UI Emoji" font-size="16px" fill="#1e1e1e" text-anchor="start" style="white-space: pre;" direction="ltr" dominant-baseline="text-before-edge">- createdBy</text></g><g stroke-linecap="round" transform="translate(744.2481135440028 509.80130270476457) rotate(0 54.200948158237395 51.960353192002344)"><path d="M17.07 13.51 C17.07 13.51, 17.07 13.51, 17.07 13.51 M17.07 13.51 C17.07 13.51, 17.07 13.51, 17.07 13.51 M3.03 35.76 C7.31 31.52, 11.85 25.03, 26.64 8.59 M3.03 35.76 C11.1 27.04, 18.54 19.29, 26.64 8.59 M2.76 42.15 C14.53 25.31, 30.65 12.76, 36.22 3.66 M2.76 42.15 C14.64 27.85, 29.45 13.24, 36.22 3.66 M2.5 48.55 C12.32 35.66, 24.33 24.55, 43.84 1 M2.5 48.55 C16.89 32.19, 31.41 15.06, 43.84 1 M2.24 54.95 C12.58 42.59, 21.78 29.38, 48.82 1.37 M2.24 54.95 C11.54 43.4, 21.05 32.93, 48.82 1.37 M2.64 60.59 C13.44 46.74, 28.52 31.29, 53.81 1.73 M2.64 60.59 C13.94 46.71, 26.03 33.48, 53.81 1.73 M3.69 65.48 C15.45 50.09, 29.26 34.46, 59.45 1.33 M3.69 65.48 C17.14 51.63, 29.92 35.31, 59.45 1.33 M5.39 69.61 C19.36 55.96, 29.8 38.21, 64.44 1.69 M5.39 69.61 C20.5 51.53, 37.49 32.68, 64.44 1.69 M7.1 73.75 C22.77 57.3, 34.86 43.61, 69.43 2.05 M7.1 73.75 C27.43 49.56, 49.41 26.97, 69.43 2.05 M9.46 77.13 C30.06 56.85, 45.73 34.87, 73.1 3.92 M9.46 77.13 C24.92 61.24, 37.89 44.11, 73.1 3.92 M11.17 81.26 C31.65 56.51, 54.38 35.48, 76.78 5.79 M11.17 81.26 C28.88 63, 44.23 42.5, 76.78 5.79 M12.88 85.39 C28.68 67.13, 43.48 52.19, 80.45 7.66 M12.88 85.39 C38.02 56.87, 61.89 28.8, 80.45 7.66 M15.24 88.77 C33.88 67.81, 53.26 45.76, 83.47 10.28 M15.24 88.77 C38.25 60.51, 61.67 33.22, 83.47 10.28 M18.91 90.64 C44.15 59.34, 70.32 31.15, 87.14 12.15 M18.91 90.64 C32.26 74.61, 46.79 57.65, 87.14 12.15 M22.59 92.51 C42.29 72.68, 60.04 53.39, 90.16 14.78 M22.59 92.51 C36.79 75.92, 51.79 56.71, 90.16 14.78 M25.61 95.14 C52.38 64.73, 79.06 32.76, 93.84 16.65 M25.61 95.14 C40.2 78.43, 56.32 59.43, 93.84 16.65 M29.28 97.01 C45.5 80.53, 58.91 67.69, 96.2 20.03 M29.28 97.01 C49.58 75.44, 69.37 53.87, 96.2 20.03 M32.96 98.88 C57.78 73.56, 81.57 45.69, 97.91 24.16 M32.96 98.88 C50.93 78.46, 67.57 58.23, 97.91 24.16 M35.98 101.5 C53.31 83.43, 69.02 64.63, 100.27 27.54 M35.98 101.5 C49.57 84.93, 63.67 68.13, 100.27 27.54 M40.31 102.61 C63.39 77.44, 85.23 46.84, 102.63 30.92 M40.31 102.61 C62.55 75.53, 85.3 50.61, 102.63 30.92 M45.95 102.22 C64.47 82.1, 79.9 61.98, 104.34 35.05 M45.95 102.22 C65.31 82.14, 82.7 61.85, 104.34 35.05 M50.94 102.58 C64.21 89.26, 74.43 72.63, 106.7 38.43 M50.94 102.58 C71.19 79.36, 92.22 56.01, 106.7 38.43 M55.92 102.94 C72.54 87.06, 87.76 66.81, 107.75 43.32 M55.92 102.94 C70.23 85.8, 86.06 70.44, 107.75 43.32 M61.57 102.55 C73.81 89.15, 84.02 77.27, 107.49 49.72 M61.57 102.55 C72.9 89.57, 83.83 75.05, 107.49 49.72 M67.87 101.4 C79.35 88.32, 89.91 71.9, 107.23 56.11 M67.87 101.4 C79.2 89.68, 90.79 77.13, 107.23 56.11 M76.79 97.23 C87.77 84.94, 99.74 70.94, 106.97 62.51 M76.79 97.23 C83.06 89.49, 91.28 82.25, 106.97 62.51 M86.37 92.31 C91.02 85.25, 95.18 81.33, 102.12 74.19 M86.37 92.31 C92.23 86.07, 96.55 81.52, 102.12 74.19" stroke="#ffffff" stroke-width="0.5" fill="none"></path><path d="M42.15 0.88 C50.22 -1.9, 61.92 -1.06, 70.56 1.62 C79.21 4.3, 87.76 10.34, 94 16.96 C100.24 23.58, 105.97 32.88, 108.01 41.34 C110.06 49.81, 109 59.68, 106.27 67.75 C103.54 75.81, 98.48 83.91, 91.65 89.75 C84.82 95.59, 74.29 100.72, 65.29 102.79 C56.29 104.86, 46.22 104.76, 37.67 102.17 C29.11 99.58, 19.88 93.65, 13.96 87.23 C8.05 80.82, 4.08 72.24, 2.2 63.67 C0.33 55.1, 0.19 44.21, 2.71 35.79 C5.24 27.37, 9.75 18.93, 17.37 13.16 C24.99 7.38, 42.49 3.22, 48.43 1.13 C54.38 -0.97, 53.03 -0.08, 53.03 0.57 M73.35 2.86 C81.51 5.11, 91.26 13.43, 97.1 20.48 C102.94 27.54, 107.1 36.81, 108.39 45.2 C109.69 53.59, 108.12 62.78, 104.87 70.83 C101.61 78.88, 96.06 88.09, 88.86 93.51 C81.65 98.93, 70.91 102.07, 61.65 103.36 C52.39 104.65, 41.52 104.6, 33.29 101.26 C25.06 97.91, 17.9 90.37, 12.26 83.31 C6.63 76.25, 0.66 67.24, -0.51 58.89 C-1.68 50.54, 1.76 41.06, 5.24 33.2 C8.72 25.33, 13.39 17.24, 20.35 11.72 C27.31 6.2, 37.9 1.58, 46.98 0.06 C56.07 -1.46, 70.56 1.72, 74.85 2.6 C79.14 3.48, 73.32 4.59, 72.71 5.35" stroke="#1e1e1e" stroke-width="1" fill="none"></path></g><g transform="translate(777.74429746281 541.5201378018539) rotate(0 20.87890625 20)"><text x="20.87890625" y="0" font-family="Virgil, Segoe UI Emoji" font-size="16px" fill="#1e1e1e" text-anchor="middle" style="white-space: pre;" direction="ltr" dominant-baseline="text-before-edge">Cache</text><text x="20.87890625" y="20" font-family="Virgil, Segoe UI Emoji" font-size="16px" fill="#1e1e1e" text-anchor="middle" style="white-space: pre;" direction="ltr" dominant-baseline="text-before-edge">(redis)</text></g><g transform="translate(735.2997228255736 629.4597989140411) rotate(0 69.73595428466797 20)"><text x="0" y="0" font-family="Virgil, Segoe UI Emoji" font-size="16px" fill="#1e1e1e" text-anchor="start" style="white-space: pre;" direction="ltr" dominant-baseline="text-before-edge">key: short_code</text><text x="0" y="20" font-family="Virgil, Segoe UI Emoji" font-size="16px" fill="#1e1e1e" text-anchor="start" style="white-space: pre;" direction="ltr" dominant-baseline="text-before-edge">value: original_url</text></g><g stroke-linecap="round"><g transform="translate(707.8341411993886 453.89608666920503) rotate(0 21.52008237107907 30.342420546802032)"><path d="M-0.39 -0.08 C6.44 10.07, 34.81 50.08, 42.05 60.38 M1.61 -1.17 C8.71 9.21, 37.46 51.57, 44.24 61.76" stroke="#1e1e1e" stroke-width="1" fill="none"></path></g><g transform="translate(707.8341411993886 453.89608666920503) rotate(0 21.52008237107907 30.342420546802032)"><path d="M24.19 17.12 C14.56 8.69, 4.62 3.65, -0.39 -0.08 M24.19 17.12 C14.64 11.51, 4.49 3.42, -0.39 -0.08" stroke="#1e1e1e" stroke-width="1" fill="none"></path></g><g transform="translate(707.8341411993886 453.89608666920503) rotate(0 21.52008237107907 30.342420546802032)"><path d="M7.38 28.89 C4.35 15.93, 0.95 6.31, -0.39 -0.08 M7.38 28.89 C4.27 18.66, 0.62 6.02, -0.39 -0.08" stroke="#1e1e1e" stroke-width="1" fill="none"></path></g><g transform="translate(707.8341411993886 453.89608666920503) rotate(0 21.52008237107907 30.342420546802032)"><path d="M19.99 44.1 C29.22 49.41, 38.29 57.94, 44.24 61.76 M19.99 44.1 C29.48 51.76, 38.22 57.14, 44.24 61.76" stroke="#1e1e1e" stroke-width="1" fill="none"></path></g><g transform="translate(707.8341411993886 453.89608666920503) rotate(0 21.52008237107907 30.342420546802032)"><path d="M37.01 32.64 C39.56 42.35, 42 55.36, 44.24 61.76 M37.01 32.64 C39.98 44.8, 42.13 54.62, 44.24 61.76" stroke="#1e1e1e" stroke-width="1" fill="none"></path></g></g><mask></mask><g stroke-linecap="round" transform="translate(225.4699412681482 216.42850897036533) rotate(0 70.55192890559067 149.81909608775447)"><path d="M7.86 8.16 C7.86 8.16, 7.86 8.16, 7.86 8.16 M7.86 8.16 C7.86 8.16, 7.86 8.16, 7.86 8.16 M2.35 20.59 C10.14 14.74, 14.14 6.04, 18.1 2.48 M2.35 20.59 C6.79 13.61, 12.33 8.36, 18.1 2.48 M1.43 27.75 C5.11 20.65, 11.7 14.92, 24.4 1.33 M1.43 27.75 C5.89 21.8, 10.47 16.33, 24.4 1.33 M1.17 34.14 C7.47 27.39, 11.9 20.63, 30.7 0.18 M1.17 34.14 C10.09 22.76, 19.16 12.05, 30.7 0.18 M0.91 40.54 C10.75 33.34, 15.04 23.81, 36.34 -0.21 M0.91 40.54 C7.42 32.2, 15.61 24.67, 36.34 -0.21 M1.31 46.19 C14.04 33.33, 26.82 20.21, 41.33 0.15 M1.31 46.19 C11.91 35.53, 19.93 25.26, 41.33 0.15 M1.04 52.58 C16.88 33.52, 35.26 14.74, 46.31 0.51 M1.04 52.58 C14.37 35.18, 28.85 18.25, 46.31 0.51 M0.78 58.98 C20.25 36.31, 39.81 17.45, 51.96 0.11 M0.78 58.98 C10.51 47.06, 22.73 35.06, 51.96 0.11 M1.18 64.62 C17.82 46.13, 32.87 27.44, 56.94 0.47 M1.18 64.62 C22.75 38.45, 45.89 14.26, 56.94 0.47 M0.92 71.02 C17.45 53.64, 34.02 34.21, 62.59 0.08 M0.92 71.02 C24 43.68, 47.24 17.45, 62.59 0.08 M1.31 76.67 C23.99 51.05, 45.34 27.14, 67.57 0.44 M1.31 76.67 C24.81 50.42, 46.79 23.11, 67.57 0.44 M1.05 83.06 C22.42 61.75, 39.26 38.28, 73.22 0.04 M1.05 83.06 C24.18 56.89, 45.38 31.9, 73.22 0.04 M0.79 89.46 C17.82 69.72, 36.78 50.95, 78.2 0.41 M0.79 89.46 C30.06 55.81, 59.03 22.12, 78.2 0.41 M1.18 95.1 C17.84 75.94, 36.29 55.16, 83.19 0.77 M1.18 95.1 C19.88 74.78, 37.69 54.14, 83.19 0.77 M0.92 101.5 C33.01 62.91, 70.12 24.45, 88.83 0.37 M0.92 101.5 C33.62 61.77, 69.02 23.18, 88.83 0.37 M0.66 107.9 C37.99 64.17, 75.26 23.99, 93.82 0.73 M0.66 107.9 C33.88 69, 69.23 28.54, 93.82 0.73 M1.05 113.54 C20.53 90.62, 43.54 66.62, 99.46 0.34 M1.05 113.54 C36.23 74.25, 69.26 35.33, 99.46 0.34 M0.79 119.94 C25.68 90.6, 47.64 67.08, 104.45 0.7 M0.79 119.94 C23.47 94.43, 43.65 69.78, 104.45 0.7 M1.19 125.58 C24.49 98.01, 49.3 70.55, 110.09 0.3 M1.19 125.58 C32.47 89.11, 65.75 53.37, 110.09 0.3 M0.93 131.98 C40.18 87.95, 82.33 40.62, 115.08 0.66 M0.93 131.98 C30.7 97.66, 58.96 65.42, 115.08 0.66 M0.66 138.38 C32.83 100.25, 70.8 59.81, 119.41 1.78 M0.66 138.38 C45.67 87, 90.55 35.08, 119.41 1.78 M1.06 144.02 C47.89 87.41, 97.26 33.12, 123.74 2.89 M1.06 144.02 C28.74 112.43, 56.65 79.91, 123.74 2.89 M0.8 150.42 C32.18 117.72, 58.69 85.37, 127.42 4.76 M0.8 150.42 C26.89 120.31, 53.36 92.06, 127.42 4.76 M0.54 156.82 C49.41 98.03, 100.02 40.87, 131.09 6.63 M0.54 156.82 C46.3 106.45, 89.85 55.51, 131.09 6.63 M0.93 162.46 C53.69 104.35, 104.45 41.03, 134.11 9.25 M0.93 162.46 C40.62 117.18, 80.7 71.27, 134.11 9.25 M0.67 168.86 C42.56 122.73, 83.36 71.6, 136.47 12.63 M0.67 168.86 C48.21 113.26, 97.72 56.25, 136.47 12.63 M1.06 174.5 C35.16 134.76, 71.4 91.66, 138.18 16.77 M1.06 174.5 C30.07 142.56, 59.41 107.37, 138.18 16.77 M0.8 180.9 C28.58 146.74, 57.02 114.69, 139.89 20.9 M0.8 180.9 C49.29 123.79, 99.6 67.79, 139.89 20.9 M0.54 187.3 C41.84 140.15, 82.35 93.39, 140.28 26.54 M0.54 187.3 C34.8 148.52, 70.33 107.28, 140.28 26.54 M0.94 192.94 C34.27 154.63, 68.74 114.65, 141.33 31.43 M0.94 192.94 C51.23 134.46, 103.13 73.22, 141.33 31.43 M0.67 199.34 C37.63 158.28, 72.91 116.28, 141.73 37.08 M0.67 199.34 C47.41 145.78, 95.2 92.83, 141.73 37.08 M1.07 204.98 C34.14 168.25, 63.35 132.87, 141.47 43.47 M1.07 204.98 C48.48 151.86, 94.84 97.88, 141.47 43.47 M0.81 211.38 C41.43 165.04, 79.75 121.26, 141.86 49.12 M0.81 211.38 C46.52 159.64, 90.06 108.47, 141.86 49.12 M0.55 217.78 C46.06 165.42, 93.59 111.36, 141.6 55.51 M0.55 217.78 C52.57 159.07, 103.08 100.81, 141.6 55.51 M0.94 223.42 C28.31 191.03, 58.95 156.69, 141.99 61.16 M0.94 223.42 C40.45 175.62, 81.39 128.89, 141.99 61.16 M0.68 229.82 C45.66 179.8, 93.36 125.21, 141.73 67.55 M0.68 229.82 C34.89 190.06, 70.76 149.43, 141.73 67.55 M0.42 236.22 C40.35 189.06, 80.7 144.79, 141.47 73.95 M0.42 236.22 C40.22 191.58, 80.26 146.69, 141.47 73.95 M0.81 241.86 C53.49 181.21, 103.38 123.52, 141.86 79.6 M0.81 241.86 C51.31 184.52, 103.28 124.66, 141.86 79.6 M0.55 248.26 C29.37 214.05, 59.36 179.18, 141.6 85.99 M0.55 248.26 C49.62 193.19, 97.33 138.26, 141.6 85.99 M0.95 253.9 C32.43 213.75, 65.65 174.76, 142 91.64 M0.95 253.9 C53.69 192.53, 108.09 130.5, 142 91.64 M0.68 260.3 C47.83 206.79, 92.63 154.62, 141.74 98.03 M0.68 260.3 C40.03 215.23, 78.84 172.04, 141.74 98.03 M0.42 266.69 C37.53 226.05, 72.51 182.34, 141.47 104.43 M0.42 266.69 C46.89 213.52, 93.05 161.21, 141.47 104.43 M0.82 272.34 C31.89 238.17, 64.67 201.23, 141.87 110.08 M0.82 272.34 C40.54 226.05, 79.73 181.12, 141.87 110.08 M1.87 277.23 C30.62 245.27, 57.19 212.9, 141.61 116.47 M1.87 277.23 C50.48 221.55, 97.69 165.37, 141.61 116.47 M2.26 282.87 C45.26 235.16, 87.19 184.97, 142 122.12 M2.26 282.87 C48.92 230.67, 96.45 176.9, 142 122.12 M3.97 287 C54.57 229.52, 105.97 170.06, 141.74 128.51 M3.97 287 C50.26 234.02, 96.53 181.1, 141.74 128.51 M6.99 289.63 C42.22 247.93, 79.08 207.45, 141.48 134.91 M6.99 289.63 C35.34 257.94, 62.76 224.42, 141.48 134.91 M10.01 292.25 C53.81 243.54, 95.73 194.54, 141.87 140.55 M10.01 292.25 C48.22 249.8, 86.16 206.49, 141.87 140.55 M12.37 295.63 C61.61 235.56, 112.44 176.8, 141.61 146.95 M12.37 295.63 C44.41 260.81, 74.9 223.84, 141.61 146.95 M16.7 296.75 C56.49 249.59, 98.05 201.34, 142.01 152.6 M16.7 296.75 C64.53 242.24, 110.72 187.74, 142.01 152.6 M21.03 297.86 C51.72 259.61, 83.03 225.35, 141.75 158.99 M21.03 297.86 C65.26 247.12, 108.93 196.9, 141.75 158.99 M24.71 299.73 C66.17 253.15, 108.24 204.62, 141.48 165.39 M24.71 299.73 C54.78 263.76, 86.98 227.23, 141.48 165.39 M30.35 299.33 C55.4 269.43, 81.38 242.4, 141.88 171.03 M30.35 299.33 C61.66 263.7, 91.44 227.61, 141.88 171.03 M35.34 299.69 C64.57 269.07, 91.02 236.85, 141.62 177.43 M35.34 299.69 C77.53 249.98, 119.65 203.16, 141.62 177.43 M40.98 299.3 C78.65 255.64, 114.31 216.03, 142.01 183.08 M40.98 299.3 C71.31 264.36, 103.11 227.65, 142.01 183.08 M45.97 299.66 C78.44 257.47, 115.39 217.43, 141.75 189.47 M45.97 299.66 C72.76 267.66, 100.29 237.22, 141.75 189.47 M50.95 300.02 C80.46 264.72, 109.25 232.52, 141.49 195.87 M50.95 300.02 C77.56 270.28, 104.22 240.36, 141.49 195.87 M56.6 299.63 C86.36 265.39, 114.98 230.38, 141.88 201.51 M56.6 299.63 C75.92 276.97, 96.45 253.05, 141.88 201.51 M61.58 299.99 C83.53 276.43, 101.93 250.77, 141.62 207.91 M61.58 299.99 C87.06 272.08, 111.25 243.96, 141.62 207.91 M67.23 299.59 C88.92 274.68, 107.74 253.14, 142.02 213.55 M67.23 299.59 C84.45 279.52, 101.65 259.27, 142.02 213.55 M72.21 299.95 C92.28 279.15, 114.15 254.92, 141.76 219.95 M72.21 299.95 C98.7 268.14, 127.14 237.4, 141.76 219.95 M77.86 299.56 C91.08 283.12, 106.72 265.57, 141.49 226.35 M77.86 299.56 C95.06 279.43, 112.32 261.41, 141.49 226.35 M82.84 299.92 C98.9 283.81, 114.52 264.23, 141.89 231.99 M82.84 299.92 C105.48 273.77, 128.87 246.27, 141.89 231.99 M88.49 299.52 C105.63 280.01, 120.56 263.19, 141.63 238.39 M88.49 299.52 C107.68 277.58, 128.78 254.26, 141.63 238.39 M93.47 299.88 C114.18 277.12, 131.47 256.61, 142.02 244.03 M93.47 299.88 C105.81 284.51, 120.07 269.21, 142.02 244.03 M98.46 300.24 C110.5 287.49, 123.02 272.63, 141.76 250.43 M98.46 300.24 C108.53 290.48, 117.71 279.21, 141.76 250.43 M104.1 299.85 C118.51 284.61, 133.1 267.03, 141.5 256.83 M104.1 299.85 C113.73 287.92, 125.83 275.63, 141.5 256.83 M109.09 300.21 C116.81 290.24, 126.58 279.37, 141.89 262.47 M109.09 300.21 C118.6 290.17, 126.45 278.73, 141.89 262.47 M115.39 299.06 C122.88 287.24, 132.26 276.3, 140.98 269.63 M115.39 299.06 C123.14 290.07, 133.3 279.75, 140.98 269.63 M121.69 297.91 C128.15 292.67, 134.62 282.81, 141.37 275.27 M121.69 297.91 C127.02 292.24, 133.06 286.32, 141.37 275.27 M131.27 292.99 C132.32 291, 134.45 288.7, 137.83 285.44 M131.27 292.99 C132.56 290.9, 134.61 289.08, 137.83 285.44" stroke="#ffffff" stroke-width="0.5" fill="none"></path><path d="M32 0 C52.14 0.65, 75.03 1.63, 109.1 0 M32 0 C57.75 -1.23, 84.81 -0.82, 109.1 0 M109.1 0 C131.83 -0.36, 141.64 12.56, 141.1 32 M109.1 0 C131.8 0.38, 140.14 9.94, 141.1 32 M141.1 32 C140.1 92.39, 140.88 153.64, 141.1 267.64 M141.1 32 C141.67 120.16, 142.4 209.64, 141.1 267.64 M141.1 267.64 C141.83 289.81, 130.9 299.04, 109.1 299.64 M141.1 267.64 C142.87 290.05, 130.03 299.59, 109.1 299.64 M109.1 299.64 C88.87 298.57, 70.07 301.79, 32 299.64 M109.1 299.64 C83.48 299.64, 57.53 299.2, 32 299.64 M32 299.64 C9.02 300.52, -1.51 287.09, 0 267.64 M32 299.64 C11.23 300.87, 1.31 289.14, 0 267.64 M0 267.64 C2 205.15, -1.28 143.19, 0 32 M0 267.64 C-0.82 200.58, -1.13 135.66, 0 32 M0 32 C-0.82 12.46, 9.31 1.15, 32 0 M0 32 C0.34 9.33, 12.02 1.12, 32 0" stroke="#1e1e1e" stroke-width="1" fill="none"></path></g><g transform="translate(240.49452642373888 336.2476050581198) rotate(0 55.52734375 30)"><text x="55.52734375" y="0" font-family="Virgil, Segoe UI Emoji" font-size="16px" fill="#1e1e1e" text-anchor="middle" style="white-space: pre;" direction="ltr" dominant-baseline="text-before-edge">API Gateway</text><text x="55.52734375" y="20" font-family="Virgil, Segoe UI Emoji" font-size="16px" fill="#1e1e1e" text-anchor="middle" style="white-space: pre;" direction="ltr" dominant-baseline="text-before-edge">- route to correct </text><text x="55.52734375" y="40" font-family="Virgil, Segoe UI Emoji" font-size="16px" fill="#1e1e1e" text-anchor="middle" style="white-space: pre;" direction="ltr" dominant-baseline="text-before-edge">microservice</text></g><g stroke-linecap="round"><g transform="translate(379.98006448604275 336.2315596935923) rotate(0 44.44818151540582 -33.01671729121199)"><path d="M0.6 0.5 C15.42 -10.49, 74.34 -53.72, 88.94 -64.91 M-0.55 -0.28 C14.12 -11.06, 72.81 -55.55, 88.01 -66.45" stroke="#1e1e1e" stroke-width="1" fill="none"></path></g><g transform="translate(379.98006448604275 336.2315596935923) rotate(0 44.44818151540582 -33.01671729121199)"><path d="M17.19 -24.49 C13.26 -16.83, 9.3 -10.61, 0.6 0.5 M17.19 -24.49 C13.76 -18.45, 9.2 -11.09, 0.6 0.5" stroke="#1e1e1e" stroke-width="1" fill="none"></path></g><g transform="translate(379.98006448604275 336.2315596935923) rotate(0 44.44818151540582 -33.01671729121199)"><path d="M29.37 -7.98 C21.64 -5.22, 14.02 -3.96, 0.6 0.5 M29.37 -7.98 C22.9 -6.07, 15.29 -2.83, 0.6 0.5" stroke="#1e1e1e" stroke-width="1" fill="none"></path></g><g transform="translate(379.98006448604275 336.2315596935923) rotate(0 44.44818151540582 -33.01671729121199)"><path d="M71.45 -41.43 C77.05 -48.96, 83.06 -57.77, 88.01 -66.45 M71.45 -41.43 C76.26 -47.84, 79.96 -52.95, 88.01 -66.45" stroke="#1e1e1e" stroke-width="1" fill="none"></path></g><g transform="translate(379.98006448604275 336.2315596935923) rotate(0 44.44818151540582 -33.01671729121199)"><path d="M59.25 -57.93 C68.66 -60.56, 78.33 -64.42, 88.01 -66.45 M59.25 -57.93 C67.11 -60.21, 73.86 -61.2, 88.01 -66.45" stroke="#1e1e1e" stroke-width="1" fill="none"></path></g></g><mask></mask><g stroke-linecap="round" transform="translate(533.324425494658 10) rotate(0 58.49561613722295 52.99495510341964)"><path d="M15.72 17.64 C15.72 17.64, 15.72 17.64, 15.72 17.64 M15.72 17.64 C15.72 17.64, 15.72 17.64, 15.72 17.64 M2.34 39.13 C10.48 26.48, 22.99 18.08, 26.61 11.21 M2.34 39.13 C10.71 28.92, 21.96 18.4, 26.61 11.21 M1.42 46.28 C9.76 35.19, 20.24 25.85, 36.85 5.53 M1.42 46.28 C13.66 32.27, 26.11 17.55, 36.85 5.53 M1.81 51.93 C11.07 40.73, 19.24 28.71, 43.8 3.63 M1.81 51.93 C10.13 41.45, 18.68 32.07, 43.8 3.63 M2.86 56.82 C12.53 44.29, 26.46 30.15, 49.44 3.23 M2.86 56.82 C13.07 44.14, 24.09 32.13, 49.44 3.23 M3.26 62.46 C14.08 48.24, 26.9 33.75, 55.09 2.84 M3.26 62.46 C15.78 49.66, 27.64 34.38, 55.09 2.84 M3.65 68.1 C17.2 54.95, 27.2 37.7, 60.73 2.44 M3.65 68.1 C18.25 50.63, 34.7 32.4, 60.73 2.44 M6.02 71.48 C21.25 55.52, 32.91 42.32, 66.37 2.05 M6.02 71.48 C25.68 48.03, 47.01 26.18, 66.37 2.05 M8.38 74.86 C28.78 54.81, 44.25 33.05, 71.36 2.41 M8.38 74.86 C23.69 59.14, 36.51 42.18, 71.36 2.41 M10.74 78.24 C31.01 53.72, 53.54 32.93, 75.69 3.52 M10.74 78.24 C28.28 60.17, 43.47 39.85, 75.69 3.52 M13.1 81.62 C28.63 63.68, 43.14 49.07, 79.37 5.39 M13.1 81.62 C37.78 53.63, 61.17 26.11, 79.37 5.39 M15.47 85 C33.93 64.24, 53.13 42.39, 83.04 7.26 M15.47 85 C38.26 57, 61.45 29.97, 83.04 7.26 M17.17 89.13 C42.9 57.25, 69.56 28.49, 86.72 9.13 M17.17 89.13 C30.79 72.79, 45.6 55.5, 86.72 9.13 M19.54 92.51 C40.1 71.68, 58.73 51.39, 90.39 11 M19.54 92.51 C34.46 75.07, 50.2 55.01, 90.39 11 M23.21 94.38 C51.05 62.75, 78.78 29.58, 94.07 12.87 M23.21 94.38 C38.37 76.99, 55.07 57.32, 94.07 12.87 M26.89 96.25 C43.94 78.88, 58.16 65.11, 97.74 14.74 M26.89 96.25 C48.35 73.39, 69.27 50.52, 97.74 14.74 M30.56 98.12 C57.27 70.6, 82.98 40.52, 100.76 17.36 M30.56 98.12 C49.99 76.03, 68.04 54.18, 100.76 17.36 M34.89 99.23 C53.22 80.04, 69.9 60.12, 103.12 20.74 M34.89 99.23 C49.34 81.67, 64.33 63.84, 103.12 20.74 M38.57 101.1 C63.36 73.96, 86.94 41.36, 105.49 24.12 M38.57 101.1 C62.48 72.09, 86.93 45.21, 105.49 24.12 M42.24 102.97 C62.86 80.43, 80.41 57.87, 107.85 27.5 M42.24 102.97 C63.87 80.37, 83.47 57.54, 107.85 27.5 M45.92 104.84 C61.07 89.31, 73.15 70.54, 110.21 30.88 M45.92 104.84 C69.32 78.02, 93.52 51.03, 110.21 30.88 M51.56 104.45 C70.91 85.44, 88.77 62.15, 112.57 34.26 M51.56 104.45 C68.48 84.39, 86.87 66.09, 112.57 34.26 M57.2 104.05 C72.36 87.44, 85.44 72.26, 114.28 38.39 M57.2 104.05 C71.31 87.78, 85.05 70.02, 114.28 38.39 M62.19 104.41 C77.6 86.63, 92.23 65.53, 114.67 44.03 M62.19 104.41 C77.25 88.63, 92.47 71.9, 114.67 44.03 M67.83 104.02 C85.1 84.58, 103.29 63.42, 115.07 49.68 M67.83 104.02 C77.89 91.82, 90 80.11, 115.07 49.68 M73.48 103.62 C85.22 87.83, 96.75 75.43, 114.81 56.08 M73.48 103.62 C87.5 87.92, 99.98 73.96, 114.81 56.08 M82.4 99.45 C87.56 90.83, 96.67 85.45, 115.2 61.72 M82.4 99.45 C90.53 89.73, 98.11 81.94, 115.2 61.72 M91.98 94.53 C97.57 87.17, 101.73 81, 111.66 71.89 M91.98 94.53 C95.52 88.89, 99.26 85.33, 111.66 71.89 M101.56 89.61 C101.92 89.04, 102.98 88.21, 103.53 87.34 M101.56 89.61 C102.12 89.06, 102.65 88.4, 103.53 87.34" stroke="#ffffff" stroke-width="0.5" fill="none"></path><path d="M40.78 3.15 C49.41 -0.07, 61.25 -0.37, 70.95 1.52 C80.64 3.41, 91.69 8.65, 98.94 14.5 C106.19 20.35, 111.71 28.36, 114.44 36.62 C117.17 44.87, 117.39 55.21, 115.3 64.04 C113.2 72.87, 108.54 83.08, 101.86 89.59 C95.19 96.09, 84.65 100.61, 75.25 103.06 C65.85 105.52, 54.72 106.05, 45.47 104.31 C36.22 102.58, 26.74 98.66, 19.76 92.65 C12.78 86.65, 6.73 76.77, 3.57 68.29 C0.41 59.8, -1.23 50.2, 0.8 41.75 C2.84 33.29, 7.31 24.42, 15.78 17.57 C24.25 10.72, 44.01 3.26, 51.61 0.65 C59.21 -1.96, 61.25 1.1, 61.38 1.91 M58.58 -0.77 C67.78 -1.87, 77.57 1.81, 86.17 6.37 C94.78 10.93, 105.14 18.8, 110.21 26.59 C115.29 34.37, 116.69 44.41, 116.64 53.07 C116.59 61.73, 114.59 71.16, 109.94 78.56 C105.29 85.97, 97.43 92.82, 88.75 97.5 C80.07 102.18, 67.87 106.61, 57.85 106.65 C47.83 106.69, 36.85 102.06, 28.62 97.74 C20.4 93.43, 13.13 88.11, 8.5 80.75 C3.87 73.4, 1.11 62.65, 0.86 53.64 C0.61 44.62, 2.55 34.14, 7 26.67 C11.46 19.2, 19.14 13.5, 27.57 8.81 C36.01 4.12, 52.58 -0.15, 57.62 -1.49 C62.66 -2.82, 57.63 -0.55, 57.81 0.79" stroke="#1e1e1e" stroke-width="1" fill="none"></path></g><g transform="translate(566.1839572915654 43.021862981114964) rotate(0 25.7734375 20)"><text x="25.7734375" y="0" font-family="Virgil, Segoe UI Emoji" font-size="16px" fill="#1e1e1e" text-anchor="middle" style="white-space: pre;" direction="ltr" dominant-baseline="text-before-edge">Global </text><text x="25.7734375" y="20" font-family="Virgil, Segoe UI Emoji" font-size="16px" fill="#1e1e1e" text-anchor="middle" style="white-space: pre;" direction="ltr" dominant-baseline="text-before-edge">Counter</text></g><g stroke-linecap="round"><g transform="translate(588.4219279811441 190.9635992708627) rotate(0 0.033390093470757165 -33.63676056639338)"><path d="M0.09 -0.12 C0.36 -11.27, 0.85 -56.49, 0.9 -67.49 M-1.32 -1.23 C-1.07 -12.14, 0.2 -54.96, 0.39 -66.07" stroke="#1e1e1e" stroke-width="1" fill="none"></path></g><g transform="translate(588.4219279811441 190.9635992708627) rotate(0 0.033390093470757165 -33.63676056639338)"><path d="M-9.8 -28.44 C-7.78 -20.3, -5.58 -14.39, 0.09 -0.12 M-9.8 -28.44 C-6.14 -17.59, -2.23 -5.87, 0.09 -0.12" stroke="#1e1e1e" stroke-width="1" fill="none"></path></g><g transform="translate(588.4219279811441 190.9635992708627) rotate(0 0.033390093470757165 -33.63676056639338)"><path d="M10.72 -28.17 C7.84 -20.08, 5.14 -14.23, 0.09 -0.12 M10.72 -28.17 C6.27 -17.4, 2.09 -5.78, 0.09 -0.12" stroke="#1e1e1e" stroke-width="1" fill="none"></path></g><g transform="translate(588.4219279811441 190.9635992708627) rotate(0 0.033390093470757165 -33.63676056639338)"><path d="M9.97 -37.64 C7.63 -43.03, 5.18 -50.67, 0.39 -66.07 M9.97 -37.64 C5.6 -49.16, 1.83 -59.85, 0.39 -66.07" stroke="#1e1e1e" stroke-width="1" fill="none"></path></g><g transform="translate(588.4219279811441 190.9635992708627) rotate(0 0.033390093470757165 -33.63676056639338)"><path d="M-10.54 -38.13 C-7.99 -43.42, -5.54 -50.95, 0.39 -66.07 M-10.54 -38.13 C-6.81 -49.49, -2.48 -59.98, 0.39 -66.07" stroke="#1e1e1e" stroke-width="1" fill="none"></path></g></g><mask></mask><g transform="translate(430.32233973156553 145.13515529967117) rotate(0 67.35196685791016 10)"><text x="0" y="0" font-family="Virgil, Segoe UI Emoji" font-size="16px" fill="#1e1e1e" text-anchor="start" style="white-space: pre;" direction="ltr" dominant-baseline="text-before-edge">get latest count</text></g><g stroke-linecap="round" transform="translate(479.69236929454905 372.3398783638104) rotate(0 111.69634031989852 65.56646866490883)"><path d="M7.86 8.16 C7.86 8.16, 7.86 8.16, 7.86 8.16 M7.86 8.16 C7.86 8.16, 7.86 8.16, 7.86 8.16 M3.66 19.09 C5.31 14.23, 9.89 10.81, 18.1 2.48 M3.66 19.09 C6.28 15.09, 9.1 11.64, 18.1 2.48 M2.75 26.24 C7.35 21.38, 10.1 16.56, 24.4 1.33 M2.75 26.24 C9.14 17.71, 15.68 9.9, 24.4 1.33 M2.48 32.64 C10.72 27.24, 13.41 19.55, 30.7 0.18 M2.48 32.64 C7.55 25.98, 14.22 20.2, 30.7 0.18 M2.88 38.28 C12.99 28.31, 23.2 18.14, 34.37 2.05 M2.88 38.28 C11.43 29.88, 17.47 21.89, 34.37 2.05 M2.62 44.68 C15.41 29.05, 30.75 13.77, 39.36 2.41 M2.62 44.68 C13.27 30.42, 25.04 16.63, 39.36 2.41 M2.36 51.07 C18.72 31.99, 35.16 16.7, 45 2.02 M2.36 51.07 C10.37 41.15, 20.8 31.2, 45 2.02 M2.75 56.72 C16.94 41, 29.59 25.06, 49.99 2.38 M2.75 56.72 C21.02 34.4, 40.76 14.12, 49.99 2.38 M2.49 63.11 C16.78 48.15, 31.19 31.21, 55.63 1.98 M2.49 63.11 C22.45 39.46, 42.55 16.85, 55.63 1.98 M2.88 68.76 C22.72 46.33, 41.27 25.64, 60.62 2.34 M2.88 68.76 C23.44 45.92, 42.49 21.98, 60.62 2.34 M2.62 75.16 C21.69 56.45, 36.32 35.52, 66.26 1.95 M2.62 75.16 C23.1 51.99, 41.63 30.07, 66.26 1.95 M2.36 81.55 C17.51 63.95, 34.59 47.35, 71.25 2.31 M2.36 81.55 C28.43 51.63, 54.11 21.73, 71.25 2.31 M2.76 87.2 C17.63 70.06, 34.39 51.22, 76.89 1.91 M2.76 87.2 C19.7 68.85, 35.74 50.26, 76.89 1.91 M2.49 93.59 C31.29 58.64, 65.17 23.9, 81.88 2.27 M2.49 93.59 C31.95 57.67, 64.03 22.9, 81.88 2.27 M2.89 99.24 C36.92 59.47, 70.79 23.19, 87.52 1.88 M2.89 99.24 C33 63.96, 65.17 27.16, 87.52 1.88 M1.32 107.14 C19.27 85.93, 40.76 63.68, 92.51 2.24 M1.32 107.14 C33.97 70.68, 64.49 34.64, 92.51 2.24 M2.37 112.03 C25.45 84.79, 45.64 63.3, 98.15 1.85 M2.37 112.03 C23.35 88.43, 41.93 65.61, 98.15 1.85 M4.07 116.17 C25.31 91.05, 47.97 66.06, 103.14 2.21 M4.07 116.17 C32.46 82.97, 62.89 50.51, 103.14 2.21 M5.78 120.3 C41.14 80.74, 79.32 37.98, 108.78 1.81 M5.78 120.3 C32.65 89.28, 58.1 60.27, 108.78 1.81 M8.8 122.92 C37.02 89.45, 70.93 53.67, 113.77 2.17 M8.8 122.92 C48.51 77.48, 88.2 31.54, 113.77 2.17 M11.82 125.55 C52.79 75.72, 96.22 28.27, 119.41 1.78 M11.82 125.55 C36.14 97.9, 60.57 69.39, 119.41 1.78 M14.84 128.17 C42.24 99.93, 64.89 72.03, 124.4 2.14 M14.84 128.17 C37.33 102.01, 60.34 77.74, 124.4 2.14 M18.51 130.04 C60.19 79.8, 103.48 31.04, 130.04 1.74 M18.51 130.04 C57.68 87, 94.74 43.51, 130.04 1.74 M23.5 130.4 C68.04 82.25, 110.15 28.3, 135.03 2.1 M23.5 130.4 C56.77 92.53, 90.54 53.92, 135.03 2.1 M28.49 130.76 C63.13 93.25, 96.33 50.34, 140.67 1.71 M28.49 130.76 C67.5 84.94, 108.55 37.67, 140.67 1.71 M32.82 131.88 C60.58 99.59, 90.53 63.53, 145.66 2.07 M32.82 131.88 C56.55 105.92, 80.68 76.52, 145.66 2.07 M38.46 131.48 C60.51 103.73, 83.24 78.33, 150.65 2.43 M38.46 131.48 C77.28 85.27, 118.14 40.39, 150.65 2.43 M43.45 131.84 C76.77 93.76, 109.16 56.32, 156.29 2.03 M43.45 131.84 C71.01 100.81, 99.86 67.2, 156.29 2.03 M48.43 132.2 C75.16 101.63, 102.95 69.27, 161.28 2.39 M48.43 132.2 C88.5 85.48, 130.18 35.79, 161.28 2.39 M54.08 131.81 C83.83 99.15, 111.86 65.28, 166.92 2 M54.08 131.81 C91.39 88.79, 130 46.69, 166.92 2 M59.06 132.17 C86.09 102.66, 108.53 74.82, 171.91 2.36 M59.06 132.17 C97.34 89.74, 134.35 46.42, 171.91 2.36 M64.71 131.77 C97.6 94.48, 127.88 59.99, 177.55 1.96 M64.71 131.77 C101.6 90.23, 136.21 49.18, 177.55 1.96 M69.69 132.13 C105.9 90.43, 144.55 46.68, 182.54 2.32 M69.69 132.13 C111.44 85.05, 151.66 38.61, 182.54 2.32 M75.34 131.74 C96.67 106.4, 121.45 78.95, 188.18 1.93 M75.34 131.74 C106.64 93.32, 139.51 55.94, 188.18 1.93 M80.32 132.1 C116.2 92.49, 155.29 47.84, 193.82 1.54 M80.32 132.1 C107.65 100.12, 136.93 67.17, 193.82 1.54 M85.97 131.71 C118.26 93.56, 150.87 58.5, 199.46 1.14 M85.97 131.71 C117.84 95.9, 150.28 59.92, 199.46 1.14 M90.95 132.07 C133.45 83.05, 172.68 37.58, 203.8 2.26 M90.95 132.07 C131.15 86.58, 172.97 38.4, 203.8 2.26 M96.6 131.67 C118.81 105.15, 142.19 77.82, 207.47 4.12 M96.6 131.67 C135.22 88.41, 172.45 45.53, 207.47 4.12 M101.58 132.03 C125.67 100.43, 151.44 69.91, 211.8 5.24 M101.58 132.03 C142.61 84.15, 185.59 35.32, 211.8 5.24 M107.23 131.64 C143.38 90.78, 177 51.37, 214.82 7.86 M107.23 131.64 C137.36 96.99, 167.23 64.3, 214.82 7.86 M112.21 132 C140.1 102.31, 165.32 69.34, 217.18 11.24 M112.21 132 C146.6 92.27, 180.95 53.65, 217.18 11.24 M117.86 131.6 C140.27 107.48, 164.51 80.47, 220.2 13.87 M117.86 131.6 C146.83 97.79, 175.05 65.5, 220.2 13.87 M122.84 131.96 C143.67 109.7, 161.7 86.91, 221.91 18 M122.84 131.96 C157.43 92.61, 190.63 52.28, 221.91 18 M128.49 131.57 C157.57 99.92, 185.44 65.64, 222.96 22.89 M128.49 131.57 C159.92 96.49, 192.55 60, 222.96 22.89 M133.47 131.93 C166.86 94.15, 201.23 54.24, 225.32 26.27 M133.47 131.93 C164.3 96.48, 195.49 60.95, 225.32 26.27 M139.12 131.53 C161.15 104.41, 185.08 79.04, 225.06 32.67 M139.12 131.53 C157.39 111.39, 174.46 89.52, 225.06 32.67 M144.1 131.89 C171.57 101.55, 197.49 70.87, 225.46 38.31 M144.1 131.89 C167.69 105.85, 191.36 79.01, 225.46 38.31 M149.75 131.5 C177.88 95.85, 207.64 61.33, 225.19 44.71 M149.75 131.5 C168.74 111.57, 186.48 89.28, 225.19 44.71 M154.73 131.86 C176.72 105.92, 200.16 78.53, 225.59 50.35 M154.73 131.86 C182.12 101.25, 207.82 70.32, 225.59 50.35 M159.72 132.22 C176.43 110.52, 193.72 92.38, 225.33 56.75 M159.72 132.22 C183.59 104.88, 207.15 77.8, 225.33 56.75 M165.36 131.82 C187.43 108.37, 209.49 82.85, 225.72 62.39 M165.36 131.82 C180.59 113.45, 197.8 94.16, 225.72 62.39 M170.35 132.18 C183.26 117.26, 196.55 104.83, 225.46 68.79 M170.35 132.18 C186.21 114.93, 200.16 97.04, 225.46 68.79 M175.99 131.79 C190.59 117.7, 202.22 102.52, 225.2 75.19 M175.99 131.79 C195.8 108.33, 215.55 87.24, 225.2 75.19 M180.98 132.15 C198.62 111.96, 213.72 96, 225.59 80.83 M180.98 132.15 C193.87 117.11, 208.58 100.06, 225.59 80.83 M186.62 131.75 C198.64 114.17, 214.62 98.25, 225.33 87.23 M186.62 131.75 C197.5 118.46, 209.15 106.29, 225.33 87.23 M192.27 131.36 C202.7 117.31, 212.88 106.53, 225.73 92.87 M192.27 131.36 C202.13 120.43, 212.58 109.17, 225.73 92.87 M197.91 130.97 C207.89 119.98, 216.68 107.79, 224.81 100.02 M197.91 130.97 C203.88 124.33, 210.98 115.87, 224.81 100.02 M204.21 129.82 C210.36 124.14, 213.34 116.23, 223.89 107.18 M204.21 129.82 C210.81 122.8, 216.38 116.11, 223.89 107.18" stroke="#ffffff" stroke-width="0.5" fill="none"></path><path d="M32 0 C92.78 0.76, 150.09 -1.27, 191.39 0 M32 0 C75.6 -1.21, 117.12 -0.75, 191.39 0 M191.39 0 C211.88 1.52, 224.53 12.38, 223.39 32 M191.39 0 C211.19 -1.32, 223.85 11.65, 223.39 32 M223.39 32 C223.08 56.1, 224.61 76.78, 223.39 99.13 M223.39 32 C223.5 51.49, 222.34 71.7, 223.39 99.13 M223.39 99.13 C225.2 121.2, 212.26 131.94, 191.39 131.13 M223.39 99.13 C224.15 119.75, 213.5 129.41, 191.39 131.13 M191.39 131.13 C154.78 130.41, 123 131.07, 32 131.13 M191.39 131.13 C141.65 131.78, 93.28 129.83, 32 131.13 M32 131.13 C10.53 130.76, 1.04 122.1, 0 99.13 M32 131.13 C11.25 129.18, -0.27 122.38, 0 99.13 M0 99.13 C0.55 82.05, -1.77 65.56, 0 32 M0 99.13 C0.79 76.66, -0.04 52.62, 0 32 M0 32 C-1.42 9.07, 12.2 1, 32 0 M0 32 C2.01 11.82, 10.58 -2.05, 32 0" stroke="#1e1e1e" stroke-width="1" fill="none"></path></g><g transform="translate(503.3965221144475 407.9063470287192) rotate(0 87.9921875 30)"><text x="87.9921875" y="0" font-family="Virgil, Segoe UI Emoji" font-size="16px" fill="#1e1e1e" text-anchor="middle" style="white-space: pre;" direction="ltr" dominant-baseline="text-before-edge">Read Service</text><text x="87.9921875" y="20" font-family="Virgil, Segoe UI Emoji" font-size="16px" fill="#1e1e1e" text-anchor="middle" style="white-space: pre;" direction="ltr" dominant-baseline="text-before-edge">- look up original url in DB</text><text x="87.9921875" y="40" font-family="Virgil, Segoe UI Emoji" font-size="16px" fill="#1e1e1e" text-anchor="middle" style="white-space: pre;" direction="ltr" dominant-baseline="text-before-edge">- return with 302 redirect</text></g><g stroke-linecap="round"><g transform="translate(382.5633935418062 376.3197905462903) rotate(0 43.69754264041066 31.77124583632167)"><path d="M-0.5 -0.38 C13.86 10.22, 72.1 53.33, 86.91 63.81 M1.43 -1.62 C15.54 8.58, 71.26 51.01, 85.71 61.83" stroke="#1e1e1e" stroke-width="1" fill="none"></path></g><g transform="translate(382.5633935418062 376.3197905462903) rotate(0 43.69754264041066 31.77124583632167)"><path d="M28.28 8.09 C17.29 4.12, 8.02 3.5, -0.5 -0.38 M28.28 8.09 C21.74 6.93, 16.57 5.21, -0.5 -0.38" stroke="#1e1e1e" stroke-width="1" fill="none"></path></g><g transform="translate(382.5633935418062 376.3197905462903) rotate(0 43.69754264041066 31.77124583632167)"><path d="M16.1 24.61 C9.46 14.75, 4.57 8.19, -0.5 -0.38 M16.1 24.61 C12.24 19.96, 9.68 14.71, -0.5 -0.38" stroke="#1e1e1e" stroke-width="1" fill="none"></path></g><g transform="translate(382.5633935418062 376.3197905462903) rotate(0 43.69754264041066 31.77124583632167)"><path d="M57.03 53.02 C66.72 55.5, 78.1 61.09, 85.71 61.83 M57.03 53.02 C62.7 55.78, 69.83 57.76, 85.71 61.83" stroke="#1e1e1e" stroke-width="1" fill="none"></path></g><g transform="translate(382.5633935418062 376.3197905462903) rotate(0 43.69754264041066 31.77124583632167)"><path d="M69.4 36.65 C74.67 44.96, 81.61 56.43, 85.71 61.83 M69.4 36.65 C72.34 42.86, 76.83 48.34, 85.71 61.83" stroke="#1e1e1e" stroke-width="1" fill="none"></path></g></g><mask></mask><g stroke-linecap="round"><g transform="translate(713.150016873703 427.35809123202307) rotate(0 76.74923279790113 -35.31854747407101)"><path d="M-0.48 0.27 C25.34 -11.62, 128.9 -59.77, 154.47 -71.67 M1.46 -0.64 C27.26 -12.37, 128.96 -59.11, 154.03 -70.67" stroke="#1e1e1e" stroke-width="1" fill="none"></path></g><g transform="translate(713.150016873703 427.35809123202307) rotate(0 76.74923279790113 -35.31854747407101)"><path d="M20.77 -20.91 C15.66 -13.91, 8.01 -10.99, -0.48 0.27 M20.77 -20.91 C15.71 -14.37, 8.93 -10.28, -0.48 0.27" stroke="#1e1e1e" stroke-width="1" fill="none"></path></g><g transform="translate(713.150016873703 427.35809123202307) rotate(0 76.74923279790113 -35.31854747407101)"><path d="M29.41 -2.29 C22.13 -0.13, 12.25 -2.02, -0.48 0.27 M29.41 -2.29 C22.17 -0.54, 13.14 -1.31, -0.48 0.27" stroke="#1e1e1e" stroke-width="1" fill="none"></path></g><g transform="translate(713.150016873703 427.35809123202307) rotate(0 76.74923279790113 -35.31854747407101)"><path d="M132.71 -49.57 C138.73 -53.31, 142.06 -61.31, 154.03 -70.67 M132.71 -49.57 C138.93 -54.38, 143.25 -61.31, 154.03 -70.67" stroke="#1e1e1e" stroke-width="1" fill="none"></path></g><g transform="translate(713.150016873703 427.35809123202307) rotate(0 76.74923279790113 -35.31854747407101)"><path d="M124.13 -68.21 C132.3 -67.11, 137.85 -70.29, 154.03 -70.67 M124.13 -68.21 C132.51 -68.22, 139.07 -70.3, 154.03 -70.67" stroke="#1e1e1e" stroke-width="1" fill="none"></path></g></g><mask></mask><g stroke-linecap="round" transform="translate(479.65040185501516 200.41159724866156) rotate(0 111.69634031989852 65.56646866490883)"><path d="M7.86 8.16 C7.86 8.16, 7.86 8.16, 7.86 8.16 M7.86 8.16 C7.86 8.16, 7.86 8.16, 7.86 8.16 M2.35 20.59 C4.47 15.47, 7.79 11.23, 18.1 2.48 M2.35 20.59 C7.29 14.27, 12.2 10.09, 18.1 2.48 M1.43 27.75 C7.21 17.96, 14.55 10.26, 24.4 1.33 M1.43 27.75 C9.23 18.86, 15.81 10.91, 24.4 1.33 M1.17 34.14 C12.65 21.63, 26.02 8.32, 30.7 0.18 M1.17 34.14 C9.28 26.05, 17.14 16.19, 30.7 0.18 M0.91 40.54 C9.07 30.16, 18.13 22.56, 36.34 -0.21 M0.91 40.54 C11.65 29.11, 22.38 15.89, 36.34 -0.21 M1.31 46.19 C13.79 28.85, 27.11 15.72, 41.33 0.15 M1.31 46.19 C12.83 32.93, 26.26 17.22, 41.33 0.15 M1.04 52.58 C18.73 34.9, 36.63 12.8, 46.97 -0.25 M1.04 52.58 C12.01 39.51, 22.91 27.59, 46.97 -0.25 M1.44 58.23 C19.63 37.38, 42.05 11.85, 51.96 0.11 M1.44 58.23 C12.99 46.1, 23.28 33.48, 51.96 0.11 M1.18 64.62 C17.84 44.94, 36.33 22.2, 57.6 -0.28 M1.18 64.62 C14.6 48.84, 28.8 33.48, 57.6 -0.28 M0.92 71.02 C18.6 50.17, 33.87 29.54, 62.59 0.08 M0.92 71.02 C13.41 55.87, 25.1 41.4, 62.59 0.08 M1.31 76.67 C21.81 50.16, 45.25 25.4, 67.57 0.44 M1.31 76.67 C21.89 54.04, 42.82 30.44, 67.57 0.44 M1.05 83.06 C30.38 48.8, 60.18 15.98, 73.22 0.04 M1.05 83.06 C15.97 66.22, 30.49 49.02, 73.22 0.04 M1.44 88.71 C28.2 58.68, 54.93 31.32, 78.2 0.41 M1.44 88.71 C20.01 69.37, 38.22 48.28, 78.2 0.41 M1.18 95.1 C31.41 60.87, 64.01 26.15, 83.85 0.01 M1.18 95.1 C32.32 58.48, 65.56 21.62, 83.85 0.01 M0.92 101.5 C35.35 64.44, 66.93 25.13, 88.83 0.37 M0.92 101.5 C28.53 71.66, 55.32 40.7, 88.83 0.37 M1.32 107.14 C27.07 75.38, 54.23 44.19, 94.48 -0.02 M1.32 107.14 C23.72 78.77, 49.48 50.1, 94.48 -0.02 M2.37 112.03 C20.17 88.05, 39.01 64.91, 99.46 0.34 M2.37 112.03 C38.24 71.19, 74.14 28.95, 99.46 0.34 M4.07 116.17 C29.61 89.12, 56.56 58.4, 105.11 -0.06 M4.07 116.17 C42.02 75.39, 77.83 32.89, 105.11 -0.06 M5.78 120.3 C27.18 92.71, 52 66.69, 110.09 0.3 M5.78 120.3 C45.98 76.89, 84.94 32.12, 110.09 0.3 M8.8 122.92 C33.37 94.23, 57.12 68.69, 115.74 -0.09 M8.8 122.92 C46.33 80.03, 84.76 35.79, 115.74 -0.09 M11.82 125.55 C54.45 77.71, 95.79 29.08, 120.72 0.27 M11.82 125.55 C38.27 94.04, 64.97 62.88, 120.72 0.27 M14.84 128.17 C39.44 99.31, 68.05 70.82, 126.37 -0.13 M14.84 128.17 C52.86 83.6, 92.1 39.25, 126.37 -0.13 M18.51 130.04 C47.57 95.99, 76.41 66.06, 131.35 0.23 M18.51 130.04 C62.64 79.69, 103.78 30.06, 131.35 0.23 M23.5 130.4 C55.66 95.38, 86.16 57.3, 137 -0.16 M23.5 130.4 C69.1 79.45, 111.27 30.76, 137 -0.16 M28.49 130.76 C71.67 82.84, 112.48 33.61, 141.98 0.2 M28.49 130.76 C72.58 81.35, 114.7 30.87, 141.98 0.2 M33.47 131.12 C68.88 93.01, 98.3 54.87, 147.63 -0.2 M33.47 131.12 C69.71 88.57, 107.24 47.77, 147.63 -0.2 M38.46 131.48 C72.7 92.19, 109.84 51.64, 152.61 0.16 M38.46 131.48 C75.17 89.61, 111.64 48.36, 152.61 0.16 M44.1 131.09 C86.5 85.95, 124.56 37.64, 158.26 -0.23 M44.1 131.09 C87.1 82.77, 128.87 34.77, 158.26 -0.23 M49.09 131.45 C93.71 81.61, 133.02 33.68, 163.24 0.13 M49.09 131.45 C76.13 99.8, 102.89 68.97, 163.24 0.13 M54.73 131.05 C85.09 97.29, 118.07 58.29, 168.89 -0.27 M54.73 131.05 C96.25 82.03, 138.23 36.1, 168.89 -0.27 M59.72 131.41 C97.97 88.5, 134.77 46.6, 173.87 0.09 M59.72 131.41 C92.04 92.53, 126.11 54.46, 173.87 0.09 M65.36 131.02 C91.2 99.07, 117.49 68.36, 178.86 0.45 M65.36 131.02 C94.66 98.32, 123.19 64.56, 178.86 0.45 M70.35 131.38 C97.44 98.34, 126.29 65.72, 184.5 0.06 M70.35 131.38 C116.56 80.3, 161.44 28.81, 184.5 0.06 M75.99 130.98 C111.64 88.3, 148.75 47.08, 189.49 0.42 M75.99 130.98 C108.37 97.12, 137.71 60.85, 189.49 0.42 M80.98 131.35 C113.25 96.49, 143.64 57.91, 194.48 0.78 M80.98 131.35 C119.45 85.91, 160.06 39.43, 194.48 0.78 M86.62 130.95 C111.25 104.28, 135.93 78.85, 199.46 1.14 M86.62 130.95 C122.87 87.79, 160.45 46.98, 199.46 1.14 M91.61 131.31 C130.41 91.02, 164.41 47.44, 203.8 2.26 M91.61 131.31 C130.98 86.29, 170.05 42.84, 203.8 2.26 M97.25 130.92 C125.56 97.07, 155.31 65.65, 207.47 4.12 M97.25 130.92 C138.65 81.67, 181.16 34.34, 207.47 4.12 M102.24 131.28 C132.91 98.59, 161.13 62.52, 211.8 5.24 M102.24 131.28 C129.9 98.23, 158.48 66.36, 211.8 5.24 M107.88 130.88 C128.59 106.43, 152.71 78.21, 214.82 7.86 M107.88 130.88 C147.6 85.62, 185.27 42.49, 214.82 7.86 M112.87 131.24 C135.05 104.01, 159.76 77.92, 217.18 11.24 M112.87 131.24 C148.74 92.53, 182.67 52.5, 217.18 11.24 M118.51 130.85 C151.16 91.17, 186.81 50.3, 220.2 13.87 M118.51 130.85 C156.49 86.52, 194.28 44.06, 220.2 13.87 M123.5 131.21 C148.44 101.46, 170.56 74.22, 221.25 18.76 M123.5 131.21 C153.9 96.96, 182.73 64.2, 221.25 18.76 M128.49 131.57 C154.61 105.23, 178.53 76.67, 222.96 22.89 M128.49 131.57 C156.32 100.66, 182.94 70.29, 222.96 22.89 M134.13 131.17 C153.68 109.11, 172.82 84.01, 223.35 28.53 M134.13 131.17 C160.04 101.96, 186.33 71.62, 223.35 28.53 M139.12 131.53 C167.54 98.2, 193.07 68.08, 223.75 34.18 M139.12 131.53 C155.86 111.97, 172.47 91.65, 223.75 34.18 M144.76 131.14 C164.08 110.91, 181.98 90.51, 223.49 40.57 M144.76 131.14 C167.04 104.31, 190.06 77.53, 223.49 40.57 M149.75 131.5 C170.11 110.46, 185.48 88.39, 223.88 46.22 M149.75 131.5 C176.01 101.36, 201.88 72.86, 223.88 46.22 M155.39 131.1 C176.89 106.05, 197.39 81.31, 223.62 52.61 M155.39 131.1 C174.63 107.44, 196.01 83.77, 223.62 52.61 M160.38 131.46 C177.7 111.07, 195.25 94.53, 224.01 58.26 M160.38 131.46 C185.91 103.23, 210.5 73.09, 224.01 58.26 M166.02 131.07 C185.16 111.05, 202.12 87.03, 223.75 64.65 M166.02 131.07 C187.63 106.19, 210.75 79.48, 223.75 64.65 M171.01 131.43 C191.26 107.61, 210.11 86.38, 224.15 70.3 M171.01 131.43 C188.95 111.39, 206.03 91.97, 224.15 70.3 M176.65 131.03 C188.58 116.54, 204.86 99.68, 223.89 76.7 M176.65 131.03 C194.08 110.15, 213.52 89.08, 223.89 76.7 M181.64 131.39 C193.35 120.25, 200.88 108.9, 224.28 82.34 M181.64 131.39 C196.84 113.26, 213.12 94.6, 224.28 82.34 M187.28 131 C196.52 120.5, 207.74 106.69, 224.02 88.74 M187.28 131 C195.11 120.62, 204.49 111.43, 224.02 88.74 M192.27 131.36 C199.44 125.2, 205.86 115.86, 224.41 94.38 M192.27 131.36 C201.73 120.12, 210.76 107.8, 224.41 94.38 M197.91 130.97 C207.09 123.31, 212.37 111.79, 223.5 101.53 M197.91 130.97 C204.22 123.06, 209.46 116.42, 223.5 101.53 M204.21 129.82 C208.67 124.23, 213.95 118.58, 221.92 109.44 M204.21 129.82 C209.18 122.72, 216 116.43, 221.92 109.44" stroke="#ffffff" stroke-width="0.5" fill="none"></path><path d="M32 0 C71.66 -2.22, 113.98 -2.14, 191.39 0 M32 0 C91.29 -1.94, 152.11 -0.94, 191.39 0 M191.39 0 C213.45 0.84, 223.86 10.07, 223.39 32 M191.39 0 C214.49 1.08, 222.99 10.62, 223.39 32 M223.39 32 C222.84 47.31, 223.25 67.25, 223.39 99.13 M223.39 32 C223.57 54.28, 223.57 76.44, 223.39 99.13 M223.39 99.13 C221.75 121.35, 211.21 129.25, 191.39 131.13 M223.39 99.13 C223.95 121.7, 214.04 131.3, 191.39 131.13 M191.39 131.13 C151.26 129.51, 105.3 129.75, 32 131.13 M191.39 131.13 C146.77 131.58, 101.53 133.26, 32 131.13 M32 131.13 C9.84 132.93, -1.36 121.61, 0 99.13 M32 131.13 C11 129.8, 1.36 121.59, 0 99.13 M0 99.13 C1.54 79.06, 0.29 57.77, 0 32 M0 99.13 C0.36 84.84, -0.55 68.65, 0 32 M0 32 C1.2 12.58, 12.45 -0.8, 32 0 M0 32 C1.97 12.11, 10.08 -0.32, 32 0" stroke="#1e1e1e" stroke-width="1" fill="none"></path></g><g transform="translate(530.7061171749136 235.9780659135704) rotate(0 60.640625 30)"><text x="60.640625" y="0" font-family="Virgil, Segoe UI Emoji" font-size="16px" fill="#1e1e1e" text-anchor="middle" style="white-space: pre;" direction="ltr" dominant-baseline="text-before-edge">Write Service</text><text x="60.640625" y="20" font-family="Virgil, Segoe UI Emoji" font-size="16px" fill="#1e1e1e" text-anchor="middle" style="white-space: pre;" direction="ltr" dominant-baseline="text-before-edge">- generate short url</text><text x="60.640625" y="40" font-family="Virgil, Segoe UI Emoji" font-size="16px" fill="#1e1e1e" text-anchor="middle" style="white-space: pre;" direction="ltr" dominant-baseline="text-before-edge">- save to DB</text></g><g stroke-linecap="round"><g transform="translate(716.0553202747892 269.5173199809442) rotate(0 71.78064227417116 24.667528348352562)"><path d="M-0.51 0.91 C23.62 9.39, 120.37 42.41, 144.25 50.36 M1.42 0.35 C25.51 8.55, 119.69 40.57, 143.66 48.78" stroke="#1e1e1e" stroke-width="1" fill="none"></path></g><g transform="translate(716.0553202747892 269.5173199809442) rotate(0 71.78064227417116 24.667528348352562)"><path d="M113.66 49.39 C122.79 50.5, 130.58 47.87, 143.66 48.78 M113.66 49.39 C121.3 49.54, 128.44 48.67, 143.66 48.78" stroke="#1e1e1e" stroke-width="1" fill="none"></path></g><g transform="translate(716.0553202747892 269.5173199809442) rotate(0 71.78064227417116 24.667528348352562)"><path d="M120.29 29.97 C127.66 35.98, 133.77 38.27, 143.66 48.78 M120.29 29.97 C126.35 34.85, 131.89 38.69, 143.66 48.78" stroke="#1e1e1e" stroke-width="1" fill="none"></path></g></g><mask></mask></svg>