<svg version="1.1" xmlns="http://www.w3.org/2000/svg" viewBox="0 0 1675.352070371469 649.1548125678298" >
  <!-- svg-source:excalidraw -->
  <!-- payload-type:application/vnd.excalidraw+json --><!-- payload-version:2 -->
  <defs>
    <style class="style-fonts">
      @font-face {
        font-family: "Virgil";
        src: url("https://files.hellointerview.com/build-assets/PRODUCTION/_next/static/media/Excalifont-s.p.436754fa.woff2");
      }
      @font-face {
        font-family: "Cascadia";
        src: url("https://file%2B.vscode-resource.vscode-cdn.net/Users/evanking/.cursor/extensions/pomdtr.excalidraw-editor-3.7.4/public//dist/excalidraw-assets/Cascadia.woff2");
      }
      @font-face {
        font-family: "Assistant";
        src: url("https://file%2B.vscode-resource.vscode-cdn.net/Users/evanking/.cursor/extensions/pomdtr.excalidraw-editor-3.7.4/public//dist/excalidraw-assets/Assistant-Regular.woff2");
      }
    </style>
    
  </defs>
  <rect x="0" y="0" width="1675.352070371469" height="649.1548125678298" fill="#ffffff"></rect><g stroke-linecap="round" transform="translate(10 135.6146599966993) rotate(0 77.98161435474401 43.88126054439647)"><path d="M21.94 0 C49.12 0.67, 72.33 -0.08, 134.02 0 C151.78 3.58, 156.93 6.04, 155.96 21.94 C151.77 33.83, 153.34 42.53, 155.96 65.82 C153.18 78.71, 149.28 90.85, 134.02 87.76 C102.88 84.86, 78.72 85.86, 21.94 87.76 C4.99 90.82, -1.02 81.5, 0 65.82 C2.05 52.78, 0.94 40.66, 0 21.94 C1.11 4.48, 10.66 -0.35, 21.94 0" stroke="none" stroke-width="0" fill="#ffffff"></path><path d="M21.94 0 C52.52 1.92, 84.9 2.19, 134.02 0 M21.94 0 C62.97 -0.68, 106.89 -1.73, 134.02 0 M134.02 0 C147.58 0.03, 154.87 7.57, 155.96 21.94 M134.02 0 C150.43 0.85, 157.33 7.15, 155.96 21.94 M155.96 21.94 C155.1 35.26, 154.89 43.92, 155.96 65.82 M155.96 21.94 C156.17 34.31, 157.12 48, 155.96 65.82 M155.96 65.82 C156.21 79.46, 149.53 89.59, 134.02 87.76 M155.96 65.82 C154.35 82.34, 150.54 90.05, 134.02 87.76 M134.02 87.76 C99.68 88.03, 60.99 86.22, 21.94 87.76 M134.02 87.76 C111.33 87.26, 87.43 86.87, 21.94 87.76 M21.94 87.76 C8.98 88.26, 0.99 81.49, 0 65.82 M21.94 87.76 C6.09 87.59, 1.49 80.47, 0 65.82 M0 65.82 C-1.14 54.27, -1.61 46.42, 0 21.94 M0 65.82 C0.62 53.81, 0.62 40.73, 0 21.94 M0 21.94 C0.06 8.26, 9.27 -1, 21.94 0 M0 21.94 C-1.1 6.5, 5.33 -1.39, 21.94 0" stroke="#1e1e1e" stroke-width="2" fill="none"></path></g><g transform="translate(60.93164182056432 166.99592054109576) rotate(0 27.049972534179688 12.5)"><text x="27.049972534179688" y="0" font-family="Virgil, Segoe UI Emoji" font-size="20px" fill="#1e1e1e" text-anchor="middle" style="white-space: pre;" direction="ltr" dominant-baseline="text-before-edge">Client</text></g><g stroke-linecap="round" transform="translate(293.35080863295707 10) rotate(0 78.46513797113585 177.1606652750102)"><path d="M32 0 C61.52 4.2, 85.74 -0.66, 124.93 0 C143.46 -3.19, 158.05 7.17, 156.93 32 C152.76 135.05, 155.31 243.02, 156.93 322.32 C155.25 344.28, 147 351.57, 124.93 354.32 C103.28 356.31, 85.24 354.3, 32 354.32 C9.93 353.11, -2.69 345.44, 0 322.32 C0.11 239.34, 1.78 160.34, 0 32 C3.3 12.92, 11.57 -1.42, 32 0" stroke="none" stroke-width="0" fill="#ffffff"></path><path d="M32 0 C65.43 -1.51, 97.4 -2.48, 124.93 0 M32 0 C60.94 0.82, 90.41 0.94, 124.93 0 M124.93 0 C147.81 0.74, 158.12 10.52, 156.93 32 M124.93 0 C145.54 2.25, 158.68 9.19, 156.93 32 M156.93 32 C155.14 142.08, 155.66 250.87, 156.93 322.32 M156.93 32 C159.12 109.36, 159.36 188.15, 156.93 322.32 M156.93 322.32 C155.53 345.3, 147.9 356.31, 124.93 354.32 M156.93 322.32 C157.32 343.06, 146.01 355.7, 124.93 354.32 M124.93 354.32 C93.37 353.03, 65.7 354.66, 32 354.32 M124.93 354.32 C103.45 353.65, 80.79 353.92, 32 354.32 M32 354.32 C9.6 354.18, 1.3 343.67, 0 322.32 M32 354.32 C9.31 355.23, -0.16 342.55, 0 322.32 M0 322.32 C1.19 250.15, 1.36 177.81, 0 32 M0 322.32 C-1.78 233.62, -1.08 143.82, 0 32 M0 32 C-0.96 9.96, 8.94 -1.21, 32 0 M0 32 C-1.82 12.75, 9.25 1.54, 32 0" stroke="#1e1e1e" stroke-width="2" fill="none"></path></g><g transform="translate(305.06598475106557 137.16066527501022) rotate(0 66.74996185302734 50)"><text x="66.74996185302734" y="0" font-family="Virgil, Segoe UI Emoji" font-size="20px" fill="#1e1e1e" text-anchor="middle" style="white-space: pre;" direction="ltr" dominant-baseline="text-before-edge">API Gateway</text><text x="66.74996185302734" y="25" font-family="Virgil, Segoe UI Emoji" font-size="20px" fill="#1e1e1e" text-anchor="middle" style="white-space: pre;" direction="ltr" dominant-baseline="text-before-edge">- routing</text><text x="66.74996185302734" y="50" font-family="Virgil, Segoe UI Emoji" font-size="20px" fill="#1e1e1e" text-anchor="middle" style="white-space: pre;" direction="ltr" dominant-baseline="text-before-edge">- auth</text><text x="66.74996185302734" y="75" font-family="Virgil, Segoe UI Emoji" font-size="20px" fill="#1e1e1e" text-anchor="middle" style="white-space: pre;" direction="ltr" dominant-baseline="text-before-edge">- ...</text></g><g stroke-linecap="round" transform="translate(703.9917928059947 178.79582625652904) rotate(0 153.1934144131203 78.74570105719042)"><path d="M32 0 C126.53 -1.37, 226.62 -1.62, 274.39 0 C297.86 -1.92, 307.48 7.89, 306.39 32 C305 56.16, 307.41 76.31, 306.39 125.49 C303.08 148.29, 293.41 155.17, 274.39 157.49 C180.48 157.54, 85.55 160.02, 32 157.49 C9.89 158.16, -0.63 147.94, 0 125.49 C1.73 107.05, -0.67 82.67, 0 32 C1.23 7.87, 11.9 2.57, 32 0" stroke="none" stroke-width="0" fill="#ffffff"></path><path d="M32 0 C93.16 3.53, 152.3 1.07, 274.39 0 M32 0 C105.72 0.05, 178.65 -0.32, 274.39 0 M274.39 0 C295.09 1.96, 307.91 9.38, 306.39 32 M274.39 0 C297.49 -1.72, 304.56 10.42, 306.39 32 M306.39 32 C305.97 66.11, 307.96 96.6, 306.39 125.49 M306.39 32 C306.1 56.23, 307.62 79.81, 306.39 125.49 M306.39 125.49 C306.73 146.31, 295.5 158.69, 274.39 157.49 M306.39 125.49 C306.84 144.58, 294.09 155.35, 274.39 157.49 M274.39 157.49 C208.35 158.13, 142.65 159.88, 32 157.49 M274.39 157.49 C195.15 158.47, 117.33 158.54, 32 157.49 M32 157.49 C9.48 158.28, -0.14 145.86, 0 125.49 M32 157.49 C9.54 155.84, 2 146.26, 0 125.49 M0 125.49 C0.27 94.71, -1.73 60.66, 0 32 M0 125.49 C-1.39 92.65, -1.78 59.91, 0 32 M0 32 C-1.58 12.47, 9.43 1.34, 32 0 M0 32 C-0.37 11.2, 9.82 2, 32 0" stroke="#1e1e1e" stroke-width="2" fill="none"></path></g><g transform="translate(795.1952703905017 245.04152731371943) rotate(0 61.98993682861328 12.5)"><text x="61.98993682861328" y="0" font-family="Virgil, Segoe UI Emoji" font-size="20px" fill="#1e1e1e" text-anchor="middle" style="white-space: pre;" direction="ltr" dominant-baseline="text-before-edge">Post Service</text></g><g stroke-linecap="round" transform="translate(1238.5537972197571 79.76170779114761) rotate(0 129.80221329174674 122.42400107124956)"><path d="M141.33 0.67 C155.24 -0.15, 170.48 4.8, 183.93 10.57 C197.38 16.33, 211.54 25.07, 222.02 35.24 C232.5 45.41, 240.68 58.76, 246.81 71.57 C252.95 84.37, 257.47 98.37, 258.83 112.08 C260.19 125.79, 258.88 140.29, 254.97 153.81 C251.06 167.32, 243.85 181.65, 235.36 193.17 C226.87 204.69, 216.04 214.94, 204.01 222.91 C191.98 230.89, 177.58 237.26, 163.19 241 C148.8 244.73, 132.39 246.43, 117.67 245.31 C102.94 244.19, 87.99 240.29, 74.81 234.28 C61.64 228.26, 49.13 219.18, 38.62 209.22 C28.11 199.25, 18.24 187.11, 11.75 174.47 C5.27 161.84, 0.81 147.45, -0.29 133.4 C-1.39 119.35, 1.04 103.82, 5.15 90.16 C9.25 76.5, 15.87 62.77, 24.36 51.42 C32.84 40.08, 44.06 29.82, 56.05 22.09 C68.04 14.35, 81.29 8.47, 96.29 5.02 C111.3 1.56, 137.23 1.38, 146.1 1.35 C154.96 1.31, 150 2.79, 149.49 4.79 M157.1 2.72 C171.13 3.37, 187.26 10.91, 199.8 18.29 C212.33 25.68, 223.24 36.05, 232.32 47.01 C241.39 57.97, 249.57 70.85, 254.25 84.06 C258.93 97.26, 261.01 112.33, 260.39 126.24 C259.76 140.16, 256.08 154.63, 250.5 167.55 C244.91 180.47, 237.18 193.17, 226.87 203.77 C216.57 214.37, 201.97 224.29, 188.66 231.16 C175.35 238.03, 161.62 243.36, 146.99 244.99 C132.37 246.63, 115.2 244.23, 100.91 240.96 C86.62 237.69, 73.66 232.5, 61.24 225.38 C48.81 218.25, 35.55 209.13, 26.37 198.22 C17.19 187.31, 10.41 173.3, 6.16 159.91 C1.9 146.53, 0.16 132.03, 0.86 117.91 C1.56 103.8, 4.76 88.25, 10.36 75.24 C15.96 62.23, 24.43 50.21, 34.48 39.85 C44.53 29.49, 57.78 19.37, 70.64 13.1 C83.51 6.83, 96.99 3.91, 111.68 2.24 C126.37 0.56, 151.33 2.6, 158.79 3.05 C166.25 3.5, 157.25 2.79, 156.43 4.95" stroke="none" stroke-width="0" fill="#ffffff"></path><path d="M95.18 5.12 C108.13 -0.48, 124.74 -1.05, 139.6 0.04 C154.46 1.13, 170.94 5.72, 184.32 11.66 C197.71 17.6, 209.62 26.17, 219.91 35.67 C230.2 45.16, 239.58 56.13, 246.07 68.66 C252.57 81.19, 257.25 96.81, 258.87 110.84 C260.49 124.86, 259.5 139.2, 255.79 152.8 C252.09 166.41, 244.91 180.95, 236.63 192.49 C228.35 204.02, 218.17 214, 206.11 222.04 C194.05 230.09, 178.51 237.13, 164.3 240.76 C150.09 244.38, 135.38 244.79, 120.85 243.79 C106.31 242.8, 90.55 240.38, 77.08 234.77 C63.62 229.16, 50.8 220.04, 40.04 210.12 C29.28 200.21, 18.99 187.87, 12.52 175.29 C6.05 162.71, 2.8 148.64, 1.23 134.65 C-0.35 120.66, -0.34 104.96, 3.08 91.35 C6.49 77.74, 13.19 64.33, 21.72 53.01 C30.25 41.69, 40.99 31.82, 54.26 23.43 C67.52 15.03, 92.27 5.75, 101.31 2.64 C110.35 -0.46, 107.91 2.71, 108.52 4.82 M164.06 4.1 C178.15 5.77, 191.14 14.7, 203.1 22.56 C215.07 30.41, 227.3 40.1, 235.84 51.23 C244.38 62.37, 250.26 75.83, 254.36 89.36 C258.46 102.9, 261.45 118.37, 260.44 132.42 C259.43 146.47, 254.52 160.93, 248.29 173.68 C242.05 186.42, 233.41 199.18, 223.06 208.88 C212.71 218.57, 199.79 225.82, 186.2 231.85 C172.6 237.88, 156.18 243.71, 141.48 245.07 C126.78 246.43, 112.41 243.79, 97.98 240 C83.55 236.22, 67.5 230.35, 54.9 222.35 C42.3 214.35, 30.96 203.09, 22.36 191.99 C13.77 180.89, 7.13 168.92, 3.32 155.76 C-0.48 142.61, -1.87 127.14, -0.46 113.06 C0.95 98.99, 5.5 83.93, 11.78 71.31 C18.07 58.7, 26.51 47.26, 37.24 37.38 C47.97 27.5, 62.75 18.35, 76.15 12 C89.54 5.66, 103.37 0.57, 117.64 -0.67 C131.91 -1.92, 154.53 3.22, 161.75 4.56 C168.97 5.89, 161.43 5.38, 160.96 7.35" stroke="#1e1e1e" stroke-width="2" fill="none"></path></g><g transform="translate(1319.1320209854534 189.61886752492745) rotate(0 49.439964294433594 12.5)"><text x="49.439964294433594" y="0" font-family="Virgil, Segoe UI Emoji" font-size="20px" fill="#1e1e1e" text-anchor="middle" style="white-space: pre;" direction="ltr" dominant-baseline="text-before-edge">Database</text></g><g stroke-linecap="round"><g transform="translate(177.40065153673095 179.66306450725585) rotate(0 52.18174929245572 1.5192192638482993)"><path d="M0.93 0.44 C18.55 0.91, 87.9 2.32, 105.07 2.95 M-0.04 -0.37 C17.54 0.28, 87.32 3.97, 104.5 4.44" stroke="#1e1e1e" stroke-width="2" fill="none"></path></g><g transform="translate(177.40065153673095 179.66306450725585) rotate(0 52.18174929245572 1.5192192638482993)"><path d="M29.35 -9.17 C23.12 -5.41, 15.27 -4.86, 0.93 0.44 M29.35 -9.17 C18.89 -6.28, 6.02 -1.81, 0.93 0.44" stroke="#1e1e1e" stroke-width="2" fill="none"></path></g><g transform="translate(177.40065153673095 179.66306450725585) rotate(0 52.18174929245572 1.5192192638482993)"><path d="M28.88 11.35 C22.74 10.07, 15 5.58, 0.93 0.44 M28.88 11.35 C18.44 6.08, 5.76 2.38, 0.93 0.44" stroke="#1e1e1e" stroke-width="2" fill="none"></path></g><g transform="translate(177.40065153673095 179.66306450725585) rotate(0 52.18174929245572 1.5192192638482993)"><path d="M75.9 13.51 C83.64 12.25, 89.78 8.21, 104.5 4.44 M75.9 13.51 C87.98 9.34, 97.79 6.37, 104.5 4.44" stroke="#1e1e1e" stroke-width="2" fill="none"></path></g><g transform="translate(177.40065153673095 179.66306450725585) rotate(0 52.18174929245572 1.5192192638482993)"><path d="M76.76 -6.99 C84.32 -3.22, 90.25 -2.22, 104.5 4.44 M76.76 -6.99 C88.65 -3.01, 98.13 2.18, 104.5 4.44" stroke="#1e1e1e" stroke-width="2" fill="none"></path></g></g><mask></mask><g stroke-linecap="round"><g transform="translate(475.629176155819 167.79492712017128) rotate(0 104.45407058040234 45.5921795323666)"><path d="M0.71 -0.09 C35.31 15.23, 173.68 77.28, 208.53 92.36 M-0.38 -1.18 C33.95 13.8, 172.4 75.44, 207.38 90.85" stroke="#1e1e1e" stroke-width="2" fill="none"></path></g><g transform="translate(475.629176155819 167.79492712017128) rotate(0 104.45407058040234 45.5921795323666)"><path d="M30.64 2.02 C19.19 0.78, 9.99 2.13, 0.71 -0.09 M30.64 2.02 C22.78 1.2, 16.96 1.05, 0.71 -0.09" stroke="#1e1e1e" stroke-width="2" fill="none"></path></g><g transform="translate(475.629176155819 167.79492712017128) rotate(0 104.45407058040234 45.5921795323666)"><path d="M22.28 20.77 C13.92 12.39, 7.87 6.67, 0.71 -0.09 M22.28 20.77 C16.24 15.58, 12.4 11.02, 0.71 -0.09" stroke="#1e1e1e" stroke-width="2" fill="none"></path></g><g transform="translate(475.629176155819 167.79492712017128) rotate(0 104.45407058040234 45.5921795323666)"><path d="M177.45 88.81 C188.62 88.78, 202.02 91.7, 207.38 90.85 M177.45 88.81 C183.73 89.41, 192.01 90.24, 207.38 90.85" stroke="#1e1e1e" stroke-width="2" fill="none"></path></g><g transform="translate(475.629176155819 167.79492712017128) rotate(0 104.45407058040234 45.5921795323666)"><path d="M185.77 70.05 C193.86 77.15, 204.12 87.15, 207.38 90.85 M185.77 70.05 C190.23 75.01, 196.55 80.26, 207.38 90.85" stroke="#1e1e1e" stroke-width="2" fill="none"></path></g></g><mask></mask><g stroke-linecap="round"><g transform="translate(1038.6978406229414 218.82915278012496) rotate(0 94.37144135977394 0.9359359214834626)"><path d="M-0.38 1.17 C31.11 1.37, 157.98 1.13, 189.66 1.1 M1.63 0.74 C32.98 1.09, 157.9 2.05, 189.19 2.23" stroke="#1e1e1e" stroke-width="2" fill="none"></path></g><g transform="translate(1038.6978406229414 218.82915278012496) rotate(0 94.37144135977394 0.9359359214834626)"><path d="M27.81 -9.09 C19.64 -3.97, 6.26 -0.27, -0.38 1.17 M27.81 -9.09 C21.83 -6.57, 15.06 -4.82, -0.38 1.17" stroke="#1e1e1e" stroke-width="2" fill="none"></path></g><g transform="translate(1038.6978406229414 218.82915278012496) rotate(0 94.37144135977394 0.9359359214834626)"><path d="M27.81 11.43 C19.65 9.18, 6.28 5.51, -0.38 1.17 M27.81 11.43 C21.99 9.34, 15.22 6.46, -0.38 1.17" stroke="#1e1e1e" stroke-width="2" fill="none"></path></g><g transform="translate(1038.6978406229414 218.82915278012496) rotate(0 94.37144135977394 0.9359359214834626)"><path d="M160.93 12.3 C173.04 10.29, 179.95 6.69, 189.19 2.23 M160.93 12.3 C167.81 10.3, 173.74 7.47, 189.19 2.23" stroke="#1e1e1e" stroke-width="2" fill="none"></path></g><g transform="translate(1038.6978406229414 218.82915278012496) rotate(0 94.37144135977394 0.9359359214834626)"><path d="M161.07 -8.23 C173.12 -2.86, 179.98 0.91, 189.19 2.23 M161.07 -8.23 C167.76 -5.6, 173.66 -3.81, 189.19 2.23" stroke="#1e1e1e" stroke-width="2" fill="none"></path></g></g><mask></mask><g stroke-linecap="round"><g transform="translate(1036.8433409547606 276.7160717840305) rotate(0 111.30494416674594 84.4099955547889)"><path d="M0.77 0.07 C37.93 28.18, 185.02 141.43, 222.06 169.6 M-0.28 -0.94 C36.75 26.75, 183.7 139.3, 220.83 167.88" stroke="#1e1e1e" stroke-width="2" fill="none"></path></g><g transform="translate(1036.8433409547606 276.7160717840305) rotate(0 111.30494416674594 84.4099955547889)"><path d="M29.39 9.07 C23.05 6.33, 17.83 5.91, 0.77 0.07 M29.39 9.07 C19.57 5.53, 11.59 2.85, 0.77 0.07" stroke="#1e1e1e" stroke-width="2" fill="none"></path></g><g transform="translate(1036.8433409547606 276.7160717840305) rotate(0 111.30494416674594 84.4099955547889)"><path d="M16.91 25.36 C13.22 18.91, 10.8 14.85, 0.77 0.07 M16.91 25.36 C11.14 16.58, 7.18 8.66, 0.77 0.07" stroke="#1e1e1e" stroke-width="2" fill="none"></path></g><g transform="translate(1036.8433409547606 276.7160717840305) rotate(0 111.30494416674594 84.4099955547889)"><path d="M192.21 158.86 C198.79 159.78, 206.35 163.38, 220.83 167.88 M192.21 158.86 C200.74 161.09, 211.17 164.2, 220.83 167.88" stroke="#1e1e1e" stroke-width="2" fill="none"></path></g><g transform="translate(1036.8433409547606 276.7160717840305) rotate(0 111.30494416674594 84.4099955547889)"><path d="M204.71 142.58 C208.62 147.21, 213.4 154.45, 220.83 167.88 M204.71 142.58 C209.17 150.05, 215.58 158.39, 220.83 167.88" stroke="#1e1e1e" stroke-width="2" fill="none"></path></g></g><mask></mask><g stroke-linecap="round" transform="translate(1270.323247047736 409.7586986265489) rotate(0 97.59711149958173 87.87357658256309)"><path d="M109.67 0.66 C121.48 0.39, 134.42 5.32, 145.15 10.87 C155.89 16.41, 166.5 25.22, 174.08 33.94 C181.66 42.66, 187.22 52.39, 190.65 63.2 C194.07 74.01, 195.99 87.54, 194.62 98.82 C193.24 110.09, 188.54 121.26, 182.41 130.85 C176.28 140.43, 167.49 149.41, 157.86 156.32 C148.22 163.23, 136.54 169.22, 124.61 172.31 C112.68 175.4, 98.67 176.3, 86.28 174.86 C73.89 173.41, 61.05 169.06, 50.3 163.65 C39.55 158.23, 29.6 151.18, 21.76 142.37 C13.92 133.56, 6.74 121.76, 3.26 110.8 C-0.21 99.83, -0.65 87.57, 0.9 76.58 C2.46 65.59, 6.63 54.32, 12.59 44.85 C18.55 35.38, 26.96 26.56, 36.66 19.73 C46.37 12.91, 56.56 6.79, 70.81 3.92 C85.07 1.05, 111.83 1.99, 122.21 2.52 C132.6 3.05, 133.72 5.7, 133.12 7.11 M134.29 5.81 C146.04 8.08, 157.46 16.28, 166.3 23.87 C175.14 31.46, 182.6 41.2, 187.32 51.37 C192.04 61.55, 194.5 73.37, 194.64 84.92 C194.79 96.46, 192.6 109.79, 188.17 120.63 C183.74 131.48, 176.92 142.16, 168.08 149.99 C159.25 157.82, 146.54 163.28, 135.15 167.6 C123.76 171.92, 112.17 175.73, 99.73 175.93 C87.29 176.13, 71.94 173.03, 60.49 168.79 C49.05 164.56, 39.54 158.34, 31.06 150.52 C22.57 142.7, 14.83 132.02, 9.56 121.87 C4.28 111.73, -0.04 100.79, -0.6 89.65 C-1.16 78.51, 1.75 65.67, 6.2 55.04 C10.65 44.42, 17.4 33.75, 26.09 25.91 C34.78 18.08, 46.47 12.44, 58.33 8.02 C70.2 3.6, 84.74 -0.25, 97.26 -0.59 C109.78 -0.94, 127.78 4.63, 133.48 5.96 C139.17 7.28, 131.82 6.14, 131.44 7.37" stroke="#1e1e1e" stroke-width="2" fill="none"></path></g><g transform="translate(1329.1888161080137 459.9962733204662) rotate(0 38.71996307373047 37.5)"><text x="38.71996307373047" y="0" font-family="Virgil, Segoe UI Emoji" font-size="20px" fill="#1e1e1e" text-anchor="middle" style="white-space: pre;" direction="ltr" dominant-baseline="text-before-edge">Blob </text><text x="38.71996307373047" y="25" font-family="Virgil, Segoe UI Emoji" font-size="20px" fill="#1e1e1e" text-anchor="middle" style="white-space: pre;" direction="ltr" dominant-baseline="text-before-edge">Storage</text><text x="38.71996307373047" y="50" font-family="Virgil, Segoe UI Emoji" font-size="20px" fill="#1e1e1e" text-anchor="middle" style="white-space: pre;" direction="ltr" dominant-baseline="text-before-edge">(S3)</text></g><g transform="translate(1223.256808127642 614.1548125678298) rotate(0 134.5398712158203 12.5)"><text x="0" y="0" font-family="Virgil, Segoe UI Emoji" font-size="20px" fill="#1e1e1e" text-anchor="start" style="white-space: pre;" direction="ltr" dominant-baseline="text-before-edge">- stores photos and videos</text></g><g transform="translate(1533.212177793344 99.03471070925053) rotate(0 66.06994628906244 87.5)"><text x="0" y="0" font-family="Virgil, Segoe UI Emoji" font-size="20px" fill="#1e1e1e" text-anchor="start" style="white-space: pre;" direction="ltr" dominant-baseline="text-before-edge">Post</text><text x="0" y="25" font-family="Virgil, Segoe UI Emoji" font-size="20px" fill="#1e1e1e" text-anchor="start" style="white-space: pre;" direction="ltr" dominant-baseline="text-before-edge">- id</text><text x="0" y="50" font-family="Virgil, Segoe UI Emoji" font-size="20px" fill="#1e1e1e" text-anchor="start" style="white-space: pre;" direction="ltr" dominant-baseline="text-before-edge">- userId</text><text x="0" y="75" font-family="Virgil, Segoe UI Emoji" font-size="20px" fill="#1e1e1e" text-anchor="start" style="white-space: pre;" direction="ltr" dominant-baseline="text-before-edge">- mediaS3Link</text><text x="0" y="100" font-family="Virgil, Segoe UI Emoji" font-size="20px" fill="#1e1e1e" text-anchor="start" style="white-space: pre;" direction="ltr" dominant-baseline="text-before-edge">- caption</text><text x="0" y="125" font-family="Virgil, Segoe UI Emoji" font-size="20px" fill="#1e1e1e" text-anchor="start" style="white-space: pre;" direction="ltr" dominant-baseline="text-before-edge">- createdAt</text><text x="0" y="150" font-family="Virgil, Segoe UI Emoji" font-size="20px" fill="#1e1e1e" text-anchor="start" style="white-space: pre;" direction="ltr" dominant-baseline="text-before-edge">...</text></g></svg>