<svg version="1.1" xmlns="http://www.w3.org/2000/svg" viewBox="0 0 802.3534903452191 403.6495031455979" >
  <!-- svg-source:excalidraw -->
  <!-- payload-type:application/vnd.excalidraw+json --><!-- payload-version:2 -->
  <defs>
    <style class="style-fonts">
      @font-face {
        font-family: "Virgil";
        src: url("https://files.hellointerview.com/build-assets/PRODUCTION/_next/static/media/Excalifont-s.p.436754fa.woff2");
      }
      @font-face {
        font-family: "Cascadia";
        src: url("https://file%2B.vscode-resource.vscode-cdn.net/Users/iamnafets/.cursor/extensions/pomdtr.excalidraw-editor-3.7.4/public//dist/excalidraw-assets/Cascadia.woff2");
      }
      @font-face {
        font-family: "Assistant";
        src: url("https://file%2B.vscode-resource.vscode-cdn.net/Users/iamnafets/.cursor/extensions/pomdtr.excalidraw-editor-3.7.4/public//dist/excalidraw-assets/Assistant-Regular.woff2");
      }
    </style>
    
  </defs>
  <rect x="0" y="0" width="802.3534903452191" height="403.6495031455979" fill="#ffffff"></rect><g stroke-linecap="round" transform="translate(10 170.91903439559792) rotate(0 105.958984375 111.365234375)"><path d="M32 0 C79.8 0.28, 126.34 -0.96, 179.92 0 M32 0 C71.61 1.43, 110.21 0.22, 179.92 0 M179.92 0 C202.38 0.66, 213.23 9.69, 211.92 32 M179.92 0 C199 2.22, 211.34 10.95, 211.92 32 M211.92 32 C212.34 80.34, 213.64 131.02, 211.92 190.73 M211.92 32 C210.63 67.05, 210.68 102.55, 211.92 190.73 M211.92 190.73 C210.17 213.91, 201.43 222.93, 179.92 222.73 M211.92 190.73 C212.65 211.45, 201.94 221.24, 179.92 222.73 M179.92 222.73 C124.55 224.07, 70.16 222.67, 32 222.73 M179.92 222.73 C136.99 222.24, 94.32 221.97, 32 222.73 M32 222.73 C11.92 220.91, 1.34 212.97, 0 190.73 M32 222.73 C11.66 223.85, -0.44 211.63, 0 190.73 M0 190.73 C-0.52 146.2, 0.89 96.27, 0 32 M0 190.73 C-1.21 156.97, -0.97 121.66, 0 32 M0 32 C-1.81 9.89, 9.82 1.37, 32 0 M0 32 C1.62 9.92, 12.45 -1.61, 32 0" stroke="#1e1e1e" stroke-width="2" fill="none"></path></g><g transform="translate(66.671875 259.2842687705979) rotate(0 49.287109375 23)"><text x="49.287109375" y="0" font-family="Helvetica, Segoe UI Emoji" font-size="20px" fill="#1e1e1e" text-anchor="middle" style="white-space: pre;" direction="ltr" dominant-baseline="text-before-edge">Availablility</text><text x="49.287109375" y="23" font-family="Helvetica, Segoe UI Emoji" font-size="20px" fill="#1e1e1e" text-anchor="middle" style="white-space: pre;" direction="ltr" dominant-baseline="text-before-edge">Service</text></g><g stroke-linecap="round" transform="translate(455.3203125 224.68075314559792) rotate(0 101.29101562499994 47.92578125)"><path d="M118.29 1.51 C131.4 1.74, 144.86 4.93, 156.31 8.47 C167.75 12.01, 179.5 17.53, 186.94 22.75 C194.38 27.97, 198.79 33.5, 200.95 39.77 C203.11 46.04, 203.46 53.94, 199.92 60.39 C196.38 66.84, 188.46 73.46, 179.7 78.48 C170.94 83.5, 159.71 87.74, 147.36 90.5 C135 93.26, 119.36 94.76, 105.57 95.04 C91.79 95.32, 77.53 94.58, 64.67 92.2 C51.8 89.81, 38.22 85.27, 28.38 80.72 C18.54 76.16, 10.28 70.8, 5.62 64.89 C0.96 58.98, -0.68 51.88, 0.44 45.24 C1.55 38.59, 5.89 30.78, 12.31 25 C18.74 19.23, 28.41 14.43, 39 10.57 C49.59 6.71, 61.81 3.39, 75.83 1.87 C89.86 0.35, 114.49 1.19, 123.14 1.46 C131.79 1.73, 128.09 2.83, 127.72 3.49 M102.74 -0.13 C115.32 -0.9, 129.58 1.96, 142.04 4.52 C154.51 7.08, 168.05 10.62, 177.52 15.23 C186.99 19.84, 194.64 26.05, 198.86 32.19 C203.09 38.33, 204.41 45.26, 202.85 52.06 C201.29 58.86, 196.53 67.05, 189.5 72.99 C182.46 78.93, 172.05 84.11, 160.64 87.71 C149.23 91.32, 134.64 93.62, 121.05 94.62 C107.46 95.61, 92.43 95.25, 79.1 93.68 C65.77 92.11, 51.85 88.94, 41.07 85.21 C30.29 81.48, 21.41 76.99, 14.42 71.32 C7.43 65.65, 0.47 57.9, -0.88 51.21 C-2.22 44.53, 1.78 36.96, 6.36 31.21 C10.94 25.46, 17.44 21.23, 26.6 16.69 C35.75 12.15, 48.89 6.87, 61.29 3.99 C73.68 1.11, 94.24 -0.25, 100.97 -0.58 C107.7 -0.92, 101.29 1.17, 101.67 1.99" stroke="#1e1e1e" stroke-width="2" fill="none"></path></g><g transform="translate(512.5766312907899 249.71788948005985) rotate(0 43.9111328125 23)"><text x="43.9111328125" y="0" font-family="Helvetica, Segoe UI Emoji" font-size="20px" fill="#1e1e1e" text-anchor="middle" style="white-space: pre;" direction="ltr" dominant-baseline="text-before-edge">Inventory </text><text x="43.9111328125" y="23" font-family="Helvetica, Segoe UI Emoji" font-size="20px" fill="#1e1e1e" text-anchor="middle" style="white-space: pre;" direction="ltr" dominant-baseline="text-before-edge">Table</text></g><g stroke-linecap="round"><g transform="translate(233.359375 251.10253941277733) rotate(0 82.80382215522229 0.7003752205810088)"><path d="M1.13 0.58 C28.84 0.79, 139.13 0.33, 166.65 0.53 M0.26 -0.16 C27.87 0.25, 138.65 1.64, 166.26 1.61" stroke="#1e1e1e" stroke-width="2" fill="none"></path></g><g transform="translate(233.359375 251.10253941277733) rotate(0 82.80382215522229 0.7003752205810088)"><path d="M138 11.68 C148.43 9.81, 155.42 5.84, 166.26 1.61 M138 11.68 C146.36 9.43, 156.5 5.24, 166.26 1.61" stroke="#1e1e1e" stroke-width="2" fill="none"></path></g><g transform="translate(233.359375 251.10253941277733) rotate(0 82.80382215522229 0.7003752205810088)"><path d="M138.14 -8.84 C148.39 -3.88, 155.34 -1.02, 166.26 1.61 M138.14 -8.84 C146.59 -4.26, 156.68 -1.62, 166.26 1.61" stroke="#1e1e1e" stroke-width="2" fill="none"></path></g></g><mask></mask><g transform="translate(308.6640625 207.77059689559792) rotate(0 20 11.5)"><text x="0" y="0" font-family="Helvetica, Segoe UI Emoji" font-size="20px" fill="#1e1e1e" text-anchor="start" style="white-space: pre;" direction="ltr" dominant-baseline="text-before-edge">[DC]</text></g><g stroke-linecap="round"><g transform="translate(387.1137083809849 295.0389430553005) rotate(0 -76.1193541904924 0.4946302327266494)"><path d="M0.67 0.4 C-24.74 0.61, -125.77 0.11, -151.45 0.4 M-0.43 -0.44 C-26.03 0, -126.87 1.49, -151.99 1.63" stroke="#1e1e1e" stroke-width="2" fill="none"></path></g><g transform="translate(387.1137083809849 295.0389430553005) rotate(0 -76.1193541904924 0.4946302327266494)"><path d="M-123.91 -8.94 C-134.2 -3.37, -146.71 -2.55, -151.99 1.63 M-123.91 -8.94 C-134.93 -4.02, -146.48 -0.86, -151.99 1.63" stroke="#1e1e1e" stroke-width="2" fill="none"></path></g><g transform="translate(387.1137083809849 295.0389430553005) rotate(0 -76.1193541904924 0.4946302327266494)"><path d="M-123.68 11.58 C-133.91 9.2, -146.51 2.08, -151.99 1.63 M-123.68 11.58 C-134.74 8.36, -146.38 3.39, -151.99 1.63" stroke="#1e1e1e" stroke-width="2" fill="none"></path></g></g><mask></mask><g transform="translate(224.94921875 327.7705968955979) rotate(0 73.349609375 11.5)"><text x="0" y="0" font-family="Helvetica, Segoe UI Emoji" font-size="20px" fill="#1e1e1e" text-anchor="start" style="white-space: pre;" direction="ltr" dominant-baseline="text-before-edge">[ { ITEM: QTY } ]</text></g><g transform="translate(691.6401315853391 225.8570556640625) rotate(0 42.7978515625 46)"><text x="0" y="0" font-family="Helvetica, Segoe UI Emoji" font-size="20px" fill="#1e1e1e" text-anchor="start" style="white-space: pre;" direction="ltr" dominant-baseline="text-before-edge">Inventory</text><text x="0" y="23" font-family="Helvetica, Segoe UI Emoji" font-size="20px" fill="#1e1e1e" text-anchor="start" style="white-space: pre;" direction="ltr" dominant-baseline="text-before-edge">  ItemId</text><text x="0" y="46" font-family="Helvetica, Segoe UI Emoji" font-size="20px" fill="#1e1e1e" text-anchor="start" style="white-space: pre;" direction="ltr" dominant-baseline="text-before-edge">  DCId</text><text x="0" y="69" font-family="Helvetica, Segoe UI Emoji" font-size="20px" fill="#1e1e1e" text-anchor="start" style="white-space: pre;" direction="ltr" dominant-baseline="text-before-edge">  Quantity</text></g><g stroke-linecap="round" transform="translate(447.30466222021914 83.529296875) rotate(0 108.5390625 50.564453125)"><path d="M115.87 -0.64 C129.87 -0.96, 146.98 2.38, 159.89 5.58 C172.8 8.79, 184.46 13.12, 193.32 18.6 C202.17 24.08, 209.29 31.64, 213.01 38.46 C216.74 45.29, 217.94 52.94, 215.67 59.53 C213.41 66.12, 207.56 72.33, 199.43 78 C191.3 83.67, 179.53 89.73, 166.9 93.56 C154.27 97.39, 138.42 99.98, 123.65 100.96 C108.88 101.94, 92.53 101.28, 78.27 99.46 C64 97.63, 49.31 94.55, 38.05 90.02 C26.79 85.49, 17.02 78.4, 10.69 72.28 C4.37 66.15, 0.46 60, 0.08 53.26 C-0.29 46.52, 2.96 38.53, 8.46 31.86 C13.97 25.19, 22.6 18.01, 33.12 13.24 C43.65 8.46, 56.4 5.22, 71.62 3.21 C86.84 1.21, 114.31 1.24, 124.45 1.21 C134.59 1.18, 132.79 2.17, 132.48 3.01 M132.57 1 C146.43 1.42, 161.82 5.17, 173.65 9.13 C185.49 13.1, 196.17 18.67, 203.57 24.81 C210.96 30.95, 216.97 39.14, 218.02 45.96 C219.07 52.79, 214.7 59.48, 209.87 65.75 C205.05 72.01, 198.89 78.15, 189.07 83.57 C179.24 89, 164.61 95.35, 150.93 98.28 C137.25 101.22, 121.92 101.58, 107 101.17 C92.08 100.76, 74.9 98.56, 61.41 95.83 C47.92 93.1, 35.33 89.95, 26.06 84.8 C16.8 79.65, 9.85 71.81, 5.83 64.91 C1.81 58.01, 0.27 50.24, 1.96 43.4 C3.64 36.57, 8.78 29.42, 15.92 23.89 C23.06 18.36, 33.08 13.96, 44.8 10.21 C56.52 6.46, 71.73 2.81, 86.23 1.36 C100.72 -0.09, 124.26 1.51, 131.79 1.52 C139.31 1.53, 131.66 0.76, 131.37 1.42" stroke="#1e1e1e" stroke-width="2" fill="none"></path></g><g transform="translate(509.46220510283865 122.83928230832316) rotate(0 46.1328125 11.5)"><text x="46.1328125" y="0" font-family="Helvetica, Segoe UI Emoji" font-size="20px" fill="#1e1e1e" text-anchor="middle" style="white-space: pre;" direction="ltr" dominant-baseline="text-before-edge">Item Table</text></g><g transform="translate(681.2011465952191 70.39453125) rotate(0 55.576171875 46)"><text x="0" y="0" font-family="Helvetica, Segoe UI Emoji" font-size="20px" fill="#1e1e1e" text-anchor="start" style="white-space: pre;" direction="ltr" dominant-baseline="text-before-edge">Item</text><text x="0" y="23" font-family="Helvetica, Segoe UI Emoji" font-size="20px" fill="#1e1e1e" text-anchor="start" style="white-space: pre;" direction="ltr" dominant-baseline="text-before-edge">  Id</text><text x="0" y="46" font-family="Helvetica, Segoe UI Emoji" font-size="20px" fill="#1e1e1e" text-anchor="start" style="white-space: pre;" direction="ltr" dominant-baseline="text-before-edge">  Name</text><text x="0" y="69" font-family="Helvetica, Segoe UI Emoji" font-size="20px" fill="#1e1e1e" text-anchor="start" style="white-space: pre;" direction="ltr" dominant-baseline="text-before-edge">  Description</text></g><g stroke-linecap="round" transform="translate(413.41989659521914 10) rotate(0 136.900390625 186.1953125)"><path d="M111.92 3 C124.3 -2.81, 140.19 -0.54, 153.84 1.53 C167.5 3.6, 181.47 7.93, 193.85 15.41 C206.24 22.88, 218.19 34.1, 228.15 46.37 C238.11 58.64, 246.79 73.41, 253.64 89.03 C260.48 104.65, 265.99 122.31, 269.22 140.1 C272.44 157.88, 273.63 177.6, 273 195.75 C272.36 213.91, 269.87 231.78, 265.41 249.02 C260.96 266.27, 254.22 284.5, 246.26 299.22 C238.29 313.95, 228.54 326.97, 217.62 337.37 C206.7 347.77, 193.55 355.76, 180.74 361.62 C167.93 367.47, 154.31 371.74, 140.77 372.5 C127.23 373.26, 112.62 371.01, 99.49 366.17 C86.36 361.34, 73.35 353.36, 61.99 343.48 C50.63 333.61, 39.78 320.93, 31.34 306.91 C22.9 292.89, 16.36 276.37, 11.34 259.38 C6.31 242.4, 2.68 223.29, 1.2 205.01 C-0.28 186.73, 0.02 167.57, 2.46 149.68 C4.89 131.79, 9.53 113.58, 15.83 97.66 C22.13 81.74, 30.56 67.11, 40.26 54.14 C49.97 41.17, 60.93 28.49, 74.04 19.83 C87.15 11.18, 110.26 4.8, 118.92 2.18 C127.58 -0.43, 125.44 1.16, 125.99 4.15 M138.37 1.05 C151.59 -1.63, 167.23 3.34, 180.31 8.65 C193.4 13.97, 206.01 22.43, 216.91 32.94 C227.81 43.44, 237.91 56.86, 245.71 71.68 C253.5 86.51, 259.3 104.57, 263.7 121.88 C268.09 139.2, 271.21 157.43, 272.06 175.56 C272.92 193.69, 271.93 213.09, 268.82 230.65 C265.71 248.21, 260.18 265.37, 253.39 280.91 C246.61 296.44, 238.08 311.73, 228.09 323.87 C218.1 336.01, 205.54 346.18, 193.47 353.75 C181.39 361.31, 168.63 366.65, 155.64 369.26 C142.64 371.87, 128.78 372.27, 115.49 369.4 C102.2 366.52, 88 360.02, 75.89 352.01 C63.79 344, 52.55 333.78, 42.86 321.34 C33.17 308.89, 24.65 293.24, 17.75 277.34 C10.86 261.45, 4.15 244.15, 1.51 225.98 C-1.12 207.81, 0.35 186.54, 1.96 168.34 C3.58 150.13, 6.35 133.32, 11.2 116.73 C16.05 100.13, 22.48 83.31, 31.08 68.76 C39.67 54.21, 51.37 39.85, 62.76 29.4 C74.15 18.96, 86.55 10.84, 99.42 6.12 C112.29 1.39, 133.44 1.4, 139.96 1.05 C146.48 0.69, 138.54 1.25, 138.52 3.97" stroke="#1e1e1e" stroke-width="2" fill="none"></path></g></svg>