<svg version="1.1" xmlns="http://www.w3.org/2000/svg" viewBox="0 0 1216.7988534047809 679.289590137676" >
  <!-- svg-source:excalidraw -->
  <!-- payload-type:application/vnd.excalidraw+json --><!-- payload-version:2 -->
  <defs>
    <style class="style-fonts">
      @font-face {
        font-family: "Virgil";
        src: url("https://files.hellointerview.com/build-assets/PRODUCTION/_next/static/media/Excalifont-s.p.436754fa.woff2");
      }
      @font-face {
        font-family: "Cascadia";
        src: url("https://file%2B.vscode-resource.vscode-cdn.net/Users/iamnafets/.cursor/extensions/pomdtr.excalidraw-editor-3.7.4/public//dist/excalidraw-assets/Cascadia.woff2");
      }
      @font-face {
        font-family: "Assistant";
        src: url("https://file%2B.vscode-resource.vscode-cdn.net/Users/iamnafets/.cursor/extensions/pomdtr.excalidraw-editor-3.7.4/public//dist/excalidraw-assets/Assistant-Regular.woff2");
      }
    </style>
    
  </defs>
  <rect x="0" y="0" width="1216.7988534047809" height="679.289590137676" fill="#ffffff"></rect><g stroke-linecap="round" transform="translate(424.4453630595617 170.91903439559792) rotate(0 105.958984375 111.365234375)"><path d="M32 0 C82.4 -0.3, 130.2 -1.67, 179.92 0 M32 0 C87.88 0.28, 146.3 -0.73, 179.92 0 M179.92 0 C203.05 -1.31, 210.1 11.84, 211.92 32 M179.92 0 C202.36 0.49, 212.94 9.77, 211.92 32 M211.92 32 C209.65 80.38, 210.95 130.62, 211.92 190.73 M211.92 32 C212.47 74.19, 211.45 117.31, 211.92 190.73 M211.92 190.73 C210.05 211.76, 199.9 222.54, 179.92 222.73 M211.92 190.73 C213.94 213.53, 202.17 223.56, 179.92 222.73 M179.92 222.73 C149.86 223.62, 117.94 224.57, 32 222.73 M179.92 222.73 C131.92 222.33, 85.75 222.29, 32 222.73 M32 222.73 C11.12 221.77, -0.74 212.81, 0 190.73 M32 222.73 C10.64 221.33, -1.07 212.08, 0 190.73 M0 190.73 C-1.92 128.73, -0.34 68.52, 0 32 M0 190.73 C0.07 155.04, 0.56 119.59, 0 32 M0 32 C0.29 9.19, 9.34 1.85, 32 0 M0 32 C1.81 12.54, 9.69 1.66, 32 0" stroke="#1e1e1e" stroke-width="2" fill="none"></path></g><g transform="translate(481.1172380595617 259.2842687705979) rotate(0 49.287109375 23)"><text x="49.287109375" y="0" font-family="Helvetica, Segoe UI Emoji" font-size="20px" fill="#1e1e1e" text-anchor="middle" style="white-space: pre;" direction="ltr" dominant-baseline="text-before-edge">Availablility</text><text x="49.287109375" y="23" font-family="Helvetica, Segoe UI Emoji" font-size="20px" fill="#1e1e1e" text-anchor="middle" style="white-space: pre;" direction="ltr" dominant-baseline="text-before-edge">Service</text></g><g stroke-linecap="round" transform="translate(869.7656755595617 224.68075314559792) rotate(0 101.29101562499994 47.92578125)"><path d="M132.92 3.13 C145.66 4.66, 158.25 9.22, 168.31 13.31 C178.38 17.4, 187.49 21.79, 193.3 27.66 C199.11 33.54, 203.07 41.84, 203.17 48.56 C203.27 55.28, 199.69 62.14, 193.91 68 C188.12 73.86, 178.87 79.34, 168.44 83.73 C158.01 88.12, 144.4 92.41, 131.33 94.33 C118.26 96.26, 103.45 96.04, 90.01 95.27 C76.56 94.49, 62.5 92.89, 50.64 89.68 C38.78 86.46, 27.04 81.23, 18.85 75.99 C10.66 70.75, 4.35 64.71, 1.49 58.26 C-1.37 51.82, -1.28 43.91, 1.69 37.31 C4.65 30.72, 11.09 23.97, 19.27 18.7 C27.45 13.42, 38.83 8.6, 50.78 5.67 C62.72 2.74, 75.37 1.28, 90.93 1.13 C106.49 0.97, 133.8 3.81, 144.12 4.75 C154.44 5.7, 153.51 6.08, 152.85 6.8 M133.05 2.57 C146.07 3.67, 159.74 7.91, 169.66 12.1 C179.58 16.28, 186.97 21.84, 192.57 27.67 C198.17 33.5, 202.95 40.61, 203.25 47.07 C203.55 53.54, 200.1 60.32, 194.38 66.47 C188.66 72.61, 179.12 79.59, 168.9 83.94 C158.69 88.28, 146.14 90.57, 133.08 92.51 C120.02 94.46, 103.97 95.9, 90.53 95.62 C77.1 95.34, 64.36 94.13, 52.47 90.83 C40.59 87.54, 27.59 81.19, 19.24 75.87 C10.9 70.55, 5.01 65.36, 2.4 58.9 C-0.2 52.43, 0.78 43.31, 3.6 37.06 C6.42 30.82, 11.47 26.55, 19.33 21.43 C27.19 16.3, 38.73 9.84, 50.76 6.29 C62.78 2.74, 77.89 0.99, 91.48 0.14 C105.08 -0.72, 125.8 0.42, 132.3 1.16 C138.8 1.9, 130.83 3.42, 130.47 4.57" stroke="#1e1e1e" stroke-width="2" fill="none"></path></g><g transform="translate(927.0219943503516 249.71788948005985) rotate(0 43.9111328125 23)"><text x="43.9111328125" y="0" font-family="Helvetica, Segoe UI Emoji" font-size="20px" fill="#1e1e1e" text-anchor="middle" style="white-space: pre;" direction="ltr" dominant-baseline="text-before-edge">Inventory </text><text x="43.9111328125" y="23" font-family="Helvetica, Segoe UI Emoji" font-size="20px" fill="#1e1e1e" text-anchor="middle" style="white-space: pre;" direction="ltr" dominant-baseline="text-before-edge">Table</text></g><g stroke-linecap="round"><g transform="translate(647.8047380595617 251.10253941277733) rotate(0 82.80382215522229 0.7003752205810088)"><path d="M-1.08 0.02 C26.54 0.09, 138.53 0.11, 166.49 0.2 M0.56 -1.01 C28.03 -0.82, 138.35 0.69, 166.01 1.11" stroke="#1e1e1e" stroke-width="2" fill="none"></path></g><g transform="translate(647.8047380595617 251.10253941277733) rotate(0 82.80382215522229 0.7003752205810088)"><path d="M137.67 10.97 C148.03 9.12, 156.3 5.86, 166.01 1.11 M137.67 10.97 C144.89 8.71, 151.49 5.79, 166.01 1.11" stroke="#1e1e1e" stroke-width="2" fill="none"></path></g><g transform="translate(647.8047380595617 251.10253941277733) rotate(0 82.80382215522229 0.7003752205810088)"><path d="M137.97 -9.55 C148.18 -3.95, 156.34 0.25, 166.01 1.11 M137.97 -9.55 C144.92 -7, 151.46 -5.1, 166.01 1.11" stroke="#1e1e1e" stroke-width="2" fill="none"></path></g></g><mask></mask><g stroke-linecap="round" transform="translate(379.5460995304038 450.33678799115296) rotate(0 90.900390625 96.669921875)"><path d="M32 0 C54.77 0.93, 80.23 -2.69, 149.8 0 M32 0 C74.7 -0.64, 116.61 -1.21, 149.8 0 M149.8 0 C172.7 -0.75, 181.19 11.21, 181.8 32 M149.8 0 C171.88 -0.7, 181.84 9.17, 181.8 32 M181.8 32 C180.49 75.7, 180.72 121.77, 181.8 161.34 M181.8 32 C183.34 69.91, 182.05 108.01, 181.8 161.34 M181.8 161.34 C182.55 183.91, 171.47 193.94, 149.8 193.34 M181.8 161.34 C183.27 183.13, 172.64 193.27, 149.8 193.34 M149.8 193.34 C121.83 194.32, 94.51 193.12, 32 193.34 M149.8 193.34 C109.58 192.63, 71.2 193.47, 32 193.34 M32 193.34 C10.11 192.77, 0.1 183.69, 0 161.34 M32 193.34 C12.96 191.59, 0.45 184.92, 0 161.34 M0 161.34 C0.02 117.91, -1.26 72.58, 0 32 M0 161.34 C-1.44 111.29, -0.97 60.1, 0 32 M0 32 C-1.35 10.61, 10.43 -1.98, 32 0 M0 32 C-2.2 11.54, 9.54 1.83, 32 0" stroke="#1e1e1e" stroke-width="2" fill="none"></path></g><g transform="translate(402.0871151554038 535.506709866153) rotate(0 68.359375 11.5)"><text x="68.359375" y="0" font-family="Helvetica, Segoe UI Emoji" font-size="20px" fill="#1e1e1e" text-anchor="middle" style="white-space: pre;" direction="ltr" dominant-baseline="text-before-edge">Nearby Service</text></g><g stroke-linecap="round"><g transform="translate(471.57421974875297 435.70983486615296) rotate(0 2.9550333742616886 -13.85047836027752)"><path d="M-0.5 0.32 C0.45 -4.21, 5.06 -22.88, 6.17 -27.58 M0.24 0.01 C1.1 -4.67, 4.93 -23.92, 5.88 -28.49" stroke="#1e1e1e" stroke-width="2" fill="none"></path></g><g transform="translate(471.57421974875297 435.70983486615296) rotate(0 2.9550333742616886 -13.85047836027752)"><path d="M7.99 -14.48 C7.63 -19.62, 6.54 -25.1, 5.88 -28.49 M7.99 -14.48 C7.71 -18.28, 6.77 -21.71, 5.88 -28.49" stroke="#1e1e1e" stroke-width="2" fill="none"></path></g><g transform="translate(471.57421974875297 435.70983486615296) rotate(0 2.9550333742616886 -13.85047836027752)"><path d="M-1.51 -16.4 C1.83 -20.74, 4.44 -25.48, 5.88 -28.49 M-1.51 -16.4 C0.69 -19.66, 2.24 -22.58, 5.88 -28.49" stroke="#1e1e1e" stroke-width="2" fill="none"></path></g></g><mask></mask><g stroke-linecap="round"><g transform="translate(551.0825374173071 414.7080968955979) rotate(0 -2.6548948849301723 10.64540023527752)"><path d="M0.26 0.12 C-0.5 3.58, -4.15 17.64, -5.07 21.08 M-0.26 -0.3 C-1.03 3.21, -4.49 18.1, -5.37 21.67" stroke="#1e1e1e" stroke-width="2" fill="none"></path></g><g transform="translate(551.0825374173071 414.7080968955979) rotate(0 -2.6548948849301723 10.64540023527752)"><path d="M-6.63 10.77 C-6.22 13.29, -6.29 15.37, -5.37 21.67 M-6.63 10.77 C-6.41 13.07, -5.98 15.15, -5.37 21.67" stroke="#1e1e1e" stroke-width="2" fill="none"></path></g><g transform="translate(551.0825374173071 414.7080968955979) rotate(0 -2.6548948849301723 10.64540023527752)"><path d="M0.67 12.51 C-0.45 14.68, -2.04 16.4, -5.37 21.67 M0.67 12.51 C-0.61 14.45, -1.68 16.16, -5.37 21.67" stroke="#1e1e1e" stroke-width="2" fill="none"></path></g></g><mask></mask><g transform="translate(344.6016130595617 412.7627843955979) rotate(0 54.4580078125 11.5)"><text x="0" y="0" font-family="Helvetica, Segoe UI Emoji" font-size="20px" fill="#1e1e1e" text-anchor="start" style="white-space: pre;" direction="ltr" dominant-baseline="text-before-edge">Nearby DCs</text></g><g transform="translate(723.1094255595617 207.77059689559792) rotate(0 20 11.5)"><text x="0" y="0" font-family="Helvetica, Segoe UI Emoji" font-size="20px" fill="#1e1e1e" text-anchor="start" style="white-space: pre;" direction="ltr" dominant-baseline="text-before-edge">[DC]</text></g><g stroke-linecap="round"><g transform="translate(801.5590714405466 295.0389430553005) rotate(0 -76.1193541904924 0.4946302327266494)"><path d="M0.94 -0.45 C-24.51 -0.04, -127.14 1.14, -152.6 1.32 M-0.03 -1.73 C-25.68 -1.6, -128.35 -1.21, -153.74 -0.63" stroke="#1e1e1e" stroke-width="2" fill="none"></path></g><g transform="translate(801.5590714405466 295.0389430553005) rotate(0 -76.1193541904924 0.4946302327266494)"><path d="M-125.68 -11.23 C-135.19 -8.35, -142.55 -3.82, -153.74 -0.63 M-125.68 -11.23 C-132.72 -9.15, -141.31 -5.97, -153.74 -0.63" stroke="#1e1e1e" stroke-width="2" fill="none"></path></g><g transform="translate(801.5590714405466 295.0389430553005) rotate(0 -76.1193541904924 0.4946302327266494)"><path d="M-125.43 9.29 C-134.83 5.84, -142.27 4.04, -153.74 -0.63 M-125.43 9.29 C-132.55 5.84, -141.2 3.49, -153.74 -0.63" stroke="#1e1e1e" stroke-width="2" fill="none"></path></g></g><mask></mask><g transform="translate(639.3945818095617 327.7705968955979) rotate(0 73.349609375 11.5)"><text x="0" y="0" font-family="Helvetica, Segoe UI Emoji" font-size="20px" fill="#1e1e1e" text-anchor="start" style="white-space: pre;" direction="ltr" dominant-baseline="text-before-edge">[ { ITEM: QTY } ]</text></g><g stroke-linecap="round" transform="translate(204.7499564306595 97.39082978419901) rotate(0 54.04250020359365 153.99920043015902)"><path d="M27.02 0 C40.98 -0.14, 54.85 0.87, 81.06 0 M27.02 0 C39.08 -0.01, 52.33 0.05, 81.06 0 M81.06 0 C100.84 1.28, 108.88 9.73, 108.09 27.02 M81.06 0 C97.04 2.09, 108.95 10.43, 108.09 27.02 M108.09 27.02 C109.02 108.48, 108.65 186.69, 108.09 280.98 M108.09 27.02 C109.19 93.82, 108.7 161.69, 108.09 280.98 M108.09 280.98 C108.06 297.77, 98.15 308.01, 81.06 308 M108.09 280.98 C110.18 300.95, 98.44 307.34, 81.06 308 M81.06 308 C63.04 308.93, 50.03 309.3, 27.02 308 M81.06 308 C65.91 307.2, 49.81 308.87, 27.02 308 M27.02 308 C10.58 309.63, -0.85 300.44, 0 280.98 M27.02 308 C9.11 308.67, -1.55 298.93, 0 280.98 M0 280.98 C2.66 206.95, 3.33 136, 0 27.02 M0 280.98 C-0.83 214.03, -1.46 145.82, 0 27.02 M0 27.02 C1.25 8.49, 10.32 -0.72, 27.02 0 M0 27.02 C1.18 6.85, 7.05 -1.5, 27.02 0" stroke="#1e1e1e" stroke-width="2" fill="none"></path></g><g transform="translate(219.32956600925314 228.39003021435803) rotate(0 39.462890625 23)"><text x="39.462890625" y="0" font-family="Helvetica, Segoe UI Emoji" font-size="20px" fill="#1e1e1e" text-anchor="middle" style="white-space: pre;" direction="ltr" dominant-baseline="text-before-edge">API </text><text x="39.462890625" y="23" font-family="Helvetica, Segoe UI Emoji" font-size="20px" fill="#1e1e1e" text-anchor="middle" style="white-space: pre;" direction="ltr" dominant-baseline="text-before-edge">Gateway</text></g><g stroke-linecap="round"><g transform="translate(316.48537817281795 224.19201361131388) rotate(0 44.35966089333937 8.225584843450235)"><path d="M0.63 -0.72 C15.31 2.1, 73.62 13.3, 88.12 16.13 M-0.5 1.52 C14.58 4.59, 75.45 14.83, 90.52 17.49" stroke="#1e1e1e" stroke-width="2" fill="none"></path></g><g transform="translate(316.48537817281795 224.19201361131388) rotate(0 44.35966089333937 8.225584843450235)"><path d="M60.99 22.82 C68.75 20.06, 78.31 17.58, 90.52 17.49 M60.99 22.82 C70.32 21.97, 78.24 20.18, 90.52 17.49" stroke="#1e1e1e" stroke-width="2" fill="none"></path></g><g transform="translate(316.48537817281795 224.19201361131388) rotate(0 44.35966089333937 8.225584843450235)"><path d="M64.48 2.59 C71.05 5.96, 79.56 9.59, 90.52 17.49 M64.48 2.59 C72.67 7.5, 79.61 11.47, 90.52 17.49" stroke="#1e1e1e" stroke-width="2" fill="none"></path></g></g><mask></mask><g stroke-linecap="round"><g transform="translate(408.2776514686959 311.48846971150033) rotate(0 -45.896136647939045 -0.536842258682384)"><path d="M-0.6 -0.32 C-16.19 -0.41, -77.58 -1.11, -92.91 -1.26 M1.29 -1.54 C-14 -1.38, -75.55 -0.08, -90.79 0.18" stroke="#1e1e1e" stroke-width="2" fill="none"></path></g><g transform="translate(408.2776514686959 311.48846971150033) rotate(0 -45.896136647939045 -0.536842258682384)"><path d="M-62.8 -10.62 C-73.26 -8.82, -82.89 -4.5, -90.79 0.18 M-62.8 -10.62 C-70.43 -6.94, -79.84 -3.26, -90.79 0.18" stroke="#1e1e1e" stroke-width="2" fill="none"></path></g><g transform="translate(408.2776514686959 311.48846971150033) rotate(0 -45.896136647939045 -0.536842258682384)"><path d="M-62.4 9.9 C-72.88 4.47, -82.65 1.56, -90.79 0.18 M-62.4 9.9 C-70.33 7.62, -79.85 5.35, -90.79 0.18" stroke="#1e1e1e" stroke-width="2" fill="none"></path></g></g><mask></mask><g stroke-linecap="round" transform="translate(10 106.66767952386999) rotate(0 73.478515625 143.828125)"><path d="M32 0 C52.44 -0.58, 73.3 2.53, 114.96 0 M32 0 C61.31 0.61, 92.76 0.32, 114.96 0 M114.96 0 C136.62 0.6, 148.24 11.06, 146.96 32 M114.96 0 C137.8 -0.07, 145.36 9.85, 146.96 32 M146.96 32 C145.36 108.43, 146.83 186.11, 146.96 255.66 M146.96 32 C146.85 86.2, 145.82 138.68, 146.96 255.66 M146.96 255.66 C147.06 278, 138.28 286.13, 114.96 287.66 M146.96 255.66 C147.41 279.24, 137.16 287.27, 114.96 287.66 M114.96 287.66 C81.35 286.44, 52.56 289.35, 32 287.66 M114.96 287.66 C83.36 288.55, 51.01 288.23, 32 287.66 M32 287.66 C10.43 285.67, -1.92 277.75, 0 255.66 M32 287.66 C9.54 289.49, 2.12 276.19, 0 255.66 M0 255.66 C2.82 178.96, 1.04 106.42, 0 32 M0 255.66 C-0.82 193.53, -2 132.45, 0 32 M0 32 C1.38 11.21, 12.59 0.03, 32 0 M0 32 C-2.25 11.01, 9.98 -0.97, 32 0" stroke="#1e1e1e" stroke-width="2" fill="none"></path></g><g transform="translate(62.365234375 238.99580452387) rotate(0 21.11328125 11.5)"><text x="21.11328125" y="0" font-family="Helvetica, Segoe UI Emoji" font-size="20px" fill="#1e1e1e" text-anchor="middle" style="white-space: pre;" direction="ltr" dominant-baseline="text-before-edge">User</text></g><g stroke-linecap="round"><g transform="translate(161.7265625 205.94892952387) rotate(0 17.177734375 -1.232421875)"><path d="M0.48 0.35 C6.31 -0.02, 29.01 -1.88, 34.57 -2.27 M0.07 0.06 C5.87 -0.48, 28.44 -2.66, 34.26 -3.13" stroke="#1e1e1e" stroke-width="2" fill="none"></path></g><g transform="translate(161.7265625 205.94892952387) rotate(0 17.177734375 -1.232421875)"><path d="M18.66 4.19 C22.84 2.76, 26.22 -0.04, 34.26 -3.13 M18.66 4.19 C24.82 1.41, 31.11 -1.49, 34.26 -3.13" stroke="#1e1e1e" stroke-width="2" fill="none"></path></g><g transform="translate(161.7265625 205.94892952387) rotate(0 17.177734375 -1.232421875)"><path d="M17.61 -7.55 C22.02 -6.25, 25.65 -6.33, 34.26 -3.13 M17.61 -7.55 C24.2 -5.74, 30.91 -4.06, 34.26 -3.13" stroke="#1e1e1e" stroke-width="2" fill="none"></path></g></g><mask></mask><g stroke-linecap="round"><g transform="translate(201.2890625 263.61299202387) rotate(0 -18.765625 -0.046875)"><path d="M0.22 0.2 C-6.2 0.21, -31.76 0.4, -38.02 0.41 M-0.33 -0.17 C-6.63 -0.34, -30.83 -0.22, -37.03 -0.3" stroke="#1e1e1e" stroke-width="2" fill="none"></path></g><g transform="translate(201.2890625 263.61299202387) rotate(0 -18.765625 -0.046875)"><path d="M-19.38 -6.66 C-25.87 -4.99, -32.21 -1.34, -37.03 -0.3 M-19.38 -6.66 C-25.46 -4.24, -31.84 -2.05, -37.03 -0.3" stroke="#1e1e1e" stroke-width="2" fill="none"></path></g><g transform="translate(201.2890625 263.61299202387) rotate(0 -18.765625 -0.046875)"><path d="M-19.42 6.17 C-25.94 2.87, -32.26 1.54, -37.03 -0.3 M-19.42 6.17 C-25.5 3.95, -31.86 1.5, -37.03 -0.3" stroke="#1e1e1e" stroke-width="2" fill="none"></path></g></g><mask></mask><g stroke-linecap="round" transform="translate(658.3867440297809 463.723183887676) rotate(0 102.783203125 102.783203125)"><path d="M122.3 2.45 C134.08 3.16, 146.93 9.9, 157.38 16.23 C167.83 22.56, 177.65 30.55, 184.98 40.42 C192.31 50.29, 198.1 63.36, 201.38 75.43 C204.67 87.5, 205.9 100.65, 204.69 112.83 C203.49 125.02, 199.58 137.51, 194.16 148.53 C188.73 159.55, 181.35 170.67, 172.15 178.96 C162.96 187.25, 150.6 193.7, 138.99 198.28 C127.37 202.87, 114.58 206.49, 102.45 206.48 C90.32 206.47, 77.76 202.88, 66.19 198.23 C54.61 193.57, 42.18 186.72, 33 178.56 C23.83 170.41, 16.69 160.36, 11.13 149.29 C5.57 138.21, 0.67 124.56, -0.35 112.13 C-1.38 99.7, 1.47 86.49, 4.99 74.71 C8.52 62.93, 13.48 51.33, 20.8 41.44 C28.11 31.55, 38.41 22.1, 48.86 15.36 C59.31 8.62, 69.85 2.85, 83.49 1.02 C97.13 -0.81, 121.69 3.31, 130.69 4.39 C139.69 5.47, 137.96 5.97, 137.48 7.5 M117.5 -0.4 C129.3 -0.18, 141.29 7.36, 151.97 13.9 C162.65 20.44, 173.26 29.46, 181.57 38.85 C189.88 48.25, 197.77 58.95, 201.84 70.26 C205.91 81.58, 206.87 94.16, 205.96 106.73 C205.05 119.31, 201.76 134.32, 196.37 145.73 C190.98 157.14, 182.25 166.7, 173.63 175.19 C165 183.69, 155.57 191.74, 144.6 196.7 C133.63 201.66, 120.21 204.63, 107.82 204.95 C95.42 205.27, 82.31 202.7, 70.23 198.61 C58.14 194.52, 44.73 188.1, 35.31 180.43 C25.88 172.76, 19.18 163.28, 13.68 152.59 C8.19 141.9, 4.37 128.61, 2.33 116.32 C0.29 104.02, -1.17 90.94, 1.43 78.8 C4.03 66.66, 10.85 53.81, 17.93 43.49 C25.02 33.17, 33.81 23.82, 43.95 16.87 C54.08 9.92, 66.64 4.36, 78.75 1.78 C90.86 -0.81, 110.05 1.23, 116.63 1.37 C123.21 1.5, 118.4 0.94, 118.24 2.59" stroke="#1e1e1e" stroke-width="2" fill="none"></path></g><g transform="translate(719.8633175455191 554.8276870909142) rotate(0 41.1279296875 11.5)"><text x="41.1279296875" y="0" font-family="Helvetica, Segoe UI Emoji" font-size="20px" fill="#1e1e1e" text-anchor="middle" style="white-space: pre;" direction="ltr" dominant-baseline="text-before-edge">DC Table</text></g><g stroke-linecap="round"><g transform="translate(568.8652596547809 520.064980762676) rotate(0 43.16353827598289 0.20052612281199345)"><path d="M0.2 0.36 C14.64 0.34, 72.61 0.64, 87.09 0.64 M-1.16 -0.5 C13.15 -0.97, 71.9 -1.72, 86.55 -1.36" stroke="#1e1e1e" stroke-width="2" fill="none"></path></g><g transform="translate(568.8652596547809 520.064980762676) rotate(0 43.16353827598289 0.20052612281199345)"><path d="M58.33 8.83 C68.39 6.62, 77.72 3.21, 86.55 -1.36 M58.33 8.83 C67.23 5.5, 75.39 2.39, 86.55 -1.36" stroke="#1e1e1e" stroke-width="2" fill="none"></path></g><g transform="translate(568.8652596547809 520.064980762676) rotate(0 43.16353827598289 0.20052612281199345)"><path d="M58.39 -11.7 C68.56 -6.97, 77.86 -3.45, 86.55 -1.36 M58.39 -11.7 C67.13 -8.93, 75.27 -5.94, 86.55 -1.36" stroke="#1e1e1e" stroke-width="2" fill="none"></path></g></g><mask></mask><g stroke-linecap="round"><g transform="translate(650.0166615819703 574.5964057620328) rotate(0 -39.62452908859473 3.5936625003216136)"><path d="M0.77 0.24 C-12.34 1.37, -64.99 6.06, -78.46 7.15 M-0.29 -0.68 C-13.51 0.62, -66.11 7.25, -79 8.67" stroke="#1e1e1e" stroke-width="2" fill="none"></path></g><g transform="translate(650.0166615819703 574.5964057620328) rotate(0 -39.62452908859473 3.5936625003216136)"><path d="M-52.22 -4.85 C-60.26 0.91, -69.19 2.49, -79 8.67 M-52.22 -4.85 C-59.01 -1.86, -66.7 2.57, -79 8.67" stroke="#1e1e1e" stroke-width="2" fill="none"></path></g><g transform="translate(650.0166615819703 574.5964057620328) rotate(0 -39.62452908859473 3.5936625003216136)"><path d="M-49.79 15.53 C-58.66 14.86, -68.36 9.99, -79 8.67 M-49.79 15.53 C-57.32 13.12, -65.65 12.16, -79 8.67" stroke="#1e1e1e" stroke-width="2" fill="none"></path></g></g><mask></mask><g transform="translate(878.624540763913 522.0679931640625) rotate(0 80.0341796875 46)"><text x="0" y="0" font-family="Helvetica, Segoe UI Emoji" font-size="20px" fill="#1e1e1e" text-anchor="start" style="white-space: pre;" direction="ltr" dominant-baseline="text-before-edge">DistributionCenter</text><text x="0" y="23" font-family="Helvetica, Segoe UI Emoji" font-size="20px" fill="#1e1e1e" text-anchor="start" style="white-space: pre;" direction="ltr" dominant-baseline="text-before-edge">  Id</text><text x="0" y="46" font-family="Helvetica, Segoe UI Emoji" font-size="20px" fill="#1e1e1e" text-anchor="start" style="white-space: pre;" direction="ltr" dominant-baseline="text-before-edge">  Lat</text><text x="0" y="69" font-family="Helvetica, Segoe UI Emoji" font-size="20px" fill="#1e1e1e" text-anchor="start" style="white-space: pre;" direction="ltr" dominant-baseline="text-before-edge">  Long</text></g><g transform="translate(1106.0854946449008 225.8570556640625) rotate(0 42.7978515625 46)"><text x="0" y="0" font-family="Helvetica, Segoe UI Emoji" font-size="20px" fill="#1e1e1e" text-anchor="start" style="white-space: pre;" direction="ltr" dominant-baseline="text-before-edge">Inventory</text><text x="0" y="23" font-family="Helvetica, Segoe UI Emoji" font-size="20px" fill="#1e1e1e" text-anchor="start" style="white-space: pre;" direction="ltr" dominant-baseline="text-before-edge">  ItemId</text><text x="0" y="46" font-family="Helvetica, Segoe UI Emoji" font-size="20px" fill="#1e1e1e" text-anchor="start" style="white-space: pre;" direction="ltr" dominant-baseline="text-before-edge">  DCId</text><text x="0" y="69" font-family="Helvetica, Segoe UI Emoji" font-size="20px" fill="#1e1e1e" text-anchor="start" style="white-space: pre;" direction="ltr" dominant-baseline="text-before-edge">  Quantity</text></g><g stroke-linecap="round" transform="translate(861.7500252797809 83.529296875) rotate(0 108.5390625 50.564453125)"><path d="M121.21 0.31 C135.27 0.27, 150.41 2.9, 163.03 6.53 C175.64 10.17, 188.13 16.5, 196.91 22.12 C205.7 27.73, 212.87 33.64, 215.75 40.21 C218.64 46.79, 217.46 54.66, 214.22 61.57 C210.97 68.47, 205.12 76.11, 196.29 81.64 C187.46 87.18, 173.95 91.5, 161.21 94.77 C148.48 98.05, 134.46 100.51, 119.91 101.28 C105.36 102.05, 88.05 101.6, 73.92 99.39 C59.78 97.17, 46.05 92.87, 35.1 87.98 C24.16 83.1, 13.95 76.24, 8.26 70.06 C2.56 63.88, 0.54 57.72, 0.93 50.91 C1.32 44.09, 4.52 35.53, 10.59 29.17 C16.66 22.81, 26.41 17.32, 37.35 12.73 C48.28 8.15, 61.09 3.67, 76.2 1.66 C91.31 -0.34, 118.43 0.72, 128 0.71 C137.56 0.69, 133.85 0.8, 133.6 1.56 M151.14 2.46 C164.41 4.49, 177.74 11.62, 187.5 16.74 C197.26 21.86, 204.68 26.9, 209.7 33.17 C214.72 39.45, 218.48 47.54, 217.64 54.41 C216.79 61.28, 211.75 68.55, 204.64 74.39 C197.52 80.23, 187.03 85.37, 174.93 89.44 C162.83 93.51, 146.33 96.95, 132.05 98.81 C117.76 100.68, 103.23 101.75, 89.23 100.64 C75.23 99.52, 60.53 96.05, 48.03 92.11 C35.53 88.17, 22.17 82.96, 14.23 76.98 C6.29 71.01, 2.23 63.23, 0.41 56.27 C-1.42 49.31, -0.83 41.81, 3.3 35.22 C7.44 28.63, 15.53 21.75, 25.2 16.73 C34.86 11.71, 47.62 7.97, 61.28 5.09 C74.93 2.22, 92.33 -0.33, 107.13 -0.52 C121.93 -0.7, 143.2 3.17, 150.08 3.97 C156.96 4.76, 148.78 3.53, 148.41 4.27" stroke="#1e1e1e" stroke-width="2" fill="none"></path></g><g transform="translate(923.9075681624004 122.83928230832316) rotate(0 46.1328125 11.5)"><text x="46.1328125" y="0" font-family="Helvetica, Segoe UI Emoji" font-size="20px" fill="#1e1e1e" text-anchor="middle" style="white-space: pre;" direction="ltr" dominant-baseline="text-before-edge">Item Table</text></g><g transform="translate(1095.6465096547809 70.39453125) rotate(0 55.576171875 46)"><text x="0" y="0" font-family="Helvetica, Segoe UI Emoji" font-size="20px" fill="#1e1e1e" text-anchor="start" style="white-space: pre;" direction="ltr" dominant-baseline="text-before-edge">Item</text><text x="0" y="23" font-family="Helvetica, Segoe UI Emoji" font-size="20px" fill="#1e1e1e" text-anchor="start" style="white-space: pre;" direction="ltr" dominant-baseline="text-before-edge">  Id</text><text x="0" y="46" font-family="Helvetica, Segoe UI Emoji" font-size="20px" fill="#1e1e1e" text-anchor="start" style="white-space: pre;" direction="ltr" dominant-baseline="text-before-edge">  Name</text><text x="0" y="69" font-family="Helvetica, Segoe UI Emoji" font-size="20px" fill="#1e1e1e" text-anchor="start" style="white-space: pre;" direction="ltr" dominant-baseline="text-before-edge">  Description</text></g><g stroke-linecap="round" transform="translate(827.8652596547809 10) rotate(0 136.900390625 186.1953125)"><path d="M106.15 4.75 C118.03 -2.29, 132.32 -0.96, 145.68 0.46 C159.04 1.88, 173.85 6.73, 186.33 13.29 C198.82 19.85, 209.91 28.65, 220.58 39.83 C231.24 51.01, 242.56 65.24, 250.33 80.38 C258.1 95.52, 263.3 113.27, 267.2 130.67 C271.09 148.06, 273.68 166.71, 273.7 184.75 C273.72 202.79, 271 221.26, 267.32 238.89 C263.63 256.52, 258.82 275.31, 251.59 290.55 C244.37 305.8, 234.46 318.94, 223.98 330.35 C213.5 341.75, 201.29 352.19, 188.72 358.98 C176.16 365.76, 162.12 369.57, 148.59 371.07 C135.06 372.57, 120.9 371.92, 107.55 367.95 C94.2 363.99, 80.11 356.35, 68.47 347.28 C56.83 338.2, 46.66 326.5, 37.72 313.51 C28.79 300.52, 20.93 285.61, 14.86 269.33 C8.8 253.06, 3.78 234.11, 1.36 215.88 C-1.06 197.64, -1.67 178.23, 0.36 159.91 C2.4 141.59, 7.77 122.38, 13.58 105.95 C19.39 89.52, 26.31 74.6, 35.25 61.35 C44.18 48.09, 54.85 35.92, 67.18 26.4 C79.52 16.89, 101.55 7.74, 109.27 4.24 C116.99 0.75, 113.1 2.38, 113.51 5.45 M153.83 1.91 C166.47 1.2, 181.79 9.09, 194.01 16.62 C206.24 24.16, 217.32 34.9, 227.19 47.11 C237.06 59.33, 246.31 74.05, 253.25 89.92 C260.19 105.79, 265.33 124.54, 268.85 142.36 C272.38 160.18, 275.14 178.61, 274.42 196.83 C273.7 215.04, 269.64 234.54, 264.54 251.66 C259.45 268.77, 251.74 285.07, 243.84 299.5 C235.94 313.92, 228.09 327.76, 217.15 338.21 C206.21 348.66, 191.28 356.38, 178.2 362.2 C165.11 368.03, 151.91 372.66, 138.64 373.16 C125.37 373.67, 111.6 370.51, 98.6 365.24 C85.59 359.98, 72.02 351.58, 60.6 341.56 C49.19 331.53, 38.29 319.19, 30.1 305.08 C21.91 290.98, 16.56 274.12, 11.46 256.94 C6.36 239.77, 0.97 220.34, -0.5 202.04 C-1.97 183.75, -0.21 165.09, 2.65 147.17 C5.51 129.24, 10.11 110.42, 16.65 94.5 C23.19 78.57, 32.11 64.19, 41.89 51.63 C51.66 39.06, 62.97 27.12, 75.29 19.1 C87.61 11.09, 102.28 6.34, 115.83 3.55 C129.38 0.76, 150.25 2.09, 156.58 2.35 C162.9 2.6, 154.28 2.27, 153.77 5.07" stroke="#1e1e1e" stroke-width="2" fill="none"></path></g></svg>