<svg version="1.1" xmlns="http://www.w3.org/2000/svg" viewBox="0 0 1181.303723280777 446.01170744600927" >
  <!-- svg-source:excalidraw -->
  <!-- payload-type:application/vnd.excalidraw+json --><!-- payload-version:2 -->
  <defs>
    <style class="style-fonts">
      @font-face {
        font-family: "Virgil";
        src: url("https://files.hellointerview.com/build-assets/PRODUCTION/_next/static/media/Excalifont-s.p.436754fa.woff2");
      }
      @font-face {
        font-family: "Cascadia";
        src: url("https://file%2B.vscode-resource.vscode-cdn.net/Users/evanking/.cursor/extensions/pomdtr.excalidraw-editor-3.7.4/public//dist/excalidraw-assets/Cascadia.woff2");
      }
      @font-face {
        font-family: "Assistant";
        src: url("https://file%2B.vscode-resource.vscode-cdn.net/Users/evanking/.cursor/extensions/pomdtr.excalidraw-editor-3.7.4/public//dist/excalidraw-assets/Assistant-Regular.woff2");
      }
    </style>
    
  </defs>
  <rect x="0" y="0" width="1181.303723280777" height="446.01170744600927" fill="#ffffff"></rect><g transform="translate(10 63.29059145774636) rotate(0 213.64971923828125 137.5)"><text x="0" y="0" font-family="Virgil, Segoe UI Emoji" font-size="20px" fill="#1e1e1e" text-anchor="start" style="white-space: pre;" direction="ltr" dominant-baseline="text-before-edge">Functional Requirements</text><text x="0" y="25" font-family="Virgil, Segoe UI Emoji" font-size="20px" fill="#1e1e1e" text-anchor="start" style="white-space: pre;" direction="ltr" dominant-baseline="text-before-edge"></text><text x="0" y="50" font-family="Virgil, Segoe UI Emoji" font-size="20px" fill="#1e1e1e" text-anchor="start" style="white-space: pre;" direction="ltr" dominant-baseline="text-before-edge">1. View upcoming events</text><text x="0" y="75" font-family="Virgil, Segoe UI Emoji" font-size="20px" fill="#1e1e1e" text-anchor="start" style="white-space: pre;" direction="ltr" dominant-baseline="text-before-edge">2. Book tickets to upcoming events</text><text x="0" y="100" font-family="Virgil, Segoe UI Emoji" font-size="20px" fill="#1e1e1e" text-anchor="start" style="white-space: pre;" direction="ltr" dominant-baseline="text-before-edge">3. Search for upcoming events</text><text x="0" y="125" font-family="Virgil, Segoe UI Emoji" font-size="20px" fill="#1e1e1e" text-anchor="start" style="white-space: pre;" direction="ltr" dominant-baseline="text-before-edge"></text><text x="0" y="150" font-family="Virgil, Segoe UI Emoji" font-size="20px" fill="#1e1e1e" text-anchor="start" style="white-space: pre;" direction="ltr" dominant-baseline="text-before-edge">---------------- Below the line -----------------</text><text x="0" y="175" font-family="Virgil, Segoe UI Emoji" font-size="20px" fill="#1e1e1e" text-anchor="start" style="white-space: pre;" direction="ltr" dominant-baseline="text-before-edge"></text><text x="0" y="200" font-family="Virgil, Segoe UI Emoji" font-size="20px" fill="#1e1e1e" text-anchor="start" style="white-space: pre;" direction="ltr" dominant-baseline="text-before-edge">- View their booked tickets</text><text x="0" y="225" font-family="Virgil, Segoe UI Emoji" font-size="20px" fill="#1e1e1e" text-anchor="start" style="white-space: pre;" direction="ltr" dominant-baseline="text-before-edge">- Admins flows (adding/editing/etc)</text><text x="0" y="250" font-family="Virgil, Segoe UI Emoji" font-size="20px" fill="#1e1e1e" text-anchor="start" style="white-space: pre;" direction="ltr" dominant-baseline="text-before-edge">- Dynamic pricing for popular events</text></g><g transform="translate(488.18427747999567 61.01170744600921) rotate(0 341.5597229003906 187.5)"><text x="0" y="0" font-family="Virgil, Segoe UI Emoji" font-size="20px" fill="#1e1e1e" text-anchor="start" style="white-space: pre;" direction="ltr" dominant-baseline="text-before-edge">Non-functional Requirements</text><text x="0" y="25" font-family="Virgil, Segoe UI Emoji" font-size="20px" fill="#1e1e1e" text-anchor="start" style="white-space: pre;" direction="ltr" dominant-baseline="text-before-edge"></text><text x="0" y="50" font-family="Virgil, Segoe UI Emoji" font-size="20px" fill="#1e1e1e" text-anchor="start" style="white-space: pre;" direction="ltr" dominant-baseline="text-before-edge">1. Availability for searching &amp; viewing events, Consistency for booking </text><text x="0" y="75" font-family="Virgil, Segoe UI Emoji" font-size="20px" fill="#1e1e1e" text-anchor="start" style="white-space: pre;" direction="ltr" dominant-baseline="text-before-edge">    events (no double booking)</text><text x="0" y="100" font-family="Virgil, Segoe UI Emoji" font-size="20px" fill="#1e1e1e" text-anchor="start" style="white-space: pre;" direction="ltr" dominant-baseline="text-before-edge">2. Handle popular events</text><text x="0" y="125" font-family="Virgil, Segoe UI Emoji" font-size="20px" fill="#1e1e1e" text-anchor="start" style="white-space: pre;" direction="ltr" dominant-baseline="text-before-edge">3. low latency search (&lt;500ms)</text><text x="0" y="150" font-family="Virgil, Segoe UI Emoji" font-size="20px" fill="#1e1e1e" text-anchor="start" style="white-space: pre;" direction="ltr" dominant-baseline="text-before-edge">3. Read &gt;&gt; write</text><text x="0" y="175" font-family="Virgil, Segoe UI Emoji" font-size="20px" fill="#1e1e1e" text-anchor="start" style="white-space: pre;" direction="ltr" dominant-baseline="text-before-edge"></text><text x="0" y="200" font-family="Virgil, Segoe UI Emoji" font-size="20px" fill="#1e1e1e" text-anchor="start" style="white-space: pre;" direction="ltr" dominant-baseline="text-before-edge">---------------- Below the line -----------------</text><text x="0" y="225" font-family="Virgil, Segoe UI Emoji" font-size="20px" fill="#1e1e1e" text-anchor="start" style="white-space: pre;" direction="ltr" dominant-baseline="text-before-edge"></text><text x="0" y="250" font-family="Virgil, Segoe UI Emoji" font-size="20px" fill="#1e1e1e" text-anchor="start" style="white-space: pre;" direction="ltr" dominant-baseline="text-before-edge">- GDPR</text><text x="0" y="275" font-family="Virgil, Segoe UI Emoji" font-size="20px" fill="#1e1e1e" text-anchor="start" style="white-space: pre;" direction="ltr" dominant-baseline="text-before-edge">- Backups</text><text x="0" y="300" font-family="Virgil, Segoe UI Emoji" font-size="20px" fill="#1e1e1e" text-anchor="start" style="white-space: pre;" direction="ltr" dominant-baseline="text-before-edge">- CI/CD</text><text x="0" y="325" font-family="Virgil, Segoe UI Emoji" font-size="20px" fill="#1e1e1e" text-anchor="start" style="white-space: pre;" direction="ltr" dominant-baseline="text-before-edge">- Fault tolerance</text><text x="0" y="350" font-family="Virgil, Segoe UI Emoji" font-size="20px" fill="#1e1e1e" text-anchor="start" style="white-space: pre;" direction="ltr" dominant-baseline="text-before-edge">- Purchase path security</text></g><g stroke-linecap="round" transform="translate(10.787812517543102 10) rotate(0 390.2385635635384 8.929052660480664)"><path d="M4.46 0 C278.02 -0.26, 551.89 -1.1, 776.01 0 M4.46 0 C205.56 0.15, 406.95 0.08, 776.01 0 M776.01 0 C779.63 -0.89, 781.63 -0.18, 780.48 4.46 M776.01 0 C779.73 0.13, 782.51 -0.17, 780.48 4.46 M780.48 4.46 C780.93 8.07, 780.33 10.53, 780.48 13.39 M780.48 4.46 C779.99 6.96, 780.8 10.31, 780.48 13.39 M780.48 13.39 C780.43 15.31, 780.3 19.35, 776.01 17.86 M780.48 13.39 C780.71 17.14, 777.38 19.4, 776.01 17.86 M776.01 17.86 C619.53 20.92, 464.87 19.52, 4.46 17.86 M776.01 17.86 C596.14 19.33, 416.95 19.61, 4.46 17.86 M4.46 17.86 C1.43 19.5, -1.89 14.92, 0 13.39 M4.46 17.86 C0.58 19.39, 1.16 16.57, 0 13.39 M0 13.39 C0.45 10.99, 0.23 7.63, 0 4.46 M0 13.39 C-0.31 10.95, -0.05 8.64, 0 4.46 M0 4.46 C1.75 3.27, -0.3 1.9, 4.46 0 M0 4.46 C0.82 -0.24, 2.85 -0.42, 4.46 0" stroke="transparent" stroke-width="2" fill="none"></path></g></svg>